<svg width="1274" height="459" viewBox="0 0 1274 459" fill="none" xmlns="http://www.w3.org/2000/svg">
<path d="M22.25 335.014V96.7927C22.25 56.5978 66.8401 32.4335 100.515 54.3791L309.115 190.321C327.6 202.367 327.6 229.44 309.115 241.486L100.515 377.428C66.8401 399.373 22.25 375.209 22.25 335.014Z" fill="#5BCC5A"/>
<path d="M407 296.931V134.873C407 100.905 368.904 80.8647 340.912 100.109L209.086 190.739C191.438 202.873 191.438 228.931 209.086 241.065L340.912 331.695C368.904 350.939 407 330.899 407 296.931Z" fill="#75DC66"/>
<path d="M258.077 157.061L309.117 190.323C327.602 202.369 327.602 229.442 309.117 241.488L258.079 274.748L209.088 241.067C191.439 228.933 191.439 202.874 209.088 190.741L258.077 157.061Z" fill="#0DA84C"/>
<path d="M505.168 285.611C505.168 261.857 510.472 240.639 521.081 221.959C531.92 203.047 546.565 188.403 565.015 178.024C583.696 167.416 604.567 162.111 627.63 162.111C654.613 162.111 678.252 169.03 698.547 182.868C718.842 196.705 733.025 215.847 741.097 240.293H685.401C679.866 228.762 672.025 220.114 661.878 214.348C651.961 208.582 640.43 205.699 627.284 205.699C613.216 205.699 600.647 209.044 589.577 215.732C578.737 222.189 570.204 231.414 563.977 243.407C557.981 255.399 554.983 269.467 554.983 285.611C554.983 301.524 557.981 315.592 563.977 327.815C570.204 339.808 578.737 349.148 589.577 355.836C600.647 362.294 613.216 365.523 627.284 365.523C640.43 365.523 651.961 362.64 661.878 356.874C672.025 350.878 679.866 342.114 685.401 330.583H741.097C733.025 355.26 718.842 374.517 698.547 388.354C678.483 401.961 654.844 408.765 627.63 408.765C604.567 408.765 583.696 403.576 565.015 393.198C546.565 382.589 531.92 367.944 521.081 349.264C510.472 330.583 505.168 309.365 505.168 285.611Z" fill="black"/>
<path d="M900.083 406.689L846.808 312.594H823.976V406.689H775.545V165.225H866.181C884.861 165.225 900.775 168.569 913.92 175.257C927.066 181.714 936.867 190.594 943.325 201.894C950.013 212.964 953.357 225.418 953.357 239.255C953.357 255.169 948.745 269.583 939.52 282.498C930.295 295.182 916.572 303.946 898.353 308.789L956.125 406.689H900.083ZM823.976 276.271H864.451C877.597 276.271 887.398 273.157 893.856 266.93C900.313 260.473 903.542 251.594 903.542 240.293C903.542 229.223 900.313 220.69 893.856 214.694C887.398 208.467 877.597 205.354 864.451 205.354H823.976V276.271Z" fill="black"/>
<path d="M1253.5 165.225V406.689H1205.07V249.634L1140.38 406.689H1103.71L1038.67 249.634V406.689H990.243V165.225H1045.25L1122.04 344.766L1198.84 165.225H1253.5Z" fill="black"/>
<path d="M686.177 76.5291C686.177 79.1194 686.005 81.4507 685.66 83.5229H633.248C633.679 88.7036 635.491 92.7618 638.683 95.6975C641.875 98.6332 645.801 100.101 650.46 100.101C657.189 100.101 661.977 97.2085 664.824 91.4235H684.366C682.295 98.331 678.326 104.03 672.46 108.52C666.593 112.923 659.389 115.125 650.848 115.125C643.946 115.125 637.734 113.614 632.213 110.592C626.777 107.484 622.507 103.123 619.401 97.5107C616.381 91.8984 614.871 85.4225 614.871 78.0833C614.871 70.6576 616.381 64.1386 619.401 58.5262C622.42 52.9139 626.648 48.5966 632.083 45.5746C637.518 42.5525 643.773 41.0415 650.848 41.0415C657.664 41.0415 663.746 42.5094 669.095 45.4451C674.53 48.3808 678.715 52.5685 681.648 58.0082C684.668 63.3615 686.177 69.5352 686.177 76.5291ZM667.413 71.3484C667.326 66.6858 665.644 62.973 662.366 60.21C659.087 57.3606 655.075 55.9359 650.33 55.9359C645.844 55.9359 642.048 57.3174 638.942 60.0804C635.922 62.7571 634.068 66.5131 633.377 71.3484H667.413Z" fill="black"/>
<path d="M766.049 76.5291C766.049 79.1194 765.876 81.4507 765.531 83.5229H713.119C713.551 88.7036 715.362 92.7618 718.555 95.6975C721.747 98.6332 725.672 100.101 730.331 100.101C737.06 100.101 741.849 97.2085 744.696 91.4235H764.237C762.166 98.331 758.198 104.03 752.331 108.52C746.464 112.923 739.26 115.125 730.719 115.125C723.817 115.125 717.606 113.614 712.084 110.592C706.649 107.484 702.378 103.123 699.272 97.5107C696.253 91.8984 694.743 85.4225 694.743 78.0833C694.743 70.6576 696.253 64.1386 699.272 58.5262C702.292 52.9139 706.519 48.5966 711.955 45.5746C717.39 42.5525 723.645 41.0415 730.719 41.0415C737.535 41.0415 743.617 42.5094 748.966 45.4451C754.402 48.3808 758.586 52.5685 761.519 58.0082C764.539 63.3615 766.049 69.5352 766.049 76.5291ZM747.284 71.3484C747.198 66.6858 745.515 62.973 742.237 60.21C738.958 57.3606 734.947 55.9359 730.202 55.9359C725.715 55.9359 721.919 57.3174 718.813 60.0804C715.794 62.7571 713.939 66.5131 713.249 71.3484H747.284Z" fill="black"/>
<path d="M800.667 56.9622V91.9846C800.667 94.4022 801.305 95.9996 802.427 97.1221C803.634 98.1582 805.619 98.6763 808.379 98.6763H816.791V113.959H805.403C790.132 113.959 782.826 106.149 782.826 91.2979V56.9622H773.22V41.8545H782.826V24H800.667V41.8545H816.791V56.9622H800.667Z" fill="black"/>
<path d="M861.281 115.125C854.379 115.125 848.167 113.614 842.645 110.592C837.124 107.484 832.767 103.123 829.575 97.5107C826.469 91.8984 824.916 85.4225 824.916 78.0833C824.916 70.744 826.512 64.2681 829.704 58.6558C832.983 53.0434 837.426 48.7261 843.033 45.7041C848.641 42.5957 854.896 41.0415 861.798 41.0415C868.7 41.0415 874.955 42.5957 880.563 45.7041C886.171 48.7261 890.571 53.0434 893.763 58.6558C897.041 64.2681 898.681 70.744 898.681 78.0833C898.681 85.4225 896.998 91.8984 893.633 97.5107C890.355 103.123 885.869 107.484 880.175 110.592C874.567 113.614 868.269 115.125 861.281 115.125ZM861.281 99.324C864.559 99.324 867.622 98.5469 870.469 96.9927C873.402 95.3521 875.732 92.9345 877.457 89.7397C879.183 86.545 880.045 82.6595 880.045 78.0833C880.045 71.262 878.233 66.0382 874.61 62.4117C871.073 58.6989 866.716 56.8425 861.539 56.8425C856.363 56.8425 852.006 58.6989 848.469 62.4117C845.018 66.0382 843.292 71.262 843.292 78.0833C843.292 84.9045 844.975 90.1715 848.339 93.8843C851.79 97.5107 856.104 99.324 861.281 99.324Z" fill="black"/>
<path d="M599.569 24H564.788L599.569 76.1708V24Z" fill="black"/>
<path d="M513.312 115.125L513.313 24H538.429L599.569 115.125H573.72L533.486 55.9981V115.125H513.312Z" fill="black"/>
</svg>
