<svg width="1920" height="459" viewBox="0 0 1920 459" fill="none" xmlns="http://www.w3.org/2000/svg">
<g clip-path="url(#clip0_746_2538)">
<path fill-rule="evenodd" clip-rule="evenodd" d="M185.337 330.423C268.193 330.423 335.361 263.255 335.361 180.399C335.361 97.5431 268.193 30.375 185.337 30.375C102.481 30.375 35.3125 97.5431 35.3125 180.399C35.3125 263.255 102.481 330.423 185.337 330.423ZM185.338 251.412C224.559 251.412 256.355 219.616 256.355 180.394C256.355 141.172 224.559 109.377 185.338 109.377C146.116 109.377 114.32 141.172 114.32 180.394C114.32 219.616 146.116 251.412 185.338 251.412Z" fill="#5BCC5A"/>
<path d="M186.88 193.189C184.445 186.207 191.152 179.5 198.135 181.934L397.912 251.581C405.61 254.265 405.879 265.054 398.323 268.117L312.667 302.852C310.452 303.75 308.696 305.507 307.798 307.721L273.063 393.378C269.999 400.933 259.211 400.664 256.527 392.966L186.88 193.189Z" fill="#75DC66"/>
<path fill-rule="evenodd" clip-rule="evenodd" d="M327.922 227.165L253.268 201.139C246.395 223.664 228.625 241.437 206.102 248.315L232.128 322.97C277.351 308.137 313.095 272.39 327.922 227.165Z" fill="#0DA84C"/>
</g>
<path d="M566.615 165.225V406.69H518.184V165.225H566.615Z" fill="black"/>
<path d="M713.749 212.273C736.581 212.273 755.031 219.537 769.099 234.067C783.167 248.366 790.201 268.43 790.201 294.26V406.69H741.77V300.833C741.77 285.611 737.965 273.965 730.354 265.893C722.743 257.591 712.365 253.439 699.22 253.439C685.843 253.439 675.235 257.591 667.393 265.893C659.783 273.965 655.978 285.611 655.978 300.833V406.69H607.546V215.04H655.978V238.91C662.435 230.607 670.622 224.15 680.539 219.537C690.687 214.694 701.757 212.273 713.749 212.273Z" fill="black"/>
<path d="M909.25 362.064L957.681 215.04H1009.23L938.309 406.69H879.499L808.928 215.04H860.818L909.25 362.064Z" fill="black"/>
<path d="M1054.07 192.208C1045.54 192.208 1038.39 189.556 1032.62 184.252C1027.09 178.717 1024.32 171.913 1024.32 163.841C1024.32 155.77 1027.09 149.081 1032.62 143.777C1038.39 138.242 1045.54 135.475 1054.07 135.475C1062.6 135.475 1069.64 138.242 1075.17 143.777C1080.94 149.081 1083.82 155.77 1083.82 163.841C1083.82 171.913 1080.94 178.717 1075.17 184.252C1069.64 189.556 1062.6 192.208 1054.07 192.208ZM1077.94 215.04V406.69H1029.51V215.04H1077.94Z" fill="black"/>
<path d="M1192.21 409.803C1176.53 409.803 1162.46 407.036 1150.01 401.501C1137.55 395.735 1127.64 388.009 1120.26 378.323C1113.11 368.636 1109.19 357.912 1108.49 346.151H1157.27C1158.19 353.531 1161.77 359.642 1167.99 364.485C1174.45 369.328 1182.41 371.75 1191.86 371.75C1201.09 371.75 1208.24 369.905 1213.31 366.215C1218.62 362.525 1221.27 357.797 1221.27 352.031C1221.27 345.805 1218.04 341.192 1211.58 338.194C1205.36 334.965 1195.32 331.506 1181.49 327.816C1167.19 324.356 1155.43 320.782 1146.2 317.092C1137.21 313.402 1129.37 307.751 1122.68 300.141C1116.22 292.53 1112.99 282.267 1112.99 269.352C1112.99 258.744 1115.99 249.057 1121.99 240.294C1128.21 231.53 1136.98 224.611 1148.28 219.537C1159.81 214.464 1173.3 211.927 1188.75 211.927C1211.58 211.927 1229.8 217.692 1243.41 229.224C1257.02 240.524 1264.51 255.861 1265.9 275.233H1219.54C1218.85 267.623 1215.62 261.626 1209.85 257.245C1204.32 252.632 1196.82 250.326 1187.37 250.326C1178.6 250.326 1171.8 251.94 1166.96 255.169C1162.34 258.398 1160.04 262.895 1160.04 268.661C1160.04 275.118 1163.27 280.076 1169.72 283.536C1176.18 286.765 1186.21 290.109 1199.82 293.568C1213.66 297.027 1225.07 300.602 1234.07 304.292C1243.06 307.982 1250.79 313.748 1257.25 321.589C1263.93 329.2 1267.39 339.347 1267.62 352.031C1267.62 363.101 1264.51 373.018 1258.28 381.782C1252.29 390.546 1243.52 397.465 1231.99 402.538C1220.69 407.381 1207.43 409.803 1192.21 409.803Z" fill="black"/>
<path d="M1325.02 192.208C1316.49 192.208 1309.34 189.556 1303.58 184.252C1298.04 178.717 1295.27 171.913 1295.27 163.841C1295.27 155.77 1298.04 149.081 1303.58 143.777C1309.34 138.242 1316.49 135.475 1325.02 135.475C1333.56 135.475 1340.59 138.242 1346.13 143.777C1351.89 149.081 1354.77 155.77 1354.77 163.841C1354.77 171.913 1351.89 178.717 1346.13 184.252C1340.59 189.556 1333.56 192.208 1325.02 192.208ZM1348.89 215.04V406.69H1300.46V215.04H1348.89Z" fill="black"/>
<path d="M1438.26 243.061C1444.48 233.836 1453.02 226.341 1463.86 220.575C1474.93 214.81 1487.49 211.927 1501.56 211.927C1517.94 211.927 1532.7 215.963 1545.84 224.035C1559.22 232.106 1569.71 243.638 1577.32 258.628C1585.16 273.388 1589.08 290.57 1589.08 310.173C1589.08 329.776 1585.16 347.188 1577.32 362.41C1569.71 377.4 1559.22 389.047 1545.84 397.349C1532.7 405.652 1517.94 409.803 1501.56 409.803C1487.26 409.803 1474.69 407.036 1463.86 401.501C1453.25 395.735 1444.71 388.355 1438.26 379.361V406.69H1389.82V150.696H1438.26V243.061ZM1539.62 310.173C1539.62 298.642 1537.19 288.725 1532.35 280.422C1527.74 271.889 1521.51 265.432 1513.67 261.05C1506.06 256.668 1497.76 254.477 1488.76 254.477C1480 254.477 1471.7 256.783 1463.86 261.396C1456.24 265.778 1450.02 272.235 1445.17 280.768C1440.56 289.301 1438.26 299.334 1438.26 310.865C1438.26 322.396 1440.56 332.428 1445.17 340.961C1450.02 349.495 1456.24 356.067 1463.86 360.68C1471.7 365.062 1480 367.253 1488.76 367.253C1497.76 367.253 1506.06 364.946 1513.67 360.334C1521.51 355.721 1527.74 349.149 1532.35 340.616C1537.19 332.082 1539.62 321.935 1539.62 310.173Z" fill="black"/>
<path d="M1665.79 150.696V406.69H1617.36V150.696H1665.79Z" fill="black"/>
<path d="M1884.88 306.714C1884.88 313.632 1884.42 319.859 1883.5 325.394H1743.39C1744.54 339.232 1749.39 350.071 1757.92 357.912C1766.45 365.754 1776.95 369.674 1789.4 369.674C1807.39 369.674 1820.19 361.948 1827.8 346.496H1880.04C1874.5 364.946 1863.89 380.168 1848.21 392.16C1832.53 403.922 1813.27 409.803 1790.44 409.803C1771.99 409.803 1755.38 405.767 1740.62 397.695C1726.09 389.393 1714.68 377.746 1706.38 362.756C1698.3 347.765 1694.27 330.468 1694.27 310.865C1694.27 291.031 1698.3 273.619 1706.38 258.628C1714.45 243.638 1725.75 232.106 1740.28 224.035C1754.81 215.963 1771.53 211.927 1790.44 211.927C1808.66 211.927 1824.92 215.847 1839.22 223.689C1853.75 231.53 1864.93 242.715 1872.77 257.245C1880.84 271.543 1884.88 288.033 1884.88 306.714ZM1834.72 292.876C1834.49 280.422 1829.99 270.506 1821.23 263.126C1812.46 255.515 1801.74 251.71 1789.06 251.71C1777.06 251.71 1766.92 255.4 1758.61 262.78C1750.54 269.929 1745.58 279.961 1743.74 292.876H1834.72Z" fill="black"/>
<path d="M688.74 76.5291C688.74 79.1194 688.567 81.4507 688.222 83.5229H635.81C636.242 88.7036 638.054 92.7618 641.246 95.6975C644.438 98.6332 648.363 100.101 653.022 100.101C659.752 100.101 664.54 97.2085 667.387 91.4235H686.928C684.857 98.331 680.889 104.03 675.022 108.52C669.156 112.923 661.952 115.125 653.41 115.125C646.508 115.125 640.297 113.614 634.775 110.592C629.34 107.484 625.069 103.123 621.963 97.5107C618.944 91.8984 617.434 85.4225 617.434 78.0833C617.434 70.6576 618.944 64.1386 621.963 58.5262C624.983 52.9139 629.21 48.5966 634.646 45.5746C640.081 42.5525 646.336 41.0415 653.41 41.0415C660.226 41.0415 666.308 42.5094 671.657 45.4451C677.093 48.3808 681.277 52.5685 684.21 58.0082C687.23 63.3615 688.74 69.5352 688.74 76.5291ZM669.975 71.3484C669.889 66.6858 668.206 62.973 664.928 60.21C661.65 57.3606 657.638 55.9359 652.893 55.9359C648.406 55.9359 644.61 57.3174 641.505 60.0804C638.485 62.7571 636.63 66.5131 635.94 71.3484H669.975Z" fill="black"/>
<path d="M768.611 76.5291C768.611 79.1194 768.439 81.4507 768.093 83.5229H715.682C716.113 88.7036 717.925 92.7618 721.117 95.6975C724.309 98.6332 728.235 100.101 732.894 100.101C739.623 100.101 744.411 97.2085 747.258 91.4235H766.799C764.729 98.331 760.76 104.03 754.894 108.52C749.027 112.923 741.823 115.125 733.282 115.125C726.38 115.125 720.168 113.614 714.646 110.592C709.211 107.484 704.941 103.123 701.835 97.5107C698.815 91.8984 697.305 85.4225 697.305 78.0833C697.305 70.6576 698.815 64.1386 701.835 58.5262C704.854 52.9139 709.082 48.5966 714.517 45.5746C719.952 42.5525 726.207 41.0415 733.282 41.0415C740.097 41.0415 746.18 42.5094 751.529 45.4451C756.964 48.3808 761.148 52.5685 764.082 58.0082C767.101 63.3615 768.611 69.5352 768.611 76.5291ZM749.846 71.3484C749.76 66.6858 748.078 62.973 744.799 60.21C741.521 57.3606 737.509 55.9359 732.764 55.9359C728.278 55.9359 724.482 57.3174 721.376 60.0804C718.356 62.7571 716.501 66.5131 715.811 71.3484H749.846Z" fill="black"/>
<path d="M803.229 56.9622V91.9846C803.229 94.4022 803.867 95.9996 804.989 97.1221C806.197 98.1582 808.181 98.6763 810.942 98.6763H819.354V113.959H807.966C792.695 113.959 785.389 106.149 785.389 91.2979V56.9622H775.783V41.8545H785.389V24H803.229V41.8545H819.354V56.9622H803.229Z" fill="black"/>
<path d="M863.843 115.125C856.941 115.125 850.729 113.614 845.208 110.592C839.686 107.484 835.329 103.123 832.137 97.5107C829.031 91.8984 827.478 85.4225 827.478 78.0833C827.478 70.744 829.074 64.2681 832.267 58.6558C835.545 53.0434 839.988 48.7261 845.596 45.7041C851.204 42.5957 857.459 41.0415 864.361 41.0415C871.263 41.0415 877.518 42.5957 883.125 45.7041C888.733 48.7261 893.133 53.0434 896.325 58.6558C899.604 64.2681 901.243 70.744 901.243 78.0833C901.243 85.4225 899.561 91.8984 896.196 97.5107C892.918 103.123 888.431 107.484 882.737 110.592C877.129 113.614 870.831 115.125 863.843 115.125ZM863.843 99.324C867.121 99.324 870.184 98.5469 873.031 96.9927C875.965 95.3521 878.294 92.9345 880.02 89.7397C881.745 86.545 882.608 82.6595 882.608 78.0833C882.608 71.262 880.796 66.0382 877.172 62.4117C873.635 58.6989 869.278 56.8425 864.102 56.8425C858.925 56.8425 854.569 58.6989 851.031 62.4117C847.58 66.0382 845.855 71.262 845.855 78.0833C845.855 84.9045 847.537 90.1715 850.902 93.8843C854.353 97.5107 858.667 99.324 863.843 99.324Z" fill="black"/>
<path d="M602.131 24H567.351L602.131 76.1708V24Z" fill="black"/>
<path d="M515.875 115.125L515.875 24H540.992L602.131 115.125H576.282L536.048 55.9981V115.125H515.875Z" fill="black"/>
<defs>
<clipPath id="clip0_746_2538">
<rect width="384.75" height="384.75" fill="white" transform="translate(23.5 23.625)"/>
</clipPath>
</defs>
</svg>
