<svg width="1055" height="432" viewBox="0 0 1055 432" fill="none" xmlns="http://www.w3.org/2000/svg">
<path d="M304.806 267.158C304.806 344.217 242.337 406.686 165.278 406.686C88.2187 406.686 25.75 344.217 25.75 267.158C25.75 190.099 88.2187 127.63 165.278 127.63C242.337 127.63 304.806 190.099 304.806 267.158Z" fill="#5BCC5A"/>
<path d="M407.125 164.84C407.125 241.899 344.656 304.368 267.597 304.368C190.538 304.368 128.069 241.899 128.069 164.84C128.069 87.7812 190.538 25.3125 267.597 25.3125C344.656 25.3125 407.125 87.7812 407.125 164.84Z" fill="#75DC66"/>
<path d="M132.052 131.617C142.701 129.015 153.829 127.636 165.279 127.636C242.338 127.636 304.807 190.105 304.807 267.164C304.807 278.615 303.427 289.744 300.826 300.393C290.177 302.995 279.049 304.374 267.598 304.374C190.539 304.374 128.07 241.905 128.07 164.846C128.07 153.395 129.45 142.266 132.052 131.617Z" fill="#0DA84C"/>
<path d="M512.043 285.611C512.043 261.857 517.347 240.639 527.956 221.959C538.795 203.047 553.44 188.403 571.89 178.024C590.571 167.416 611.442 162.111 634.505 162.111C661.488 162.111 685.127 169.03 705.422 182.868C725.717 196.705 739.9 215.847 747.972 240.293H692.276C686.741 228.762 678.9 220.114 668.753 214.348C658.836 208.582 647.305 205.699 634.159 205.699C620.091 205.699 607.522 209.044 596.452 215.732C585.612 222.189 577.079 231.414 570.852 243.407C564.856 255.399 561.858 269.467 561.858 285.611C561.858 301.524 564.856 315.592 570.852 327.815C577.079 339.808 585.612 349.148 596.452 355.836C607.522 362.294 620.091 365.523 634.159 365.523C647.305 365.523 658.836 362.64 668.753 356.874C678.9 350.878 686.741 342.114 692.276 330.583H747.972C739.9 355.26 725.717 374.517 705.422 388.354C685.358 401.961 661.719 408.765 634.505 408.765C611.442 408.765 590.571 403.576 571.89 393.198C553.44 382.589 538.795 367.944 527.956 349.264C517.347 330.583 512.043 309.365 512.043 285.611Z" fill="black"/>
<path d="M830.851 165.225V406.689H782.42V165.225H830.851Z" fill="black"/>
<path d="M689.302 76.5291C689.302 79.1194 689.13 81.4507 688.785 83.5229H636.373C636.804 88.7036 638.616 92.7618 641.808 95.6975C645 98.6332 648.926 100.101 653.585 100.101C660.314 100.101 665.102 97.2085 667.949 91.4235H687.491C685.42 98.331 681.451 104.03 675.585 108.52C669.718 112.923 662.514 115.125 653.973 115.125C647.071 115.125 640.859 113.614 635.338 110.592C629.902 107.484 625.632 103.123 622.526 97.5107C619.506 91.8984 617.996 85.4225 617.996 78.0833C617.996 70.6576 619.506 64.1386 622.526 58.5262C625.545 52.9139 629.773 48.5966 635.208 45.5746C640.643 42.5525 646.898 41.0415 653.973 41.0415C660.789 41.0415 666.871 42.5094 672.22 45.4451C677.655 48.3808 681.84 52.5685 684.773 58.0082C687.793 63.3615 689.302 69.5352 689.302 76.5291ZM670.538 71.3484C670.451 66.6858 668.769 62.973 665.491 60.21C662.212 57.3606 658.2 55.9359 653.455 55.9359C648.969 55.9359 645.173 57.3174 642.067 60.0804C639.047 62.7571 637.193 66.5131 636.502 71.3484H670.538Z" fill="black"/>
<path d="M769.174 76.5291C769.174 79.1194 769.001 81.4507 768.656 83.5229H716.244C716.676 88.7036 718.487 92.7618 721.68 95.6975C724.872 98.6332 728.797 100.101 733.456 100.101C740.185 100.101 744.974 97.2085 747.821 91.4235H767.362C765.291 98.331 761.323 104.03 755.456 108.52C749.589 112.923 742.385 115.125 733.844 115.125C726.942 115.125 720.731 113.614 715.209 110.592C709.774 107.484 705.503 103.123 702.397 97.5107C699.378 91.8984 697.868 85.4225 697.868 78.0833C697.868 70.6576 699.378 64.1386 702.397 58.5262C705.417 52.9139 709.644 48.5966 715.08 45.5746C720.515 42.5525 726.77 41.0415 733.844 41.0415C740.66 41.0415 746.742 42.5094 752.091 45.4451C757.527 48.3808 761.711 52.5685 764.644 58.0082C767.664 63.3615 769.174 69.5352 769.174 76.5291ZM750.409 71.3484C750.323 66.6858 748.64 62.973 745.362 60.21C742.083 57.3606 738.072 55.9359 733.327 55.9359C728.84 55.9359 725.044 57.3174 721.938 60.0804C718.919 62.7571 717.064 66.5131 716.374 71.3484H750.409Z" fill="black"/>
<path d="M803.792 56.9622V91.9846C803.792 94.4022 804.43 95.9996 805.552 97.1221C806.759 98.1582 808.744 98.6763 811.504 98.6763H819.916V113.959H808.528C793.257 113.959 785.951 106.149 785.951 91.2979V56.9622H776.345V41.8545H785.951V24H803.792V41.8545H819.916V56.9622H803.792Z" fill="black"/>
<path d="M864.406 115.125C857.504 115.125 851.292 113.614 845.77 110.592C840.249 107.484 835.892 103.123 832.7 97.5107C829.594 91.8984 828.041 85.4225 828.041 78.0833C828.041 70.744 829.637 64.2681 832.829 58.6558C836.108 53.0434 840.551 48.7261 846.158 45.7041C851.766 42.5957 858.021 41.0415 864.923 41.0415C871.825 41.0415 878.08 42.5957 883.688 45.7041C889.296 48.7261 893.696 53.0434 896.888 58.6558C900.166 64.2681 901.806 70.744 901.806 78.0833C901.806 85.4225 900.123 91.8984 896.758 97.5107C893.48 103.123 888.994 107.484 883.3 110.592C877.692 113.614 871.394 115.125 864.406 115.125ZM864.406 99.324C867.684 99.324 870.747 98.5469 873.594 96.9927C876.527 95.3521 878.857 92.9345 880.582 89.7397C882.308 86.545 883.17 82.6595 883.17 78.0833C883.17 71.262 881.358 66.0382 877.735 62.4117C874.198 58.6989 869.841 56.8425 864.664 56.8425C859.488 56.8425 855.131 58.6989 851.594 62.4117C848.143 66.0382 846.417 71.262 846.417 78.0833C846.417 84.9045 848.1 90.1715 851.464 93.8843C854.915 97.5107 859.229 99.324 864.406 99.324Z" fill="black"/>
<path d="M602.694 24H567.913L602.694 76.1708V24Z" fill="black"/>
<path d="M516.438 115.125L516.438 24H541.554L602.694 115.125H576.845L536.611 55.9981V115.125H516.438Z" fill="black"/>
</svg>
