<svg width="1708" height="432" viewBox="0 0 1708 432" fill="none" xmlns="http://www.w3.org/2000/svg">
<g clip-path="url(#clip0_746_2296)">
<path d="M65.8125 280.125L65.8125 23.625L232.875 23.625C303.706 23.625 361.125 81.0445 361.125 151.875C361.125 222.705 303.706 280.125 232.875 280.125H65.8125Z" fill="#5BCC5A"/>
<path d="M65.8125 23.625L361.048 408.375H164.225L65.8125 280.125L65.8125 23.625Z" fill="#75DC66"/>
<path d="M65.8125 23.625L260.37 277.171C251.512 279.106 242.313 280.125 232.875 280.125H65.8125L65.8125 23.625Z" fill="#0DA84C"/>
</g>
<path d="M641.159 406.313L587.884 312.218H565.052V406.313H516.621V164.849H607.257C625.937 164.849 641.85 168.193 654.996 174.881C668.142 181.338 677.943 190.217 684.401 201.518C691.089 212.588 694.433 225.042 694.433 238.879C694.433 254.792 689.82 269.207 680.595 282.122C671.37 294.806 657.648 303.57 639.429 308.413L697.2 406.313H641.159ZM565.052 275.895H605.527C618.673 275.895 628.474 272.781 634.932 266.554C641.389 260.097 644.618 251.218 644.618 239.917C644.618 228.847 641.389 220.314 634.932 214.318C628.474 208.091 618.673 204.977 605.527 204.977H565.052V275.895Z" fill="black"/>
<path d="M909.476 306.337C909.476 313.256 909.015 319.483 908.093 325.018H767.988C769.141 338.855 773.984 349.695 782.517 357.536C791.05 365.377 801.544 369.298 813.998 369.298C831.986 369.298 844.786 361.572 852.397 346.12H904.633C899.098 364.57 888.489 379.791 872.807 391.784C857.124 403.546 837.867 409.427 815.035 409.427C796.585 409.427 779.98 405.391 765.22 397.319C750.691 389.016 739.275 377.37 730.973 362.379C722.901 347.388 718.865 330.092 718.865 310.488C718.865 290.655 722.901 273.242 730.973 258.252C739.044 243.261 750.345 231.73 764.874 223.658C779.404 215.586 796.124 211.55 815.035 211.55C833.255 211.55 849.514 215.471 863.813 223.312C878.342 231.153 889.527 242.339 897.369 256.868C905.44 271.167 909.476 287.657 909.476 306.337ZM859.315 292.5C859.085 280.046 854.588 270.129 845.824 262.749C837.06 255.138 826.336 251.333 813.652 251.333C801.659 251.333 791.512 255.023 783.209 262.403C775.137 269.552 770.179 279.585 768.334 292.5H859.315Z" fill="black"/>
<path d="M925.454 310.488C925.454 290.655 929.49 273.358 937.562 258.598C945.634 243.607 956.819 232.076 971.118 224.004C985.417 215.702 1001.79 211.55 1020.24 211.55C1044 211.55 1063.6 217.547 1079.05 229.539C1094.73 241.301 1105.23 257.906 1110.53 279.354H1058.29C1055.53 271.052 1050.8 264.594 1044.11 259.982C1037.65 255.138 1029.58 252.717 1019.9 252.717C1006.06 252.717 995.103 257.791 987.031 267.938C978.959 277.855 974.923 292.038 974.923 310.488C974.923 328.708 978.959 342.891 987.031 353.039C995.103 362.956 1006.06 367.914 1019.9 367.914C1039.5 367.914 1052.3 359.15 1058.29 341.623H1110.53C1105.23 362.379 1094.73 378.869 1079.05 391.092C1063.37 403.315 1043.76 409.427 1020.24 409.427C1001.79 409.427 985.417 405.391 971.118 397.319C956.819 389.016 945.634 377.485 937.562 362.725C929.49 347.734 925.454 330.322 925.454 310.488Z" fill="black"/>
<path d="M1224.19 409.427C1205.74 409.427 1189.14 405.391 1174.38 397.319C1159.62 389.016 1147.97 377.37 1139.44 362.379C1131.14 347.388 1126.98 330.092 1126.98 310.488C1126.98 290.885 1131.25 273.588 1139.78 258.598C1148.55 243.607 1160.43 232.076 1175.42 224.004C1190.41 215.702 1207.13 211.55 1225.58 211.55C1244.03 211.55 1260.75 215.702 1275.74 224.004C1290.73 232.076 1302.49 243.607 1311.02 258.598C1319.79 273.588 1324.17 290.885 1324.17 310.488C1324.17 330.092 1319.67 347.388 1310.68 362.379C1301.91 377.37 1289.92 389.016 1274.7 397.319C1259.71 405.391 1242.87 409.427 1224.19 409.427ZM1224.19 367.222C1232.96 367.222 1241.14 365.147 1248.75 360.995C1256.6 356.613 1262.82 350.156 1267.44 341.623C1272.05 333.09 1274.35 322.712 1274.35 310.488C1274.35 292.269 1269.51 278.316 1259.82 268.63C1250.37 258.713 1238.72 253.755 1224.88 253.755C1211.05 253.755 1199.4 258.713 1189.95 268.63C1180.72 278.316 1176.11 292.269 1176.11 310.488C1176.11 328.708 1180.6 342.776 1189.6 352.693C1198.82 362.379 1210.36 367.222 1224.19 367.222Z" fill="black"/>
<path d="M1401.21 244.414C1407.43 234.267 1415.51 226.31 1425.42 220.545C1435.57 214.779 1447.1 211.896 1460.02 211.896V262.749H1447.22C1432 262.749 1420.46 266.324 1412.62 273.473C1405.01 280.622 1401.21 293.076 1401.21 310.834V406.313H1352.78V214.664H1401.21V244.414Z" fill="black"/>
<path d="M1473.27 309.797C1473.27 290.424 1477.07 273.242 1484.68 258.252C1492.52 243.261 1503.13 231.73 1516.51 223.658C1529.88 215.586 1544.76 211.55 1561.13 211.55C1573.59 211.55 1585.46 214.318 1596.77 219.853C1608.07 225.157 1617.06 232.307 1623.75 241.301V150.319H1672.87V406.313H1623.75V377.946C1617.75 387.402 1609.33 395.012 1598.49 400.778C1587.66 406.544 1575.09 409.427 1560.79 409.427C1544.64 409.427 1529.88 405.275 1516.51 396.973C1503.13 388.67 1492.52 377.024 1484.68 362.033C1477.07 346.812 1473.27 329.4 1473.27 309.797ZM1624.09 310.488C1624.09 298.727 1621.79 288.694 1617.18 280.392C1612.56 271.859 1606.34 265.401 1598.49 261.019C1590.65 256.407 1582.24 254.101 1573.24 254.101C1564.25 254.101 1555.94 256.292 1548.33 260.673C1540.72 265.055 1534.5 271.513 1529.65 280.046C1525.04 288.348 1522.73 298.265 1522.73 309.797C1522.73 321.328 1525.04 331.475 1529.65 340.239C1534.5 348.772 1540.72 355.345 1548.33 359.957C1556.17 364.57 1564.48 366.876 1573.24 366.876C1582.24 366.876 1590.65 364.685 1598.49 360.303C1606.34 355.691 1612.56 349.233 1617.18 340.931C1621.79 332.398 1624.09 322.25 1624.09 310.488Z" fill="black"/>
<path d="M685.865 76.5291C685.865 79.1194 685.692 81.4507 685.347 83.5229H632.935C633.367 88.7036 635.179 92.7618 638.371 95.6975C641.563 98.6332 645.488 100.101 650.147 100.101C656.877 100.101 661.665 97.2085 664.512 91.4235H684.053C681.982 98.331 678.014 104.03 672.147 108.52C666.281 112.923 659.077 115.125 650.535 115.125C643.633 115.125 637.422 113.614 631.9 110.592C626.465 107.484 622.194 103.123 619.088 97.5107C616.069 91.8984 614.559 85.4225 614.559 78.0833C614.559 70.6576 616.069 64.1386 619.088 58.5262C622.108 52.9139 626.335 48.5966 631.771 45.5746C637.206 42.5525 643.461 41.0415 650.535 41.0415C657.351 41.0415 663.433 42.5094 668.782 45.4451C674.218 48.3808 678.402 52.5685 681.335 58.0082C684.355 63.3615 685.865 69.5352 685.865 76.5291ZM667.1 71.3484C667.014 66.6858 665.331 62.973 662.053 60.21C658.775 57.3606 654.763 55.9359 650.018 55.9359C645.531 55.9359 641.735 57.3174 638.63 60.0804C635.61 62.7571 633.755 66.5131 633.065 71.3484H667.1Z" fill="black"/>
<path d="M765.736 76.5291C765.736 79.1194 765.564 81.4507 765.219 83.5229H712.807C713.238 88.7036 715.05 92.7618 718.242 95.6975C721.434 98.6332 725.36 100.101 730.019 100.101C736.748 100.101 741.536 97.2085 744.383 91.4235H763.924C761.854 98.331 757.885 104.03 752.019 108.52C746.152 112.923 738.948 115.125 730.407 115.125C723.505 115.125 717.293 113.614 711.771 110.592C706.336 107.484 702.066 103.123 698.96 97.5107C695.94 91.8984 694.43 85.4225 694.43 78.0833C694.43 70.6576 695.94 64.1386 698.96 58.5262C701.979 52.9139 706.207 48.5966 711.642 45.5746C717.077 42.5525 723.332 41.0415 730.407 41.0415C737.222 41.0415 743.305 42.5094 748.654 45.4451C754.089 48.3808 758.273 52.5685 761.207 58.0082C764.226 63.3615 765.736 69.5352 765.736 76.5291ZM746.971 71.3484C746.885 66.6858 745.203 62.973 741.924 60.21C738.646 57.3606 734.634 55.9359 729.889 55.9359C725.403 55.9359 721.607 57.3174 718.501 60.0804C715.481 62.7571 713.626 66.5131 712.936 71.3484H746.971Z" fill="black"/>
<path d="M800.354 56.9622V91.9846C800.354 94.4022 800.992 95.9996 802.114 97.1221C803.322 98.1582 805.306 98.6763 808.067 98.6763H816.479V113.959H805.091C789.82 113.959 782.514 106.149 782.514 91.2979V56.9622H772.908V41.8545H782.514V24H800.354V41.8545H816.479V56.9622H800.354Z" fill="black"/>
<path d="M860.968 115.125C854.066 115.125 847.854 113.614 842.333 110.592C836.811 107.484 832.454 103.123 829.262 97.5107C826.156 91.8984 824.603 85.4225 824.603 78.0833C824.603 70.744 826.199 64.2681 829.392 58.6558C832.67 53.0434 837.113 48.7261 842.721 45.7041C848.329 42.5957 854.584 41.0415 861.486 41.0415C868.388 41.0415 874.643 42.5957 880.25 45.7041C885.858 48.7261 890.258 53.0434 893.45 58.6558C896.729 64.2681 898.368 70.744 898.368 78.0833C898.368 85.4225 896.686 91.8984 893.321 97.5107C890.043 103.123 885.556 107.484 879.862 110.592C874.254 113.614 867.956 115.125 860.968 115.125ZM860.968 99.324C864.247 99.324 867.309 98.5469 870.156 96.9927C873.09 95.3521 875.419 92.9345 877.145 89.7397C878.87 86.545 879.733 82.6595 879.733 78.0833C879.733 71.262 877.921 66.0382 874.297 62.4117C870.76 58.6989 866.403 56.8425 861.227 56.8425C856.05 56.8425 851.694 58.6989 848.156 62.4117C844.705 66.0382 842.98 71.262 842.98 78.0833C842.98 84.9045 844.662 90.1715 848.027 93.8843C851.478 97.5107 855.792 99.324 860.968 99.324Z" fill="black"/>
<path d="M599.256 24H564.476L599.256 76.1708V24Z" fill="black"/>
<path d="M513 115.125L513 24H538.117L599.256 115.125H573.407L533.173 55.9981V115.125H513Z" fill="black"/>
<defs>
<clipPath id="clip0_746_2296">
<rect width="384.75" height="384.75" fill="white" transform="translate(21.9375 23.625)"/>
</clipPath>
</defs>
</svg>
