<svg width="1266" height="320" viewBox="0 0 1266 320" fill="none" xmlns="http://www.w3.org/2000/svg">
<path fill-rule="evenodd" clip-rule="evenodd" d="M129.37 62.7416H8.86969L68.4915 122.363H129.37C167.737 122.363 198.805 153.278 198.805 191.371V319.999H258.739V191.371C258.739 120.312 200.799 62.7416 129.37 62.7416ZM59.9339 131.045L0 71.1109V319.999H59.9339V131.045ZM522.001 277.941L483.97 237.909L481.69 240.097C468.493 252.766 446.376 265.003 415.809 265.003C394.319 265.003 377.753 259.56 365.778 250.139C354.715 241.437 347.321 229.147 343.653 214.004H536.052L536.194 211.007C538.217 168.303 527.498 131.231 505.579 104.778C483.614 78.2684 450.66 62.7416 408.933 62.7416C335.238 62.7416 277.696 117.939 277.696 191.383C277.696 228.28 291.303 260.495 315.566 283.475C339.822 306.447 374.519 319.999 416.387 319.999C465.284 319.999 496.953 303.035 519.836 280.109L522.001 277.941ZM799.697 277.941L761.666 237.909L759.387 240.097C746.189 252.766 724.072 265.003 693.506 265.003C672.015 265.003 655.45 259.56 643.474 250.139C632.411 241.437 625.017 229.147 621.349 214.004H813.748L813.89 211.007C815.913 168.303 805.194 131.231 783.275 104.778C761.31 78.2684 728.356 62.7416 686.629 62.7416C612.934 62.7416 555.393 117.939 555.393 191.383C555.393 228.28 569 260.495 593.263 283.475C617.518 306.447 652.215 319.999 694.083 319.999C742.981 319.999 774.649 303.035 797.532 280.109L799.697 277.941ZM875.418 64.9051H833.089V119.848H875.418V215.787C875.418 254.526 881.108 280.934 897.23 297.496C913.377 314.083 939.204 319.999 977.186 319.999H988.295V263.664H985.151C973.726 263.664 964.946 263.227 958.156 261.939C951.392 260.656 946.896 258.58 943.77 255.522C940.65 252.47 938.548 248.103 937.249 241.539C935.944 234.938 935.505 226.403 935.505 215.286V119.848H988.295V64.9051H935.505V0H875.418V64.9051ZM409.519 117.183C428.871 117.183 443.065 122.978 453.039 132.431C462.28 141.19 468.152 153.331 470.966 167.602H343.627C347.3 151.97 354.782 139.767 365.239 131.3C376.522 122.165 391.515 117.183 409.519 117.183ZM687.215 117.183C706.568 117.183 720.762 122.978 730.735 132.431C739.976 141.19 745.848 153.331 748.663 167.602H621.324C624.997 151.97 632.478 139.767 642.935 131.3C654.219 122.165 669.211 117.183 687.215 117.183ZM1136.38 117.297C1176.36 117.297 1208.15 150.53 1208.15 191.375C1208.15 232.21 1176.36 265.444 1136.38 265.444C1096.41 265.444 1065.1 232.238 1065.1 191.375C1065.1 150.503 1096.41 117.297 1136.38 117.297ZM1136.38 62.7416C1064.62 62.7416 1007.25 119.147 1007.25 191.375C1007.25 263.106 1064.62 319.999 1136.38 319.999C1208.13 319.999 1265.99 263.122 1265.99 191.375C1265.99 119.131 1208.12 62.7416 1136.38 62.7416Z" fill="#11243E"/>
</svg>
