<svg width="1080" height="256" viewBox="0 0 1080 256" fill="none" xmlns="http://www.w3.org/2000/svg">
<path d="M484.457 147.213C484.457 154.473 483.973 161.006 483.006 166.814H336.121C337.33 181.333 342.408 192.706 351.354 200.933C360.3 209.161 371.301 213.274 384.358 213.274C403.217 213.274 416.636 205.168 424.615 188.955H479.379C473.577 208.314 462.454 224.285 446.013 236.868C429.572 249.209 409.382 255.379 385.446 255.379C366.103 255.379 348.694 251.144 333.22 242.675C317.988 233.964 306.019 221.744 297.315 206.015C288.852 190.286 284.621 172.138 284.621 151.569C284.621 130.759 288.852 112.489 297.315 96.7603C305.777 81.0315 317.625 68.9324 332.857 60.4631C348.09 51.9937 365.619 47.7591 385.446 47.7591C404.547 47.7591 421.593 51.8727 436.583 60.1001C451.816 68.3275 463.542 80.0636 471.763 95.3084C480.226 110.311 484.457 127.613 484.457 147.213ZM431.869 132.695C431.627 119.628 426.912 109.222 417.724 101.479C408.536 93.4936 397.293 89.5009 383.995 89.5009C371.422 89.5009 360.784 93.3726 352.079 101.116C343.617 108.617 338.418 119.144 336.484 132.695H431.869Z" fill="black"/>
<path d="M708.298 147.213C708.298 154.473 707.814 161.006 706.847 166.814H559.962C561.171 181.333 566.248 192.706 575.195 200.933C584.141 209.161 595.142 213.274 608.198 213.274C627.058 213.274 640.477 205.168 648.456 188.955H703.22C697.417 208.314 686.295 224.285 669.854 236.868C653.412 249.209 633.223 255.379 609.286 255.379C589.943 255.379 572.535 251.144 557.061 242.675C541.828 233.964 529.86 221.744 521.155 206.015C512.693 190.286 508.462 172.138 508.462 151.569C508.462 130.759 512.693 112.489 521.155 96.7603C529.618 81.0315 541.465 68.9324 556.698 60.4631C571.93 51.9937 589.46 47.7591 609.286 47.7591C628.387 47.7591 645.433 51.8727 660.424 60.1001C675.656 68.3275 687.383 80.0636 695.604 95.3084C704.066 110.311 708.298 127.613 708.298 147.213ZM655.709 132.695C655.467 119.628 650.753 109.222 641.565 101.479C632.377 93.4936 621.134 89.5009 607.836 89.5009C595.263 89.5009 584.624 93.3726 575.92 101.116C567.457 108.617 562.259 119.144 560.325 132.695H655.709Z" fill="black"/>
<path d="M805.315 92.3771V190.528C805.315 197.303 807.104 201.78 810.247 204.926C813.632 207.83 819.193 209.281 826.93 209.281H850.504V252.112H818.589C775.793 252.112 755.318 230.224 755.318 188.603V92.3771H728.396V50.0376H755.318V0H805.315V50.0376H850.504V92.3771H805.315Z" fill="black"/>
<path d="M975.186 255.379C955.843 255.379 938.435 251.144 922.961 242.675C907.486 233.964 895.276 221.744 886.33 206.015C877.626 190.286 873.274 172.138 873.274 151.569C873.274 131.001 877.747 112.852 886.693 97.1233C895.881 81.3945 908.333 69.2954 924.049 60.8261C939.765 52.1147 957.294 47.7591 976.637 47.7591C995.98 47.7591 1013.51 52.1147 1029.23 60.8261C1044.94 69.2954 1057.27 81.3945 1066.22 97.1233C1075.41 112.852 1080 131.001 1080 151.569C1080 172.138 1075.29 190.286 1065.86 206.015C1056.67 221.744 1044.1 233.964 1028.14 242.675C1012.42 251.144 994.771 255.379 975.186 255.379ZM975.186 211.097C984.374 211.097 992.958 208.919 1000.94 204.563C1009.16 199.965 1015.69 193.19 1020.52 184.237C1025.36 175.283 1027.77 164.394 1027.77 151.569C1027.77 132.453 1022.7 117.813 1012.54 107.649C1002.63 97.2443 990.419 92.0417 975.912 92.0417C961.405 92.0417 949.194 97.2443 939.281 107.649C929.61 117.813 924.774 132.453 924.774 151.569C924.774 170.686 929.489 185.447 938.918 195.852C948.59 206.015 960.679 211.097 975.186 211.097Z" fill="black"/>
<path d="M241.732 0H144.259L241.732 146.209V0Z" fill="#5BCC5A"/>
<path d="M0 255.379L0.00101706 0H70.3904L241.734 255.379H169.292L56.5353 89.6751V255.379H0Z" fill="black"/>
</svg>
