<svg width="1266" height="321" viewBox="0 0 1266 321" fill="none" xmlns="http://www.w3.org/2000/svg">
<path fill-rule="evenodd" clip-rule="evenodd" d="M129.37 62.7982H8.86969L68.4915 122.42H129.37C167.737 122.42 198.805 153.335 198.805 191.427V320.056H258.739V191.427C258.739 120.368 200.799 62.7982 129.37 62.7982ZM59.9339 131.101L0 71.1676V320.056H59.9339V131.101ZM522.001 277.997L483.97 237.966L481.69 240.154C468.493 252.823 446.376 265.06 415.809 265.06C394.319 265.06 377.753 259.616 365.778 250.196C354.715 241.494 347.321 229.204 343.653 214.061H536.052L536.194 211.064C538.217 168.36 527.498 131.288 505.579 104.834C483.614 78.3251 450.66 62.7982 408.933 62.7982C335.238 62.7982 277.696 117.996 277.696 191.44C277.696 228.337 291.303 260.551 315.566 283.531C339.822 306.504 374.519 320.056 416.387 320.056C465.284 320.056 496.953 303.092 519.836 280.166L522.001 277.997ZM799.697 277.997L761.666 237.966L759.387 240.154C746.189 252.823 724.072 265.06 693.506 265.06C672.015 265.06 655.45 259.616 643.474 250.196C632.411 241.494 625.017 229.204 621.349 214.061H813.748L813.89 211.064C815.913 168.36 805.194 131.288 783.275 104.834C761.31 78.3251 728.356 62.7982 686.629 62.7982C612.934 62.7982 555.393 117.996 555.393 191.44C555.393 228.337 569 260.551 593.263 283.531C617.518 306.504 652.215 320.056 694.083 320.056C742.981 320.056 774.649 303.092 797.532 280.166L799.697 277.997ZM875.418 64.9618H833.089V119.904H875.418V215.844C875.418 254.582 881.108 280.991 897.23 297.552C913.377 314.14 939.204 320.056 977.186 320.056H988.295V263.72H985.151C973.726 263.72 964.946 263.284 958.156 261.996C951.392 260.713 946.896 258.637 943.77 255.578C940.65 252.527 938.548 248.16 937.249 241.596C935.944 234.995 935.505 226.46 935.505 215.343V119.904H988.295V64.9618H935.505V0.0566406H875.418V64.9618ZM409.519 117.24C428.871 117.24 443.065 123.035 453.039 132.488C462.28 141.247 468.152 153.388 470.966 167.658H343.627C347.3 152.027 354.782 139.824 365.239 131.357C376.522 122.222 391.515 117.24 409.519 117.24ZM687.215 117.24C706.568 117.24 720.762 123.035 730.735 132.488C739.976 141.247 745.848 153.388 748.663 167.658H621.324C624.997 152.027 632.478 139.824 642.935 131.357C654.219 122.222 669.211 117.24 687.215 117.24ZM1136.38 117.353C1176.36 117.353 1208.15 150.587 1208.15 191.431C1208.15 232.267 1176.36 265.501 1136.38 265.501C1096.41 265.501 1065.1 232.295 1065.1 191.431C1065.1 150.56 1096.41 117.353 1136.38 117.353ZM1136.38 62.7982C1064.62 62.7982 1007.25 119.203 1007.25 191.431C1007.25 263.163 1064.62 320.056 1136.38 320.056C1208.13 320.056 1265.99 263.179 1265.99 191.431C1265.99 119.188 1208.12 62.7982 1136.38 62.7982Z" fill="#0043AC"/>
</svg>
