<svg width="1737" height="432" viewBox="0 0 1737 432" fill="none" xmlns="http://www.w3.org/2000/svg">
<path d="M197.371 298.329C212.499 313.457 212.499 337.984 197.371 353.112C182.243 368.24 157.716 368.24 142.589 353.112L38.0031 248.527C22.8753 233.399 22.8753 208.872 38.0031 193.744C53.131 178.616 77.6581 178.616 92.786 193.744L197.371 298.329Z" fill="#5BCC5A"/>
<path d="M197.371 144.644C212.499 129.516 212.499 104.989 197.371 89.8615C182.243 74.7337 157.716 74.7337 142.589 89.8615L38.0031 194.447C22.8753 209.575 22.8753 234.102 38.0031 249.23C53.131 264.358 77.6581 264.358 92.786 249.23L197.371 144.644Z" fill="#5BCC5A"/>
<path d="M231.661 298.329C216.533 313.457 216.533 337.984 231.661 353.112C246.789 368.24 271.316 368.24 286.444 353.112L391.03 248.527C406.157 233.399 406.157 208.872 391.03 193.744C375.902 178.616 351.375 178.616 336.247 193.744L231.661 298.329Z" fill="#75DC66"/>
<path d="M231.661 144.644C216.533 129.516 216.533 104.989 231.661 89.8615C246.789 74.7337 271.316 74.7337 286.444 89.8615L391.03 194.447C406.157 209.575 406.157 234.102 391.03 249.23C375.902 264.358 351.375 264.358 336.247 249.23L231.661 144.644Z" fill="#0DA84C"/>
<path d="M308.508 221.493L336.251 193.75C349.881 180.12 371.141 178.771 386.282 189.702L391.034 194.453C398.508 201.928 402.29 211.697 402.378 221.493C402.29 231.289 398.508 241.059 391.034 248.533L386.282 253.285C371.141 264.216 349.881 262.866 336.251 249.236L308.508 221.493Z" fill="#0DA84C"/>
<path d="M643.034 406.687L589.759 312.592H566.927V406.687H518.496V165.223H609.132C627.812 165.223 643.725 168.567 656.871 175.255C670.017 181.712 679.818 190.591 686.276 201.892C692.964 212.962 696.308 225.416 696.308 239.253C696.308 255.166 691.695 269.58 682.47 282.495C673.245 295.18 659.523 303.944 641.304 308.787L699.075 406.687H643.034ZM566.927 276.269H607.402C620.548 276.269 630.349 273.155 636.807 266.928C643.264 260.471 646.493 251.592 646.493 240.291C646.493 229.221 643.264 220.688 636.807 214.692C630.349 208.465 620.548 205.351 607.402 205.351H566.927V276.269Z" fill="black"/>
<path d="M914.119 215.038V406.687H865.342V382.471C859.115 390.774 850.928 397.347 840.78 402.19C830.863 406.802 820.024 409.109 808.262 409.109C793.271 409.109 780.01 405.995 768.479 399.768C756.948 393.311 747.838 383.97 741.15 371.747C734.693 359.294 731.464 344.534 731.464 327.467V215.038H779.895V320.549C779.895 335.77 783.7 347.532 791.311 355.834C798.922 363.906 809.3 367.942 822.445 367.942C835.822 367.942 846.315 363.906 853.926 355.834C861.536 347.532 865.342 335.77 865.342 320.549V215.038H914.119Z" fill="black"/>
<path d="M1061.19 212.27C1084.02 212.27 1102.47 219.535 1116.54 234.064C1130.61 248.363 1137.64 268.427 1137.64 294.257V406.687H1089.21V300.83C1089.21 285.609 1085.4 273.962 1077.79 265.89C1070.18 257.588 1059.8 253.437 1046.66 253.437C1033.28 253.437 1022.67 257.588 1014.83 265.89C1007.22 273.962 1003.42 285.609 1003.42 300.83V406.687H954.985V215.038H1003.42V238.907C1009.87 230.605 1018.06 224.147 1027.98 219.535C1038.13 214.692 1049.2 212.27 1061.19 212.27Z" fill="black"/>
<path d="M1282.98 212.27C1305.81 212.27 1324.26 219.535 1338.33 234.064C1352.4 248.363 1359.43 268.427 1359.43 294.257V406.687H1311V300.83C1311 285.609 1307.2 273.962 1299.59 265.89C1291.97 257.588 1281.6 253.437 1268.45 253.437C1255.07 253.437 1244.47 257.588 1236.62 265.89C1229.01 273.962 1225.21 285.609 1225.21 300.83V406.687H1176.78V215.038H1225.21V238.907C1231.67 230.605 1239.85 224.147 1249.77 219.535C1259.92 214.692 1270.99 212.27 1282.98 212.27Z" fill="black"/>
<path d="M1576.73 306.711C1576.73 313.63 1576.27 319.857 1575.34 325.392H1435.24C1436.39 339.229 1441.23 350.069 1449.77 357.91C1458.3 365.751 1468.79 369.672 1481.25 369.672C1499.24 369.672 1512.04 361.946 1519.65 346.494H1571.88C1566.35 364.944 1555.74 380.165 1540.06 392.158C1524.38 403.92 1505.12 409.8 1482.29 409.8C1463.84 409.8 1447.23 405.765 1432.47 397.693C1417.94 389.39 1406.53 377.744 1398.22 362.753C1390.15 347.762 1386.12 330.465 1386.12 310.862C1386.12 291.029 1390.15 273.616 1398.22 258.626C1406.3 243.635 1417.6 232.104 1432.13 224.032C1446.65 215.96 1463.37 211.924 1482.29 211.924C1500.51 211.924 1516.76 215.845 1531.06 223.686C1545.59 231.527 1556.78 242.713 1564.62 257.242C1572.69 271.541 1576.73 288.03 1576.73 306.711ZM1526.57 292.874C1526.34 280.42 1521.84 270.503 1513.07 263.123C1504.31 255.512 1493.59 251.707 1480.9 251.707C1468.91 251.707 1458.76 255.397 1450.46 262.777C1442.39 269.926 1437.43 279.959 1435.58 292.874H1526.57Z" fill="black"/>
<path d="M1653.59 244.788C1659.82 234.641 1667.89 226.684 1677.81 220.919C1687.95 215.153 1699.48 212.27 1712.4 212.27V263.123H1699.6C1684.38 263.123 1672.85 266.698 1665.01 273.847C1657.4 280.996 1653.59 293.45 1653.59 311.208V406.687H1605.16V215.038H1653.59V244.788Z" fill="black"/>
<path d="M689.427 76.1541C689.427 78.7444 689.255 81.0757 688.91 83.1479H636.498C636.929 88.3286 638.741 92.3868 641.933 95.3225C645.125 98.2582 649.051 99.7261 653.71 99.7261C660.439 99.7261 665.227 96.8335 668.074 91.0485H687.616C685.545 97.956 681.576 103.655 675.71 108.145C669.843 112.548 662.639 114.75 654.098 114.75C647.196 114.75 640.984 113.239 635.463 110.217C630.027 107.109 625.757 102.748 622.651 97.1357C619.631 91.5234 618.121 85.0475 618.121 77.7083C618.121 70.2826 619.631 63.7636 622.651 58.1512C625.67 52.5389 629.898 48.2216 635.333 45.1996C640.768 42.1775 647.023 40.6665 654.098 40.6665C660.914 40.6665 666.996 42.1344 672.345 45.0701C677.78 48.0058 681.965 52.1935 684.898 57.6332C687.918 62.9865 689.427 69.1602 689.427 76.1541ZM670.663 70.9734C670.576 66.3108 668.894 62.598 665.616 59.835C662.337 56.9856 658.325 55.5609 653.58 55.5609C649.094 55.5609 645.298 56.9424 642.192 59.7054C639.172 62.3821 637.318 66.1381 636.627 70.9734H670.663Z" fill="black"/>
<path d="M769.299 76.1541C769.299 78.7444 769.126 81.0757 768.781 83.1479H716.369C716.801 88.3286 718.612 92.3868 721.805 95.3225C724.997 98.2582 728.922 99.7261 733.581 99.7261C740.31 99.7261 745.099 96.8335 747.946 91.0485H767.487C765.416 97.956 761.448 103.655 755.581 108.145C749.714 112.548 742.51 114.75 733.969 114.75C727.067 114.75 720.856 113.239 715.334 110.217C709.899 107.109 705.628 102.748 702.522 97.1357C699.503 91.5234 697.993 85.0475 697.993 77.7083C697.993 70.2826 699.503 63.7636 702.522 58.1512C705.542 52.5389 709.769 48.2216 715.205 45.1996C720.64 42.1775 726.895 40.6665 733.969 40.6665C740.785 40.6665 746.867 42.1344 752.216 45.0701C757.652 48.0058 761.836 52.1935 764.769 57.6332C767.789 62.9865 769.299 69.1602 769.299 76.1541ZM750.534 70.9734C750.448 66.3108 748.765 62.598 745.487 59.835C742.208 56.9856 738.197 55.5609 733.452 55.5609C728.965 55.5609 725.169 56.9424 722.063 59.7054C719.044 62.3821 717.189 66.1381 716.499 70.9734H750.534Z" fill="black"/>
<path d="M803.917 56.5872V91.6096C803.917 94.0272 804.555 95.6246 805.677 96.7471C806.884 97.7832 808.869 98.3013 811.63 98.3013H820.041V113.584H808.653C793.382 113.584 786.076 105.774 786.076 90.9229V56.5872H776.47V41.4795H786.076V23.625H803.917V41.4795H820.041V56.5872H803.917Z" fill="black"/>
<path d="M864.531 114.75C857.629 114.75 851.417 113.239 845.895 110.217C840.374 107.109 836.017 102.748 832.825 97.1357C829.719 91.5234 828.166 85.0475 828.166 77.7083C828.166 70.369 829.762 63.8931 832.954 58.2808C836.233 52.6684 840.676 48.3511 846.284 45.3291C851.891 42.2207 858.146 40.6665 865.048 40.6665C871.95 40.6665 878.205 42.2207 883.813 45.3291C889.421 48.3511 893.821 52.6684 897.013 58.2808C900.291 63.8931 901.931 70.369 901.931 77.7083C901.931 85.0475 900.248 91.5234 896.884 97.1357C893.605 102.748 889.119 107.109 883.425 110.217C877.817 113.239 871.519 114.75 864.531 114.75ZM864.531 98.949C867.809 98.949 870.872 98.1719 873.719 96.6177C876.652 94.9771 878.982 92.5595 880.707 89.3647C882.433 86.17 883.295 82.2845 883.295 77.7083C883.295 70.887 881.484 65.6632 877.86 62.0367C874.323 58.3239 869.966 56.4675 864.789 56.4675C859.613 56.4675 855.256 58.3239 851.719 62.0367C848.268 65.6632 846.542 70.887 846.542 77.7083C846.542 84.5295 848.225 89.7965 851.589 93.5093C855.04 97.1357 859.354 98.949 864.531 98.949Z" fill="black"/>
<path d="M602.819 23.625H568.038L602.819 75.7958V23.625Z" fill="black"/>
<path d="M516.562 114.75L516.563 23.625H541.679L602.819 114.75H576.97L536.736 55.6231V114.75H516.562Z" fill="black"/>
</svg>
