<svg width="491" height="64" viewBox="0 0 491 64" fill="none" xmlns="http://www.w3.org/2000/svg">
<path d="M56 31.9956C56 18.7408 45.2548 7.99561 32 7.99561H8V55.9956H56V31.9956Z" fill="url(#paint0_linear_5723_5730)"/>
<g filter="url(#filter0_d_5723_5730)">
<path fill-rule="evenodd" clip-rule="evenodd" d="M30.9464 19.3102L29.2041 21.0562L21.0844 29.1926L18.2871 31.9958L21.0844 34.7989L29.2041 42.9354L30.9464 44.6813V39.075L23.8818 31.9958L30.9464 24.9165V19.3102ZM33.0562 39.0752L40.121 31.9958L33.0562 24.9163V19.3101L34.7987 21.0562L42.9184 29.1926L45.7157 31.9958L42.9184 34.7989L34.7987 42.9354L33.0562 44.6815V39.0752Z" fill="white"/>
</g>
<path fill-rule="evenodd" clip-rule="evenodd" d="M98.0873 20.6226H81.2401L89.5759 28.8206H98.0873C103.452 28.8206 107.795 33.0714 107.795 38.3091V55.9956H116.175V38.3091C116.175 28.5385 108.074 20.6226 98.0873 20.6226ZM88.3794 30.0143L80 21.7734V55.9956H88.3794V30.0143ZM152.982 50.2125L147.664 44.7081L147.346 45.009C145.501 46.751 142.408 48.4336 138.135 48.4336C135.13 48.4336 132.814 47.6851 131.14 46.3898C129.593 45.1932 128.559 43.5034 128.047 41.4212H154.946L154.966 41.0092C155.249 35.1373 153.75 30.0399 150.686 26.4026C147.615 22.7575 143.007 20.6226 137.173 20.6226C126.87 20.6226 118.825 28.2122 118.825 38.3108C118.825 43.3842 120.728 47.8137 124.12 50.9734C127.511 54.1322 132.362 55.9956 138.216 55.9956C145.052 55.9956 149.48 53.663 152.679 50.5107L152.982 50.2125ZM191.807 50.2125L186.49 44.7081L186.171 45.009C184.326 46.751 181.233 48.4336 176.96 48.4336C173.955 48.4336 171.639 47.6851 169.965 46.3898C168.418 45.1932 167.385 43.5034 166.872 41.4212H193.771L193.791 41.0092C194.074 35.1373 192.575 30.0399 189.511 26.4026C186.44 22.7575 181.832 20.6226 175.999 20.6226C165.695 20.6226 157.65 28.2122 157.65 38.3108C157.65 43.3842 159.553 47.8137 162.945 50.9734C166.336 54.1322 171.187 55.9956 177.041 55.9956C183.877 55.9956 188.305 53.663 191.504 50.5107L191.807 50.2125ZM202.393 20.9201H196.475V28.4747H202.393V41.6664C202.393 46.9929 203.189 50.6241 205.443 52.9013C207.701 55.1821 211.311 55.9956 216.622 55.9956H218.175V48.2494H217.735C216.138 48.2494 214.91 48.1894 213.961 48.0123C213.015 47.8359 212.387 47.5505 211.95 47.1299C211.514 46.7103 211.22 46.1098 211.038 45.2073C210.856 44.2997 210.794 43.1261 210.794 41.5975V28.4747H218.175V20.9201H210.794V11.9956H202.393V20.9201ZM137.255 28.1083C139.961 28.1083 141.946 28.9051 143.34 30.205C144.632 31.4093 145.453 33.0787 145.846 35.0409H128.043C128.557 32.8916 129.603 31.2136 131.065 30.0494C132.642 28.7934 134.738 28.1083 137.255 28.1083ZM176.081 28.1083C178.786 28.1083 180.771 28.9051 182.165 30.205C183.457 31.4093 184.278 33.0787 184.672 35.0409H166.868C167.382 32.8916 168.428 31.2136 169.89 30.0494C171.467 28.7934 173.563 28.1083 176.081 28.1083ZM238.879 28.1239C244.469 28.1239 248.913 32.6936 248.913 38.3097C248.913 43.9246 244.469 48.4943 238.879 48.4943C233.291 48.4943 228.913 43.9284 228.913 38.3097C228.913 32.6898 233.291 28.1239 238.879 28.1239ZM238.879 20.6226C228.846 20.6226 220.825 28.3783 220.825 38.3097C220.825 48.1728 228.845 55.9956 238.879 55.9956C248.91 55.9956 257 48.175 257 38.3097C257 28.3761 248.909 20.6226 238.879 20.6226Z" fill="#11243E"/>
<path d="M285.56 55.4316L275.909 38.3863H271.773V55.4316H263V11.6903H279.419C282.803 11.6903 285.685 12.2961 288.067 13.5076C290.448 14.6774 292.224 16.2859 293.393 18.333C294.605 20.3383 295.211 22.5943 295.211 25.101C295.211 27.9836 294.375 30.5948 292.704 32.9343C291.033 35.2321 288.547 36.8196 285.247 37.697L295.712 55.4316H285.56ZM271.773 31.8063H279.105C281.487 31.8063 283.262 31.2423 284.432 30.1143C285.602 28.9445 286.187 27.3361 286.187 25.289C286.187 23.2836 285.602 21.7379 284.432 20.6516C283.262 19.5236 281.487 18.9596 279.105 18.9596H271.773V31.8063Z" fill="#11243E"/>
<path d="M335.254 20.7143V55.4316H326.418V51.045C325.29 52.549 323.807 53.7396 321.969 54.617C320.172 55.4525 318.209 55.8703 316.078 55.8703C313.362 55.8703 310.96 55.3063 308.871 54.1783C306.782 53.0085 305.132 51.3165 303.921 49.1023C302.751 46.8463 302.166 44.1725 302.166 41.081V20.7143H310.939V39.8276C310.939 42.585 311.629 44.7156 313.007 46.2196C314.386 47.6819 316.266 48.413 318.647 48.413C321.07 48.413 322.971 47.6819 324.35 46.2196C325.729 44.7156 326.418 42.585 326.418 39.8276V20.7143H335.254Z" fill="#11243E"/>
<path d="M362.482 20.213C366.618 20.213 369.96 21.529 372.509 24.161C375.057 26.7512 376.331 30.3859 376.331 35.065V55.4316H367.558V36.2556C367.558 33.4983 366.869 31.3885 365.49 29.9263C364.111 28.4223 362.231 27.6703 359.85 27.6703C357.427 27.6703 355.505 28.4223 354.085 29.9263C352.706 31.3885 352.017 33.4983 352.017 36.2556V55.4316H343.243V20.7143H352.017V25.0383C353.187 23.5343 354.67 22.3645 356.466 21.529C358.304 20.6516 360.31 20.213 362.482 20.213Z" fill="#11243E"/>
<path d="M403.246 20.213C407.382 20.213 410.725 21.529 413.273 24.161C415.822 26.7512 417.096 30.3859 417.096 35.065V55.4316H408.322V36.2556C408.322 33.4983 407.633 31.3885 406.254 29.9263C404.876 28.4223 402.996 27.6703 400.614 27.6703C398.191 27.6703 396.27 28.4223 394.849 29.9263C393.47 31.3885 392.781 33.4983 392.781 36.2556V55.4316H384.008V20.7143H392.781V25.0383C393.951 23.5343 395.434 22.3645 397.23 21.529C399.069 20.6516 401.074 20.213 403.246 20.213Z" fill="#11243E"/>
<path d="M457.045 37.321C457.045 38.5743 456.962 39.7023 456.795 40.705H431.415C431.624 43.2116 432.501 45.1752 434.047 46.5956C435.593 48.0161 437.493 48.7263 439.749 48.7263C443.008 48.7263 445.327 47.3268 446.705 44.5276H456.168C455.165 47.8699 453.244 50.6272 450.403 52.7996C447.562 54.9303 444.073 55.9956 439.937 55.9956C436.595 55.9956 433.587 55.2645 430.913 53.8023C428.281 52.2983 426.213 50.1885 424.709 47.473C423.247 44.7574 422.516 41.6241 422.516 38.073C422.516 34.4801 423.247 31.3259 424.709 28.6103C426.172 25.8948 428.219 23.8059 430.851 22.3436C433.483 20.8814 436.512 20.1503 439.937 20.1503C443.238 20.1503 446.183 20.8605 448.773 22.281C451.405 23.7014 453.432 25.7276 454.852 28.3596C456.314 30.9499 457.045 33.937 457.045 37.321ZM447.959 34.8143C447.917 32.5583 447.102 30.7619 445.515 29.425C443.927 28.0463 441.985 27.357 439.687 27.357C437.514 27.357 435.676 28.0254 434.172 29.3623C432.71 30.6574 431.812 32.4748 431.477 34.8143H447.959Z" fill="#11243E"/>
<path d="M471.556 26.1036C472.684 24.2654 474.146 22.8241 475.943 21.7796C477.781 20.7352 479.87 20.213 482.209 20.213V29.425H479.891C477.133 29.425 475.044 30.0725 473.624 31.3676C472.245 32.6628 471.556 34.9188 471.556 38.1356V55.4316H462.783V20.7143H471.556V26.1036Z" fill="#11243E"/>
<defs>
<filter id="filter0_d_5723_5730" x="18.2871" y="19.3101" width="33.4277" height="32.3715" filterUnits="userSpaceOnUse" color-interpolation-filters="sRGB">
<feFlood flood-opacity="0" result="BackgroundImageFix"/>
<feColorMatrix in="SourceAlpha" type="matrix" values="0 0 0 0 0 0 0 0 0 0 0 0 0 0 0 0 0 0 127 0" result="hardAlpha"/>
<feOffset dx="3" dy="4"/>
<feGaussianBlur stdDeviation="1.5"/>
<feComposite in2="hardAlpha" operator="out"/>
<feColorMatrix type="matrix" values="0 0 0 0 0 0 0 0 0 0 0 0 0 0 0 0 0 0 0.05 0"/>
<feBlend mode="normal" in2="BackgroundImageFix" result="effect1_dropShadow_5723_5730"/>
<feBlend mode="normal" in="SourceGraphic" in2="effect1_dropShadow_5723_5730" result="shape"/>
</filter>
<linearGradient id="paint0_linear_5723_5730" x1="59.7714" y1="70.2242" x2="15.5429" y2="3.70989" gradientUnits="userSpaceOnUse">
<stop stop-color="#4B47FF"/>
<stop offset="0.6986" stop-color="#79B3F6"/>
</linearGradient>
</defs>
</svg>
