<svg width="482" height="73" viewBox="0 0 482 73" fill="none" xmlns="http://www.w3.org/2000/svg">
<path d="M56 31.9956C56 18.7408 45.2548 7.99561 32 7.99561H8V55.9956H56V31.9956Z" fill="url(#paint0_linear_5723_5889)"/>
<g filter="url(#filter0_d_5723_5889)">
<path d="M37.1985 33.7066C37.5348 33.9007 37.5348 34.3861 37.1985 34.5802L29.2922 39.1449C28.9559 39.3391 28.5356 39.0964 28.5356 38.7081L28.5356 29.5787C28.5356 29.1904 28.9559 28.9478 29.2922 29.1419L37.1985 33.7066Z" fill="white"/>
<path d="M43.3152 26.7347C43.3722 27.1014 43.056 27.4176 42.6892 27.3607L38.3815 26.6921C37.938 26.6233 37.7605 26.0799 38.0779 25.7625L41.717 22.1233C42.0344 21.806 42.5778 21.9835 42.6467 22.427L43.3152 26.7347Z" fill="white"/>
<path fill-rule="evenodd" clip-rule="evenodd" d="M32.2024 22.7223C26.0373 22.7223 21.0395 27.6665 21.0395 33.7654C21.0395 39.8644 26.0373 44.8086 32.2024 44.8086C36.6533 44.8086 40.4986 42.2316 42.2917 38.4975C42.6183 37.8174 43.4404 37.528 44.1279 37.851C44.8153 38.1741 45.1079 38.9874 44.7813 39.6675C42.5489 44.3165 37.757 47.5353 32.2024 47.5353C24.515 47.5353 18.2832 41.3703 18.2832 33.7654C18.2832 26.1606 24.515 19.9956 32.2024 19.9956C36.0968 19.9956 39.6198 21.5796 42.1445 24.1285C42.6773 24.6663 42.6684 25.5295 42.1248 26.0565C41.5812 26.5835 40.7086 26.5747 40.1759 26.0369C38.1482 23.9899 35.3262 22.7223 32.2024 22.7223Z" fill="white"/>
</g>
<path fill-rule="evenodd" clip-rule="evenodd" d="M98.0873 20.9956H81.2401L89.5759 29.1936H98.0873C103.452 29.1936 107.795 33.4444 107.795 38.6821V56.3687H116.175V38.6821C116.175 28.9115 108.074 20.9956 98.0873 20.9956ZM88.3794 30.3874L80 22.1464V56.3687H88.3794V30.3874ZM152.982 50.5856L147.664 45.0812L147.346 45.382C145.501 47.124 142.408 48.8066 138.135 48.8066C135.13 48.8066 132.814 48.0582 131.14 46.7629C129.593 45.5663 128.559 43.8765 128.047 41.7943H154.946L154.966 41.3822C155.249 35.5104 153.75 30.413 150.686 26.7756C147.615 23.1306 143.007 20.9956 137.173 20.9956C126.87 20.9956 118.825 28.5853 118.825 38.6839C118.825 43.7572 120.728 48.1867 124.12 51.3465C127.511 54.5052 132.362 56.3687 138.216 56.3687C145.052 56.3687 149.48 54.036 152.679 50.8838L152.982 50.5856ZM191.807 50.5856L186.49 45.0812L186.171 45.382C184.326 47.124 181.233 48.8066 176.96 48.8066C173.955 48.8066 171.639 48.0582 169.965 46.7629C168.418 45.5663 167.385 43.8765 166.872 41.7943H193.771L193.791 41.3822C194.074 35.5104 192.575 30.413 189.511 26.7756C186.44 23.1306 181.832 20.9956 175.999 20.9956C165.695 20.9956 157.65 28.5853 157.65 38.6839C157.65 43.7572 159.553 48.1867 162.945 51.3465C166.336 54.5052 171.187 56.3687 177.041 56.3687C183.877 56.3687 188.305 54.036 191.504 50.8838L191.807 50.5856ZM202.393 21.2931H196.475V28.8477H202.393V42.0395C202.393 47.366 203.189 50.9971 205.443 53.2744C207.701 55.5551 211.311 56.3687 216.622 56.3687H218.175V48.6225H217.735C216.138 48.6225 214.91 48.5625 213.961 48.3854C213.015 48.209 212.387 47.9235 211.95 47.5029C211.514 47.0834 211.22 46.4829 211.038 45.5804C210.856 44.6727 210.794 43.4991 210.794 41.9705V28.8477H218.175V21.2931H210.794V12.3687H202.393V21.2931ZM137.255 28.4813C139.961 28.4813 141.946 29.2782 143.34 30.578C144.632 31.7823 145.453 33.4518 145.846 35.4139H128.043C128.557 33.2646 129.603 31.5866 131.065 30.4225C132.642 29.1664 134.738 28.4813 137.255 28.4813ZM176.081 28.4813C178.786 28.4813 180.771 29.2782 182.165 30.578C183.457 31.7823 184.278 33.4518 184.672 35.4139H166.868C167.382 33.2646 168.428 31.5866 169.89 30.4225C171.467 29.1664 173.563 28.4813 176.081 28.4813ZM238.879 28.497C244.469 28.497 248.913 33.0666 248.913 38.6827C248.913 44.2976 244.469 48.8673 238.879 48.8673C233.291 48.8673 228.913 44.3014 228.913 38.6827C228.913 33.0628 233.291 28.497 238.879 28.497ZM238.879 20.9956C228.846 20.9956 220.825 28.7513 220.825 38.6827C220.825 48.5458 228.845 56.3687 238.879 56.3687C248.91 56.3687 257 48.548 257 38.6827C257 28.7492 248.909 20.9956 238.879 20.9956Z" fill="#11243E"/>
<path d="M285.884 56.3689L276.234 39.3236H272.098V56.3689H263.324V12.6276H279.743C283.127 12.6276 286.01 13.2334 288.391 14.4449C290.772 15.6147 292.548 17.2232 293.718 19.2703C294.929 21.2756 295.535 23.5316 295.535 26.0383C295.535 28.9209 294.699 31.532 293.028 33.8716C291.357 36.1694 288.871 37.7569 285.571 38.6343L296.036 56.3689H285.884ZM272.098 32.7436H279.43C281.811 32.7436 283.586 32.1796 284.756 31.0516C285.926 29.8818 286.511 28.2734 286.511 26.2263C286.511 24.2209 285.926 22.6752 284.756 21.5889C283.586 20.4609 281.811 19.8969 279.43 19.8969H272.098V32.7436Z" fill="#11243E"/>
<path d="M335.077 38.2583C335.077 39.5116 334.993 40.6396 334.826 41.6423H309.446C309.655 44.1489 310.532 46.1125 312.078 47.5329C313.624 48.9534 315.525 49.6636 317.781 49.6636C321.039 49.6636 323.358 48.2641 324.737 45.4649H334.199C333.197 48.8072 331.275 51.5645 328.434 53.7369C325.593 55.8676 322.105 56.9329 317.969 56.9329C314.626 56.9329 311.618 56.2018 308.945 54.7396C306.313 53.2356 304.245 51.1258 302.741 48.4103C301.278 45.6947 300.547 42.5614 300.547 39.0103C300.547 35.4174 301.278 32.2632 302.741 29.5476C304.203 26.832 306.25 24.7432 308.882 23.2809C311.514 21.8187 314.543 21.0876 317.969 21.0876C321.269 21.0876 324.214 21.7978 326.805 23.2183C329.437 24.6387 331.463 26.6649 332.883 29.2969C334.346 31.8872 335.077 34.8743 335.077 38.2583ZM325.99 35.7516C325.948 33.4956 325.134 31.6992 323.546 30.3623C321.958 28.9836 320.016 28.2943 317.718 28.2943C315.546 28.2943 313.707 28.9627 312.203 30.2996C310.741 31.5947 309.843 33.412 309.509 35.7516H325.99Z" fill="#11243E"/>
<path d="M349.587 26.6649C350.715 25.0774 352.261 23.7614 354.224 22.7169C356.23 21.6307 358.507 21.0876 361.055 21.0876C364.021 21.0876 366.695 21.8187 369.076 23.2809C371.5 24.7432 373.4 26.832 374.779 29.5476C376.2 32.2214 376.91 35.3338 376.91 38.8849C376.91 42.4361 376.2 45.5903 374.779 48.3476C373.4 51.0632 371.5 53.1729 369.076 54.6769C366.695 56.1809 364.021 56.9329 361.055 56.9329C358.507 56.9329 356.251 56.4107 354.287 55.3663C352.365 54.3218 350.799 53.0058 349.587 51.4183V72.9129H340.814V21.6516H349.587V26.6649ZM367.948 38.8849C367.948 36.796 367.51 34.9996 366.632 33.4956C365.797 31.9498 364.669 30.78 363.248 29.9863C361.87 29.1925 360.366 28.7956 358.736 28.7956C357.149 28.7956 355.645 29.2134 354.224 30.0489C352.846 30.8427 351.718 32.0125 350.84 33.5583C350.005 35.104 349.587 36.9214 349.587 39.0103C349.587 41.0992 350.005 42.9165 350.84 44.4623C351.718 46.0081 352.846 47.1987 354.224 48.0343C355.645 48.8281 357.149 49.2249 358.736 49.2249C360.366 49.2249 361.87 48.8072 363.248 47.9716C364.669 47.1361 365.797 45.9454 366.632 44.3996C367.51 42.8538 367.948 41.0156 367.948 38.8849Z" fill="#11243E"/>
<path d="M391.392 9.99561V56.3689H382.618V9.99561H391.392Z" fill="#11243E"/>
<path d="M397.137 38.8849C397.137 35.3756 397.827 32.2632 399.205 29.5476C400.626 26.832 402.527 24.7432 404.908 23.2809C407.331 21.8187 410.026 21.0876 412.992 21.0876C415.582 21.0876 417.838 21.6098 419.76 22.6543C421.723 23.6987 423.29 25.0147 424.46 26.6023V21.6516H433.296V56.3689H424.46V51.2929C423.332 52.9223 421.765 54.28 419.76 55.3663C417.796 56.4107 415.519 56.9329 412.929 56.9329C410.005 56.9329 407.331 56.1809 404.908 54.6769C402.527 53.1729 400.626 51.0632 399.205 48.3476C397.827 45.5903 397.137 42.4361 397.137 38.8849ZM424.46 39.0103C424.46 36.8796 424.042 35.0623 423.207 33.5583C422.371 32.0125 421.243 30.8427 419.823 30.0489C418.402 29.2134 416.877 28.7956 415.248 28.7956C413.619 28.7956 412.115 29.1925 410.736 29.9863C409.357 30.78 408.229 31.9498 407.352 33.4956C406.516 34.9996 406.099 36.796 406.099 38.8849C406.099 40.9738 406.516 42.812 407.352 44.3996C408.229 45.9454 409.357 47.1361 410.736 47.9716C412.156 48.8072 413.66 49.2249 415.248 49.2249C416.877 49.2249 418.402 48.8281 419.823 48.0343C421.243 47.1987 422.371 46.0289 423.207 44.5249C424.042 42.9792 424.46 41.1409 424.46 39.0103Z" fill="#11243E"/>
<path d="M474.411 21.6516L452.917 72.7876H443.579L451.099 55.4916L437.187 21.6516H447.026L455.987 45.9036L465.074 21.6516H474.411Z" fill="#11243E"/>
<defs>
<filter id="filter0_d_5723_5889" x="18.2832" y="19.9956" width="32.6309" height="34.5396" filterUnits="userSpaceOnUse" color-interpolation-filters="sRGB">
<feFlood flood-opacity="0" result="BackgroundImageFix"/>
<feColorMatrix in="SourceAlpha" type="matrix" values="0 0 0 0 0 0 0 0 0 0 0 0 0 0 0 0 0 0 127 0" result="hardAlpha"/>
<feOffset dx="3" dy="4"/>
<feGaussianBlur stdDeviation="1.5"/>
<feComposite in2="hardAlpha" operator="out"/>
<feColorMatrix type="matrix" values="0 0 0 0 0 0 0 0 0 0 0 0 0 0 0 0 0 0 0.05 0"/>
<feBlend mode="normal" in2="BackgroundImageFix" result="effect1_dropShadow_5723_5889"/>
<feBlend mode="normal" in="SourceGraphic" in2="effect1_dropShadow_5723_5889" result="shape"/>
</filter>
<linearGradient id="paint0_linear_5723_5889" x1="79.4857" y1="91.9956" x2="-2.62858" y2="-10.5187" gradientUnits="userSpaceOnUse">
<stop offset="0.34375" stop-color="#20C7BD"/>
<stop offset="0.6986" stop-color="#83D6AE"/>
</linearGradient>
</defs>
</svg>
