<svg width="1716" height="459" viewBox="0 0 1716 459" fill="none" xmlns="http://www.w3.org/2000/svg">
<path d="M127.798 354.098V77.0784C127.798 52.3756 155.202 37.5248 175.898 51.0121L396.439 194.735C411.506 204.555 411.506 226.622 396.439 236.441L175.898 380.165C155.202 393.652 127.798 378.801 127.798 354.098Z" fill="#5BCC5A"/>
<path d="M25.125 304.451V125.482C25.125 100.431 53.2208 85.6514 73.8642 99.8438L211.481 194.456C225.867 204.346 225.867 225.587 211.482 235.477L73.8643 330.089C53.2208 344.281 25.125 329.502 25.125 304.451Z" fill="#75DC66"/>
<path d="M127.799 293.007L211.482 235.477C225.867 225.587 225.867 204.346 211.481 194.456L127.799 136.921V293.007Z" fill="#0DA84C"/>
<g clip-path="url(#clip0_746_2504)">
<path d="M642.659 406.31L589.384 312.215H566.552V406.31H518.121V164.846H608.757C627.437 164.846 643.35 168.19 656.496 174.878C669.642 181.335 679.443 190.215 685.901 201.515C692.589 212.585 695.933 225.039 695.933 238.876C695.933 254.79 691.32 269.204 682.095 282.119C672.87 294.803 659.148 303.567 640.929 308.41L698.7 406.31H642.659ZM566.552 275.892H607.027C620.173 275.892 629.974 272.778 636.432 266.551C642.889 260.094 646.118 251.215 646.118 239.914C646.118 228.844 642.889 220.311 636.432 214.315C629.974 208.088 620.173 204.975 607.027 204.975H566.552V275.892Z" fill="black"/>
<path d="M910.976 306.334C910.976 313.253 910.515 319.48 909.593 325.015H769.488C770.641 338.852 775.484 349.692 784.017 357.533C792.55 365.374 803.044 369.295 815.498 369.295C833.486 369.295 846.286 361.569 853.897 346.117H906.133C900.598 364.567 889.989 379.788 874.307 391.781C858.624 403.543 839.367 409.424 816.535 409.424C798.085 409.424 781.48 405.388 766.72 397.316C752.191 389.013 740.775 377.367 732.473 362.376C724.401 347.385 720.365 330.089 720.365 310.485C720.365 290.652 724.401 273.24 732.473 258.249C740.544 243.258 751.845 231.727 766.374 223.655C780.904 215.583 797.624 211.547 816.535 211.547C834.755 211.547 851.014 215.468 865.313 223.309C879.842 231.15 891.027 242.336 898.869 256.865C906.94 271.164 910.976 287.654 910.976 306.334ZM860.815 292.497C860.585 280.043 856.088 270.126 847.324 262.746C838.56 255.135 827.836 251.33 815.152 251.33C803.159 251.33 793.012 255.02 784.709 262.4C776.637 269.55 771.679 279.582 769.834 292.497H860.815Z" fill="black"/>
<path d="M987.839 242.336C994.066 233.572 1002.6 226.307 1013.44 220.542C1024.51 214.545 1037.08 211.547 1051.15 211.547C1067.52 211.547 1082.28 215.583 1095.43 223.655C1108.8 231.727 1119.3 243.258 1126.91 258.249C1134.75 273.009 1138.67 290.19 1138.67 309.794C1138.67 329.397 1134.75 346.809 1126.91 362.03C1119.3 377.021 1108.8 388.667 1095.43 396.97C1082.28 405.272 1067.52 409.424 1051.15 409.424C1037.08 409.424 1024.62 406.541 1013.78 400.775C1003.18 395.01 994.527 387.745 987.839 378.981V497.638H939.408V214.661H987.839V242.336ZM1089.2 309.794C1089.2 298.262 1086.78 288.345 1081.93 280.043C1077.32 271.51 1071.09 265.052 1063.25 260.67C1055.64 256.289 1047.34 254.098 1038.35 254.098C1029.58 254.098 1021.28 256.404 1013.44 261.016C1005.83 265.398 999.601 271.856 994.758 280.389C990.146 288.922 987.839 298.954 987.839 310.485C987.839 322.017 990.146 332.049 994.758 340.582C999.601 349.115 1005.83 355.688 1013.44 360.3C1021.28 364.682 1029.58 366.873 1038.35 366.873C1047.34 366.873 1055.64 364.567 1063.25 359.955C1071.09 355.342 1077.32 348.769 1081.93 340.236C1086.78 331.703 1089.2 321.555 1089.2 309.794Z" fill="black"/>
<path d="M1215.37 150.316V406.31H1166.94V150.316H1215.37Z" fill="black"/>
<path d="M1243.85 309.794C1243.85 290.421 1247.66 273.24 1255.27 258.249C1263.11 243.258 1273.6 231.727 1286.75 223.655C1300.12 215.583 1315 211.547 1331.37 211.547C1345.67 211.547 1358.13 214.43 1368.74 220.196C1379.57 225.961 1388.22 233.226 1394.68 241.99V214.661H1443.46V406.31H1394.68V378.289C1388.45 387.284 1379.81 394.779 1368.74 400.775C1357.9 406.541 1345.33 409.424 1331.03 409.424C1314.88 409.424 1300.12 405.272 1286.75 396.97C1273.6 388.667 1263.11 377.021 1255.27 362.03C1247.66 346.809 1243.85 329.397 1243.85 309.794ZM1394.68 310.485C1394.68 298.724 1392.37 288.691 1387.76 280.389C1383.15 271.856 1376.92 265.398 1369.08 261.016C1361.24 256.404 1352.82 254.098 1343.83 254.098C1334.83 254.098 1326.53 256.289 1318.92 260.67C1311.31 265.052 1305.08 271.51 1300.24 280.043C1295.63 288.345 1293.32 298.262 1293.32 309.794C1293.32 321.325 1295.63 331.472 1300.24 340.236C1305.08 348.769 1311.31 355.342 1318.92 359.955C1326.76 364.567 1335.06 366.873 1343.83 366.873C1352.82 366.873 1361.24 364.682 1369.08 360.3C1376.92 355.688 1383.15 349.23 1387.76 340.928C1392.37 332.395 1394.68 322.247 1394.68 310.485Z" fill="black"/>
<path d="M1667.19 214.661L1548.53 496.946H1496.99L1538.5 401.467L1461.7 214.661H1516.01L1565.48 348.539L1615.64 214.661H1667.19Z" fill="black"/>
<path d="M688.677 76.5291C688.677 79.1194 688.505 81.4507 688.16 83.5229H635.748C636.179 88.7036 637.991 92.7618 641.183 95.6975C644.375 98.6332 648.301 100.101 652.96 100.101C659.689 100.101 664.477 97.2085 667.324 91.4235H686.866C684.795 98.331 680.826 104.03 674.96 108.52C669.093 112.923 661.889 115.125 653.348 115.125C646.446 115.125 640.234 113.614 634.713 110.592C629.277 107.484 625.007 103.123 621.901 97.5107C618.881 91.8984 617.371 85.4225 617.371 78.0833C617.371 70.6576 618.881 64.1386 621.901 58.5262C624.92 52.9139 629.148 48.5966 634.583 45.5746C640.018 42.5525 646.273 41.0415 653.348 41.0415C660.164 41.0415 666.246 42.5094 671.595 45.4451C677.03 48.3808 681.215 52.5685 684.148 58.0082C687.168 63.3615 688.677 69.5352 688.677 76.5291ZM669.913 71.3484C669.826 66.6858 668.144 62.973 664.866 60.21C661.587 57.3606 657.575 55.9359 652.83 55.9359C648.344 55.9359 644.548 57.3174 641.442 60.0804C638.422 62.7571 636.568 66.5131 635.877 71.3484H669.913Z" fill="black"/>
<path d="M768.549 76.5291C768.549 79.1194 768.376 81.4507 768.031 83.5229H715.619C716.051 88.7036 717.862 92.7618 721.055 95.6975C724.247 98.6332 728.172 100.101 732.831 100.101C739.56 100.101 744.349 97.2085 747.196 91.4235H766.737C764.666 98.331 760.698 104.03 754.831 108.52C748.964 112.923 741.76 115.125 733.219 115.125C726.317 115.125 720.106 113.614 714.584 110.592C709.149 107.484 704.878 103.123 701.772 97.5107C698.753 91.8984 697.243 85.4225 697.243 78.0833C697.243 70.6576 698.753 64.1386 701.772 58.5262C704.792 52.9139 709.019 48.5966 714.455 45.5746C719.89 42.5525 726.145 41.0415 733.219 41.0415C740.035 41.0415 746.117 42.5094 751.466 45.4451C756.902 48.3808 761.086 52.5685 764.019 58.0082C767.039 63.3615 768.549 69.5352 768.549 76.5291ZM749.784 71.3484C749.698 66.6858 748.015 62.973 744.737 60.21C741.458 57.3606 737.447 55.9359 732.702 55.9359C728.215 55.9359 724.419 57.3174 721.313 60.0804C718.294 62.7571 716.439 66.5131 715.749 71.3484H749.784Z" fill="black"/>
<path d="M803.167 56.9622V91.9846C803.167 94.4022 803.805 95.9996 804.927 97.1221C806.134 98.1582 808.119 98.6763 810.879 98.6763H819.291V113.959H807.903C792.632 113.959 785.326 106.149 785.326 91.2979V56.9622H775.72V41.8545H785.326V24H803.167V41.8545H819.291V56.9622H803.167Z" fill="black"/>
<path d="M863.781 115.125C856.879 115.125 850.667 113.614 845.145 110.592C839.624 107.484 835.267 103.123 832.075 97.5107C828.969 91.8984 827.416 85.4225 827.416 78.0833C827.416 70.744 829.012 64.2681 832.204 58.6558C835.483 53.0434 839.926 48.7261 845.533 45.7041C851.141 42.5957 857.396 41.0415 864.298 41.0415C871.2 41.0415 877.455 42.5957 883.063 45.7041C888.671 48.7261 893.071 53.0434 896.263 58.6558C899.541 64.2681 901.181 70.744 901.181 78.0833C901.181 85.4225 899.498 91.8984 896.133 97.5107C892.855 103.123 888.369 107.484 882.675 110.592C877.067 113.614 870.769 115.125 863.781 115.125ZM863.781 99.324C867.059 99.324 870.122 98.5469 872.969 96.9927C875.902 95.3521 878.232 92.9345 879.957 89.7397C881.683 86.545 882.545 82.6595 882.545 78.0833C882.545 71.262 880.733 66.0382 877.11 62.4117C873.573 58.6989 869.216 56.8425 864.039 56.8425C858.863 56.8425 854.506 58.6989 850.969 62.4117C847.518 66.0382 845.792 71.262 845.792 78.0833C845.792 84.9045 847.475 90.1715 850.839 93.8843C854.29 97.5107 858.604 99.324 863.781 99.324Z" fill="black"/>
<path d="M602.069 24H567.288L602.069 76.1708V24Z" fill="black"/>
<path d="M515.812 115.125L515.813 24H540.929L602.069 115.125H576.22L535.986 55.9981V115.125H515.812Z" fill="black"/>
</g>
<defs>
<clipPath id="clip0_746_2504">
<rect width="1225.12" height="459" fill="white" transform="translate(490.875)"/>
</clipPath>
</defs>
</svg>
