<svg width="1419" height="459" viewBox="0 0 1419 459" fill="none" xmlns="http://www.w3.org/2000/svg">
<g clip-path="url(#clip0_746_2724)">
<path d="M215.242 28.9192L59 129.924V302.937L354.77 126.404C363.334 121.293 363.339 108.889 354.778 103.771L229.163 28.6751C224.854 26.0996 219.457 26.1942 215.242 28.9192Z" fill="#5BCC5A"/>
<path d="M215.242 403.936L59 302.931V129.918L354.77 306.451C363.334 311.563 363.339 323.966 354.778 329.084L229.163 404.18C224.854 406.756 219.457 406.661 215.242 403.936Z" fill="#75DC66"/>
<path fill-rule="evenodd" clip-rule="evenodd" d="M203.922 216.427L59 129.93V302.925L203.922 216.427Z" fill="#0DA84C"/>
</g>
<path d="M506.483 285.232C506.483 261.478 511.788 240.26 522.397 221.58C533.236 202.668 547.881 188.024 566.331 177.645C585.011 167.037 605.883 161.732 628.945 161.732C655.928 161.732 679.567 168.651 699.862 182.489C720.157 196.326 734.341 215.468 742.413 239.914H686.717C681.182 228.383 673.341 219.735 663.193 213.969C653.276 208.203 641.745 205.32 628.599 205.32C614.531 205.32 601.962 208.665 590.892 215.353C580.053 221.81 571.52 231.035 565.293 243.028C559.297 255.02 556.298 269.088 556.298 285.232C556.298 301.145 559.297 315.213 565.293 327.436C571.52 339.429 580.053 348.769 590.892 355.457C601.962 361.915 614.531 365.144 628.599 365.144C641.745 365.144 653.276 362.261 663.193 356.495C673.341 350.499 681.182 341.735 686.717 330.204H742.413C734.341 354.881 720.157 374.138 699.862 387.975C679.798 401.582 656.159 408.386 628.945 408.386C605.883 408.386 585.011 403.197 566.331 392.819C547.881 382.21 533.236 367.565 522.397 348.885C511.788 330.204 506.483 308.986 506.483 285.232Z" fill="black"/>
<path d="M861.961 409.424C843.511 409.424 826.906 405.388 812.146 397.316C797.386 389.013 785.74 377.367 777.207 362.376C768.904 347.385 764.753 330.089 764.753 310.485C764.753 290.882 769.019 273.585 777.552 258.595C786.316 243.604 798.193 232.073 813.184 224.001C828.175 215.699 844.895 211.547 863.345 211.547C881.795 211.547 898.515 215.699 913.506 224.001C928.497 232.073 940.258 243.604 948.792 258.595C957.555 273.585 961.937 290.882 961.937 310.485C961.937 330.089 957.44 347.385 948.446 362.376C939.682 377.367 927.689 389.013 912.468 397.316C897.477 405.388 880.642 409.424 861.961 409.424ZM861.961 367.219C870.725 367.219 878.912 365.144 886.523 360.992C894.364 356.61 900.591 350.153 905.203 341.62C909.816 333.087 912.122 322.709 912.122 310.485C912.122 292.266 907.279 278.313 897.593 268.627C888.137 258.71 876.491 253.752 862.653 253.752C848.816 253.752 837.169 258.71 827.713 268.627C818.488 278.313 813.876 292.266 813.876 310.485C813.876 328.705 818.373 342.773 827.367 352.69C836.592 362.376 848.124 367.219 861.961 367.219Z" fill="black"/>
<path d="M978.091 309.794C978.091 290.421 981.896 273.24 989.507 258.249C997.348 243.258 1007.96 231.727 1021.33 223.655C1034.71 215.583 1049.58 211.547 1065.96 211.547C1078.41 211.547 1090.29 214.315 1101.59 219.85C1112.89 225.154 1121.89 232.304 1128.57 241.298V150.316H1177.7V406.31H1128.57V377.943C1122.58 387.399 1114.16 395.01 1103.32 400.775C1092.48 406.541 1079.91 409.424 1065.61 409.424C1049.47 409.424 1034.71 405.272 1021.33 396.97C1007.96 388.667 997.348 377.021 989.507 362.03C981.896 346.809 978.091 329.397 978.091 309.794ZM1128.92 310.485C1128.92 298.724 1126.61 288.691 1122 280.389C1117.39 271.856 1111.16 265.398 1103.32 261.016C1095.48 256.404 1087.06 254.098 1078.07 254.098C1069.07 254.098 1060.77 256.289 1053.16 260.67C1045.55 265.052 1039.32 271.51 1034.48 280.043C1029.87 288.345 1027.56 298.262 1027.56 309.794C1027.56 321.325 1029.87 331.472 1034.48 340.236C1039.32 348.769 1045.55 355.342 1053.16 359.955C1061 364.567 1069.3 366.873 1078.07 366.873C1087.06 366.873 1095.48 364.682 1103.32 360.3C1111.16 355.688 1117.39 349.23 1122 340.928C1126.61 332.395 1128.92 322.247 1128.92 310.485Z" fill="black"/>
<path d="M1396.24 306.334C1396.24 313.253 1395.78 319.48 1394.85 325.015H1254.75C1255.9 338.852 1260.75 349.692 1269.28 357.533C1277.81 365.374 1288.3 369.295 1300.76 369.295C1318.75 369.295 1331.55 361.569 1339.16 346.117H1391.39C1385.86 364.567 1375.25 379.788 1359.57 391.781C1343.89 403.543 1324.63 409.424 1301.8 409.424C1283.35 409.424 1266.74 405.388 1251.98 397.316C1237.45 389.013 1226.04 377.367 1217.73 362.376C1209.66 347.385 1205.63 330.089 1205.63 310.485C1205.63 290.652 1209.66 273.24 1217.73 258.249C1225.81 243.258 1237.11 231.727 1251.64 223.655C1266.16 215.583 1282.89 211.547 1301.8 211.547C1320.02 211.547 1336.27 215.468 1350.57 223.309C1365.1 231.15 1376.29 242.336 1384.13 256.865C1392.2 271.164 1396.24 287.654 1396.24 306.334ZM1346.08 292.497C1345.85 280.043 1341.35 270.126 1332.58 262.746C1323.82 255.135 1313.1 251.33 1300.41 251.33C1288.42 251.33 1278.27 255.02 1269.97 262.4C1261.9 269.55 1256.94 279.582 1255.09 292.497H1346.08Z" fill="black"/>
<path d="M689.177 76.1541C689.177 78.7444 689.005 81.0757 688.66 83.1479H636.248C636.679 88.3286 638.491 92.3868 641.683 95.3225C644.875 98.2582 648.801 99.7261 653.46 99.7261C660.189 99.7261 664.977 96.8335 667.824 91.0485H687.366C685.295 97.956 681.326 103.655 675.46 108.145C669.593 112.548 662.389 114.75 653.848 114.75C646.946 114.75 640.734 113.239 635.213 110.217C629.777 107.109 625.507 102.748 622.401 97.1357C619.381 91.5234 617.871 85.0475 617.871 77.7083C617.871 70.2826 619.381 63.7636 622.401 58.1512C625.42 52.5389 629.648 48.2216 635.083 45.1996C640.518 42.1775 646.773 40.6665 653.848 40.6665C660.664 40.6665 666.746 42.1344 672.095 45.0701C677.53 48.0058 681.715 52.1935 684.648 57.6332C687.668 62.9865 689.177 69.1602 689.177 76.1541ZM670.413 70.9734C670.326 66.3108 668.644 62.598 665.366 59.835C662.087 56.9856 658.075 55.5609 653.33 55.5609C648.844 55.5609 645.048 56.9424 641.942 59.7054C638.922 62.3821 637.068 66.1381 636.377 70.9734H670.413Z" fill="black"/>
<path d="M769.049 76.1541C769.049 78.7444 768.876 81.0757 768.531 83.1479H716.119C716.551 88.3286 718.362 92.3868 721.555 95.3225C724.747 98.2582 728.672 99.7261 733.331 99.7261C740.06 99.7261 744.849 96.8335 747.696 91.0485H767.237C765.166 97.956 761.198 103.655 755.331 108.145C749.464 112.548 742.26 114.75 733.719 114.75C726.817 114.75 720.606 113.239 715.084 110.217C709.649 107.109 705.378 102.748 702.272 97.1357C699.253 91.5234 697.743 85.0475 697.743 77.7083C697.743 70.2826 699.253 63.7636 702.272 58.1512C705.292 52.5389 709.519 48.2216 714.955 45.1996C720.39 42.1775 726.645 40.6665 733.719 40.6665C740.535 40.6665 746.617 42.1344 751.966 45.0701C757.402 48.0058 761.586 52.1935 764.519 57.6332C767.539 62.9865 769.049 69.1602 769.049 76.1541ZM750.284 70.9734C750.198 66.3108 748.515 62.598 745.237 59.835C741.958 56.9856 737.947 55.5609 733.202 55.5609C728.715 55.5609 724.919 56.9424 721.813 59.7054C718.794 62.3821 716.939 66.1381 716.249 70.9734H750.284Z" fill="black"/>
<path d="M803.667 56.5872V91.6096C803.667 94.0272 804.305 95.6246 805.427 96.7471C806.634 97.7832 808.619 98.3013 811.38 98.3013H819.791V113.584H808.403C793.132 113.584 785.826 105.774 785.826 90.9229V56.5872H776.22V41.4795H785.826V23.625H803.667V41.4795H819.791V56.5872H803.667Z" fill="black"/>
<path d="M864.281 114.75C857.379 114.75 851.167 113.239 845.645 110.217C840.124 107.109 835.767 102.748 832.575 97.1357C829.469 91.5234 827.916 85.0475 827.916 77.7083C827.916 70.369 829.512 63.8931 832.704 58.2808C835.983 52.6684 840.426 48.3511 846.034 45.3291C851.641 42.2207 857.896 40.6665 864.798 40.6665C871.7 40.6665 877.955 42.2207 883.563 45.3291C889.171 48.3511 893.571 52.6684 896.763 58.2808C900.041 63.8931 901.681 70.369 901.681 77.7083C901.681 85.0475 899.998 91.5234 896.634 97.1357C893.355 102.748 888.869 107.109 883.175 110.217C877.567 113.239 871.269 114.75 864.281 114.75ZM864.281 98.949C867.559 98.949 870.622 98.1719 873.469 96.6177C876.402 94.9771 878.732 92.5595 880.457 89.3647C882.183 86.17 883.045 82.2845 883.045 77.7083C883.045 70.887 881.234 65.6632 877.61 62.0367C874.073 58.3239 869.716 56.4675 864.539 56.4675C859.363 56.4675 855.006 58.3239 851.469 62.0367C848.018 65.6632 846.292 70.887 846.292 77.7083C846.292 84.5295 847.975 89.7965 851.339 93.5093C854.79 97.1357 859.104 98.949 864.281 98.949Z" fill="black"/>
<path d="M602.569 23.625H567.788L602.569 75.7958V23.625Z" fill="black"/>
<path d="M516.312 114.75L516.313 23.625H541.429L602.569 114.75H576.72L536.486 55.6231V114.75H516.312Z" fill="black"/>
<defs>
<clipPath id="clip0_746_2724">
<rect width="384.75" height="384.75" fill="white" transform="translate(23.5625 23.625)"/>
</clipPath>
</defs>
</svg>
