<svg width="490" height="64" viewBox="0 0 490 64" fill="none" xmlns="http://www.w3.org/2000/svg">
<path d="M56 32C56 18.7452 45.2548 8 32 8H8V56H56V32Z" fill="url(#paint0_linear_5723_5978)"/>
<path d="M40.9973 33.5998C40.9973 33.3539 41.1352 33.1287 41.3543 33.0169L45.7877 30.7551C46.2231 30.5329 46.7395 30.8492 46.7395 31.338V42.9659C46.7395 43.4502 46.2317 43.7667 45.7969 43.5534L41.3635 41.3786C41.1394 41.2686 40.9973 41.0407 40.9973 40.7911V33.5998Z" fill="white"/>
<path d="M31.635 36.2727C31.635 38.0694 30.1785 39.5259 28.3818 39.5259C26.5851 39.5259 25.1286 38.0694 25.1286 36.2727C25.1286 34.476 26.5851 33.0195 28.3818 33.0195C30.1785 33.0195 31.635 34.476 31.635 36.2727Z" fill="white"/>
<path fill-rule="evenodd" clip-rule="evenodd" d="M28.3818 24.0054C34.7725 24.0054 39.9531 29.186 39.9531 35.5767V47.1479H16.8105V24.0054H28.3818ZM34.9069 36.2727C34.9069 39.8765 31.9855 42.7979 28.3818 42.7979C24.778 42.7979 21.8566 39.8765 21.8566 36.2727C21.8566 32.669 24.778 29.7475 28.3818 29.7475C31.9855 29.7475 34.9069 32.669 34.9069 36.2727Z" fill="white"/>
<path fill-rule="evenodd" clip-rule="evenodd" d="M98.0873 20.6272H81.2401L89.5759 28.8252H98.0873C103.452 28.8252 107.795 33.076 107.795 38.3137V56.0002H116.175V38.3137C116.175 28.5431 108.074 20.6272 98.0873 20.6272ZM88.3794 30.0189L80 21.778V56.0002H88.3794V30.0189ZM152.982 50.2172L147.664 44.7128L147.346 45.0136C145.501 46.7556 142.408 48.4382 138.135 48.4382C135.13 48.4382 132.814 47.6897 131.14 46.3944C129.593 45.1979 128.559 43.5081 128.047 41.4259H154.946L154.966 41.0138C155.249 35.142 153.75 30.0446 150.686 26.4072C147.615 22.7622 143.007 20.6272 137.173 20.6272C126.87 20.6272 118.825 28.2169 118.825 38.3155C118.825 43.3888 120.728 47.8183 124.12 50.9781C127.511 54.1368 132.362 56.0002 138.216 56.0002C145.052 56.0002 149.48 53.6676 152.679 50.5154L152.982 50.2172ZM191.807 50.2172L186.49 44.7128L186.171 45.0136C184.326 46.7556 181.234 48.4382 176.96 48.4382C173.955 48.4382 171.639 47.6897 169.965 46.3944C168.418 45.1979 167.385 43.5081 166.872 41.4259H193.771L193.791 41.0138C194.074 35.142 192.575 30.0446 189.511 26.4072C186.44 22.7622 181.832 20.6272 175.999 20.6272C165.695 20.6272 157.65 28.2169 157.65 38.3155C157.65 43.3888 159.553 47.8183 162.945 50.9781C166.336 54.1368 171.187 56.0002 177.041 56.0002C183.877 56.0002 188.305 53.6676 191.504 50.5154L191.807 50.2172ZM202.393 20.9247H196.475V28.4793H202.393V41.6711C202.393 46.9976 203.189 50.6287 205.443 52.906C207.701 55.1867 211.311 56.0002 216.622 56.0002H218.175V48.254H217.735C216.138 48.254 214.91 48.1941 213.961 48.017C213.015 47.8405 212.387 47.5551 211.95 47.1345C211.514 46.715 211.22 46.1145 211.038 45.212C210.856 44.3043 210.794 43.1307 210.794 41.6021V28.4793H218.175V20.9247H210.794V12.0002H202.393V20.9247ZM137.255 28.1129C139.961 28.1129 141.946 28.9097 143.34 30.2096C144.632 31.4139 145.453 33.0834 145.846 35.0455H128.043C128.557 32.8962 129.603 31.2182 131.065 30.0541C132.642 28.798 134.738 28.1129 137.255 28.1129ZM176.081 28.1129C178.786 28.1129 180.771 28.9097 182.165 30.2096C183.457 31.4139 184.278 33.0834 184.672 35.0455H166.868C167.382 32.8962 168.428 31.2182 169.89 30.0541C171.467 28.798 173.563 28.1129 176.081 28.1129ZM238.879 28.1286C244.469 28.1286 248.913 32.6982 248.913 38.3143C248.913 43.9292 244.469 48.4989 238.879 48.4989C233.291 48.4989 228.913 43.933 228.913 38.3143C228.913 32.6944 233.291 28.1286 238.879 28.1286ZM238.879 20.6272C228.846 20.6272 220.825 28.3829 220.825 38.3143C220.825 48.1774 228.845 56.0002 238.879 56.0002C248.91 56.0002 257 48.1796 257 38.3143C257 28.3808 248.909 20.6272 238.879 20.6272Z" fill="#11243E"/>
<path d="M285.886 55.3733L276.236 38.328H272.1V55.3733H263.326V11.632H279.745C283.129 11.632 286.012 12.2378 288.393 13.4493C290.774 14.6191 292.55 16.2276 293.72 18.2747C294.931 20.28 295.537 22.536 295.537 25.0427C295.537 27.9253 294.701 30.5364 293.03 32.876C291.359 35.1738 288.873 36.7613 285.573 37.6387L296.038 55.3733H285.886ZM272.1 31.748H279.432C281.813 31.748 283.588 31.184 284.758 30.056C285.928 28.8862 286.513 27.2778 286.513 25.2307C286.513 23.2253 285.928 21.6796 284.758 20.5933C283.588 19.4653 281.813 18.9013 279.432 18.9013H272.1V31.748Z" fill="#11243E"/>
<path d="M335.079 37.2627C335.079 38.516 334.995 39.644 334.828 40.6467H309.448C309.657 43.1533 310.534 45.1169 312.08 46.5373C313.626 47.9578 315.527 48.668 317.783 48.668C321.041 48.668 323.36 47.2684 324.739 44.4693H334.201C333.199 47.8116 331.277 50.5689 328.436 52.7413C325.595 54.872 322.107 55.9373 317.971 55.9373C314.628 55.9373 311.62 55.2062 308.947 53.744C306.315 52.24 304.247 50.1302 302.743 47.4147C301.28 44.6991 300.549 41.5658 300.549 38.0147C300.549 34.4218 301.28 31.2676 302.743 28.552C304.205 25.8364 306.252 23.7476 308.884 22.2853C311.516 20.8231 314.545 20.092 317.971 20.092C321.271 20.092 324.216 20.8022 326.807 22.2227C329.439 23.6431 331.465 25.6693 332.885 28.3013C334.348 30.8916 335.079 33.8787 335.079 37.2627ZM325.992 34.756C325.95 32.5 325.136 30.7036 323.548 29.3667C321.96 27.988 320.018 27.2987 317.72 27.2987C315.548 27.2987 313.709 27.9671 312.205 29.304C310.743 30.5991 309.845 32.4164 309.511 34.756H325.992Z" fill="#11243E"/>
<path d="M338.56 38.0147C338.56 34.4218 339.291 31.2884 340.753 28.6147C342.215 25.8991 344.242 23.8102 346.832 22.348C349.422 20.844 352.388 20.092 355.73 20.092C360.034 20.092 363.585 21.1782 366.384 23.3507C369.225 25.4813 371.126 28.4893 372.086 32.3747H362.624C362.122 30.8707 361.266 29.7009 360.054 28.8653C358.885 27.988 357.422 27.5493 355.668 27.5493C353.161 27.5493 351.177 28.4684 349.714 30.3067C348.252 32.1031 347.521 34.6724 347.521 38.0147C347.521 41.3151 348.252 43.8844 349.714 45.7227C351.177 47.5191 353.161 48.4173 355.668 48.4173C359.219 48.4173 361.538 46.8298 362.624 43.6547H372.086C371.126 47.4147 369.225 50.4018 366.384 52.616C363.543 54.8302 359.992 55.9373 355.73 55.9373C352.388 55.9373 349.422 55.2062 346.832 53.744C344.242 52.24 342.215 50.1511 340.753 47.4773C339.291 44.7618 338.56 41.6076 338.56 38.0147Z" fill="#11243E"/>
<path d="M393.263 55.9373C389.921 55.9373 386.913 55.2062 384.239 53.744C381.565 52.24 379.455 50.1302 377.91 47.4147C376.406 44.6991 375.654 41.5658 375.654 38.0147C375.654 34.4636 376.427 31.3302 377.972 28.6147C379.56 25.8991 381.711 23.8102 384.427 22.348C387.143 20.844 390.171 20.092 393.514 20.092C396.856 20.092 399.885 20.844 402.6 22.348C405.316 23.8102 407.447 25.8991 408.992 28.6147C410.58 31.3302 411.374 34.4636 411.374 38.0147C411.374 41.5658 410.559 44.6991 408.93 47.4147C407.342 50.1302 405.17 52.24 402.412 53.744C399.697 55.2062 396.647 55.9373 393.263 55.9373ZM393.263 48.292C394.851 48.292 396.334 47.916 397.712 47.164C399.133 46.3702 400.261 45.2004 401.096 43.6547C401.932 42.1089 402.35 40.2289 402.35 38.0147C402.35 34.7142 401.472 32.1867 399.718 30.432C398.005 28.6356 395.895 27.7373 393.388 27.7373C390.882 27.7373 388.772 28.6356 387.059 30.432C385.388 32.1867 384.552 34.7142 384.552 38.0147C384.552 41.3151 385.367 43.8636 386.996 45.66C388.667 47.4147 390.756 48.292 393.263 48.292Z" fill="#11243E"/>
<path d="M425.916 26.0453C427.044 24.2071 428.506 22.7658 430.303 21.7213C432.141 20.6769 434.23 20.1547 436.569 20.1547V29.3667H434.251C431.493 29.3667 429.404 30.0142 427.984 31.3093C426.605 32.6044 425.916 34.8604 425.916 38.0773V55.3733H417.143V20.656H425.916V26.0453Z" fill="#11243E"/>
<path d="M439.556 37.8893C439.556 34.38 440.245 31.2676 441.624 28.552C443.044 25.8364 444.966 23.7476 447.389 22.2853C449.812 20.8231 452.507 20.092 455.473 20.092C457.729 20.092 459.881 20.5933 461.928 21.596C463.975 22.5569 465.604 23.852 466.816 25.4813V9H475.715V55.3733H466.816V50.2347C465.73 51.9476 464.205 53.3262 462.241 54.3707C460.278 55.4151 458.001 55.9373 455.411 55.9373C452.486 55.9373 449.812 55.1853 447.389 53.6813C444.966 52.1773 443.044 50.0676 441.624 47.352C440.245 44.5947 439.556 41.4404 439.556 37.8893ZM466.879 38.0147C466.879 35.884 466.461 34.0667 465.625 32.5627C464.79 31.0169 463.662 29.8471 462.241 29.0533C460.821 28.2178 459.296 27.8 457.667 27.8C456.037 27.8 454.533 28.1969 453.155 28.9907C451.776 29.7844 450.648 30.9542 449.771 32.5C448.935 34.004 448.517 35.8004 448.517 37.8893C448.517 39.9782 448.935 41.8164 449.771 43.404C450.648 44.9498 451.776 46.1405 453.155 46.976C454.575 47.8116 456.079 48.2293 457.667 48.2293C459.296 48.2293 460.821 47.8325 462.241 47.0387C463.662 46.2031 464.79 45.0333 465.625 43.5293C466.461 41.9836 466.879 40.1453 466.879 38.0147Z" fill="#11243E"/>
<defs>
<linearGradient id="paint0_linear_5723_5978" x1="82.2286" y1="95.7714" x2="-19.4286" y2="-21.6571" gradientUnits="userSpaceOnUse">
<stop offset="0.252913" stop-color="#5268FF"/>
<stop offset="0.675904" stop-color="#2896FF"/>
</linearGradient>
</defs>
</svg>
