<svg width="489" height="64" viewBox="0 0 489 64" fill="none" xmlns="http://www.w3.org/2000/svg">
<path d="M56 31.9956C56 18.7408 45.2548 7.99561 32 7.99561H8V55.9956H56V31.9956Z" fill="url(#paint0_linear_5723_5827)"/>
<g filter="url(#filter0_d_5723_5827)">
<path fill-rule="evenodd" clip-rule="evenodd" d="M32.0028 17.938C38.4409 17.938 43.66 23.1571 43.66 29.5951V41.2523H20.3457V17.938H32.0028ZM37.2097 23.0671C36.5659 23.0671 36.044 23.589 36.044 24.2328V37.4443C36.044 38.0881 36.5659 38.61 37.2097 38.61C37.8535 38.61 38.3754 38.0881 38.3754 37.4443V24.2328C38.3754 23.589 37.8535 23.0671 37.2097 23.0671Z" fill="white"/>
<path fill-rule="evenodd" clip-rule="evenodd" d="M26.7804 40.3188C26.7804 39.8038 27.198 39.3862 27.713 39.3862H40.1628C42.0943 39.3862 43.66 40.952 43.66 42.8834C43.66 44.8148 42.0943 46.3805 40.1628 46.3805H20.3457V43.778H22.2108V44.5154H40.1628C41.0642 44.5154 41.7948 43.7847 41.7948 42.8834C41.7948 41.982 41.0642 41.2514 40.1628 41.2514H27.713C27.198 41.2514 26.7804 40.8338 26.7804 40.3188Z" fill="white"/>
<path d="M42.1055 39.853H43.6598V42.9616H42.1055V39.853Z" fill="white"/>
</g>
<path fill-rule="evenodd" clip-rule="evenodd" d="M98.0873 20.6226H81.2401L89.5759 28.8206H98.0873C103.452 28.8206 107.795 33.0714 107.795 38.3091V55.9956H116.175V38.3091C116.175 28.5385 108.074 20.6226 98.0873 20.6226ZM88.3794 30.0143L80 21.7734V55.9956H88.3794V30.0143ZM152.982 50.2125L147.664 44.7081L147.346 45.009C145.501 46.751 142.408 48.4336 138.135 48.4336C135.13 48.4336 132.814 47.6851 131.14 46.3898C129.593 45.1932 128.559 43.5034 128.047 41.4212H154.946L154.966 41.0092C155.249 35.1373 153.75 30.0399 150.686 26.4026C147.615 22.7575 143.007 20.6226 137.173 20.6226C126.87 20.6226 118.825 28.2122 118.825 38.3108C118.825 43.3842 120.728 47.8137 124.12 50.9734C127.511 54.1321 132.362 55.9956 138.216 55.9956C145.052 55.9956 149.48 53.663 152.679 50.5107L152.982 50.2125ZM191.807 50.2125L186.49 44.7081L186.171 45.009C184.326 46.751 181.233 48.4336 176.96 48.4336C173.955 48.4336 171.639 47.6851 169.965 46.3898C168.418 45.1932 167.385 43.5034 166.872 41.4212H193.771L193.791 41.0092C194.074 35.1373 192.575 30.0399 189.511 26.4026C186.44 22.7575 181.832 20.6226 175.999 20.6226C165.695 20.6226 157.65 28.2122 157.65 38.3108C157.65 43.3842 159.553 47.8137 162.945 50.9734C166.336 54.1321 171.187 55.9956 177.041 55.9956C183.877 55.9956 188.305 53.663 191.504 50.5107L191.807 50.2125ZM202.393 20.9201H196.475V28.4747H202.393V41.6664C202.393 46.9929 203.189 50.6241 205.443 52.9013C207.701 55.1821 211.311 55.9956 216.622 55.9956H218.175V48.2494H217.735C216.138 48.2494 214.91 48.1894 213.961 48.0123C213.015 47.8359 212.387 47.5505 211.95 47.1299C211.514 46.7103 211.22 46.1098 211.038 45.2073C210.856 44.2997 210.794 43.1261 210.794 41.5975V28.4747H218.175V20.9201H210.794V11.9956H202.393V20.9201ZM137.255 28.1083C139.961 28.1083 141.946 28.9051 143.34 30.205C144.632 31.4093 145.453 33.0787 145.846 35.0409H128.043C128.557 32.8916 129.603 31.2136 131.065 30.0494C132.642 28.7934 134.738 28.1083 137.255 28.1083ZM176.081 28.1083C178.786 28.1083 180.771 28.9051 182.165 30.205C183.457 31.4093 184.278 33.0787 184.672 35.0409H166.868C167.382 32.8916 168.428 31.2136 169.89 30.0494C171.467 28.7934 173.563 28.1083 176.081 28.1083ZM238.879 28.1239C244.469 28.1239 248.913 32.6936 248.913 38.3097C248.913 43.9246 244.469 48.4943 238.879 48.4943C233.291 48.4943 228.913 43.9284 228.913 38.3097C228.913 32.6898 233.291 28.1239 238.879 28.1239ZM238.879 20.6226C228.846 20.6226 220.825 28.3783 220.825 38.3097C220.825 48.1728 228.845 55.9956 238.879 55.9956C248.91 55.9956 257 48.175 257 38.3097C257 28.3761 248.909 20.6226 238.879 20.6226Z" fill="#11243E"/>
<path d="M261.193 33.3676C261.193 29.0645 262.154 25.2209 264.076 21.8369C266.04 18.4112 268.692 15.7583 272.035 13.8783C275.419 11.9565 279.2 10.9956 283.377 10.9956C288.265 10.9956 292.548 12.2489 296.224 14.7556C299.9 17.2623 302.47 20.7298 303.932 25.1583H293.843C292.84 23.0694 291.42 21.5027 289.581 20.4583C287.785 19.4138 285.696 18.8916 283.315 18.8916C280.766 18.8916 278.489 19.4974 276.484 20.7089C274.52 21.8787 272.975 23.5498 271.847 25.7223C270.76 27.8947 270.217 30.4432 270.217 33.3676C270.217 36.2503 270.76 38.7987 271.847 41.0129C272.975 43.1854 274.52 44.8774 276.484 46.0889C278.489 47.2587 280.766 47.8436 283.315 47.8436C285.696 47.8436 287.785 47.3214 289.581 46.2769C291.42 45.1907 292.84 43.6032 293.843 41.5143H303.932C302.47 45.9845 299.9 49.4729 296.224 51.9796C292.589 54.4445 288.307 55.6769 283.377 55.6769C279.2 55.6769 275.419 54.7369 272.035 52.8569C268.692 50.9352 266.04 48.2823 264.076 44.8983C262.154 41.5143 261.193 37.6707 261.193 33.3676Z" fill="#11243E"/>
<path d="M326.175 55.8649C322.833 55.8649 319.825 55.1338 317.151 53.6716C314.477 52.1676 312.367 50.0578 310.822 47.3423C309.318 44.6267 308.566 41.4934 308.566 37.9423C308.566 34.3912 309.338 31.2578 310.884 28.5423C312.472 25.8267 314.623 23.7378 317.339 22.2756C320.054 20.7716 323.083 20.0196 326.426 20.0196C329.768 20.0196 332.797 20.7716 335.512 22.2756C338.228 23.7378 340.358 25.8267 341.904 28.5423C343.492 31.2578 344.286 34.3912 344.286 37.9423C344.286 41.4934 343.471 44.6267 341.842 47.3423C340.254 50.0578 338.082 52.1676 335.324 53.6716C332.609 55.1338 329.559 55.8649 326.175 55.8649ZM326.175 48.2196C327.762 48.2196 329.246 47.8436 330.624 47.0916C332.045 46.2978 333.173 45.128 334.008 43.5823C334.844 42.0365 335.262 40.1565 335.262 37.9423C335.262 34.6418 334.384 32.1143 332.63 30.3596C330.917 28.5632 328.807 27.6649 326.3 27.6649C323.794 27.6649 321.684 28.5632 319.971 30.3596C318.3 32.1143 317.464 34.6418 317.464 37.9423C317.464 41.2427 318.279 43.7912 319.908 45.5876C321.579 47.3423 323.668 48.2196 326.175 48.2196Z" fill="#11243E"/>
<path d="M382.829 20.5836V55.3009H373.993V50.9143C372.865 52.4183 371.382 53.6089 369.544 54.4863C367.747 55.3218 365.784 55.7396 363.653 55.7396C360.938 55.7396 358.535 55.1756 356.447 54.0476C354.358 52.8778 352.707 51.1858 351.496 48.9716C350.326 46.7156 349.741 44.0418 349.741 40.9503V20.5836H358.514V39.6969C358.514 42.4543 359.204 44.5849 360.582 46.0889C361.961 47.5512 363.841 48.2823 366.223 48.2823C368.646 48.2823 370.547 47.5512 371.925 46.0889C373.304 44.5849 373.993 42.4543 373.993 39.6969V20.5836H382.829Z" fill="#11243E"/>
<path d="M399.592 25.9729C400.72 24.1347 402.182 22.6934 403.979 21.6489C405.817 20.6045 407.906 20.0823 410.245 20.0823V29.2943H407.927C405.169 29.2943 403.081 29.9418 401.66 31.2369C400.281 32.5321 399.592 34.788 399.592 38.0049V55.3009H390.819V20.5836H399.592V25.9729Z" fill="#11243E"/>
<path d="M428.773 55.8649C425.933 55.8649 423.384 55.3636 421.128 54.3609C418.872 53.3165 417.076 51.9169 415.739 50.1623C414.444 48.4076 413.733 46.4649 413.608 44.3343H422.444C422.611 45.6712 423.259 46.7783 424.387 47.6556C425.557 48.5329 426.998 48.9716 428.711 48.9716C430.382 48.9716 431.677 48.6374 432.596 47.9689C433.557 47.3005 434.037 46.4441 434.037 45.3996C434.037 44.2716 433.453 43.4361 432.283 42.8929C431.155 42.3081 429.337 41.6814 426.831 41.0129C424.241 40.3863 422.11 39.7387 420.439 39.0703C418.809 38.4018 417.389 37.3783 416.177 35.9996C415.008 34.6209 414.423 32.7618 414.423 30.4223C414.423 28.5005 414.966 26.7458 416.052 25.1583C417.18 23.5707 418.768 22.3174 420.815 21.3983C422.904 20.4792 425.348 20.0196 428.147 20.0196C432.283 20.0196 435.583 21.0641 438.048 23.1529C440.513 25.2001 441.871 27.9783 442.121 31.4876H433.724C433.599 30.1089 433.014 29.0227 431.969 28.2289C430.967 27.3934 429.609 26.9756 427.896 26.9756C426.309 26.9756 425.076 27.2681 424.199 27.8529C423.363 28.4378 422.945 29.2525 422.945 30.2969C422.945 31.4667 423.53 32.3649 424.7 32.9916C425.87 33.5765 427.687 34.1823 430.152 34.8089C432.659 35.4356 434.727 36.0832 436.356 36.7516C437.985 37.4201 439.385 38.4645 440.555 39.8849C441.766 41.2636 442.393 43.1018 442.435 45.3996C442.435 47.4049 441.871 49.2014 440.743 50.7889C439.657 52.3765 438.069 53.6298 435.98 54.5489C433.933 55.4263 431.531 55.8649 428.773 55.8649Z" fill="#11243E"/>
<path d="M481.243 37.1903C481.243 38.4436 481.16 39.5716 480.993 40.5743H455.613C455.821 43.0809 456.699 45.0445 458.245 46.4649C459.79 47.8854 461.691 48.5956 463.947 48.5956C467.206 48.5956 469.525 47.196 470.903 44.3969H480.366C479.363 47.7392 477.441 50.4965 474.601 52.6689C471.76 54.7996 468.271 55.8649 464.135 55.8649C460.793 55.8649 457.785 55.1338 455.111 53.6716C452.479 52.1676 450.411 50.0578 448.907 47.3423C447.445 44.6267 446.714 41.4934 446.714 37.9423C446.714 34.3494 447.445 31.1952 448.907 28.4796C450.369 25.764 452.417 23.6752 455.049 22.2129C457.681 20.7507 460.709 20.0196 464.135 20.0196C467.436 20.0196 470.381 20.7298 472.971 22.1503C475.603 23.5707 477.629 25.5969 479.05 28.2289C480.512 30.8192 481.243 33.8063 481.243 37.1903ZM472.157 34.6836C472.115 32.4276 471.3 30.6312 469.713 29.2943C468.125 27.9156 466.182 27.2263 463.885 27.2263C461.712 27.2263 459.874 27.8947 458.37 29.2316C456.908 30.5267 456.009 32.344 455.675 34.6836H472.157Z" fill="#11243E"/>
<defs>
<filter id="filter0_d_5723_5827" x="20.3457" y="17.938" width="29.3145" height="35.4426" filterUnits="userSpaceOnUse" color-interpolation-filters="sRGB">
<feFlood flood-opacity="0" result="BackgroundImageFix"/>
<feColorMatrix in="SourceAlpha" type="matrix" values="0 0 0 0 0 0 0 0 0 0 0 0 0 0 0 0 0 0 127 0" result="hardAlpha"/>
<feOffset dx="3" dy="4"/>
<feGaussianBlur stdDeviation="1.5"/>
<feComposite in2="hardAlpha" operator="out"/>
<feColorMatrix type="matrix" values="0 0 0 0 0 0 0 0 0 0 0 0 0 0 0 0 0 0 0.05 0"/>
<feBlend mode="normal" in2="BackgroundImageFix" result="effect1_dropShadow_5723_5827"/>
<feBlend mode="normal" in="SourceGraphic" in2="effect1_dropShadow_5723_5827" result="shape"/>
</filter>
<linearGradient id="paint0_linear_5723_5827" x1="56" y1="65.767" x2="-0.228571" y2="-3.66154" gradientUnits="userSpaceOnUse">
<stop stop-color="#59CBEF"/>
<stop offset="1" stop-color="#8CD672"/>
</linearGradient>
</defs>
</svg>
