<svg width="419" height="64" viewBox="0 0 419 64" fill="none" xmlns="http://www.w3.org/2000/svg">
<path d="M55.9967 31.9977C55.9967 18.7438 45.2523 7.99939 31.9983 7.99939H8V55.9961H55.9967V31.9977Z" fill="url(#paint0_linear_5723_5689)"/>
<g filter="url(#filter0_d_5723_5689)">
<path d="M19.4102 32.406H24.4873C25.8893 32.406 27.0259 33.532 27.0259 34.921V38.6935C27.0259 40.777 25.321 42.466 23.218 42.466C21.115 42.466 19.4102 40.777 19.4102 38.6935V32.406Z" fill="white"/>
<path d="M37.1802 34.921C37.1802 33.532 38.3168 32.406 39.7188 32.406H44.7959V38.6935C44.7959 40.777 43.0911 42.466 40.9881 42.466C38.885 42.466 37.1802 40.777 37.1802 38.6935V34.921Z" fill="white"/>
<path d="M19.4728 32.406C20.1097 26.0514 25.5213 21.0885 32.103 21.0885C38.6847 21.0885 44.0964 26.0514 44.7333 32.406H42.1788C41.5542 27.4435 37.2813 23.6035 32.103 23.6035C26.9248 23.6035 22.6519 27.4435 22.0273 32.406H19.4728Z" fill="white"/>
</g>
<path fill-rule="evenodd" clip-rule="evenodd" d="M98.0802 20.0008H81.2341L89.5694 28.1982H98.0802C103.444 28.1982 107.787 32.4487 107.787 37.6861V55.3713H116.166V37.6861C116.166 27.9161 108.066 20.0008 98.0802 20.0008ZM88.373 29.3918L79.9941 21.1515V55.3713H88.373V29.3918ZM152.971 49.5887L147.654 44.0847L147.335 44.3855C145.49 46.1273 142.398 47.8099 138.125 47.8099C135.121 47.8099 132.805 47.0614 131.13 45.7662C129.584 44.5697 128.55 42.88 128.037 40.798H154.935L154.955 40.3859C155.238 34.5145 153.739 29.4174 150.675 25.7804C147.604 22.1356 142.997 20.0008 137.164 20.0008C126.861 20.0008 118.817 27.5899 118.817 37.6878C118.817 42.7608 120.719 47.19 124.111 50.3495C127.502 53.508 132.353 55.3713 138.206 55.3713C145.042 55.3713 149.469 53.0389 152.668 49.8868L152.971 49.5887ZM191.793 49.5887L186.476 44.0847L186.158 44.3855C184.313 46.1273 181.221 47.8099 176.947 47.8099C173.943 47.8099 171.627 47.0614 169.953 45.7662C168.406 44.5697 167.373 42.88 166.86 40.798H193.757L193.777 40.3859C194.06 34.5145 192.562 29.4174 189.497 25.7804C186.427 22.1356 181.82 20.0008 175.986 20.0008C165.683 20.0008 157.639 27.5899 157.639 37.6878C157.639 42.7608 159.541 47.19 162.933 50.3495C166.324 53.508 171.175 55.3713 177.028 55.3713C183.864 55.3713 188.291 53.0389 191.491 49.8868L191.793 49.5887ZM202.379 20.2982H196.461V27.8523H202.379V41.0432C202.379 46.3693 203.175 50.0002 205.428 52.2773C207.686 54.5579 211.297 55.3713 216.606 55.3713H218.159V47.6257H217.72C216.123 47.6257 214.895 47.5657 213.946 47.3886C213 47.2122 212.372 46.9268 211.935 46.5062C211.499 46.0867 211.205 45.4863 211.023 44.5838C210.841 43.6762 210.779 42.5027 210.779 40.9742V27.8523H218.159V20.2982H210.779V11.3744H202.379V20.2982ZM137.246 27.486C139.951 27.486 141.935 28.2827 143.33 29.5825C144.622 30.7867 145.443 32.456 145.836 34.4181H128.034C128.547 32.2689 129.593 30.591 131.055 29.427C132.633 28.171 134.729 27.486 137.246 27.486ZM176.068 27.486C178.773 27.486 180.758 28.2827 182.152 29.5825C183.444 30.7867 184.265 32.456 184.658 34.4181H166.856C167.37 32.2689 168.416 30.591 169.878 29.427C171.455 28.171 173.551 27.486 176.068 27.486ZM238.862 27.5016C244.452 27.5016 248.895 32.0709 248.895 37.6866C248.895 43.3012 244.452 47.8705 238.862 47.8705C233.275 47.8705 228.896 43.3049 228.896 37.6866C228.896 32.0671 233.275 27.5016 238.862 27.5016ZM238.862 20.0008C228.83 20.0008 220.81 27.7559 220.81 37.6866C220.81 47.5491 228.829 55.3713 238.862 55.3713C248.892 55.3713 256.982 47.5512 256.982 37.6866C256.982 27.7538 248.891 20.0008 238.862 20.0008Z" fill="#11243E"/>
<path d="M278.594 11.0062C283.19 11.0062 287.221 11.9044 290.688 13.7007C294.197 15.497 296.892 18.0662 298.772 21.4082C300.693 24.7084 301.654 28.5517 301.654 32.938C301.654 37.3244 300.693 41.1677 298.772 44.4679C296.892 47.7263 294.197 50.2537 290.688 52.05C287.221 53.8464 283.19 54.7445 278.594 54.7445H263.305V11.0062H278.594ZM278.281 47.2877C282.876 47.2877 286.427 46.0344 288.934 43.528C291.44 41.0215 292.693 37.4915 292.693 32.938C292.693 28.3846 291.44 24.8337 288.934 22.2854C286.427 19.6954 282.876 18.4004 278.281 18.4004H272.077V47.2877H278.281Z" fill="#11243E"/>
<path d="M339.825 36.6351C339.825 37.8883 339.742 39.0163 339.575 40.0189H314.196C314.405 42.5254 315.283 44.4888 316.828 45.9091C318.374 47.3295 320.275 48.0396 322.531 48.0396C325.789 48.0396 328.107 46.6402 329.486 43.8413H338.948C337.945 47.1833 336.024 49.9404 333.183 52.1127C330.342 54.2432 326.854 55.3085 322.719 55.3085C319.377 55.3085 316.369 54.5774 313.695 53.1153C311.063 51.6114 308.995 49.5018 307.492 46.7864C306.029 44.071 305.298 40.9379 305.298 37.387C305.298 33.7944 306.029 30.6404 307.492 27.925C308.954 25.2097 311.001 23.1209 313.632 21.6588C316.264 20.1967 319.293 19.4656 322.719 19.4656C326.019 19.4656 328.964 20.1758 331.554 21.5961C334.186 23.0165 336.212 25.0426 337.632 27.6744C339.094 30.2644 339.825 33.2513 339.825 36.6351ZM330.739 34.1286C330.698 31.8728 329.883 30.0764 328.295 28.7396C326.708 27.3611 324.765 26.6718 322.468 26.6718C320.296 26.6718 318.457 27.3402 316.954 28.677C315.491 29.972 314.593 31.7892 314.259 34.1286H330.739Z" fill="#11243E"/>
<path d="M358.846 55.3085C356.006 55.3085 353.457 54.8072 351.202 53.8046C348.946 52.7602 347.149 51.3607 345.813 49.6062C344.518 47.8517 343.807 45.9091 343.682 43.7786H352.518C352.685 45.1154 353.332 46.2224 354.46 47.0997C355.63 47.977 357.071 48.4156 358.784 48.4156C360.455 48.4156 361.75 48.0814 362.669 47.413C363.63 46.7446 364.11 45.8882 364.11 44.8439C364.11 43.7159 363.525 42.8804 362.356 42.3374C361.228 41.7525 359.41 41.1259 356.904 40.4575C354.314 39.8309 352.183 39.1834 350.512 38.515C348.883 37.8466 347.463 36.8231 346.251 35.4445C345.082 34.0659 344.497 32.207 344.497 29.8676C344.497 27.9459 345.04 26.1914 346.126 24.6039C347.254 23.0165 348.841 21.7632 350.888 20.8442C352.977 19.9251 355.421 19.4656 358.22 19.4656C362.356 19.4656 365.656 20.51 368.12 22.5987C370.585 24.6457 371.943 27.4237 372.193 30.9328H363.797C363.671 29.5543 363.087 28.4681 362.042 27.6744C361.04 26.8389 359.682 26.4211 357.969 26.4211C356.382 26.4211 355.149 26.7136 354.272 27.2984C353.437 27.8833 353.019 28.6979 353.019 29.7422C353.019 30.9119 353.604 31.8101 354.773 32.4367C355.943 33.0216 357.76 33.6273 360.225 34.2539C362.731 34.8806 364.799 35.5281 366.429 36.1965C368.058 36.8649 369.457 37.9092 370.627 39.3296C371.838 40.7081 372.465 42.5462 372.507 44.8439C372.507 46.8491 371.943 48.6454 370.815 50.2328C369.729 51.8203 368.141 53.0735 366.053 53.9926C364.006 54.8698 361.604 55.3085 358.846 55.3085Z" fill="#11243E"/>
<path d="M399.595 54.7445L387.814 39.9562V54.7445H379.041V8.37439H387.814V34.7552L399.469 20.0296H410.874L395.584 37.4497L410.999 54.7445H399.595Z" fill="#11243E"/>
<defs>
<filter id="filter0_d_5723_5689" x="19.4102" y="21.0885" width="27.3688" height="23.3596" filterUnits="userSpaceOnUse" color-interpolation-filters="sRGB">
<feFlood flood-opacity="0" result="BackgroundImageFix"/>
<feColorMatrix in="SourceAlpha" type="matrix" values="0 0 0 0 0 0 0 0 0 0 0 0 0 0 0 0 0 0 127 0" result="hardAlpha"/>
<feOffset dx="0.991061" dy="0.991061"/>
<feGaussianBlur stdDeviation="0.495531"/>
<feComposite in2="hardAlpha" operator="out"/>
<feColorMatrix type="matrix" values="0 0 0 0 0 0 0 0 0 0 0 0 0 0 0 0 0 0 0.08 0"/>
<feBlend mode="normal" in2="BackgroundImageFix" result="effect1_dropShadow_5723_5689"/>
<feBlend mode="normal" in="SourceGraphic" in2="effect1_dropShadow_5723_5689" result="shape"/>
</filter>
<linearGradient id="paint0_linear_5723_5689" x1="33.5683" y1="75.2844" x2="33.344" y2="13.6065" gradientUnits="userSpaceOnUse">
<stop stop-color="#FD9437"/>
<stop offset="1" stop-color="#FFD55C"/>
</linearGradient>
</defs>
</svg>
