<svg width="328" height="64" viewBox="0 0 328 64" fill="none" xmlns="http://www.w3.org/2000/svg">
<path d="M56 31.9956C56 18.7408 45.2548 7.99561 32 7.99561H8V55.9956H56V31.9956Z" fill="url(#paint0_linear_5723_5953)"/>
<g filter="url(#filter0_d_5723_5953)">
<path d="M43.3565 22.3955H20.6456C20.0995 22.3955 19.6582 22.8368 19.6582 23.3829V46.0938C19.6582 46.64 20.0995 47.0812 20.6456 47.0812H43.3565C43.9027 47.0812 44.3439 46.64 44.3439 46.0938V23.3829C44.3439 22.8368 43.9027 22.3955 43.3565 22.3955ZM32.035 34.9266L26.1104 39.8946C25.95 40.0304 25.7062 39.9162 25.7062 39.7064V37.7716C25.7062 37.7007 25.7401 37.6297 25.7957 37.5834L29.1838 34.7384L25.7957 31.8933C25.7673 31.8709 25.7445 31.8423 25.729 31.8097C25.7135 31.777 25.7057 31.7412 25.7062 31.7051V29.7704C25.7062 29.5605 25.95 29.4464 26.1104 29.5821L32.035 34.5471C32.1553 34.6458 32.1553 34.8279 32.035 34.9266V34.9266ZM38.2959 39.7064C38.2959 39.8421 38.191 39.9532 38.0645 39.9532H32.3559C32.2294 39.9532 32.1245 39.8421 32.1245 39.7064V38.2252C32.1245 38.0895 32.2294 37.9784 32.3559 37.9784H38.0645C38.191 37.9784 38.2959 38.0895 38.2959 38.2252V39.7064Z" fill="white"/>
</g>
<path fill-rule="evenodd" clip-rule="evenodd" d="M98.0873 20.6226H81.2401L89.5759 28.8206H98.0873C103.452 28.8206 107.795 33.0714 107.795 38.3091V55.9956H116.175V38.3091C116.175 28.5385 108.074 20.6226 98.0873 20.6226ZM88.3794 30.0143L80 21.7734V55.9956H88.3794V30.0143ZM152.982 50.2125L147.664 44.7081L147.346 45.009C145.501 46.751 142.408 48.4336 138.135 48.4336C135.13 48.4336 132.814 47.6851 131.14 46.3898C129.593 45.1932 128.559 43.5034 128.047 41.4212H154.946L154.966 41.0092C155.249 35.1373 153.75 30.0399 150.686 26.4026C147.615 22.7575 143.007 20.6226 137.173 20.6226C126.87 20.6226 118.825 28.2122 118.825 38.3108C118.825 43.3842 120.728 47.8137 124.12 50.9734C127.511 54.1322 132.362 55.9956 138.216 55.9956C145.052 55.9956 149.48 53.663 152.679 50.5107L152.982 50.2125ZM191.807 50.2125L186.49 44.7081L186.171 45.009C184.326 46.751 181.233 48.4336 176.96 48.4336C173.955 48.4336 171.639 47.6851 169.965 46.3898C168.418 45.1932 167.385 43.5034 166.872 41.4212H193.771L193.791 41.0092C194.074 35.1373 192.575 30.0399 189.511 26.4026C186.44 22.7575 181.832 20.6226 175.999 20.6226C165.695 20.6226 157.65 28.2122 157.65 38.3108C157.65 43.3842 159.553 47.8137 162.945 50.9734C166.336 54.1322 171.187 55.9956 177.041 55.9956C183.877 55.9956 188.305 53.663 191.504 50.5107L191.807 50.2125ZM202.393 20.9201H196.475V28.4747H202.393V41.6664C202.393 46.9929 203.189 50.6241 205.443 52.9013C207.701 55.1821 211.311 55.9956 216.622 55.9956H218.175V48.2494H217.735C216.138 48.2494 214.91 48.1894 213.961 48.0123C213.015 47.8359 212.387 47.5505 211.95 47.1299C211.514 46.7103 211.22 46.1098 211.038 45.2073C210.856 44.2997 210.794 43.1261 210.794 41.5975V28.4747H218.175V20.9201H210.794V11.9956H202.393V20.9201ZM137.255 28.1083C139.961 28.1083 141.946 28.9051 143.34 30.205C144.632 31.4093 145.453 33.0787 145.846 35.0409H128.043C128.557 32.8916 129.603 31.2136 131.065 30.0494C132.642 28.7934 134.738 28.1083 137.255 28.1083ZM176.081 28.1083C178.786 28.1083 180.771 28.9051 182.165 30.205C183.457 31.4093 184.278 33.0787 184.672 35.0409H166.868C167.382 32.8916 168.428 31.2136 169.89 30.0494C171.467 28.7934 173.563 28.1083 176.081 28.1083ZM238.879 28.1239C244.469 28.1239 248.913 32.6936 248.913 38.3097C248.913 43.9246 244.469 48.4943 238.879 48.4943C233.291 48.4943 228.913 43.9284 228.913 38.3097C228.913 32.6898 233.291 28.1239 238.879 28.1239ZM238.879 20.6226C228.846 20.6226 220.825 28.3783 220.825 38.3097C220.825 48.1728 228.845 55.9956 238.879 55.9956C248.91 55.9956 257 48.175 257 38.3097C257 28.3761 248.909 20.6226 238.879 20.6226Z" fill="#11243E"/>
<path d="M261.193 33.3676C261.193 29.0645 262.154 25.2209 264.076 21.8369C266.04 18.4112 268.692 15.7583 272.035 13.8783C275.419 11.9565 279.2 10.9956 283.377 10.9956C288.265 10.9956 292.548 12.2489 296.224 14.7556C299.9 17.2623 302.47 20.7298 303.932 25.1583H293.843C292.84 23.0694 291.42 21.5027 289.581 20.4583C287.785 19.4138 285.696 18.8916 283.315 18.8916C280.766 18.8916 278.489 19.4974 276.484 20.7089C274.52 21.8787 272.975 23.5498 271.847 25.7223C270.76 27.8947 270.217 30.4432 270.217 33.3676C270.217 36.2503 270.76 38.7987 271.847 41.0129C272.975 43.1854 274.52 44.8774 276.484 46.0889C278.489 47.2587 280.766 47.8436 283.315 47.8436C285.696 47.8436 287.785 47.3214 289.581 46.2769C291.42 45.1907 292.84 43.6032 293.843 41.5143H303.932C302.47 45.9845 299.9 49.4729 296.224 51.9796C292.589 54.4445 288.307 55.6769 283.377 55.6769C279.2 55.6769 275.419 54.7369 272.035 52.8569C268.692 50.9352 266.04 48.2823 264.076 44.8983C262.154 41.5143 261.193 37.6707 261.193 33.3676Z" fill="#11243E"/>
<path d="M319.532 11.5596V55.3009H310.759V11.5596H319.532Z" fill="#11243E"/>
<defs>
<filter id="filter0_d_5723_5953" x="19.6582" y="22.3955" width="30.6855" height="31.6858" filterUnits="userSpaceOnUse" color-interpolation-filters="sRGB">
<feFlood flood-opacity="0" result="BackgroundImageFix"/>
<feColorMatrix in="SourceAlpha" type="matrix" values="0 0 0 0 0 0 0 0 0 0 0 0 0 0 0 0 0 0 127 0" result="hardAlpha"/>
<feOffset dx="3" dy="4"/>
<feGaussianBlur stdDeviation="1.5"/>
<feComposite in2="hardAlpha" operator="out"/>
<feColorMatrix type="matrix" values="0 0 0 0 0 0 0 0 0 0 0 0 0 0 0 0 0 0 0.05 0"/>
<feBlend mode="normal" in2="BackgroundImageFix" result="effect1_dropShadow_5723_5953"/>
<feBlend mode="normal" in="SourceGraphic" in2="effect1_dropShadow_5723_5953" result="shape"/>
</filter>
<linearGradient id="paint0_linear_5723_5953" x1="56" y1="65.767" x2="-19.4286" y2="-21.6615" gradientUnits="userSpaceOnUse">
<stop stop-color="#FF85B8"/>
<stop offset="1" stop-color="#EF8F59"/>
</linearGradient>
</defs>
</svg>
