<svg width="354" height="64" viewBox="0 0 354 64" fill="none" xmlns="http://www.w3.org/2000/svg">
<path d="M56 31.9956C56 18.7408 45.2548 7.99561 32 7.99561H8V55.9956H56V31.9956Z" fill="url(#paint0_linear_5723_5965)"/>
<g filter="url(#filter0_d_5723_5965)">
<path d="M20.3438 20.3384H27.9599V26.2216C26.968 26.5506 26.2537 27.487 26.2565 28.589C26.2594 29.6864 26.9727 30.616 27.9599 30.9435V35.4432C26.967 35.7695 26.25 36.7042 26.25 37.8063C26.25 39.1798 27.3634 40.2932 28.7368 40.2932C30.1103 40.2932 31.2237 39.1798 31.2237 37.8063C31.2237 36.7044 30.5069 35.7698 29.5142 35.4434V30.9476C29.8389 30.8419 30.1342 30.6711 30.3848 30.4508L33.0449 31.9866C33.0131 32.1464 32.9967 32.3117 32.9971 32.4808C33.0007 33.8543 34.117 34.9648 35.4904 34.9612C36.8639 34.9576 37.9744 33.8413 37.9708 32.4679C37.9672 31.0944 36.8509 29.9839 35.4775 29.9875C34.8356 29.9892 34.2512 30.2339 33.8111 30.6342L31.1739 29.1117C31.2112 28.9391 31.2307 28.7599 31.2302 28.5761C31.2274 27.4739 30.508 26.5411 29.5142 26.2174V20.3384H32.0009C38.439 20.3384 43.658 25.5575 43.658 31.9955V43.6527H20.3438V20.3384Z" fill="white"/>
</g>
<path fill-rule="evenodd" clip-rule="evenodd" d="M98.0873 20.6226H81.2401L89.5759 28.8206H98.0873C103.452 28.8206 107.795 33.0714 107.795 38.3091V55.9956H116.175V38.3091C116.175 28.5385 108.074 20.6226 98.0873 20.6226ZM88.3794 30.0143L80 21.7734V55.9956H88.3794V30.0143ZM152.982 50.2125L147.664 44.7081L147.346 45.009C145.501 46.751 142.408 48.4336 138.135 48.4336C135.13 48.4336 132.814 47.6851 131.14 46.3898C129.593 45.1932 128.559 43.5034 128.047 41.4212H154.946L154.966 41.0092C155.249 35.1373 153.75 30.0399 150.686 26.4026C147.615 22.7575 143.007 20.6226 137.173 20.6226C126.87 20.6226 118.825 28.2122 118.825 38.3108C118.825 43.3842 120.728 47.8137 124.12 50.9734C127.511 54.1322 132.362 55.9956 138.216 55.9956C145.052 55.9956 149.48 53.663 152.679 50.5107L152.982 50.2125ZM191.807 50.2125L186.49 44.7081L186.171 45.009C184.326 46.751 181.233 48.4336 176.96 48.4336C173.955 48.4336 171.639 47.6851 169.965 46.3898C168.418 45.1932 167.385 43.5034 166.872 41.4212H193.771L193.791 41.0092C194.074 35.1373 192.575 30.0399 189.511 26.4026C186.44 22.7575 181.832 20.6226 175.999 20.6226C165.695 20.6226 157.65 28.2122 157.65 38.3108C157.65 43.3842 159.553 47.8137 162.945 50.9734C166.336 54.1322 171.187 55.9956 177.041 55.9956C183.877 55.9956 188.305 53.663 191.504 50.5107L191.807 50.2125ZM202.393 20.9201H196.475V28.4747H202.393V41.6664C202.393 46.9929 203.189 50.6241 205.443 52.9013C207.701 55.1821 211.311 55.9956 216.622 55.9956H218.175V48.2494H217.735C216.138 48.2494 214.91 48.1894 213.961 48.0123C213.015 47.8359 212.387 47.5505 211.95 47.1299C211.514 46.7103 211.22 46.1098 211.038 45.2073C210.856 44.2997 210.794 43.1261 210.794 41.5975V28.4747H218.175V20.9201H210.794V11.9956H202.393V20.9201ZM137.255 28.1083C139.961 28.1083 141.946 28.9051 143.34 30.205C144.632 31.4093 145.453 33.0787 145.846 35.0409H128.043C128.557 32.8916 129.603 31.2136 131.065 30.0494C132.642 28.7934 134.738 28.1083 137.255 28.1083ZM176.081 28.1083C178.786 28.1083 180.771 28.9051 182.165 30.205C183.457 31.4093 184.278 33.0787 184.672 35.0409H166.868C167.382 32.8916 168.428 31.2136 169.89 30.0494C171.467 28.7934 173.563 28.1083 176.081 28.1083ZM238.879 28.1239C244.469 28.1239 248.913 32.6936 248.913 38.3097C248.913 43.9246 244.469 48.4943 238.879 48.4943C233.291 48.4943 228.913 43.9284 228.913 38.3097C228.913 32.6898 233.291 28.1239 238.879 28.1239ZM238.879 20.6226C228.846 20.6226 220.825 28.3783 220.825 38.3097C220.825 48.1728 228.845 55.9956 238.879 55.9956C248.91 55.9956 257 48.175 257 38.3097C257 28.3761 248.909 20.6226 238.879 20.6226Z" fill="#11243E"/>
<path d="M293.78 24.5449C292.777 22.7067 291.399 21.3072 289.644 20.3463C287.889 19.3854 285.842 18.9049 283.503 18.9049C280.912 18.9049 278.615 19.4898 276.609 20.6596C274.604 21.8294 273.037 23.5005 271.909 25.6729C270.781 27.8454 270.217 30.3521 270.217 33.1929C270.217 36.1174 270.781 38.6658 271.909 40.8383C273.079 43.0107 274.688 44.6818 276.735 45.8516C278.782 47.0214 281.163 47.6063 283.879 47.6063C287.221 47.6063 289.957 46.7289 292.088 44.9743C294.219 43.1778 295.618 40.6921 296.287 37.5169H281.247V30.8116H304.935V38.4569C304.35 41.5067 303.096 44.3267 301.175 46.9169C299.253 49.5072 296.767 51.5961 293.717 53.1836C290.709 54.7294 287.325 55.5023 283.565 55.5023C279.346 55.5023 275.523 54.5623 272.097 52.6823C268.713 50.7605 266.04 48.1076 264.076 44.7236C262.154 41.3396 261.193 37.4961 261.193 33.1929C261.193 28.8898 262.154 25.0463 264.076 21.6623C266.04 18.2365 268.713 15.5836 272.097 13.7036C275.523 11.7818 279.325 10.8209 283.503 10.8209C288.432 10.8209 292.715 12.0325 296.349 14.4556C299.984 16.8369 302.491 20.2001 303.869 24.5449H293.78Z" fill="#11243E"/>
<path d="M315.208 16.2729C313.662 16.2729 312.367 15.7925 311.323 14.8316C310.32 13.8289 309.819 12.5965 309.819 11.1343C309.819 9.67205 310.32 8.46049 311.323 7.4996C312.367 6.49694 313.662 5.99561 315.208 5.99561C316.754 5.99561 318.028 6.49694 319.031 7.4996C320.075 8.46049 320.598 9.67205 320.598 11.1343C320.598 12.5965 320.075 13.8289 319.031 14.8316C318.028 15.7925 316.754 16.2729 315.208 16.2729ZM319.532 20.4089V55.1263H310.759V20.4089H319.532Z" fill="#11243E"/>
<path d="M337.748 27.6156V44.4103C337.748 45.5801 338.02 46.4365 338.563 46.9796C339.148 47.4809 340.109 47.7316 341.446 47.7316H345.519V55.1263H340.004C332.61 55.1263 328.912 51.5334 328.912 44.3476V27.6156H324.776V20.4089H328.912V11.8236H337.748V20.4089H345.519V27.6156H337.748Z" fill="#11243E"/>
<defs>
<filter id="filter0_d_5723_5965" x="20.3438" y="20.3384" width="29.3145" height="30.3142" filterUnits="userSpaceOnUse" color-interpolation-filters="sRGB">
<feFlood flood-opacity="0" result="BackgroundImageFix"/>
<feColorMatrix in="SourceAlpha" type="matrix" values="0 0 0 0 0 0 0 0 0 0 0 0 0 0 0 0 0 0 127 0" result="hardAlpha"/>
<feOffset dx="3" dy="4"/>
<feGaussianBlur stdDeviation="1.5"/>
<feComposite in2="hardAlpha" operator="out"/>
<feColorMatrix type="matrix" values="0 0 0 0 0 0 0 0 0 0 0 0 0 0 0 0 0 0 0.05 0"/>
<feBlend mode="normal" in2="BackgroundImageFix" result="effect1_dropShadow_5723_5965"/>
<feBlend mode="normal" in="SourceGraphic" in2="effect1_dropShadow_5723_5965" result="shape"/>
</filter>
<linearGradient id="paint0_linear_5723_5965" x1="82.2286" y1="95.767" x2="-19.4286" y2="-21.6615" gradientUnits="userSpaceOnUse">
<stop stop-color="#FF4E6E"/>
<stop offset="0.696114" stop-color="#FF8B8B"/>
</linearGradient>
</defs>
</svg>
