<svg width="406" height="64" viewBox="0 0 406 64" fill="none" xmlns="http://www.w3.org/2000/svg">
<path d="M56 31.9956C56 18.7408 45.2548 7.99561 32 7.99561H8V55.9956H56V31.9956Z" fill="url(#paint0_linear_5723_5764)"/>
<g clip-path="url(#clip0_5723_5764)">
<g filter="url(#filter0_d_5723_5764)">
<path fill-rule="evenodd" clip-rule="evenodd" d="M26.3358 33.0894C25.4257 32.1793 23.9502 32.1793 23.0401 33.0894C22.13 33.9995 22.13 35.475 23.0401 36.3851C23.9502 37.2952 25.4257 37.2952 26.3358 36.3851C27.2459 35.475 27.2459 33.9995 26.3358 33.0894ZM28.2127 31.2125C26.266 29.2658 23.1098 29.2658 21.1631 31.2125C19.2165 33.1591 19.2165 36.3153 21.1631 38.262C23.1098 40.2087 26.266 40.2087 28.2127 38.262C30.1594 36.3153 30.1594 33.1591 28.2127 31.2125Z" fill="white"/>
<path fill-rule="evenodd" clip-rule="evenodd" d="M40.9627 25.7759C40.0526 24.8658 38.5771 24.8658 37.667 25.7759C36.7569 26.686 36.7569 28.1615 37.667 29.0716C38.5771 29.9817 40.0526 29.9817 40.9627 29.0716C41.8728 28.1615 41.8728 26.686 40.9627 25.7759ZM42.8397 23.899C40.893 21.9523 37.7368 21.9523 35.7901 23.899C33.8434 25.8457 33.8434 29.0019 35.7901 30.9485C37.7368 32.8952 40.893 32.8952 42.8397 30.9485C44.7863 29.0019 44.7863 25.8457 42.8397 23.899Z" fill="white"/>
<path fill-rule="evenodd" clip-rule="evenodd" d="M40.9627 40.4029C40.0526 39.4928 38.5771 39.4928 37.667 40.4029C36.7569 41.3129 36.7569 42.7885 37.667 43.6986C38.5771 44.6086 40.0526 44.6086 40.9627 43.6986C41.8728 42.7885 41.8728 41.3129 40.9627 40.4029ZM42.8397 38.5259C40.893 36.5792 37.7368 36.5792 35.7901 38.5259C33.8434 40.4726 33.8434 43.6288 35.7901 45.5755C37.7368 47.5222 40.893 47.5222 42.8397 45.5755C44.7863 43.6288 44.7863 40.4726 42.8397 38.5259Z" fill="white"/>
<path fill-rule="evenodd" clip-rule="evenodd" d="M37.2486 28.4522C37.5764 29.1078 37.3107 29.905 36.6551 30.2328L28.5363 34.2922C27.8806 34.62 27.0834 34.3543 26.7556 33.6987C26.4278 33.0431 26.6936 32.2459 27.3492 31.9181L35.468 27.8587C36.1236 27.5309 36.9208 27.7966 37.2486 28.4522Z" fill="white"/>
<path fill-rule="evenodd" clip-rule="evenodd" d="M26.7556 35.7764C27.0834 35.1208 27.8806 34.8551 28.5363 35.1829L36.6551 39.2423C37.3107 39.5701 37.5764 40.3673 37.2486 41.0229C36.9208 41.6785 36.1236 41.9443 35.468 41.6165L27.3492 37.557C26.6936 37.2292 26.4278 36.432 26.7556 35.7764Z" fill="white"/>
</g>
</g>
<path fill-rule="evenodd" clip-rule="evenodd" d="M98.0873 20.6226H81.2401L89.5759 28.8206H98.0873C103.452 28.8206 107.795 33.0714 107.795 38.3091V55.9956H116.175V38.3091C116.175 28.5385 108.074 20.6226 98.0873 20.6226ZM88.3794 30.0143L80 21.7734V55.9956H88.3794V30.0143ZM152.982 50.2125L147.664 44.7081L147.346 45.009C145.501 46.751 142.408 48.4336 138.135 48.4336C135.13 48.4336 132.814 47.6851 131.14 46.3898C129.593 45.1932 128.559 43.5034 128.047 41.4212H154.946L154.966 41.0092C155.249 35.1373 153.75 30.0399 150.686 26.4026C147.615 22.7575 143.007 20.6226 137.173 20.6226C126.87 20.6226 118.825 28.2122 118.825 38.3108C118.825 43.3842 120.728 47.8137 124.12 50.9734C127.511 54.1322 132.362 55.9956 138.216 55.9956C145.052 55.9956 149.48 53.663 152.679 50.5107L152.982 50.2125ZM191.807 50.2125L186.49 44.7081L186.171 45.009C184.326 46.751 181.233 48.4336 176.96 48.4336C173.955 48.4336 171.639 47.6851 169.965 46.3898C168.418 45.1932 167.385 43.5034 166.872 41.4212H193.771L193.791 41.0092C194.074 35.1373 192.575 30.0399 189.511 26.4026C186.44 22.7575 181.832 20.6226 175.999 20.6226C165.695 20.6226 157.65 28.2122 157.65 38.3108C157.65 43.3842 159.553 47.8137 162.945 50.9734C166.336 54.1322 171.187 55.9956 177.041 55.9956C183.877 55.9956 188.305 53.663 191.504 50.5107L191.807 50.2125ZM202.393 20.9201H196.475V28.4747H202.393V41.6664C202.393 46.9929 203.189 50.6241 205.443 52.9013C207.701 55.1821 211.311 55.9956 216.622 55.9956H218.175V48.2494H217.735C216.138 48.2494 214.91 48.1894 213.961 48.0123C213.015 47.8359 212.387 47.5505 211.95 47.1299C211.514 46.7103 211.22 46.1098 211.038 45.2073C210.856 44.2997 210.794 43.1261 210.794 41.5975V28.4747H218.175V20.9201H210.794V11.9956H202.393V20.9201ZM137.255 28.1083C139.961 28.1083 141.946 28.9051 143.34 30.205C144.632 31.4093 145.453 33.0787 145.846 35.0409H128.043C128.557 32.8916 129.603 31.2136 131.065 30.0494C132.642 28.7934 134.738 28.1083 137.255 28.1083ZM176.081 28.1083C178.786 28.1083 180.771 28.9051 182.165 30.205C183.457 31.4093 184.278 33.0787 184.672 35.0409H166.868C167.382 32.8916 168.428 31.2136 169.89 30.0494C171.467 28.7934 173.563 28.1083 176.081 28.1083ZM238.879 28.1239C244.469 28.1239 248.913 32.6936 248.913 38.3097C248.913 43.9246 244.469 48.4943 238.879 48.4943C233.291 48.4943 228.913 43.9284 228.913 38.3097C228.913 32.6898 233.291 28.1239 238.879 28.1239ZM238.879 20.6226C228.846 20.6226 220.825 28.3783 220.825 38.3097C220.825 48.1728 228.845 55.9956 238.879 55.9956C248.91 55.9956 257 48.175 257 38.3097C257 28.3761 248.909 20.6226 238.879 20.6226Z" fill="#11243E"/>
<path d="M261 33.3676C261 29.0645 261.961 25.2209 263.883 21.8369C265.846 18.4112 268.499 15.7583 271.841 13.8783C275.225 11.9565 279.006 10.9956 283.184 10.9956C288.072 10.9956 292.354 12.2489 296.031 14.7556C299.707 17.2623 302.276 20.7298 303.739 25.1583H293.649C292.647 23.0694 291.226 21.5027 289.388 20.4583C287.592 19.4138 285.503 18.8916 283.121 18.8916C280.573 18.8916 278.296 19.4974 276.291 20.7089C274.327 21.8787 272.781 23.5498 271.653 25.7223C270.567 27.8947 270.024 30.4432 270.024 33.3676C270.024 36.2503 270.567 38.7987 271.653 41.0129C272.781 43.1854 274.327 44.8774 276.291 46.0889C278.296 47.2587 280.573 47.8436 283.121 47.8436C285.503 47.8436 287.592 47.3214 289.388 46.2769C291.226 45.1907 292.647 43.6032 293.649 41.5143H303.739C302.276 45.9845 299.707 49.4729 296.031 51.9796C292.396 54.4445 288.114 55.6769 283.184 55.6769C279.006 55.6769 275.225 54.7369 271.841 52.8569C268.499 50.9352 265.846 48.2823 263.883 44.8983C261.961 41.5143 261 37.6707 261 33.3676Z" fill="#11243E"/>
<path d="M333.126 55.3009L323.475 38.2556H319.339V55.3009H310.566V11.5596H326.984C330.368 11.5596 333.251 12.1654 335.632 13.3769C338.014 14.5467 339.789 16.1552 340.959 18.2023C342.17 20.2076 342.776 22.4636 342.776 24.9703C342.776 27.8529 341.941 30.4641 340.27 32.8036C338.598 35.1014 336.113 36.6889 332.812 37.5663L343.278 55.3009H333.126ZM319.339 31.6756H326.671C329.052 31.6756 330.828 31.1116 331.998 29.9836C333.167 28.8138 333.752 27.2054 333.752 25.1583C333.752 23.1529 333.167 21.6072 331.998 20.5209C330.828 19.3929 329.052 18.8289 326.671 18.8289H319.339V31.6756Z" fill="#11243E"/>
<path d="M397.734 11.5596V55.3009H388.961V26.8503L377.242 55.3009H370.599L358.818 26.8503V55.3009H350.045V11.5596H360.009L373.921 44.0836L387.833 11.5596H397.734Z" fill="#11243E"/>
<defs>
<filter id="filter0_d_5723_5764" x="19.7031" y="22.439" width="26.31" height="26.5964" filterUnits="userSpaceOnUse" color-interpolation-filters="sRGB">
<feFlood flood-opacity="0" result="BackgroundImageFix"/>
<feColorMatrix in="SourceAlpha" type="matrix" values="0 0 0 0 0 0 0 0 0 0 0 0 0 0 0 0 0 0 127 0" result="hardAlpha"/>
<feOffset dx="0.857143" dy="1.14286"/>
<feGaussianBlur stdDeviation="0.428571"/>
<feComposite in2="hardAlpha" operator="out"/>
<feColorMatrix type="matrix" values="0 0 0 0 0 0 0 0 0 0 0 0 0 0 0 0 0 0 0.05 0"/>
<feBlend mode="normal" in2="BackgroundImageFix" result="effect1_dropShadow_5723_5764"/>
<feBlend mode="normal" in="SourceGraphic" in2="effect1_dropShadow_5723_5764" result="shape"/>
</filter>
<linearGradient id="paint0_linear_5723_5764" x1="56" y1="65.767" x2="33.3458" y2="13.6031" gradientUnits="userSpaceOnUse">
<stop stop-color="#609AF0"/>
<stop offset="1" stop-color="#6BD1F1"/>
</linearGradient>
<clipPath id="clip0_5723_5764">
<rect width="32.9143" height="32.9143" fill="white" transform="translate(15.543 18.2808)"/>
</clipPath>
</defs>
</svg>
