<svg width="1688" height="321" viewBox="0 0 1688 321" fill="none" xmlns="http://www.w3.org/2000/svg">
<path d="M240 160.98C240 94.7063 186.274 40.9805 120 40.9805H0V280.98H240V160.98Z" fill="url(#paint0_linear_4863_1476)"/>
<path d="M85.2573 113.267C82.306 113.885 78.792 116.424 76.3761 119.664C75.3054 121.091 74.0425 123.713 73.5484 125.47L73.1777 126.829V170.274V213.719L73.5621 214.927C75.1956 220.157 80.1235 225.03 85.7789 227.007L87.0417 227.446L104.777 227.487L122.512 227.515L129.073 220.692C132.697 216.931 137.913 211.509 140.672 208.64C143.431 205.772 145.669 203.411 145.655 203.383C145.627 203.356 145.367 203.465 145.078 203.603C144.79 203.754 144.186 203.987 143.733 204.138C142.951 204.371 141.839 204.385 118.888 204.385C92.6697 204.385 94.2345 204.426 92.4638 203.575C91.2009 202.971 89.7734 201.53 89.1282 200.198C88.085 198.071 88.1124 195.545 89.1968 193.335C90.0616 191.551 92.2304 189.794 94.111 189.368C94.5228 189.272 102.759 189.217 118.75 189.217C145.174 189.217 143.431 189.162 145.216 190.054C146.327 190.617 147.879 192.168 148.441 193.28C149.114 194.612 149.334 195.669 149.251 197.179C149.196 198.414 149.114 198.743 148.4 200.542C148.332 200.72 148.332 200.775 148.428 200.679C148.496 200.597 150.349 198.689 152.532 196.424C154.715 194.159 158.338 190.398 160.59 188.078L164.666 183.85V163.685V143.521L154.756 143.466C145.243 143.425 144.79 143.411 143.857 143.136C139.08 141.764 135.827 137.797 134.44 131.675C134.166 130.467 134.138 129.931 134.097 121.709L134.042 113.034L110.13 113.047C89.5125 113.061 86.0809 113.089 85.2573 113.267ZM143.596 158.95C145.6 159.471 147.59 161.118 148.51 162.999C149.896 165.827 149.471 169.094 147.412 171.359C146.478 172.388 145.49 173.047 144.131 173.527L143.047 173.912H118.75H94.4542L93.4796 173.555C89.4576 172.086 87.481 168.037 88.7713 163.905C89.4714 161.64 91.7363 159.485 94.0149 158.936C94.5777 158.799 100.013 158.771 118.75 158.757C139.917 158.744 142.882 158.771 143.596 158.95Z" fill="white"/>
<path d="M141.746 121.158C141.801 129.025 141.801 129.341 142.103 130.37C142.83 132.965 144.395 135.134 145.851 135.546C146.125 135.629 149.956 135.684 155.502 135.684H164.673L164.618 133.913C164.563 132.21 164.55 132.114 164.069 131.139C162.888 128.764 159.127 124.879 152.413 119.126C146.743 114.266 144.725 113.031 142.432 113.031H141.705L141.746 121.158Z" fill="white"/>
<path d="M173.222 187.104C172.591 187.324 171.424 188.216 169.707 189.795L168.554 190.852L173.634 195.946C176.421 198.733 178.782 201.025 178.865 201.025C178.961 201.025 179.702 200.353 180.512 199.515C182.201 197.827 182.901 196.714 182.901 195.767C182.887 193.474 181.583 190.962 179.386 188.971C178.247 187.942 177.451 187.502 176.091 187.159C174.87 186.843 174.005 186.83 173.222 187.104Z" fill="white"/>
<path d="M158.866 200.426C155.831 203.433 150.009 209.282 145.917 213.443C137.322 222.176 137.926 221.366 136.498 225.87C135.317 229.591 134.85 231.513 134.754 232.873C134.685 233.999 134.699 234.067 135.029 234.452C135.344 234.836 135.454 234.864 136.251 234.85C137.377 234.836 140.507 234.067 143.679 232.996C146.728 231.994 148.087 231.348 149.337 230.387C149.872 229.975 155.79 224.126 162.519 217.384L174.739 205.136L169.659 200.055C166.871 197.254 164.537 194.974 164.482 194.974C164.427 194.974 161.901 197.432 158.866 200.426Z" fill="white"/>
<path fill-rule="evenodd" clip-rule="evenodd" d="M450.433 104.115H366.197L407.876 145.105H450.433C477.254 145.105 498.973 166.359 498.973 192.548V280.98H540.87V192.548C540.87 143.695 500.367 104.115 450.433 104.115ZM401.894 151.074L359.997 109.869V280.98H401.894V151.074ZM724.905 252.065L698.319 224.543L696.726 226.047C687.5 234.757 672.039 243.17 650.671 243.17C635.648 243.17 624.068 239.428 615.696 232.951C607.962 226.969 602.794 218.52 600.229 208.109H734.727L734.827 206.048C736.241 176.689 728.747 151.202 713.425 133.015C698.07 114.79 675.033 104.115 645.864 104.115C594.347 104.115 554.122 142.064 554.122 192.557C554.122 217.923 563.634 240.071 580.596 255.87C597.551 271.663 621.807 280.98 651.075 280.98C685.257 280.98 707.395 269.317 723.392 253.556L724.905 252.065ZM919.03 252.065L892.444 224.543L890.851 226.047C881.625 234.757 866.164 243.17 844.797 243.17C829.773 243.17 818.193 239.428 809.822 232.951C802.088 226.969 796.919 218.52 794.355 208.109H928.853L928.952 206.048C930.366 176.689 922.873 151.202 907.551 133.015C892.196 114.79 869.159 104.115 839.99 104.115C788.473 104.115 748.248 142.064 748.248 192.557C748.248 217.923 757.76 240.071 774.721 255.87C791.677 271.663 815.932 280.98 845.2 280.98C879.382 280.98 901.521 269.317 917.517 253.556L919.03 252.065ZM971.964 105.603H942.373V143.376H971.964V209.335C971.964 235.967 975.941 254.123 987.212 265.509C998.499 276.913 1016.55 280.98 1043.11 280.98H1050.87V242.249H1048.67C1040.69 242.249 1034.55 241.95 1029.8 241.064C1025.07 240.182 1021.93 238.755 1019.75 236.652C1017.56 234.554 1016.09 231.552 1015.19 227.039C1014.27 222.501 1013.97 216.633 1013.97 208.99V143.376H1050.87V105.603H1013.97V60.9805H971.964V105.603ZM646.274 141.544C659.802 141.544 669.724 145.528 676.697 152.027C683.157 158.049 687.262 166.396 689.229 176.207H600.212C602.779 165.46 608.009 157.07 615.32 151.25C623.207 144.969 633.688 141.544 646.274 141.544ZM840.399 141.544C853.928 141.544 863.85 145.528 870.822 152.027C877.282 158.049 881.387 166.396 883.354 176.207H794.337C796.905 165.46 802.135 157.07 809.445 151.25C817.333 144.969 827.813 141.544 840.399 141.544ZM1154.39 141.622C1182.34 141.622 1204.56 164.47 1204.56 192.551C1204.56 220.625 1182.34 243.474 1154.39 243.474C1126.45 243.474 1104.56 220.644 1104.56 192.551C1104.56 164.451 1126.45 141.622 1154.39 141.622ZM1154.39 104.115C1104.23 104.115 1064.12 142.894 1064.12 192.551C1064.12 241.866 1104.22 280.98 1154.39 280.98C1204.55 280.98 1245 241.877 1245 192.551C1245 142.883 1204.54 104.115 1154.39 104.115Z" fill="#11243E"/>
<path d="M1400.07 279.687L1320.49 182.24V279.687H1276.62V60.9805H1320.49V159.054L1400.07 60.9805H1453.03L1362.79 169.394L1455.53 279.687H1400.07Z" fill="#11243E"/>
<path d="M1605.13 167.514C1617.46 169.812 1627.59 175.974 1635.53 186C1643.46 196.027 1647.43 207.516 1647.43 220.467C1647.43 232.165 1644.51 242.505 1638.66 251.487C1633.02 260.26 1624.77 267.154 1613.91 272.167C1603.04 277.18 1590.2 279.687 1575.37 279.687H1481.05V60.9805H1571.29C1586.12 60.9805 1598.87 63.3827 1609.52 68.1871C1620.38 72.9916 1628.53 79.676 1633.96 88.2405C1639.6 96.8049 1642.42 106.518 1642.42 117.38C1642.42 130.123 1638.97 140.776 1632.08 149.34C1625.4 157.905 1616.41 163.963 1605.13 167.514ZM1524.92 151.22H1565.03C1575.47 151.22 1583.51 148.923 1589.15 144.327C1594.79 139.523 1597.61 132.734 1597.61 123.96C1597.61 115.187 1594.79 108.398 1589.15 103.594C1583.51 98.7893 1575.47 96.3871 1565.03 96.3871H1524.92V151.22ZM1569.1 243.967C1579.75 243.967 1588 241.46 1593.85 236.447C1599.91 231.434 1602.94 224.332 1602.94 215.14C1602.94 205.74 1599.81 198.429 1593.54 193.207C1587.27 187.776 1578.81 185.06 1568.16 185.06H1524.92V243.967H1569.1Z" fill="#11243E"/>
<defs>
<linearGradient id="paint0_linear_4863_1476" x1="121.469" y1="450.694" x2="121.469" y2="-6.5756" gradientUnits="userSpaceOnUse">
<stop stop-color="#18C0D3"/>
<stop offset="1" stop-color="#65CDA1"/>
</linearGradient>
</defs>
</svg>
