<svg width="2085" height="320" viewBox="0 0 2085 320" fill="none" xmlns="http://www.w3.org/2000/svg">
<path d="M240 160C240 93.7258 186.274 40 120 40H0V280H240V160Z" fill="url(#paint0_linear_4863_1427)"/>
<rect x="95.1035" y="157.061" width="80.4795" height="21.949" rx="10.9745" fill="white"/>
<rect x="95.1025" y="193.639" width="62.1887" height="21.949" rx="10.9745" fill="white"/>
<rect x="95.1035" y="120.479" width="58.5306" height="21.949" rx="10.9745" fill="white"/>
<circle cx="73.1527" cy="131.454" r="10.9745" fill="white"/>
<circle cx="73.1527" cy="168.035" r="10.9745" fill="white"/>
<circle cx="73.1522" cy="204.613" r="10.9745" fill="white"/>
<path fill-rule="evenodd" clip-rule="evenodd" d="M450.437 103.135H366.2L407.879 144.125H450.437C477.258 144.125 498.976 165.379 498.976 191.567V280H540.873V191.567C540.873 142.714 500.37 103.135 450.437 103.135ZM401.897 150.093L360 108.889V280H401.897V150.093ZM724.908 251.085L698.322 223.563L696.729 225.067C687.503 233.777 672.042 242.19 650.674 242.19C635.651 242.19 624.071 238.447 615.699 231.971C607.966 225.988 602.797 217.539 600.233 207.128H734.731L734.83 205.068C736.244 175.709 728.751 150.222 713.428 132.035C698.074 113.81 675.037 103.135 645.867 103.135C594.351 103.135 554.125 141.083 554.125 191.576C554.125 216.943 563.638 239.09 580.599 254.889C597.555 270.683 621.81 280 651.078 280C685.26 280 707.398 268.337 723.395 252.576L724.908 251.085ZM919.034 251.085L892.448 223.563L890.854 225.067C881.628 233.777 866.167 242.19 844.8 242.19C829.777 242.19 818.197 238.447 809.825 231.971C802.091 225.988 796.923 217.539 794.358 207.128H928.856L928.955 205.068C930.369 175.709 922.876 150.222 907.554 132.035C892.199 113.81 869.162 103.135 839.993 103.135C788.476 103.135 748.251 141.083 748.251 191.576C748.251 216.943 757.763 239.09 774.724 254.889C791.68 270.683 815.936 280 845.204 280C879.386 280 901.524 268.337 917.521 252.576L919.034 251.085ZM971.967 104.622H942.376V142.395H971.967V208.354C971.967 234.987 975.945 253.142 987.215 264.529C998.503 275.932 1016.56 280 1043.11 280H1050.87V241.269H1048.68C1040.69 241.269 1034.55 240.969 1029.81 240.084C1025.08 239.202 1021.93 237.774 1019.75 235.671C1017.57 233.574 1016.1 230.571 1015.19 226.059C1014.28 221.52 1013.97 215.652 1013.97 208.009V142.395H1050.87V104.622H1013.97V60H971.967V104.622ZM646.277 140.563C659.806 140.563 669.728 144.548 676.7 151.047C683.16 157.068 687.265 165.416 689.232 175.226H600.215C602.783 164.48 608.013 156.09 615.323 150.269C623.211 143.989 633.691 140.563 646.277 140.563ZM840.403 140.563C853.931 140.563 863.853 144.548 870.826 151.047C877.285 157.068 881.39 165.416 883.358 175.226H794.341C796.908 164.48 802.138 156.09 809.448 150.269C817.336 143.989 827.817 140.563 840.403 140.563ZM1154.39 140.642C1182.34 140.642 1204.56 163.49 1204.56 191.57C1204.56 219.645 1182.34 242.493 1154.39 242.493C1126.46 242.493 1104.56 219.664 1104.56 191.57C1104.56 163.471 1126.46 140.642 1154.39 140.642ZM1154.39 103.135C1104.23 103.135 1064.13 141.913 1064.13 191.57C1064.13 240.886 1104.23 280 1154.39 280C1204.55 280 1245 240.897 1245 191.57C1245 141.903 1204.54 103.135 1154.39 103.135Z" fill="#11243E"/>
<path d="M1410.05 58.4727V93.8793H1318.87V149.966H1388.74V184.746H1318.87V277.179H1275V58.4727H1410.05Z" fill="#11243E"/>
<path d="M1514.9 279.999C1498.19 279.999 1483.15 276.344 1469.78 269.033C1456.41 261.513 1445.86 250.964 1438.13 237.386C1430.61 223.808 1426.85 208.142 1426.85 190.386C1426.85 172.63 1430.72 156.964 1438.45 143.386C1446.38 129.808 1457.14 119.364 1470.72 112.053C1484.3 104.533 1499.44 100.773 1516.15 100.773C1532.86 100.773 1548.01 104.533 1561.59 112.053C1575.16 119.364 1585.82 129.808 1593.55 143.386C1601.48 156.964 1605.45 172.63 1605.45 190.386C1605.45 208.142 1601.38 223.808 1593.23 237.386C1585.29 250.964 1574.43 261.513 1560.65 269.033C1547.07 276.344 1531.82 279.999 1514.9 279.999ZM1514.9 241.773C1522.84 241.773 1530.25 239.893 1537.15 236.133C1544.25 232.164 1549.89 226.315 1554.07 218.586C1558.24 210.857 1560.33 201.457 1560.33 190.386C1560.33 173.884 1555.95 161.246 1547.17 152.473C1538.61 143.49 1528.06 138.999 1515.53 138.999C1502.99 138.999 1492.44 143.49 1483.88 152.473C1475.52 161.246 1471.35 173.884 1471.35 190.386C1471.35 206.888 1475.42 219.63 1483.57 228.613C1491.92 237.386 1502.37 241.773 1514.9 241.773Z" fill="#11243E"/>
<path d="M1678.16 130.539C1683.8 121.348 1691.11 114.142 1700.1 108.919C1709.29 103.697 1719.73 101.086 1731.43 101.086V147.146H1719.84C1706.05 147.146 1695.61 150.384 1688.5 156.859C1681.61 163.335 1678.16 174.615 1678.16 190.699V277.179H1634.3V103.593H1678.16V130.539Z" fill="#11243E"/>
<path d="M1973.22 101.086C1994.52 101.086 2011.65 107.666 2024.6 120.826C2037.76 133.777 2044.34 151.95 2044.34 175.346V277.179H2000.48V181.299C2000.48 167.722 1997.03 157.382 1990.14 150.279C1983.24 142.968 1973.84 139.313 1961.94 139.313C1950.03 139.313 1940.53 142.968 1933.42 150.279C1926.53 157.382 1923.08 167.722 1923.08 181.299V277.179H1879.22V181.299C1879.22 167.722 1875.77 157.382 1868.88 150.279C1861.98 142.968 1852.58 139.313 1840.68 139.313C1828.56 139.313 1818.95 142.968 1811.85 150.279C1804.96 157.382 1801.51 167.722 1801.51 181.299V277.179H1757.64V103.593H1801.51V124.586C1807.15 117.275 1814.36 111.53 1823.13 107.353C1832.11 103.175 1841.93 101.086 1852.58 101.086C1866.16 101.086 1878.28 104.01 1888.93 109.859C1899.58 115.499 1907.83 123.646 1913.68 134.299C1919.32 124.273 1927.47 116.23 1938.12 110.173C1948.99 104.115 1960.68 101.086 1973.22 101.086Z" fill="#11243E"/>
<defs>
<linearGradient id="paint0_linear_4863_1427" x1="127.85" y1="376.449" x2="126.729" y2="68.0374" gradientUnits="userSpaceOnUse">
<stop stop-color="#E26682"/>
<stop offset="1" stop-color="#FE8072"/>
</linearGradient>
</defs>
</svg>
