<svg width="2415" height="320" viewBox="0 0 2415 320" fill="none" xmlns="http://www.w3.org/2000/svg">
<path d="M240 160C240 93.7258 186.274 40 120 40H0V280H240V160Z" fill="url(#paint0_linear_4863_1443)"/>
<path fill-rule="evenodd" clip-rule="evenodd" d="M175.602 217.755V125.436C175.602 120.678 171.745 116.821 166.987 116.821H74.4715C69.7138 116.821 65.8569 120.678 65.8569 125.436V217.755C65.8569 220.253 66.9416 222.629 68.8296 224.265L78.5058 232.651C81.7437 235.457 86.5518 235.457 89.7897 232.651L96.7966 226.578C100.034 223.772 104.843 223.772 108.08 226.578L115.087 232.651C118.325 235.457 123.133 235.457 126.371 232.651L133.378 226.578C136.616 223.772 141.424 223.772 144.662 226.578L151.669 232.651C154.907 235.457 159.715 235.457 162.953 232.651L172.629 224.265C174.517 222.629 175.602 220.253 175.602 217.755ZM76.8359 142.434C76.8359 138.393 80.1116 135.117 84.1523 135.117H131.708C135.749 135.117 139.025 138.393 139.025 142.434C139.025 146.474 135.749 149.75 131.708 149.75H84.1523C80.1116 149.75 76.8359 146.474 76.8359 142.434ZM84.1523 160.718C80.1116 160.718 76.8359 163.993 76.8359 168.034C76.8359 172.075 80.1116 175.35 84.1523 175.35H157.315C161.356 175.35 164.632 172.075 164.632 168.034C164.632 163.993 161.356 160.718 157.315 160.718H84.1523Z" fill="white"/>
<path fill-rule="evenodd" clip-rule="evenodd" d="M450.433 103.135H366.197L407.876 144.125H450.433C477.254 144.125 498.973 165.379 498.973 191.567V280H540.87V191.567C540.87 142.714 500.367 103.135 450.433 103.135ZM401.894 150.093L359.997 108.889V280H401.894V150.093ZM724.905 251.085L698.319 223.563L696.726 225.067C687.5 233.777 672.039 242.19 650.671 242.19C635.648 242.19 624.068 238.448 615.696 231.971C607.962 225.988 602.794 217.539 600.229 207.128H734.727L734.827 205.068C736.241 175.709 728.747 150.222 713.425 132.035C698.07 113.81 675.033 103.135 645.864 103.135C594.347 103.135 554.122 141.083 554.122 191.576C554.122 216.943 563.634 239.09 580.596 254.889C597.551 270.683 621.807 280 651.075 280C685.257 280 707.395 268.337 723.392 252.576L724.905 251.085ZM919.03 251.085L892.444 223.563L890.851 225.067C881.625 233.777 866.164 242.19 844.797 242.19C829.773 242.19 818.193 238.448 809.822 231.971C802.088 225.988 796.919 217.539 794.355 207.128H928.853L928.952 205.068C930.366 175.709 922.873 150.222 907.551 132.035C892.196 113.81 869.159 103.135 839.99 103.135C788.473 103.135 748.248 141.083 748.248 191.576C748.248 216.943 757.76 239.09 774.721 254.889C791.677 270.683 815.932 280 845.2 280C879.382 280 901.521 268.337 917.517 252.576L919.03 251.085ZM971.964 104.622H942.373V142.395H971.964V208.354C971.964 234.987 975.941 253.142 987.212 264.529C998.499 275.932 1016.55 280 1043.11 280H1050.87V241.269H1048.67C1040.69 241.269 1034.55 240.969 1029.8 240.084C1025.07 239.202 1021.93 237.774 1019.75 235.671C1017.56 233.574 1016.09 230.571 1015.19 226.059C1014.27 221.52 1013.97 215.652 1013.97 208.009V142.395H1050.87V104.622H1013.97V60H971.964V104.622ZM646.274 140.563C659.802 140.563 669.724 144.548 676.697 151.047C683.157 157.068 687.262 165.416 689.229 175.226H600.212C602.779 164.48 608.009 156.09 615.32 150.269C623.207 143.989 633.688 140.563 646.274 140.563ZM840.399 140.563C853.928 140.563 863.85 144.548 870.822 151.047C877.282 157.068 881.387 165.416 883.354 175.226H794.337C796.905 164.48 802.135 156.09 809.445 150.269C817.333 143.989 827.813 140.563 840.399 140.563ZM1154.39 140.642C1182.34 140.642 1204.56 163.49 1204.56 191.57C1204.56 219.645 1182.34 242.493 1154.39 242.493C1126.45 242.493 1104.56 219.664 1104.56 191.57C1104.56 163.471 1126.45 140.642 1154.39 140.642ZM1154.39 103.135C1104.23 103.135 1064.12 141.913 1064.12 191.57C1064.12 240.886 1104.22 280 1154.39 280C1204.55 280 1245 240.897 1245 191.57C1245 141.903 1204.54 103.135 1154.39 103.135Z" fill="#11243E"/>
<path d="M1320.49 56.9467V275.653H1276.62V56.9467H1320.49Z" fill="#11243E"/>
<path d="M1456.69 99.56C1477.37 99.56 1494.08 106.14 1506.82 119.3C1519.56 132.251 1525.93 150.424 1525.93 173.82V275.653H1482.07V179.773C1482.07 165.987 1478.62 155.438 1471.73 148.127C1464.83 140.607 1455.43 136.847 1443.53 136.847C1431.41 136.847 1421.8 140.607 1414.7 148.127C1407.81 155.438 1404.36 165.987 1404.36 179.773V275.653H1360.49V102.067H1404.36V123.687C1410.21 116.167 1417.62 110.318 1426.61 106.14C1435.8 101.753 1445.82 99.56 1456.69 99.56Z" fill="#11243E"/>
<path d="M1636.69 235.233L1680.56 102.067H1727.25L1663.01 275.653H1609.75L1545.83 102.067H1592.83L1636.69 235.233Z" fill="#11243E"/>
<path d="M1825.63 278.473C1808.92 278.473 1793.88 274.818 1780.51 267.507C1767.14 259.987 1756.59 249.438 1748.87 235.86C1741.35 222.282 1737.59 206.616 1737.59 188.86C1737.59 171.104 1741.45 155.438 1749.18 141.86C1757.12 128.282 1767.87 117.838 1781.45 110.527C1795.03 103.007 1810.17 99.2467 1826.89 99.2467C1843.6 99.2467 1858.74 103.007 1872.32 110.527C1885.9 117.838 1896.55 128.282 1904.28 141.86C1912.22 155.438 1916.19 171.104 1916.19 188.86C1916.19 206.616 1912.11 222.282 1903.97 235.86C1896.03 249.438 1885.17 259.987 1871.38 267.507C1857.8 274.818 1842.55 278.473 1825.63 278.473ZM1825.63 240.247C1833.57 240.247 1840.99 238.367 1847.88 234.607C1854.98 230.638 1860.62 224.789 1864.8 217.06C1868.98 209.331 1871.07 199.931 1871.07 188.86C1871.07 172.358 1866.68 159.72 1857.91 150.947C1849.34 141.964 1838.79 137.473 1826.26 137.473C1813.73 137.473 1803.18 141.964 1794.61 150.947C1786.26 159.72 1782.08 172.358 1782.08 188.86C1782.08 205.362 1786.15 218.104 1794.3 227.087C1802.65 235.86 1813.1 240.247 1825.63 240.247Z" fill="#11243E"/>
<path d="M1967.28 81.3867C1959.55 81.3867 1953.07 78.9845 1947.85 74.18C1942.84 69.1667 1940.33 63.0044 1940.33 55.6933C1940.33 48.3822 1942.84 42.3244 1947.85 37.52C1953.07 32.5067 1959.55 30 1967.28 30C1975.01 30 1981.38 32.5067 1986.39 37.52C1991.61 42.3244 1994.22 48.3822 1994.22 55.6933C1994.22 63.0044 1991.61 69.1667 1986.39 74.18C1981.38 78.9845 1975.01 81.3867 1967.28 81.3867ZM1988.9 102.067V275.653H1945.03V102.067H1988.9Z" fill="#11243E"/>
<path d="M2017.62 188.86C2017.62 170.896 2021.28 155.229 2028.59 141.86C2035.9 128.282 2046.03 117.838 2058.98 110.527C2071.93 103.007 2086.77 99.2467 2103.48 99.2467C2124.99 99.2467 2142.75 104.678 2156.74 115.54C2170.95 126.193 2180.45 141.233 2185.26 160.66H2137.94C2135.44 153.14 2131.15 147.291 2125.1 143.113C2119.25 138.727 2111.94 136.533 2103.16 136.533C2090.63 136.533 2080.71 141.129 2073.4 150.32C2066.09 159.302 2062.43 172.149 2062.43 188.86C2062.43 205.362 2066.09 218.209 2073.4 227.4C2080.71 236.382 2090.63 240.873 2103.16 240.873C2120.92 240.873 2132.51 232.936 2137.94 217.06H2185.26C2180.45 235.86 2170.95 250.796 2156.74 261.867C2142.54 272.938 2124.78 278.473 2103.48 278.473C2086.77 278.473 2071.93 274.818 2058.98 267.507C2046.03 259.987 2035.9 249.542 2028.59 236.173C2021.28 222.596 2017.62 206.824 2017.62 188.86Z" fill="#11243E"/>
<path d="M2375.43 185.1C2375.43 191.367 2375.01 197.007 2374.17 202.02H2247.27C2248.32 214.553 2252.7 224.371 2260.43 231.473C2268.16 238.576 2277.67 242.127 2288.95 242.127C2305.24 242.127 2316.83 235.129 2323.73 221.133H2371.04C2366.03 237.844 2356.42 251.631 2342.21 262.493C2328.01 273.147 2310.57 278.473 2289.89 278.473C2273.18 278.473 2258.14 274.818 2244.77 267.507C2231.61 259.987 2221.27 249.438 2213.75 235.86C2206.44 222.282 2202.78 206.616 2202.78 188.86C2202.78 170.896 2206.44 155.124 2213.75 141.547C2221.06 127.969 2231.29 117.524 2244.45 110.213C2257.61 102.902 2272.76 99.2467 2289.89 99.2467C2306.39 99.2467 2321.12 102.798 2334.07 109.9C2347.23 117.002 2357.36 127.133 2364.46 140.293C2371.77 153.244 2375.43 168.18 2375.43 185.1ZM2329.99 172.567C2329.78 161.287 2325.71 152.304 2317.77 145.62C2309.84 138.727 2300.12 135.28 2288.63 135.28C2277.77 135.28 2268.58 138.622 2261.06 145.307C2253.75 151.782 2249.26 160.869 2247.59 172.567H2329.99Z" fill="#11243E"/>
<defs>
<linearGradient id="paint0_linear_4863_1443" x1="121.469" y1="449.714" x2="121.469" y2="-7.55607" gradientUnits="userSpaceOnUse">
<stop stop-color="#46A0D3"/>
<stop offset="1" stop-color="#72DAE0"/>
</linearGradient>
</defs>
</svg>
