<svg width="369" height="64" viewBox="0 0 369 64" fill="none" xmlns="http://www.w3.org/2000/svg">
<path d="M55.9774 31.9876C55.9774 18.7379 45.2364 7.99689 31.9868 7.99689H7.99609V55.9782H55.9774V31.9876Z" fill="url(#paint0_linear_5723_5621)"/>
<g filter="url(#filter0_d_5723_5621)">
<rect x="24.9336" y="34.652" width="2.87719" height="2.87719" rx="0.239766" fill="white"/>
<rect x="24.9336" y="38.394" width="2.87719" height="2.87719" rx="0.239766" fill="white"/>
<rect x="28.6738" y="30.9133" width="2.87719" height="2.87719" rx="0.239766" fill="white"/>
<rect x="28.6738" y="34.652" width="2.87719" height="2.87719" rx="0.239766" fill="white"/>
<rect x="28.6738" y="38.394" width="2.87719" height="2.87719" rx="0.239766" fill="white"/>
<rect x="32.416" y="30.9133" width="2.87719" height="2.87719" rx="0.239766" fill="white"/>
<rect x="36.1582" y="30.9133" width="2.87719" height="2.87719" rx="0.239766" fill="white"/>
<rect x="32.416" y="34.652" width="2.87719" height="2.87719" rx="0.239766" fill="white"/>
<rect x="32.416" y="38.394" width="2.87719" height="2.87719" rx="0.239766" fill="white"/>
<rect x="36.1582" y="34.652" width="2.87719" height="2.87719" rx="0.239766" fill="white"/>
<rect x="25.9434" y="21.7059" width="2.15789" height="4.02806" rx="1.07895" fill="white"/>
<rect x="35.8672" y="21.7059" width="2.15789" height="4.02806" rx="1.07895" fill="white"/>
<path fill-rule="evenodd" clip-rule="evenodd" d="M35.4387 23.4328H28.5343V24.6548C28.5343 25.489 27.858 26.1653 27.0237 26.1653C26.1895 26.1653 25.5132 25.489 25.5132 24.6548V23.4328H23.449C21.7275 23.4328 20.332 24.8283 20.332 26.5498V42.7579C20.332 44.4794 21.7275 45.8749 23.449 45.8749H40.5203C42.2417 45.8749 43.6373 44.4794 43.6373 42.7579V26.5498C43.6373 24.8283 42.2417 23.4328 40.5203 23.4328H38.4597V24.6548C38.4597 25.489 37.7834 26.1653 36.9492 26.1653C36.115 26.1653 35.4387 25.489 35.4387 24.6548V23.4328ZM23.6898 29.1864C23.425 29.1864 23.2103 29.4011 23.2103 29.6659V42.5173C23.2103 42.7822 23.425 42.9969 23.6898 42.9969H40.2816C40.5464 42.9969 40.7611 42.7822 40.7611 42.5173V29.6659C40.7611 29.4011 40.5464 29.1864 40.2816 29.1864H23.6898Z" fill="white"/>
</g>
<path fill-rule="evenodd" clip-rule="evenodd" d="M98.0491 19.5567H81.2084L89.5409 27.7516H98.0491C103.411 27.7516 107.753 32.0007 107.753 37.2364V54.916H116.129V37.2364C116.129 27.4696 108.032 19.5567 98.0491 19.5567ZM88.3449 28.9448L79.9688 20.7071V54.916H88.3449V28.9448ZM152.922 49.1352L147.607 43.6329L147.288 43.9336C145.444 45.675 142.353 47.3569 138.081 47.3569C135.078 47.3569 132.762 46.6087 131.089 45.3139C129.543 44.1178 128.509 42.4287 127.997 40.3473H154.886L154.906 39.9354C155.188 34.0658 153.69 28.9704 150.627 25.3345C147.557 21.6908 142.952 19.5567 137.12 19.5567C126.821 19.5567 118.779 27.1434 118.779 37.2381C118.779 42.3094 120.68 46.7373 124.071 49.8958C127.461 53.0533 132.31 54.916 138.162 54.916C144.996 54.916 149.421 52.5843 152.619 49.4332L152.922 49.1352ZM191.732 49.1352L186.417 43.6329L186.098 43.9336C184.254 45.675 181.163 47.3569 176.891 47.3569C173.888 47.3569 171.572 46.6087 169.899 45.3139C168.353 44.1178 167.319 42.4287 166.807 40.3473H193.696L193.716 39.9354C193.998 34.0658 192.5 28.9704 189.437 25.3345C186.367 21.6908 181.762 19.5567 175.93 19.5567C165.631 19.5567 157.589 27.1434 157.589 37.2381C157.589 42.3094 159.49 46.7373 162.881 49.8958C166.271 53.0533 171.12 54.916 176.972 54.916C183.806 54.916 188.231 52.5843 191.43 49.4332L191.732 49.1352ZM202.315 19.8541H196.399V27.4058H202.315V40.5924C202.315 45.9168 203.11 49.5466 205.363 51.8229C207.62 54.1028 211.229 54.916 216.537 54.916H218.09V47.1728H217.651C216.054 47.1728 214.827 47.1129 213.878 46.9358C212.932 46.7595 212.304 46.4741 211.867 46.0537C211.431 45.6343 211.137 45.0341 210.956 44.1319C210.773 43.2246 210.712 42.0515 210.712 40.5235V27.4058H218.09V19.8541H210.712V10.9331H202.315V19.8541ZM137.202 27.0395C139.907 27.0395 141.89 27.836 143.284 29.1354C144.576 30.3392 145.396 32.008 145.79 33.9694H127.993C128.506 31.8209 129.552 30.1436 131.013 28.9799C132.59 27.7243 134.686 27.0395 137.202 27.0395ZM176.012 27.0395C178.717 27.0395 180.7 27.836 182.094 29.1354C183.386 30.3392 184.206 32.008 184.6 33.9694H166.803C167.316 31.8209 168.362 30.1436 169.823 28.9799C171.4 27.7243 173.496 27.0395 176.012 27.0395ZM238.786 27.0552C244.374 27.0552 248.816 31.623 248.816 37.2369C248.816 42.8497 244.374 47.4176 238.786 47.4176C233.2 47.4176 228.824 42.8534 228.824 37.2369C228.824 31.6192 233.2 27.0552 238.786 27.0552ZM238.786 19.5567C228.757 19.5567 220.739 27.3094 220.739 37.2369C220.739 47.0962 228.756 54.916 238.786 54.916C248.813 54.916 256.9 47.0984 256.9 37.2369C256.9 27.3073 248.812 19.5567 238.786 19.5567Z" fill="#11243E"/>
<path d="M260.898 32.4274C260.898 28.1259 261.859 24.2839 263.78 20.9012C265.743 17.4768 268.395 14.8249 271.736 12.9456C275.118 11.0246 278.898 10.0641 283.074 10.0641C287.96 10.0641 292.24 11.3169 295.915 13.8226C299.591 16.3283 302.159 19.7945 303.62 24.2212H293.535C292.533 22.1332 291.113 20.5671 289.275 19.5231C287.48 18.479 285.392 17.957 283.011 17.957C280.464 17.957 278.188 18.5626 276.183 19.7736C274.22 20.943 272.675 22.6134 271.548 24.785C270.462 26.9566 269.919 29.5041 269.919 32.4274C269.919 35.3089 270.462 37.8564 271.548 40.0697C272.675 42.2413 274.22 43.9327 276.183 45.1438C278.188 46.3131 280.464 46.8978 283.011 46.8978C285.392 46.8978 287.48 46.3757 289.275 45.3317C291.113 44.2459 292.533 42.659 293.535 40.5709H303.62C302.159 45.0394 299.591 48.5265 295.915 51.0322C292.282 53.4961 288.002 54.728 283.074 54.728C278.898 54.728 275.118 53.7884 271.736 51.9091C268.395 49.9881 265.743 47.3363 263.78 43.9536C261.859 40.5709 260.898 36.7288 260.898 32.4274Z" fill="#11243E"/>
<path d="M308.19 36.875C308.19 33.367 308.879 30.2558 310.257 27.5413C311.677 24.8268 313.577 22.7387 315.957 21.2771C318.379 19.8154 321.073 19.0846 324.038 19.0846C326.627 19.0846 328.882 19.6066 330.803 20.6506C332.766 21.6947 334.332 23.0102 335.502 24.5971V19.6484H344.334V54.3522H335.502V49.2782C334.374 50.9069 332.808 52.2641 330.803 53.3499C328.841 54.394 326.565 54.916 323.975 54.916C321.052 54.916 318.379 54.1643 315.957 52.6609C313.577 51.1574 311.677 49.0485 310.257 46.334C308.879 43.5777 308.19 40.4247 308.19 36.875ZM335.502 37.0003C335.502 34.8704 335.084 33.0538 334.249 31.5504C333.414 30.0052 332.286 28.8359 330.866 28.0424C329.446 27.2072 327.922 26.7896 326.293 26.7896C324.665 26.7896 323.161 27.1863 321.783 27.9798C320.405 28.7733 319.277 29.9426 318.4 31.4878C317.565 32.9912 317.147 34.7869 317.147 36.875C317.147 38.9631 317.565 40.8006 318.4 42.3875C319.277 43.9327 320.405 45.1229 321.783 45.9581C323.203 46.7934 324.706 47.211 326.293 47.211C327.922 47.211 329.446 46.8142 330.866 46.0208C332.286 45.1855 333.414 44.0162 334.249 42.5128C335.084 40.9676 335.502 39.1301 335.502 37.0003Z" fill="#11243E"/>
<path d="M361.003 7.99689V54.3522H352.233V7.99689H361.003Z" fill="#11243E"/>
<defs>
<filter id="filter0_d_5723_5621" x="20.332" y="21.7059" width="29.3024" height="31.1662" filterUnits="userSpaceOnUse" color-interpolation-filters="sRGB">
<feFlood flood-opacity="0" result="BackgroundImageFix"/>
<feColorMatrix in="SourceAlpha" type="matrix" values="0 0 0 0 0 0 0 0 0 0 0 0 0 0 0 0 0 0 127 0" result="hardAlpha"/>
<feOffset dx="2.99883" dy="3.99844"/>
<feGaussianBlur stdDeviation="1.49942"/>
<feComposite in2="hardAlpha" operator="out"/>
<feColorMatrix type="matrix" values="0 0 0 0 0 0 0 0 0 0 0 0 0 0 0 0 0 0 0.05 0"/>
<feBlend mode="normal" in2="BackgroundImageFix" result="effect1_dropShadow_5723_5621"/>
<feBlend mode="normal" in="SourceGraphic" in2="effect1_dropShadow_5723_5621" result="shape"/>
</filter>
<linearGradient id="paint0_linear_5723_5621" x1="55.9774" y1="65.7459" x2="33.332" y2="13.6022" gradientUnits="userSpaceOnUse">
<stop stop-color="#EE4D5F"/>
<stop offset="1" stop-color="#FFCDA5"/>
</linearGradient>
</defs>
</svg>
