<svg width="484" height="73" viewBox="0 0 484 73" fill="none" xmlns="http://www.w3.org/2000/svg">
<path d="M56 31.9956C56 18.7408 45.2548 7.99561 32 7.99561H8V55.9956H56V31.9956Z" fill="url(#paint0_linear_5723_5871)"/>
<g filter="url(#filter0_d_5723_5871)">
<path d="M18.9347 35.5293C21.0632 32.4654 22.3153 30.4915 23.2281 29.0327C19.72 29.343 16.3574 33.7082 16.3574 33.7082L18.673 36.0236C18.7401 35.8524 18.8259 35.6861 18.9347 35.5293Z" fill="white"/>
<path d="M27.9746 45.3274L30.2886 47.6413C30.2886 47.6413 34.6536 44.279 34.964 40.771C33.5057 41.6835 31.5324 42.9351 28.4675 45.0641C28.3125 45.1717 28.1472 45.2596 27.9746 45.3274Z" fill="white"/>
<path d="M24.4561 44.1303C24.0589 44.2908 23.6685 44.4614 23.2615 44.5974C22.1744 44.9608 21.0548 45.2063 19.9196 45.3629C19.4438 45.4286 18.9635 45.4843 18.4825 45.5208C18.4871 45.4614 18.4915 45.4019 18.4965 45.3426C18.5958 44.186 18.7717 43.0354 19.0561 41.9091C19.193 41.3655 19.3679 40.8371 19.5555 40.3095C19.6722 39.9814 19.8178 39.6675 19.9647 39.3535L19.7101 39.0991C19.1439 39.4795 18.6515 39.96 18.2336 40.5038C17.6149 41.3089 17.1512 42.2211 16.827 43.1822C16.4788 44.2143 16.2711 45.3073 16.2387 46.397C16.2342 46.55 16.2236 46.7064 16.2474 46.8583C16.2779 47.0545 16.364 47.2402 16.4935 47.3906C16.6216 47.5395 16.7902 47.6519 16.977 47.7121C17.1339 47.7627 17.2916 47.7636 17.4543 47.7624C18.4435 47.7541 19.4481 47.5823 20.395 47.3009C22.1268 46.7864 23.8751 45.8184 24.8999 44.2887L24.6522 44.0412C24.5872 44.0717 24.5221 44.1016 24.4561 44.1303Z" fill="white"/>
<path d="M43.7214 20.2778C43.7214 20.2778 43.7212 20.2777 43.721 20.2776C43.5408 20.0975 43.2966 19.9966 43.0424 19.9966C43.0361 19.9966 43.0297 19.9967 43.0234 19.9968C39.9324 20.0574 32.3061 20.6355 28.2561 24.6858C26.4176 26.5243 25.82 27.4814 24.5103 29.5787C23.5671 31.0887 22.2758 33.157 19.9158 36.5539C19.6507 36.9356 19.6968 37.4524 20.0255 37.7809L26.2172 43.9728C26.403 44.1586 26.649 44.2542 26.8967 44.2542C27.0871 44.2542 27.2783 44.1978 27.4443 44.0825C30.8424 41.722 32.9099 40.431 34.4194 39.4881C36.5165 38.1785 37.4738 37.5808 39.3127 35.7421C43.3699 31.6846 43.944 24.0634 44.0022 20.975C44.0073 20.7142 43.9058 20.4625 43.7214 20.2778ZM36.5515 31.9608C35.3049 33.2073 33.2841 33.2073 32.0375 31.9608C30.7908 30.7142 30.791 28.6935 32.0377 27.447C33.2841 26.2005 35.3049 26.2003 36.5515 27.4468C37.7977 28.6932 37.7979 30.7144 36.5515 31.9608Z" fill="white"/>
</g>
<path fill-rule="evenodd" clip-rule="evenodd" d="M98.0873 20.6226H81.2401L89.5759 28.8206H98.0873C103.452 28.8206 107.795 33.0714 107.795 38.3091V55.9956H116.175V38.3091C116.175 28.5385 108.074 20.6226 98.0873 20.6226ZM88.3794 30.0143L80 21.7734V55.9956H88.3794V30.0143ZM152.982 50.2125L147.664 44.7081L147.346 45.009C145.501 46.751 142.408 48.4336 138.135 48.4336C135.13 48.4336 132.814 47.6851 131.14 46.3898C129.593 45.1932 128.559 43.5034 128.047 41.4212H154.946L154.966 41.0092C155.249 35.1373 153.75 30.0399 150.686 26.4026C147.615 22.7575 143.007 20.6226 137.173 20.6226C126.87 20.6226 118.825 28.2122 118.825 38.3108C118.825 43.3842 120.728 47.8137 124.12 50.9734C127.511 54.1321 132.362 55.9956 138.216 55.9956C145.052 55.9956 149.48 53.663 152.679 50.5107L152.982 50.2125ZM191.807 50.2125L186.49 44.7081L186.171 45.009C184.326 46.751 181.233 48.4336 176.96 48.4336C173.955 48.4336 171.639 47.6851 169.965 46.3898C168.418 45.1932 167.385 43.5034 166.872 41.4212H193.771L193.791 41.0092C194.074 35.1373 192.575 30.0399 189.511 26.4026C186.44 22.7575 181.832 20.6226 175.999 20.6226C165.695 20.6226 157.65 28.2122 157.65 38.3108C157.65 43.3842 159.553 47.8137 162.945 50.9734C166.336 54.1321 171.187 55.9956 177.041 55.9956C183.877 55.9956 188.305 53.663 191.504 50.5107L191.807 50.2125ZM202.393 20.9201H196.475V28.4747H202.393V41.6664C202.393 46.9929 203.189 50.6241 205.443 52.9013C207.701 55.1821 211.311 55.9956 216.622 55.9956H218.175V48.2494H217.735C216.138 48.2494 214.91 48.1894 213.961 48.0123C213.015 47.8359 212.387 47.5505 211.95 47.1299C211.514 46.7103 211.22 46.1098 211.038 45.2073C210.856 44.2997 210.794 43.1261 210.794 41.5975V28.4747H218.175V20.9201H210.794V11.9956H202.393V20.9201ZM137.255 28.1083C139.961 28.1083 141.946 28.9051 143.34 30.205C144.632 31.4093 145.453 33.0787 145.846 35.0409H128.043C128.557 32.8916 129.603 31.2136 131.065 30.0494C132.642 28.7934 134.738 28.1083 137.255 28.1083ZM176.081 28.1083C178.786 28.1083 180.771 28.9051 182.165 30.205C183.457 31.4093 184.278 33.0787 184.672 35.0409H166.868C167.382 32.8916 168.428 31.2136 169.89 30.0494C171.467 28.7934 173.563 28.1083 176.081 28.1083ZM238.879 28.1239C244.469 28.1239 248.913 32.6936 248.913 38.3097C248.913 43.9246 244.469 48.4943 238.879 48.4943C233.291 48.4943 228.913 43.9284 228.913 38.3097C228.913 32.6898 233.291 28.1239 238.879 28.1239ZM238.879 20.6226C228.846 20.6226 220.825 28.3783 220.825 38.3097C220.825 48.1728 228.845 55.9956 238.879 55.9956C248.91 55.9956 257 48.175 257 38.3097C257 28.3761 248.909 20.6226 238.879 20.6226Z" fill="#11243E"/>
<path d="M278.291 12.6276C282.886 12.6276 286.918 13.5258 290.385 15.3223C293.895 17.1187 296.589 19.688 298.469 23.0303C300.391 26.3307 301.352 30.1743 301.352 34.5609C301.352 38.9476 300.391 42.7912 298.469 46.0916C296.589 49.3503 293.895 51.8778 290.385 53.6743C286.918 55.4707 282.886 56.3689 278.291 56.3689H263V12.6276H278.291ZM277.977 48.9116C282.573 48.9116 286.124 47.6583 288.631 45.1516C291.137 42.6449 292.391 39.1147 292.391 34.5609C292.391 30.0072 291.137 26.4561 288.631 23.9076C286.124 21.3174 282.573 20.0223 277.977 20.0223H271.773V48.9116H277.977Z" fill="#11243E"/>
<path d="M339.526 38.2583C339.526 39.5116 339.442 40.6396 339.275 41.6423H313.895C314.104 44.1489 314.981 46.1125 316.527 47.5329C318.073 48.9534 319.974 49.6636 322.23 49.6636C325.489 49.6636 327.807 48.2641 329.186 45.4649H338.649C337.646 48.8072 335.724 51.5645 332.883 53.7369C330.042 55.8676 326.554 56.9329 322.418 56.9329C319.076 56.9329 316.068 56.2018 313.394 54.7396C310.762 53.2356 308.694 51.1258 307.19 48.4103C305.728 45.6947 304.997 42.5614 304.997 39.0103C304.997 35.4174 305.728 32.2632 307.19 29.5476C308.652 26.832 310.699 24.7432 313.331 23.2809C315.963 21.8187 318.992 21.0876 322.418 21.0876C325.718 21.0876 328.664 21.7978 331.254 23.2183C333.886 24.6387 335.912 26.6649 337.333 29.2969C338.795 31.8872 339.526 34.8743 339.526 38.2583ZM330.439 35.7516C330.397 33.4956 329.583 31.6992 327.995 30.3623C326.408 28.9836 324.465 28.2943 322.167 28.2943C319.995 28.2943 318.157 28.9627 316.653 30.2996C315.19 31.5947 314.292 33.412 313.958 35.7516H330.439Z" fill="#11243E"/>
<path d="M354.036 26.6649C355.164 25.0774 356.71 23.7614 358.674 22.7169C360.679 21.6307 362.956 21.0876 365.504 21.0876C368.471 21.0876 371.144 21.8187 373.526 23.2809C375.949 24.7432 377.85 26.832 379.228 29.5476C380.649 32.2214 381.359 35.3338 381.359 38.8849C381.359 42.4361 380.649 45.5903 379.228 48.3476C377.85 51.0632 375.949 53.1729 373.526 54.6769C371.144 56.1809 368.471 56.9329 365.504 56.9329C362.956 56.9329 360.7 56.4107 358.736 55.3663C356.815 54.3218 355.248 53.0058 354.036 51.4183V72.9129H345.263V21.6516H354.036V26.6649ZM372.398 38.8849C372.398 36.796 371.959 34.9996 371.082 33.4956C370.246 31.9498 369.118 30.78 367.698 29.9863C366.319 29.1925 364.815 28.7956 363.186 28.7956C361.598 28.7956 360.094 29.2134 358.674 30.0489C357.295 30.8427 356.167 32.0125 355.29 33.5583C354.454 35.104 354.036 36.9214 354.036 39.0103C354.036 41.0992 354.454 42.9165 355.29 44.4623C356.167 46.0081 357.295 47.1987 358.674 48.0343C360.094 48.8281 361.598 49.2249 363.186 49.2249C364.815 49.2249 366.319 48.8072 367.698 47.9716C369.118 47.1361 370.246 45.9454 371.082 44.3996C371.959 42.8538 372.398 41.0156 372.398 38.8849Z" fill="#11243E"/>
<path d="M395.841 9.99561V56.3689H387.068V9.99561H395.841Z" fill="#11243E"/>
<path d="M419.258 56.9329C415.916 56.9329 412.908 56.2018 410.234 54.7396C407.561 53.2356 405.451 51.1258 403.905 48.4103C402.401 45.6947 401.649 42.5614 401.649 39.0103C401.649 35.4592 402.422 32.3258 403.968 29.6103C405.555 26.8947 407.707 24.8058 410.422 23.3436C413.138 21.8396 416.167 21.0876 419.509 21.0876C422.851 21.0876 425.88 21.8396 428.596 23.3436C431.311 24.8058 433.442 26.8947 434.988 29.6103C436.575 32.3258 437.369 35.4592 437.369 39.0103C437.369 42.5614 436.554 45.6947 434.925 48.4103C433.338 51.1258 431.165 53.2356 428.408 54.7396C425.692 56.2018 422.642 56.9329 419.258 56.9329ZM419.258 49.2876C420.846 49.2876 422.329 48.9116 423.708 48.1596C425.128 47.3658 426.256 46.1961 427.092 44.6503C427.927 43.1045 428.345 41.2245 428.345 39.0103C428.345 35.7098 427.468 33.1823 425.713 31.4276C424 29.6312 421.89 28.7329 419.384 28.7329C416.877 28.7329 414.767 29.6312 413.054 31.4276C411.383 33.1823 410.548 35.7098 410.548 39.0103C410.548 42.3107 411.362 44.8592 412.992 46.6556C414.663 48.4103 416.752 49.2876 419.258 49.2876Z" fill="#11243E"/>
<path d="M476.351 21.6516L454.857 72.7876H445.519L453.039 55.4916L439.127 21.6516H448.966L457.927 45.9036L467.014 21.6516H476.351Z" fill="#11243E"/>
<defs>
<filter id="filter0_d_5723_5871" x="16.2324" y="18.9966" width="37.7695" height="37.7661" filterUnits="userSpaceOnUse" color-interpolation-filters="sRGB">
<feFlood flood-opacity="0" result="BackgroundImageFix"/>
<feColorMatrix in="SourceAlpha" type="matrix" values="0 0 0 0 0 0 0 0 0 0 0 0 0 0 0 0 0 0 127 0" result="hardAlpha"/>
<feOffset dx="5" dy="4"/>
<feGaussianBlur stdDeviation="2.5"/>
<feComposite in2="hardAlpha" operator="out"/>
<feColorMatrix type="matrix" values="0 0 0 0 0 0 0 0 0 0 0 0 0 0 0 0 0 0 0.05 0"/>
<feBlend mode="normal" in2="BackgroundImageFix" result="effect1_dropShadow_5723_5871"/>
<feBlend mode="normal" in="SourceGraphic" in2="effect1_dropShadow_5723_5871" result="shape"/>
</filter>
<linearGradient id="paint0_linear_5723_5871" x1="65.7714" y1="79.8242" x2="-0.228572" y2="-3.66154" gradientUnits="userSpaceOnUse">
<stop stop-color="#67BDE2"/>
<stop offset="1" stop-color="#14D1A4"/>
</linearGradient>
</defs>
</svg>
