<svg width="401" height="65" viewBox="0 0 401 65" fill="none" xmlns="http://www.w3.org/2000/svg">
<path d="M56 31.9956C56 18.7408 45.2548 7.99561 32 7.99561H8V55.9956H56V31.9956Z" fill="url(#paint0_linear_5723_5783)"/>
<g filter="url(#filter0_d_5723_5783)">
<path fill-rule="evenodd" clip-rule="evenodd" d="M23.8962 21.7092H28.0748C29.1723 21.7092 30.259 21.9222 31.273 22.3361C32.2869 22.75 33.2082 23.3566 33.9842 24.1213C34.7603 24.886 35.3759 25.7939 35.7958 26.793C36.0168 27.3186 36.1813 27.8641 36.2876 28.4205C35.3893 28.4819 34.5058 28.685 33.6715 29.0232C32.6575 29.4343 31.7363 30.0368 30.9602 30.7963C30.1842 31.5558 29.5686 32.4575 29.1486 33.4499C28.7286 34.4422 28.5125 35.5058 28.5125 36.5799C28.5125 37.6467 28.7009 38.6213 29.0388 39.5142C27.3095 40.4179 25.5039 41.1491 23.8962 41.7828V38.1799C21.6798 38.1799 19.5541 37.3122 17.9868 35.7678C16.4195 34.2234 15.5391 32.1287 15.5391 29.9446C15.5391 27.7604 16.4195 25.6657 17.9868 24.1213C19.5541 22.5769 21.6798 21.7092 23.8962 21.7092ZM36.3369 31.2382C35.8944 34.182 33.9553 36.3575 31.5157 38.0375C31.3893 37.5736 31.3252 37.0891 31.3252 36.5799C31.3252 35.8837 31.4653 35.1928 31.7389 34.5461C32.0127 33.8993 32.4156 33.3077 32.9276 32.8065C33.4398 32.3052 34.0512 31.9044 34.7282 31.63C35.2415 31.4219 35.7838 31.2899 36.3369 31.2382Z" fill="white"/>
<path fill-rule="evenodd" clip-rule="evenodd" d="M40.9069 29.2556H37.1183C36.1232 29.2556 35.1379 29.4464 34.2186 29.8171C33.2993 30.1878 32.464 30.7312 31.7603 31.4161C31.0567 32.1011 30.4986 32.9142 30.1178 33.8092C29.737 34.7041 29.541 35.6633 29.541 36.632C29.541 42.6253 36.1711 45.3915 40.9069 47.2356V44.0084C42.9165 44.0084 44.8439 43.2313 46.2649 41.8479C47.6859 40.4646 48.4842 38.5884 48.4842 36.632C48.4842 34.6757 47.6859 32.7995 46.2649 31.4161C44.8439 30.0328 42.9165 29.2556 40.9069 29.2556ZM36.7532 34.5778C36.5466 34.9063 36.4434 35.2313 36.4434 35.553C36.4434 35.7088 36.5077 35.8544 36.6364 35.9899C36.7684 36.1219 36.9293 36.188 37.1189 36.188C37.4406 36.188 37.659 35.9966 37.7742 35.614C37.8961 35.2483 38.0451 34.9723 38.2212 34.786C38.3973 34.5964 38.6715 34.5016 39.044 34.5016C39.3623 34.5016 39.6214 34.5947 39.8212 34.781C40.0244 34.9672 40.126 35.1958 40.126 35.4667C40.126 35.6055 40.0921 35.7342 40.0244 35.8527C39.96 35.9712 39.8788 36.0796 39.7806 36.1778C39.6857 36.2726 39.53 36.4149 39.3132 36.6045C39.066 36.8212 38.8696 37.0091 38.724 37.1683C38.5784 37.3241 38.4616 37.5069 38.3735 37.7169C38.2855 37.9234 38.2415 38.169 38.2415 38.4534C38.2415 38.6803 38.3007 38.8513 38.4193 38.9664C38.5412 39.0816 38.6902 39.1391 38.8663 39.1391C39.2049 39.1391 39.4064 38.963 39.4707 38.6109C39.508 38.4449 39.535 38.3298 39.552 38.2655C39.5723 38.1977 39.5994 38.1317 39.6333 38.0674C39.6671 37.9996 39.7179 37.9268 39.7856 37.849C39.8567 37.7677 39.9499 37.6746 40.065 37.5696C40.4815 37.1971 40.7694 36.933 40.9285 36.7772C41.0911 36.618 41.2299 36.4301 41.345 36.2134C41.4635 35.9966 41.5228 35.7444 41.5228 35.4565C41.5228 35.0908 41.4195 34.7522 41.213 34.4406C41.0098 34.1291 40.7203 33.8836 40.3444 33.7041C39.9685 33.5213 39.535 33.4298 39.044 33.4298C38.5158 33.4298 38.0535 33.5382 37.6573 33.7549C37.2611 33.9716 36.9598 34.2459 36.7532 34.5778ZM38.3786 40.922C38.5344 41.0541 38.7156 41.1201 38.9221 41.1201C39.1219 41.1201 39.298 41.0524 39.4504 40.9169C39.6028 40.7815 39.679 40.5952 39.679 40.3582C39.679 40.1449 39.6062 39.9654 39.4605 39.8198C39.3149 39.6742 39.1355 39.6014 38.9221 39.6014C38.7054 39.6014 38.5225 39.6742 38.3735 39.8198C38.2246 39.9654 38.1501 40.1449 38.1501 40.3582C38.1501 40.5986 38.2262 40.7866 38.3786 40.922Z" fill="white"/>
</g>
<path fill-rule="evenodd" clip-rule="evenodd" d="M98.0873 21.6226H81.2401L89.5759 29.8206H98.0873C103.452 29.8206 107.795 34.0714 107.795 39.3091V56.9956H116.175V39.3091C116.175 29.5385 108.074 21.6226 98.0873 21.6226ZM88.3794 31.0143L80 22.7734V56.9956H88.3794V31.0143ZM152.982 51.2125L147.664 45.7081L147.346 46.009C145.501 47.751 142.408 49.4336 138.135 49.4336C135.13 49.4336 132.814 48.6851 131.14 47.3898C129.593 46.1932 128.559 44.5034 128.047 42.4212H154.946L154.966 42.0092C155.249 36.1373 153.75 31.0399 150.686 27.4026C147.615 23.7575 143.007 21.6226 137.173 21.6226C126.87 21.6226 118.825 29.2122 118.825 39.3108C118.825 44.3842 120.728 48.8137 124.12 51.9734C127.511 55.1322 132.362 56.9956 138.216 56.9956C145.052 56.9956 149.48 54.663 152.679 51.5107L152.982 51.2125ZM191.807 51.2125L186.49 45.7081L186.171 46.009C184.326 47.751 181.233 49.4336 176.96 49.4336C173.955 49.4336 171.639 48.6851 169.965 47.3898C168.418 46.1932 167.385 44.5034 166.872 42.4212H193.771L193.791 42.0092C194.074 36.1373 192.575 31.0399 189.511 27.4026C186.44 23.7575 181.832 21.6226 175.999 21.6226C165.695 21.6226 157.65 29.2122 157.65 39.3108C157.65 44.3842 159.553 48.8137 162.945 51.9734C166.336 55.1322 171.187 56.9956 177.041 56.9956C183.877 56.9956 188.305 54.663 191.504 51.5107L191.807 51.2125ZM202.393 21.9201H196.475V29.4747H202.393V42.6664C202.393 47.9929 203.189 51.6241 205.443 53.9013C207.701 56.1821 211.311 56.9956 216.622 56.9956H218.175V49.2494H217.735C216.138 49.2494 214.91 49.1894 213.961 49.0123C213.015 48.8359 212.387 48.5505 211.95 48.1299C211.514 47.7103 211.22 47.1098 211.038 46.2073C210.856 45.2997 210.794 44.1261 210.794 42.5975V29.4747H218.175V21.9201H210.794V12.9956H202.393V21.9201ZM137.255 29.1083C139.961 29.1083 141.946 29.9051 143.34 31.205C144.632 32.4093 145.453 34.0787 145.846 36.0409H128.043C128.557 33.8916 129.603 32.2136 131.065 31.0494C132.642 29.7934 134.738 29.1083 137.255 29.1083ZM176.081 29.1083C178.786 29.1083 180.771 29.9051 182.165 31.205C183.457 32.4093 184.278 34.0787 184.672 36.0409H166.868C167.382 33.8916 168.428 32.2136 169.89 31.0494C171.467 29.7934 173.563 29.1083 176.081 29.1083ZM238.879 29.1239C244.469 29.1239 248.913 33.6936 248.913 39.3097C248.913 44.9246 244.469 49.4943 238.879 49.4943C233.291 49.4943 228.913 44.9284 228.913 39.3097C228.913 33.6898 233.291 29.1239 238.879 29.1239ZM238.879 21.6226C228.846 21.6226 220.825 29.3783 220.825 39.3097C220.825 49.1728 228.845 56.9956 238.879 56.9956C248.91 56.9956 257 49.175 257 39.3097C257 29.3761 248.909 21.6226 238.879 21.6226Z" fill="#11243E"/>
<path d="M295.717 64.8343L289.075 56.8756C287.236 57.3352 285.356 57.5649 283.435 57.5649C279.34 57.5649 275.58 56.6041 272.155 54.6823C268.729 52.7605 266.013 50.1076 264.008 46.7236C262.003 43.2978 261 39.4334 261 35.1303C261 30.8689 262.003 27.0463 264.008 23.6623C266.013 20.2365 268.729 17.5627 272.155 15.6409C275.58 13.7192 279.34 12.7583 283.435 12.7583C287.571 12.7583 291.331 13.7192 294.715 15.6409C298.14 17.5627 300.835 20.2365 302.799 23.6623C304.804 27.0463 305.807 30.8689 305.807 35.1303C305.807 39.0156 304.971 42.5667 303.3 45.7836C301.671 48.9587 299.436 51.5489 296.595 53.5543L306.621 64.8343H295.717ZM270.024 35.1303C270.024 38.0547 270.588 40.6241 271.716 42.8383C272.844 45.0525 274.411 46.7654 276.416 47.9769C278.463 49.1467 280.803 49.7316 283.435 49.7316C286.067 49.7316 288.385 49.1467 290.391 47.9769C292.396 46.7654 293.963 45.0525 295.091 42.8383C296.219 40.6241 296.783 38.0547 296.783 35.1303C296.783 32.2058 296.219 29.6574 295.091 27.4849C293.963 25.2707 292.396 23.5787 290.391 22.4089C288.385 21.2392 286.067 20.6543 283.435 20.6543C280.803 20.6543 278.463 21.2392 276.416 22.4089C274.411 23.5787 272.844 25.2707 271.716 27.4849C270.588 29.6574 270.024 32.2058 270.024 35.1303Z" fill="#11243E"/>
<path d="M344.564 22.4089V57.1263H335.728V52.7396C334.6 54.2436 333.117 55.4343 331.279 56.3116C329.482 57.1472 327.519 57.5649 325.388 57.5649C322.673 57.5649 320.27 57.0009 318.182 55.8729C316.093 54.7032 314.442 53.0112 313.231 50.7969C312.061 48.5409 311.476 45.8672 311.476 42.7756V22.4089H320.25V41.5223C320.25 44.2796 320.939 46.4103 322.318 47.9143C323.696 49.3765 325.576 50.1076 327.958 50.1076C330.381 50.1076 332.282 49.3765 333.66 47.9143C335.039 46.4103 335.728 44.2796 335.728 41.5223V22.4089H344.564Z" fill="#11243E"/>
<path d="M357.003 18.2729C355.457 18.2729 354.162 17.7925 353.118 16.8316C352.115 15.8289 351.614 14.5965 351.614 13.1343C351.614 11.6721 352.115 10.4605 353.118 9.4996C354.162 8.49694 355.457 7.99561 357.003 7.99561C358.549 7.99561 359.823 8.49694 360.826 9.4996C361.87 10.4605 362.393 11.6721 362.393 13.1343C362.393 14.5965 361.87 15.8289 360.826 16.8316C359.823 17.7925 358.549 18.2729 357.003 18.2729ZM361.327 22.4089V57.1263H352.554V22.4089H361.327Z" fill="#11243E"/>
<path d="M377.35 49.9196H392.829V57.1263H367.386V50.0449L382.551 29.6156H367.449V22.4089H392.641V29.4903L377.35 49.9196Z" fill="#11243E"/>
<defs>
<filter id="filter0_d_5723_5783" x="15.5391" y="21.7092" width="38.9453" height="32.5264" filterUnits="userSpaceOnUse" color-interpolation-filters="sRGB">
<feFlood flood-opacity="0" result="BackgroundImageFix"/>
<feColorMatrix in="SourceAlpha" type="matrix" values="0 0 0 0 0 0 0 0 0 0 0 0 0 0 0 0 0 0 127 0" result="hardAlpha"/>
<feOffset dx="3" dy="4"/>
<feGaussianBlur stdDeviation="1.5"/>
<feComposite in2="hardAlpha" operator="out"/>
<feColorMatrix type="matrix" values="0 0 0 0 0 0 0 0 0 0 0 0 0 0 0 0 0 0 0.05 0"/>
<feBlend mode="normal" in2="BackgroundImageFix" result="effect1_dropShadow_5723_5783"/>
<feBlend mode="normal" in="SourceGraphic" in2="effect1_dropShadow_5723_5783" result="shape"/>
</filter>
<linearGradient id="paint0_linear_5723_5783" x1="56" y1="78.7956" x2="14" y2="4.22417" gradientUnits="userSpaceOnUse">
<stop stop-color="#FA9E9E"/>
<stop offset="1" stop-color="#FE6363"/>
</linearGradient>
</defs>
</svg>
