<svg width="1703" height="498" viewBox="0 0 1703 498" fill="none" xmlns="http://www.w3.org/2000/svg">
<path d="M225.823 33.9676L376.052 381.803C382.072 395.741 368.06 409.919 354.052 404.063L193.989 337.159C187.252 334.344 183.091 327.515 183.676 320.237L206.435 37.1707C207.281 26.6532 221.639 24.2809 225.823 33.9676Z" fill="#75DC66"/>
<path d="M199.315 33.9676L49.0862 381.803C43.0663 395.741 57.0778 409.919 71.086 404.063L231.149 337.159C237.886 334.344 242.047 327.515 241.462 320.237L218.703 37.1707C217.857 26.6532 203.499 24.2809 199.315 33.9676Z" fill="#5BCC5A"/>
<path d="M212.565 28.6475C209.349 29.9691 206.775 32.8977 206.432 37.1709L183.672 320.237C183.087 327.515 187.249 334.344 193.985 337.16L212.565 344.926L231.146 337.16C237.882 334.344 242.044 327.515 241.458 320.237L218.699 37.1709C218.356 32.8977 215.782 29.9691 212.565 28.6475Z" fill="#0DA84C"/>
<g clip-path="url(#clip0_746_2406)">
<path d="M601.467 165.221C626.836 165.221 649.091 170.179 668.233 180.096C687.606 190.013 702.481 204.196 712.859 222.646C723.468 240.866 728.772 262.083 728.772 286.299C728.772 310.515 723.468 331.732 712.859 349.951C702.481 367.94 687.606 381.893 668.233 391.81C649.091 401.727 626.836 406.685 601.467 406.685H517.059V165.221H601.467ZM599.738 365.519C625.106 365.519 644.71 358.6 658.547 344.762C672.385 330.925 679.303 311.437 679.303 286.299C679.303 261.161 672.385 241.558 658.547 227.49C644.71 213.191 625.106 206.041 599.738 206.041H565.49V365.519H599.738Z" fill="black"/>
<path d="M936.265 306.709C936.265 313.628 935.803 319.855 934.881 325.39H794.776C795.929 339.227 800.772 350.067 809.306 357.908C817.839 365.749 828.332 369.67 840.786 369.67C858.775 369.67 871.574 361.944 879.185 346.492H931.422C925.887 364.942 915.278 380.163 899.595 392.156C883.913 403.918 864.656 409.799 841.824 409.799C823.374 409.799 806.769 405.763 792.009 397.691C777.479 389.388 766.063 377.742 757.761 362.751C749.689 347.76 745.653 330.464 745.653 310.86C745.653 291.027 749.689 273.615 757.761 258.624C765.833 243.633 777.133 232.102 791.663 224.03C806.192 215.958 822.912 211.922 841.824 211.922C860.043 211.922 876.302 215.843 890.601 223.684C905.13 231.525 916.316 242.711 924.157 257.24C932.229 271.539 936.265 288.029 936.265 306.709ZM886.104 292.872C885.873 280.418 881.376 270.501 872.612 263.121C863.848 255.51 853.124 251.705 840.44 251.705C828.447 251.705 818.3 255.395 809.997 262.775C801.926 269.925 796.967 279.957 795.122 292.872H886.104Z" fill="black"/>
<path d="M1013.13 242.711C1019.35 233.947 1027.89 226.682 1038.73 220.917C1049.8 214.92 1062.37 211.922 1076.43 211.922C1092.81 211.922 1107.57 215.958 1120.71 224.03C1134.09 232.102 1144.58 243.633 1152.19 258.624C1160.04 273.384 1163.96 290.565 1163.96 310.169C1163.96 329.772 1160.04 347.184 1152.19 362.405C1144.58 377.396 1134.09 389.042 1120.71 397.345C1107.57 405.647 1092.81 409.799 1076.43 409.799C1062.37 409.799 1049.91 406.916 1039.07 401.15C1028.46 395.385 1019.82 388.12 1013.13 379.356V498.013H964.696V215.036H1013.13V242.711ZM1114.49 310.169C1114.49 298.637 1112.07 288.72 1107.22 280.418C1102.61 271.885 1096.38 265.427 1088.54 261.045C1080.93 256.664 1072.63 254.473 1063.63 254.473C1054.87 254.473 1046.57 256.779 1038.73 261.391C1031.12 265.773 1024.89 272.231 1020.05 280.764C1015.43 289.297 1013.13 299.329 1013.13 310.86C1013.13 322.392 1015.43 332.424 1020.05 340.957C1024.89 349.49 1031.12 356.063 1038.73 360.675C1046.57 365.057 1054.87 367.248 1063.63 367.248C1072.63 367.248 1080.93 364.942 1088.54 360.33C1096.38 355.717 1102.61 349.144 1107.22 340.611C1112.07 332.078 1114.49 321.93 1114.49 310.169Z" fill="black"/>
<path d="M1240.66 150.691V406.685H1192.23V150.691H1240.66Z" fill="black"/>
<path d="M1366.69 409.799C1348.24 409.799 1331.64 405.763 1316.88 397.691C1302.12 389.388 1290.47 377.742 1281.94 362.751C1273.64 347.76 1269.49 330.464 1269.49 310.86C1269.49 291.257 1273.75 273.96 1282.29 258.97C1291.05 243.979 1302.93 232.448 1317.92 224.376C1332.91 216.074 1349.63 211.922 1368.08 211.922C1386.53 211.922 1403.25 216.074 1418.24 224.376C1433.23 232.448 1444.99 243.979 1453.53 258.97C1462.29 273.96 1466.67 291.257 1466.67 310.86C1466.67 330.464 1462.17 347.76 1453.18 362.751C1444.42 377.742 1432.42 389.388 1417.2 397.691C1402.21 405.763 1385.38 409.799 1366.69 409.799ZM1366.69 367.594C1375.46 367.594 1383.65 365.519 1391.26 361.367C1399.1 356.985 1405.32 350.528 1409.94 341.995C1414.55 333.462 1416.86 323.084 1416.86 310.86C1416.86 292.641 1412.01 278.688 1402.33 269.002C1392.87 259.085 1381.22 254.127 1367.39 254.127C1353.55 254.127 1341.9 259.085 1332.45 269.002C1323.22 278.688 1318.61 292.641 1318.61 310.86C1318.61 329.08 1323.11 343.148 1332.1 353.065C1341.33 362.751 1352.86 367.594 1366.69 367.594Z" fill="black"/>
<path d="M1678.63 215.036L1559.97 497.321H1508.42L1549.94 401.842L1473.14 215.036H1527.45L1576.92 348.914L1627.08 215.036H1678.63Z" fill="black"/>
<path d="M687.99 76.1541C687.99 78.7444 687.817 81.0757 687.472 83.1479H635.06C635.492 88.3286 637.304 92.3868 640.496 95.3225C643.688 98.2582 647.613 99.7261 652.272 99.7261C659.002 99.7261 663.79 96.8335 666.637 91.0485H686.178C684.107 97.956 680.139 103.655 674.272 108.145C668.406 112.548 661.202 114.75 652.66 114.75C645.758 114.75 639.547 113.239 634.025 110.217C628.59 107.109 624.319 102.748 621.213 97.1357C618.194 91.5234 616.684 85.0475 616.684 77.7083C616.684 70.2826 618.194 63.7636 621.213 58.1512C624.233 52.5389 628.46 48.2216 633.896 45.1996C639.331 42.1775 645.586 40.6665 652.66 40.6665C659.476 40.6665 665.558 42.1344 670.907 45.0701C676.343 48.0058 680.527 52.1935 683.46 57.6332C686.48 62.9865 687.99 69.1602 687.99 76.1541ZM669.225 70.9734C669.139 66.3108 667.456 62.598 664.178 59.835C660.9 56.9856 656.888 55.5609 652.143 55.5609C647.656 55.5609 643.86 56.9424 640.755 59.7054C637.735 62.3821 635.88 66.1381 635.19 70.9734H669.225Z" fill="black"/>
<path d="M767.861 76.1541C767.861 78.7444 767.689 81.0757 767.344 83.1479H714.932C715.363 88.3286 717.175 92.3868 720.367 95.3225C723.559 98.2582 727.485 99.7261 732.144 99.7261C738.873 99.7261 743.661 96.8335 746.508 91.0485H766.049C763.979 97.956 760.01 103.655 754.144 108.145C748.277 112.548 741.073 114.75 732.532 114.75C725.63 114.75 719.418 113.239 713.896 110.217C708.461 107.109 704.191 102.748 701.085 97.1357C698.065 91.5234 696.555 85.0475 696.555 77.7083C696.555 70.2826 698.065 63.7636 701.085 58.1512C704.104 52.5389 708.332 48.2216 713.767 45.1996C719.202 42.1775 725.457 40.6665 732.532 40.6665C739.347 40.6665 745.43 42.1344 750.779 45.0701C756.214 48.0058 760.398 52.1935 763.332 57.6332C766.351 62.9865 767.861 69.1602 767.861 76.1541ZM749.096 70.9734C749.01 66.3108 747.328 62.598 744.049 59.835C740.771 56.9856 736.759 55.5609 732.014 55.5609C727.528 55.5609 723.732 56.9424 720.626 59.7054C717.606 62.3821 715.751 66.1381 715.061 70.9734H749.096Z" fill="black"/>
<path d="M802.479 56.5872V91.6096C802.479 94.0272 803.117 95.6246 804.239 96.7471C805.447 97.7832 807.431 98.3013 810.192 98.3013H818.604V113.584H807.216C791.945 113.584 784.639 105.774 784.639 90.9229V56.5872H775.033V41.4795H784.639V23.625H802.479V41.4795H818.604V56.5872H802.479Z" fill="black"/>
<path d="M863.093 114.75C856.191 114.75 849.979 113.239 844.458 110.217C838.936 107.109 834.579 102.748 831.387 97.1357C828.281 91.5234 826.728 85.0475 826.728 77.7083C826.728 70.369 828.324 63.8931 831.517 58.2808C834.795 52.6684 839.238 48.3511 844.846 45.3291C850.454 42.2207 856.709 40.6665 863.611 40.6665C870.513 40.6665 876.768 42.2207 882.375 45.3291C887.983 48.3511 892.383 52.6684 895.575 58.2808C898.854 63.8931 900.493 70.369 900.493 77.7083C900.493 85.0475 898.811 91.5234 895.446 97.1357C892.168 102.748 887.681 107.109 881.987 110.217C876.379 113.239 870.081 114.75 863.093 114.75ZM863.093 98.949C866.372 98.949 869.434 98.1719 872.281 96.6177C875.215 94.9771 877.544 92.5595 879.27 89.3647C880.995 86.17 881.858 82.2845 881.858 77.7083C881.858 70.887 880.046 65.6632 876.422 62.0367C872.885 58.3239 868.528 56.4675 863.352 56.4675C858.175 56.4675 853.819 58.3239 850.281 62.0367C846.83 65.6632 845.105 70.887 845.105 77.7083C845.105 84.5295 846.787 89.7965 850.152 93.5093C853.603 97.1357 857.917 98.949 863.093 98.949Z" fill="black"/>
<path d="M601.381 23.625H566.601L601.381 75.7958V23.625Z" fill="black"/>
<path d="M515.125 114.75L515.125 23.625H540.242L601.381 114.75H575.532L535.298 55.6231V114.75H515.125Z" fill="black"/>
</g>
<defs>
<clipPath id="clip0_746_2406">
<rect width="1191.38" height="497.812" fill="white" transform="translate(489.812)"/>
</clipPath>
</defs>
</svg>
