<svg width="1818" height="459" viewBox="0 0 1818 459" fill="none" xmlns="http://www.w3.org/2000/svg">
<g clip-path="url(#clip0_746_2440)">
<path d="M22.125 43.875C22.125 32.6912 31.1912 23.625 42.375 23.625H150.375V388.125C150.375 399.309 141.309 408.375 130.125 408.375H37.515C29.0153 408.375 22.125 401.485 22.125 392.985V43.875Z" fill="#5BCC5A"/>
<path d="M278.625 259.875C278.625 271.059 269.559 280.125 258.375 280.125H170.625C159.441 280.125 150.375 271.059 150.375 259.875L150.375 23.625H278.625V259.875Z" fill="#5BCC5A"/>
<path d="M278.625 151.875H165.765C157.265 151.875 150.375 158.765 150.375 167.265V280.125H258.375C269.559 280.125 278.625 271.059 278.625 259.875V151.875Z" fill="#0DA84C"/>
<path d="M278.625 23.625H386.625C397.809 23.625 406.875 32.6912 406.875 43.875V195.75C406.875 206.934 397.809 216 386.625 216H278.625V23.625Z" fill="#75DC66"/>
</g>
<path d="M692.891 239.943C692.891 252.858 689.777 264.966 683.55 276.267C677.554 287.567 667.983 296.677 654.838 303.596C641.923 310.515 625.548 313.974 605.715 313.974H565.24V406.685H516.809V165.221H605.715C624.395 165.221 640.308 168.45 653.454 174.907C666.6 181.365 676.401 190.244 682.859 201.544C689.547 212.845 692.891 225.645 692.891 239.943ZM603.639 274.883C617.015 274.883 626.932 271.885 633.39 265.889C639.847 259.662 643.076 251.013 643.076 239.943C643.076 216.42 629.93 204.658 603.639 204.658H565.24V274.883H603.639Z" fill="black"/>
<path d="M768.789 150.691V406.685H720.358V150.691H768.789Z" fill="black"/>
<path d="M797.267 310.169C797.267 290.796 801.072 273.615 808.683 258.624C816.524 243.633 827.017 232.102 840.163 224.03C853.539 215.958 868.414 211.922 884.789 211.922C899.088 211.922 911.541 214.805 922.15 220.571C932.989 226.336 941.638 233.601 948.095 242.365V215.036H996.873V406.685H948.095V378.664C941.868 387.659 933.22 395.154 922.15 401.15C911.311 406.916 898.742 409.799 884.443 409.799C868.299 409.799 853.539 405.647 840.163 397.345C827.017 389.042 816.524 377.396 808.683 362.405C801.072 347.184 797.267 329.772 797.267 310.169ZM948.095 310.86C948.095 299.099 945.789 289.066 941.177 280.764C936.564 272.231 930.337 265.773 922.496 261.391C914.655 256.779 906.237 254.473 897.243 254.473C888.248 254.473 879.946 256.664 872.335 261.045C864.724 265.427 858.498 271.885 853.654 280.418C849.042 288.72 846.736 298.637 846.736 310.169C846.736 321.7 849.042 331.847 853.654 340.611C858.498 349.144 864.724 355.717 872.335 360.33C880.176 364.942 888.479 367.248 897.243 367.248C906.237 367.248 914.655 365.057 922.496 360.675C930.337 356.063 936.564 349.605 941.177 341.303C945.789 332.77 948.095 322.622 948.095 310.86Z" fill="black"/>
<path d="M1143.46 212.268C1166.29 212.268 1184.74 219.533 1198.81 234.062C1212.88 248.361 1219.91 268.425 1219.91 294.255V406.685H1171.48V300.828C1171.48 285.607 1167.67 273.96 1160.06 265.889C1152.45 257.586 1142.07 253.435 1128.93 253.435C1115.55 253.435 1104.94 257.586 1097.1 265.889C1089.49 273.96 1085.69 285.607 1085.69 300.828V406.685H1037.26V215.036H1085.69V238.905C1092.14 230.603 1100.33 224.145 1110.25 219.533C1120.4 214.69 1131.47 212.268 1143.46 212.268Z" fill="black"/>
<path d="M1365.25 212.268C1388.08 212.268 1406.53 219.533 1420.6 234.062C1434.67 248.361 1441.7 268.425 1441.7 294.255V406.685H1393.27V300.828C1393.27 285.607 1389.47 273.96 1381.86 265.889C1374.24 257.586 1363.87 253.435 1350.72 253.435C1337.34 253.435 1326.74 257.586 1318.89 265.889C1311.28 273.96 1307.48 285.607 1307.48 300.828V406.685H1259.05V215.036H1307.48V238.905C1313.94 230.603 1322.12 224.145 1332.04 219.533C1342.19 214.69 1353.26 212.268 1365.25 212.268Z" fill="black"/>
<path d="M1659 306.709C1659 313.628 1658.54 319.855 1657.61 325.39H1517.51C1518.66 339.227 1523.5 350.067 1532.04 357.908C1540.57 365.749 1551.06 369.67 1563.52 369.67C1581.51 369.67 1594.31 361.944 1601.92 346.492H1654.15C1648.62 364.942 1638.01 380.163 1622.33 392.156C1606.65 403.918 1587.39 409.799 1564.56 409.799C1546.11 409.799 1529.5 405.763 1514.74 397.691C1500.21 389.388 1488.8 377.742 1480.49 362.751C1472.42 347.76 1468.39 330.464 1468.39 310.86C1468.39 291.027 1472.42 273.615 1480.49 258.624C1488.57 243.633 1499.87 232.102 1514.4 224.03C1528.92 215.958 1545.64 211.922 1564.56 211.922C1582.78 211.922 1599.03 215.843 1613.33 223.684C1627.86 231.525 1639.05 242.711 1646.89 257.24C1654.96 271.539 1659 288.029 1659 306.709ZM1608.84 292.872C1608.61 280.418 1604.11 270.501 1595.34 263.121C1586.58 255.51 1575.86 251.705 1563.17 251.705C1551.18 251.705 1541.03 255.395 1532.73 262.775C1524.66 269.925 1519.7 279.957 1517.85 292.872H1608.84Z" fill="black"/>
<path d="M1735.86 244.786C1742.09 234.639 1750.16 226.682 1760.08 220.917C1770.22 215.151 1781.75 212.268 1794.67 212.268V263.121H1781.87C1766.65 263.121 1755.12 266.696 1747.28 273.845C1739.67 280.995 1735.86 293.448 1735.86 311.206V406.685H1687.43V215.036H1735.86V244.786Z" fill="black"/>
<path d="M686.052 76.5291C686.052 79.1194 685.88 81.4507 685.535 83.5229H633.123C633.554 88.7036 635.366 92.7618 638.558 95.6975C641.75 98.6332 645.676 100.101 650.335 100.101C657.064 100.101 661.852 97.2085 664.699 91.4235H684.241C682.17 98.331 678.201 104.03 672.335 108.52C666.468 112.923 659.264 115.125 650.723 115.125C643.821 115.125 637.609 113.614 632.088 110.592C626.652 107.484 622.382 103.123 619.276 97.5107C616.256 91.8984 614.746 85.4225 614.746 78.0833C614.746 70.6576 616.256 64.1386 619.276 58.5262C622.295 52.9139 626.523 48.5966 631.958 45.5746C637.393 42.5525 643.648 41.0415 650.723 41.0415C657.539 41.0415 663.621 42.5094 668.97 45.4451C674.405 48.3808 678.59 52.5685 681.523 58.0082C684.543 63.3615 686.052 69.5352 686.052 76.5291ZM667.288 71.3484C667.201 66.6858 665.519 62.973 662.241 60.21C658.962 57.3606 654.95 55.9359 650.205 55.9359C645.719 55.9359 641.923 57.3174 638.817 60.0804C635.797 62.7571 633.943 66.5131 633.252 71.3484H667.288Z" fill="black"/>
<path d="M765.924 76.5291C765.924 79.1194 765.751 81.4507 765.406 83.5229H712.994C713.426 88.7036 715.237 92.7618 718.43 95.6975C721.622 98.6332 725.547 100.101 730.206 100.101C736.935 100.101 741.724 97.2085 744.571 91.4235H764.112C762.041 98.331 758.073 104.03 752.206 108.52C746.339 112.923 739.135 115.125 730.594 115.125C723.692 115.125 717.481 113.614 711.959 110.592C706.524 107.484 702.253 103.123 699.147 97.5107C696.128 91.8984 694.618 85.4225 694.618 78.0833C694.618 70.6576 696.128 64.1386 699.147 58.5262C702.167 52.9139 706.394 48.5966 711.83 45.5746C717.265 42.5525 723.52 41.0415 730.594 41.0415C737.41 41.0415 743.492 42.5094 748.841 45.4451C754.277 48.3808 758.461 52.5685 761.394 58.0082C764.414 63.3615 765.924 69.5352 765.924 76.5291ZM747.159 71.3484C747.073 66.6858 745.39 62.973 742.112 60.21C738.833 57.3606 734.822 55.9359 730.077 55.9359C725.59 55.9359 721.794 57.3174 718.688 60.0804C715.669 62.7571 713.814 66.5131 713.124 71.3484H747.159Z" fill="black"/>
<path d="M800.542 56.9622V91.9846C800.542 94.4022 801.18 95.9996 802.302 97.1221C803.509 98.1582 805.494 98.6763 808.254 98.6763H816.666V113.959H805.278C790.007 113.959 782.701 106.149 782.701 91.2979V56.9622H773.095V41.8545H782.701V24H800.542V41.8545H816.666V56.9622H800.542Z" fill="black"/>
<path d="M861.156 115.125C854.254 115.125 848.042 113.614 842.52 110.592C836.999 107.484 832.642 103.123 829.45 97.5107C826.344 91.8984 824.791 85.4225 824.791 78.0833C824.791 70.744 826.387 64.2681 829.579 58.6558C832.858 53.0434 837.301 48.7261 842.908 45.7041C848.516 42.5957 854.771 41.0415 861.673 41.0415C868.575 41.0415 874.83 42.5957 880.438 45.7041C886.046 48.7261 890.446 53.0434 893.638 58.6558C896.916 64.2681 898.556 70.744 898.556 78.0833C898.556 85.4225 896.873 91.8984 893.508 97.5107C890.23 103.123 885.744 107.484 880.05 110.592C874.442 113.614 868.144 115.125 861.156 115.125ZM861.156 99.324C864.434 99.324 867.497 98.5469 870.344 96.9927C873.277 95.3521 875.607 92.9345 877.332 89.7397C879.058 86.545 879.92 82.6595 879.92 78.0833C879.92 71.262 878.108 66.0382 874.485 62.4117C870.948 58.6989 866.591 56.8425 861.414 56.8425C856.238 56.8425 851.881 58.6989 848.344 62.4117C844.893 66.0382 843.167 71.262 843.167 78.0833C843.167 84.9045 844.85 90.1715 848.214 93.8843C851.665 97.5107 855.979 99.324 861.156 99.324Z" fill="black"/>
<path d="M599.444 24H564.663L599.444 76.1708V24Z" fill="black"/>
<path d="M513.188 115.125L513.188 24H538.304L599.444 115.125H573.595L533.361 55.9981V115.125H513.188Z" fill="black"/>
<defs>
<clipPath id="clip0_746_2440">
<rect width="384.75" height="384.75" fill="white" transform="translate(22.125 23.625)"/>
</clipPath>
</defs>
</svg>
