<svg width="1248" height="459" viewBox="0 0 1248 459" fill="none" xmlns="http://www.w3.org/2000/svg">
<g clip-path="url(#clip0_746_2424)">
<path fill-rule="evenodd" clip-rule="evenodd" d="M209.859 315.44C268.152 315.44 315.409 268.183 315.409 209.89C315.409 151.596 268.152 104.34 209.859 104.34C151.565 104.34 104.309 151.596 104.309 209.89C104.309 268.183 151.565 315.44 209.859 315.44ZM209.859 396.154C312.73 396.154 396.124 312.761 396.124 209.89C396.124 107.019 312.73 23.625 209.859 23.625C106.987 23.625 23.5938 107.019 23.5938 209.89C23.5938 312.761 106.987 396.154 209.859 396.154Z" fill="#5BCC5A"/>
<path d="M225.311 225.343C244.675 205.98 276.068 205.98 295.431 225.343L391.846 321.758C411.209 341.121 411.209 372.514 391.846 391.877C372.483 411.241 341.089 411.241 321.726 391.877L225.312 295.463C205.948 276.1 205.948 244.706 225.311 225.343Z" fill="#75DC66"/>
<path d="M240.709 310.86L301.779 371.931C331 355.319 355.288 331.032 371.899 301.811L310.829 240.741C300.611 274.225 274.193 300.642 240.709 310.86Z" fill="#0DA84C"/>
</g>
<path d="M696.477 448.862L659.807 404.928C649.66 407.465 639.282 408.733 628.673 408.733C606.072 408.733 585.315 403.429 566.404 392.82C547.493 382.211 532.502 367.567 521.432 348.886C510.362 329.975 504.827 308.642 504.827 284.888C504.827 261.364 510.362 240.262 521.432 221.581C532.502 202.67 547.493 187.91 566.404 177.301C585.315 166.692 606.072 161.388 628.673 161.388C651.505 161.388 672.261 166.692 690.942 177.301C709.853 187.91 724.728 202.67 735.567 221.581C746.637 240.262 752.172 261.364 752.172 284.888C752.172 306.336 747.56 325.939 738.335 343.697C729.341 361.224 717.002 375.523 701.32 386.593L756.67 448.862H696.477ZM554.642 284.888C554.642 301.031 557.756 315.215 563.982 327.438C570.209 339.661 578.858 349.117 589.928 355.805C601.228 362.262 614.143 365.491 628.673 365.491C643.202 365.491 656.002 362.262 667.072 355.805C678.142 349.117 686.79 339.661 693.017 327.438C699.244 315.215 702.357 301.031 702.357 284.888C702.357 268.744 699.244 254.676 693.017 242.683C686.79 230.46 678.142 221.12 667.072 214.662C656.002 208.205 643.202 204.976 628.673 204.976C614.143 204.976 601.228 208.205 589.928 214.662C578.858 221.12 570.209 230.46 563.982 242.683C557.756 254.676 554.642 268.744 554.642 284.888Z" fill="black"/>
<path d="M962.886 214.662V406.312H914.109V382.096C907.882 390.399 899.695 396.971 889.547 401.815C879.631 406.427 868.791 408.733 857.029 408.733C842.039 408.733 828.778 405.62 817.247 399.393C805.715 392.935 796.606 383.595 789.917 371.372C783.46 358.918 780.231 344.158 780.231 327.092V214.662H828.662V320.173C828.662 335.395 832.468 347.156 840.078 355.459C847.689 363.531 858.067 367.567 871.213 367.567C884.589 367.567 895.083 363.531 902.693 355.459C910.304 347.156 914.109 335.395 914.109 320.173V214.662H962.886Z" fill="black"/>
<path d="M1028.31 191.83C1019.78 191.83 1012.63 189.178 1006.87 183.874C1001.33 178.339 998.564 171.535 998.564 163.464C998.564 155.392 1001.33 148.704 1006.87 143.399C1012.63 137.864 1019.78 135.097 1028.31 135.097C1036.85 135.097 1043.88 137.864 1049.42 143.399C1055.18 148.704 1058.06 155.392 1058.06 163.464C1058.06 171.535 1055.18 178.339 1049.42 183.874C1043.88 189.178 1036.85 191.83 1028.31 191.83ZM1052.18 214.662V406.312H1003.75V214.662H1052.18Z" fill="black"/>
<path d="M1137.4 366.529H1222.84V406.312H1082.39V367.221L1166.11 254.445H1082.74V214.662H1221.8V253.753L1137.4 366.529Z" fill="black"/>
<path d="M686.865 76.5291C686.865 79.1194 686.692 81.4507 686.347 83.5229H633.935C634.367 88.7036 636.179 92.7618 639.371 95.6975C642.563 98.6332 646.488 100.101 651.147 100.101C657.877 100.101 662.665 97.2085 665.512 91.4235H685.053C682.982 98.331 679.014 104.03 673.147 108.52C667.281 112.923 660.077 115.125 651.535 115.125C644.633 115.125 638.422 113.614 632.9 110.592C627.465 107.484 623.194 103.123 620.088 97.5107C617.069 91.8984 615.559 85.4225 615.559 78.0833C615.559 70.6576 617.069 64.1386 620.088 58.5262C623.108 52.9139 627.335 48.5966 632.771 45.5746C638.206 42.5525 644.461 41.0415 651.535 41.0415C658.351 41.0415 664.433 42.5094 669.782 45.4451C675.218 48.3808 679.402 52.5685 682.335 58.0082C685.355 63.3615 686.865 69.5352 686.865 76.5291ZM668.1 71.3484C668.014 66.6858 666.331 62.973 663.053 60.21C659.775 57.3606 655.763 55.9359 651.018 55.9359C646.531 55.9359 642.735 57.3174 639.63 60.0804C636.61 62.7571 634.755 66.5131 634.065 71.3484H668.1Z" fill="black"/>
<path d="M766.736 76.5291C766.736 79.1194 766.564 81.4507 766.218 83.5229H713.807C714.238 88.7036 716.05 92.7618 719.242 95.6975C722.434 98.6332 726.36 100.101 731.019 100.101C737.748 100.101 742.536 97.2085 745.383 91.4235H764.924C762.854 98.331 758.885 104.03 753.019 108.52C747.152 112.923 739.948 115.125 731.407 115.125C724.505 115.125 718.293 113.614 712.771 110.592C707.336 107.484 703.066 103.123 699.96 97.5107C696.94 91.8984 695.43 85.4225 695.43 78.0833C695.43 70.6576 696.94 64.1386 699.96 58.5262C702.979 52.9139 707.207 48.5966 712.642 45.5746C718.077 42.5525 724.332 41.0415 731.407 41.0415C738.222 41.0415 744.305 42.5094 749.654 45.4451C755.089 48.3808 759.273 52.5685 762.207 58.0082C765.226 63.3615 766.736 69.5352 766.736 76.5291ZM747.971 71.3484C747.885 66.6858 746.203 62.973 742.924 60.21C739.646 57.3606 735.634 55.9359 730.889 55.9359C726.403 55.9359 722.607 57.3174 719.501 60.0804C716.481 62.7571 714.626 66.5131 713.936 71.3484H747.971Z" fill="black"/>
<path d="M801.354 56.9622V91.9846C801.354 94.4022 801.992 95.9996 803.114 97.1221C804.322 98.1582 806.306 98.6763 809.067 98.6763H817.479V113.959H806.091C790.82 113.959 783.514 106.149 783.514 91.2979V56.9622H773.908V41.8545H783.514V24H801.354V41.8545H817.479V56.9622H801.354Z" fill="black"/>
<path d="M861.968 115.125C855.066 115.125 848.854 113.614 843.333 110.592C837.811 107.484 833.454 103.123 830.262 97.5107C827.156 91.8984 825.603 85.4225 825.603 78.0833C825.603 70.744 827.199 64.2681 830.392 58.6558C833.67 53.0434 838.113 48.7261 843.721 45.7041C849.329 42.5957 855.584 41.0415 862.486 41.0415C869.388 41.0415 875.643 42.5957 881.25 45.7041C886.858 48.7261 891.258 53.0434 894.45 58.6558C897.729 64.2681 899.368 70.744 899.368 78.0833C899.368 85.4225 897.686 91.8984 894.321 97.5107C891.043 103.123 886.556 107.484 880.862 110.592C875.254 113.614 868.956 115.125 861.968 115.125ZM861.968 99.324C865.246 99.324 868.309 98.5469 871.156 96.9927C874.09 95.3521 876.419 92.9345 878.145 89.7397C879.87 86.545 880.733 82.6595 880.733 78.0833C880.733 71.262 878.921 66.0382 875.297 62.4117C871.76 58.6989 867.403 56.8425 862.227 56.8425C857.05 56.8425 852.694 58.6989 849.156 62.4117C845.705 66.0382 843.98 71.262 843.98 78.0833C843.98 84.9045 845.662 90.1715 849.027 93.8843C852.478 97.5107 856.792 99.324 861.968 99.324Z" fill="black"/>
<path d="M600.256 24H565.476L600.256 76.1708V24Z" fill="black"/>
<path d="M514 115.125L514 24H539.117L600.256 115.125H574.407L534.173 55.9981V115.125H514Z" fill="black"/>
<defs>
<clipPath id="clip0_746_2424">
<rect width="384.75" height="384.75" fill="white" transform="translate(21.9062 23.625)"/>
</clipPath>
</defs>
</svg>
