<svg width="1728" height="459" viewBox="0 0 1728 459" fill="none" xmlns="http://www.w3.org/2000/svg">
<path d="M112.716 201.475C112.716 195.358 115.987 189.708 121.291 186.662L204.095 139.099C209.284 136.119 215.655 136.071 220.889 138.973L308.913 187.79C314.342 190.801 317.711 196.521 317.711 202.73V298.191C317.711 304.4 314.342 310.119 308.913 313.13L220.889 361.947C215.655 364.85 209.284 364.802 204.095 361.821L121.291 314.259C115.987 311.212 112.716 305.563 112.716 299.446V201.475Z" fill="#75DC66"/>
<path d="M204.101 70.7717L36.0138 167.319C24.5814 173.886 24.5813 190.379 36.0138 196.946L204.101 293.493C209.29 296.474 215.661 296.522 220.894 293.62L394.984 197.072C406.714 190.566 406.714 173.699 394.984 167.193L220.894 70.6456C215.661 67.7431 209.29 67.791 204.101 70.7717Z" fill="#5BCC5A"/>
<path d="M117.798 188.668L197.238 143.038C203.999 139.155 212.428 144.05 212.406 151.847L211.806 360.962C211.799 363.293 209.278 364.748 207.257 363.588L121.296 314.258C115.989 311.212 112.716 305.561 112.716 299.441V197.447C112.716 193.822 114.655 190.473 117.798 188.668Z" fill="#0DA84C"/>
<path d="M506.531 285.611C506.531 261.857 511.836 240.639 522.444 221.959C533.284 203.047 547.928 188.403 566.378 178.024C585.059 167.416 605.931 162.111 628.993 162.111C655.976 162.111 679.615 169.03 699.91 182.868C720.205 196.705 734.389 215.847 742.461 240.293H686.765C681.23 228.762 673.388 220.114 663.241 214.348C653.324 208.582 641.793 205.699 628.647 205.699C614.579 205.699 602.01 209.044 590.94 215.732C580.101 222.189 571.568 231.414 565.341 243.407C559.344 255.399 556.346 269.467 556.346 285.611C556.346 301.524 559.344 315.592 565.341 327.815C571.568 339.808 580.101 349.148 590.94 355.836C602.01 362.294 614.579 365.523 628.647 365.523C641.793 365.523 653.324 362.64 663.241 356.874C673.388 350.878 681.23 342.114 686.765 330.583H742.461C734.389 355.26 720.205 374.517 699.91 388.354C679.846 401.961 656.207 408.765 628.993 408.765C605.931 408.765 585.059 403.576 566.378 393.198C547.928 382.589 533.284 367.944 522.444 349.264C511.836 330.583 506.531 309.365 506.531 285.611Z" fill="black"/>
<path d="M862.009 409.803C843.559 409.803 826.954 405.767 812.194 397.695C797.434 389.392 785.787 377.746 777.254 362.755C768.952 347.764 764.801 330.468 764.801 310.864C764.801 291.261 769.067 273.964 777.6 258.974C786.364 243.983 798.241 232.452 813.232 224.38C828.222 216.078 844.943 211.926 863.393 211.926C881.843 211.926 898.563 216.078 913.554 224.38C928.544 232.452 940.306 243.983 948.839 258.974C957.603 273.964 961.985 291.261 961.985 310.864C961.985 330.468 957.488 347.764 948.493 362.755C939.73 377.746 927.737 389.392 912.516 397.695C897.525 405.767 880.69 409.803 862.009 409.803ZM862.009 367.598C870.773 367.598 878.96 365.523 886.571 361.371C894.412 356.989 900.639 350.532 905.251 341.999C909.864 333.466 912.17 323.088 912.17 310.864C912.17 292.645 907.327 278.692 897.641 269.006C888.185 259.089 876.538 254.131 862.701 254.131C848.863 254.131 837.217 259.089 827.761 269.006C818.536 278.692 813.924 292.645 813.924 310.864C813.924 329.084 818.421 343.152 827.415 353.069C836.64 362.755 848.172 367.598 862.009 367.598Z" fill="black"/>
<path d="M1171.52 215.04V406.689H1122.74V382.474C1116.51 390.776 1108.33 397.349 1098.18 402.192C1088.26 406.804 1077.42 409.111 1065.66 409.111C1050.67 409.111 1037.41 405.997 1025.88 399.77C1014.35 393.313 1005.24 383.973 998.549 371.749C992.091 359.296 988.863 344.536 988.863 327.469V215.04H1037.29V320.551C1037.29 335.772 1041.1 347.534 1048.71 355.836C1056.32 363.908 1066.7 367.944 1079.84 367.944C1093.22 367.944 1103.71 363.908 1111.32 355.836C1118.94 347.534 1122.74 335.772 1122.74 320.551V215.04H1171.52Z" fill="black"/>
<path d="M1260.82 244.79C1267.04 234.643 1275.11 226.686 1285.03 220.921C1295.18 215.155 1306.71 212.272 1319.62 212.272V263.125H1306.83C1291.6 263.125 1280.07 266.7 1272.23 273.849C1264.62 280.999 1260.82 293.452 1260.82 311.21V406.689H1212.38V215.04H1260.82V244.79Z" fill="black"/>
<path d="M1418.67 409.803C1402.98 409.803 1388.92 407.035 1376.46 401.5C1364.01 395.734 1354.09 388.009 1346.71 378.322C1339.56 368.636 1335.64 357.912 1334.95 346.15H1383.73C1384.65 353.53 1388.22 359.642 1394.45 364.485C1400.91 369.328 1408.86 371.749 1418.32 371.749C1427.54 371.749 1434.69 369.904 1439.77 366.214C1445.07 362.524 1447.72 357.797 1447.72 352.031C1447.72 345.804 1444.5 341.192 1438.04 338.194C1431.81 334.965 1421.78 331.505 1407.94 327.815C1393.64 324.356 1381.88 320.781 1372.66 317.091C1363.66 313.401 1355.82 307.751 1349.13 300.14C1342.67 292.53 1339.45 282.267 1339.45 269.352C1339.45 258.743 1342.44 249.057 1348.44 240.293C1354.67 231.529 1363.43 224.611 1374.73 219.537C1386.26 214.463 1399.75 211.926 1415.21 211.926C1438.04 211.926 1456.26 217.692 1469.86 229.223C1483.47 240.524 1490.97 255.86 1492.35 275.233H1445.99C1445.3 267.622 1442.07 261.626 1436.31 257.244C1430.77 252.632 1423.28 250.325 1413.82 250.325C1405.06 250.325 1398.26 251.94 1393.41 255.169C1388.8 258.397 1386.49 262.894 1386.49 268.66C1386.49 275.118 1389.72 280.076 1396.18 283.535C1402.64 286.764 1412.67 290.108 1426.28 293.568C1440.11 297.027 1451.53 300.602 1460.52 304.292C1469.52 307.982 1477.24 313.747 1483.7 321.589C1490.39 329.199 1493.85 339.347 1494.08 352.031C1494.08 363.101 1490.97 373.018 1484.74 381.782C1478.74 390.545 1469.98 397.464 1458.45 402.538C1447.15 407.381 1433.89 409.803 1418.67 409.803Z" fill="black"/>
<path d="M1705.07 306.713C1705.07 313.632 1704.61 319.859 1703.69 325.394H1563.59C1564.74 339.231 1569.58 350.071 1578.12 357.912C1586.65 365.753 1597.14 369.674 1609.6 369.674C1627.59 369.674 1640.38 361.948 1648 346.496H1700.23C1694.7 364.946 1684.09 380.167 1668.41 392.16C1652.72 403.922 1633.47 409.803 1610.63 409.803C1592.18 409.803 1575.58 405.767 1560.82 397.695C1546.29 389.392 1534.87 377.746 1526.57 362.755C1518.5 347.764 1514.46 330.468 1514.46 310.864C1514.46 291.031 1518.5 273.619 1526.57 258.628C1534.64 243.637 1545.94 232.106 1560.47 224.034C1575 215.962 1591.72 211.926 1610.63 211.926C1628.85 211.926 1645.11 215.847 1659.41 223.688C1673.94 231.529 1685.13 242.715 1692.97 257.244C1701.04 271.543 1705.07 288.033 1705.07 306.713ZM1654.91 292.876C1654.68 280.422 1650.19 270.505 1641.42 263.125C1632.66 255.514 1621.93 251.709 1609.25 251.709C1597.26 251.709 1587.11 255.399 1578.81 262.779C1570.74 269.929 1565.78 279.961 1563.93 292.876H1654.91Z" fill="black"/>
<path d="M689.24 76.1541C689.24 78.7444 689.067 81.0757 688.722 83.1479H636.31C636.742 88.3286 638.554 92.3868 641.746 95.3225C644.938 98.2582 648.863 99.7261 653.522 99.7261C660.252 99.7261 665.04 96.8335 667.887 91.0485H687.428C685.357 97.956 681.389 103.655 675.522 108.145C669.656 112.548 662.452 114.75 653.91 114.75C647.008 114.75 640.797 113.239 635.275 110.217C629.84 107.109 625.569 102.748 622.463 97.1357C619.444 91.5234 617.934 85.0475 617.934 77.7083C617.934 70.2826 619.444 63.7636 622.463 58.1512C625.483 52.5389 629.71 48.2216 635.146 45.1996C640.581 42.1775 646.836 40.6665 653.91 40.6665C660.726 40.6665 666.808 42.1344 672.157 45.0701C677.593 48.0058 681.777 52.1935 684.71 57.6332C687.73 62.9865 689.24 69.1602 689.24 76.1541ZM670.475 70.9734C670.389 66.3108 668.706 62.598 665.428 59.835C662.15 56.9856 658.138 55.5609 653.393 55.5609C648.906 55.5609 645.11 56.9424 642.005 59.7054C638.985 62.3821 637.13 66.1381 636.44 70.9734H670.475Z" fill="black"/>
<path d="M769.111 76.1541C769.111 78.7444 768.939 81.0757 768.594 83.1479H716.182C716.613 88.3286 718.425 92.3868 721.617 95.3225C724.809 98.2582 728.735 99.7261 733.394 99.7261C740.123 99.7261 744.911 96.8335 747.758 91.0485H767.299C765.229 97.956 761.26 103.655 755.394 108.145C749.527 112.548 742.323 114.75 733.782 114.75C726.88 114.75 720.668 113.239 715.146 110.217C709.711 107.109 705.441 102.748 702.335 97.1357C699.315 91.5234 697.805 85.0475 697.805 77.7083C697.805 70.2826 699.315 63.7636 702.335 58.1512C705.354 52.5389 709.582 48.2216 715.017 45.1996C720.452 42.1775 726.707 40.6665 733.782 40.6665C740.597 40.6665 746.68 42.1344 752.029 45.0701C757.464 48.0058 761.648 52.1935 764.582 57.6332C767.601 62.9865 769.111 69.1602 769.111 76.1541ZM750.346 70.9734C750.26 66.3108 748.578 62.598 745.299 59.835C742.021 56.9856 738.009 55.5609 733.264 55.5609C728.778 55.5609 724.982 56.9424 721.876 59.7054C718.856 62.3821 717.001 66.1381 716.311 70.9734H750.346Z" fill="black"/>
<path d="M803.729 56.5872V91.6096C803.729 94.0272 804.367 95.6246 805.489 96.7471C806.697 97.7832 808.681 98.3013 811.442 98.3013H819.854V113.584H808.466C793.195 113.584 785.889 105.774 785.889 90.9229V56.5872H776.283V41.4795H785.889V23.625H803.729V41.4795H819.854V56.5872H803.729Z" fill="black"/>
<path d="M864.343 114.75C857.441 114.75 851.229 113.239 845.708 110.217C840.186 107.109 835.829 102.748 832.637 97.1357C829.531 91.5234 827.978 85.0475 827.978 77.7083C827.978 70.369 829.574 63.8931 832.767 58.2808C836.045 52.6684 840.488 48.3511 846.096 45.3291C851.704 42.2207 857.959 40.6665 864.861 40.6665C871.763 40.6665 878.018 42.2207 883.625 45.3291C889.233 48.3511 893.633 52.6684 896.825 58.2808C900.104 63.8931 901.743 70.369 901.743 77.7083C901.743 85.0475 900.061 91.5234 896.696 97.1357C893.418 102.748 888.931 107.109 883.237 110.217C877.629 113.239 871.331 114.75 864.343 114.75ZM864.343 98.949C867.622 98.949 870.684 98.1719 873.531 96.6177C876.465 94.9771 878.794 92.5595 880.52 89.3647C882.245 86.17 883.108 82.2845 883.108 77.7083C883.108 70.887 881.296 65.6632 877.672 62.0367C874.135 58.3239 869.778 56.4675 864.602 56.4675C859.425 56.4675 855.069 58.3239 851.531 62.0367C848.08 65.6632 846.355 70.887 846.355 77.7083C846.355 84.5295 848.037 89.7965 851.402 93.5093C854.853 97.1357 859.167 98.949 864.343 98.949Z" fill="black"/>
<path d="M602.631 23.625H567.851L602.631 75.7958V23.625Z" fill="black"/>
<path d="M516.375 114.75L516.375 23.625H541.492L602.631 114.75H576.782L536.548 55.6231V114.75H516.375Z" fill="black"/>
</svg>
