<svg width="1163" height="459" viewBox="0 0 1163 459" fill="none" xmlns="http://www.w3.org/2000/svg">
<g clip-path="url(#clip0_746_2572)">
<path d="M196.505 282.277C184.128 269.899 184.128 249.832 196.505 237.455C208.882 225.078 228.95 225.078 241.327 237.455L343.329 339.457C355.706 351.834 355.706 371.902 343.329 384.279C330.952 396.656 310.885 396.656 298.507 384.279L196.505 282.277Z" fill="#5BCC5A"/>
<path d="M331.361 208.696C331.361 212.5 328.277 215.584 324.473 215.584L258.221 215.584L258.221 28.8246C258.221 25.021 261.304 21.9375 265.108 21.9375L324.473 21.9375C328.277 21.9375 331.361 25.021 331.361 28.8246L331.361 208.696Z" fill="#75DC66"/>
<path d="M258.217 215.584L191.964 215.584C188.161 215.584 185.077 212.5 185.077 208.696L185.077 83.8535C185.077 80.0499 188.161 76.9664 191.964 76.9664L258.217 76.9664L258.217 215.584Z" fill="#75DC66"/>
<path d="M304.195 215.584C304.195 281.369 250.866 334.697 185.082 334.697C119.298 334.697 65.9688 281.369 65.9688 215.584C65.9688 149.8 119.298 96.471 185.082 96.471C250.866 96.471 304.195 149.8 304.195 215.584Z" fill="#5BCC5A"/>
<path d="M185.08 96.4545C185.08 96.4545 185.08 96.4545 185.08 96.4545C212.65 96.4545 238.034 105.821 258.22 121.547C286.198 143.342 304.193 177.351 304.194 215.563H192.046C188.199 215.563 185.08 212.445 185.08 208.598L185.08 96.4545Z" fill="#0DA84C"/>
</g>
<path d="M601.834 409.111C584.999 409.111 569.777 406.228 556.17 400.462C542.794 394.697 532.185 386.394 524.344 375.555C516.503 364.716 512.467 351.916 512.236 337.156H564.127C564.819 347.073 568.278 354.914 574.505 360.68C580.963 366.445 589.726 369.328 600.796 369.328C612.097 369.328 620.976 366.676 627.434 361.372C633.891 355.837 637.12 348.687 637.12 339.923C637.12 332.774 634.929 326.893 630.547 322.281C626.165 317.668 620.63 314.093 613.942 311.557C607.484 308.789 598.49 305.791 586.959 302.562C571.276 297.95 558.477 293.453 548.56 289.071C538.874 284.458 530.456 277.655 523.306 268.66C516.388 259.435 512.928 247.212 512.928 231.991C512.928 217.692 516.503 205.238 523.652 194.63C530.802 184.021 540.834 175.949 553.749 170.414C566.664 164.648 581.424 161.766 598.029 161.766C622.936 161.766 643.116 167.877 658.568 180.1C674.25 192.093 682.899 208.928 684.513 230.607H631.239C630.778 222.305 627.203 215.501 620.515 210.197C614.057 204.662 605.409 201.894 594.569 201.894C585.114 201.894 577.503 204.316 571.738 209.159C566.203 214.002 563.435 221.036 563.435 230.261C563.435 236.719 565.511 242.138 569.662 246.52C574.044 250.672 579.348 254.131 585.575 256.898C592.033 259.435 601.027 262.433 612.558 265.893C628.241 270.505 641.04 275.118 650.957 279.73C660.874 284.343 669.407 291.262 676.557 300.487C683.706 309.712 687.281 321.819 687.281 336.81C687.281 349.725 683.937 361.718 677.249 372.788C670.56 383.858 660.759 392.737 647.844 399.425C634.929 405.882 619.592 409.111 601.834 409.111Z" fill="black"/>
<path d="M770.781 204.316V264.855H852.077V303.254H770.781V367.252H862.455V406.689H722.35V164.879H862.455V204.316H770.781Z" fill="black"/>
<path d="M1011.63 409.111C989.031 409.111 968.275 403.807 949.364 393.198C930.452 382.589 915.462 367.944 904.392 349.264C893.322 330.353 887.787 309.02 887.787 285.265C887.787 261.742 893.322 240.639 904.392 221.959C915.462 203.047 930.452 188.287 949.364 177.679C968.275 167.07 989.031 161.766 1011.63 161.766C1034.46 161.766 1055.22 167.07 1073.9 177.679C1092.81 188.287 1107.69 203.047 1118.53 221.959C1129.6 240.639 1135.13 261.742 1135.13 285.265C1135.13 309.02 1129.6 330.353 1118.53 349.264C1107.69 367.944 1092.81 382.589 1073.9 393.198C1054.99 403.807 1034.23 409.111 1011.63 409.111ZM1011.63 365.869C1026.16 365.869 1038.96 362.64 1050.03 356.182C1061.1 349.494 1069.75 340.039 1075.98 327.816C1082.2 315.593 1085.32 301.409 1085.32 285.265C1085.32 269.122 1082.2 255.053 1075.98 243.061C1069.75 230.838 1061.1 221.497 1050.03 215.04C1038.96 208.582 1026.16 205.354 1011.63 205.354C997.103 205.354 984.188 208.582 972.887 215.04C961.817 221.497 953.169 230.838 946.942 243.061C940.715 255.053 937.602 269.122 937.602 285.265C937.602 301.409 940.715 315.593 946.942 327.816C953.169 340.039 961.817 349.494 972.887 356.182C984.188 362.64 997.103 365.869 1011.63 365.869Z" fill="black"/>
<path d="M686.865 76.5291C686.865 79.1194 686.692 81.4507 686.347 83.5229H633.935C634.367 88.7036 636.179 92.7618 639.371 95.6975C642.563 98.6332 646.488 100.101 651.147 100.101C657.877 100.101 662.665 97.2085 665.512 91.4235H685.053C682.982 98.331 679.014 104.03 673.147 108.52C667.281 112.923 660.077 115.125 651.535 115.125C644.633 115.125 638.422 113.614 632.9 110.592C627.465 107.484 623.194 103.123 620.088 97.5107C617.069 91.8984 615.559 85.4225 615.559 78.0833C615.559 70.6576 617.069 64.1386 620.088 58.5262C623.108 52.9139 627.335 48.5966 632.771 45.5746C638.206 42.5525 644.461 41.0415 651.535 41.0415C658.351 41.0415 664.433 42.5094 669.782 45.4451C675.218 48.3808 679.402 52.5685 682.335 58.0082C685.355 63.3615 686.865 69.5352 686.865 76.5291ZM668.1 71.3484C668.014 66.6858 666.331 62.973 663.053 60.21C659.775 57.3606 655.763 55.9359 651.018 55.9359C646.531 55.9359 642.735 57.3174 639.63 60.0804C636.61 62.7571 634.755 66.5131 634.065 71.3484H668.1Z" fill="black"/>
<path d="M766.736 76.5291C766.736 79.1194 766.564 81.4507 766.218 83.5229H713.807C714.238 88.7036 716.05 92.7618 719.242 95.6975C722.434 98.6332 726.36 100.101 731.019 100.101C737.748 100.101 742.536 97.2085 745.383 91.4235H764.924C762.854 98.331 758.885 104.03 753.019 108.52C747.152 112.923 739.948 115.125 731.407 115.125C724.505 115.125 718.293 113.614 712.771 110.592C707.336 107.484 703.066 103.123 699.96 97.5107C696.94 91.8984 695.43 85.4225 695.43 78.0833C695.43 70.6576 696.94 64.1386 699.96 58.5262C702.979 52.9139 707.207 48.5966 712.642 45.5746C718.077 42.5525 724.332 41.0415 731.407 41.0415C738.222 41.0415 744.305 42.5094 749.654 45.4451C755.089 48.3808 759.273 52.5685 762.207 58.0082C765.226 63.3615 766.736 69.5352 766.736 76.5291ZM747.971 71.3484C747.885 66.6858 746.203 62.973 742.924 60.21C739.646 57.3606 735.634 55.9359 730.889 55.9359C726.403 55.9359 722.607 57.3174 719.501 60.0804C716.481 62.7571 714.626 66.5131 713.936 71.3484H747.971Z" fill="black"/>
<path d="M801.354 56.9622V91.9846C801.354 94.4022 801.992 95.9996 803.114 97.1221C804.322 98.1582 806.306 98.6763 809.067 98.6763H817.479V113.959H806.091C790.82 113.959 783.514 106.149 783.514 91.2979V56.9622H773.908V41.8545H783.514V24H801.354V41.8545H817.479V56.9622H801.354Z" fill="black"/>
<path d="M861.968 115.125C855.066 115.125 848.854 113.614 843.333 110.592C837.811 107.484 833.454 103.123 830.262 97.5107C827.156 91.8984 825.603 85.4225 825.603 78.0833C825.603 70.744 827.199 64.2681 830.392 58.6558C833.67 53.0434 838.113 48.7261 843.721 45.7041C849.329 42.5957 855.584 41.0415 862.486 41.0415C869.388 41.0415 875.643 42.5957 881.25 45.7041C886.858 48.7261 891.258 53.0434 894.45 58.6558C897.729 64.2681 899.368 70.744 899.368 78.0833C899.368 85.4225 897.686 91.8984 894.321 97.5107C891.043 103.123 886.556 107.484 880.862 110.592C875.254 113.614 868.956 115.125 861.968 115.125ZM861.968 99.324C865.246 99.324 868.309 98.5469 871.156 96.9927C874.09 95.3521 876.419 92.9345 878.145 89.7397C879.87 86.545 880.733 82.6595 880.733 78.0833C880.733 71.262 878.921 66.0382 875.297 62.4117C871.76 58.6989 867.403 56.8425 862.227 56.8425C857.05 56.8425 852.694 58.6989 849.156 62.4117C845.705 66.0382 843.98 71.262 843.98 78.0833C843.98 84.9045 845.662 90.1715 849.027 93.8843C852.478 97.5107 856.792 99.324 861.968 99.324Z" fill="black"/>
<path d="M600.256 24H565.476L600.256 76.1708V24Z" fill="black"/>
<path d="M514 115.125L514 24H539.117L600.256 115.125H574.407L534.173 55.9981V115.125H514Z" fill="black"/>
<defs>
<clipPath id="clip0_746_2572">
<rect width="384.75" height="384.75" fill="white" transform="translate(23.7812 23.625)"/>
</clipPath>
</defs>
</svg>
