<svg width="384" height="64" viewBox="0 0 384 64" fill="none" xmlns="http://www.w3.org/2000/svg">
<path d="M56 32C56 18.7452 45.2548 8 32 8H8V56H56V32Z" fill="url(#paint0_linear_5723_6000)"/>
<g filter="url(#filter0_d_5723_6000)">
<path d="M40.0127 25.3448C37.8004 22.1173 34.0864 20 29.8779 20C23.0968 20 17.5996 25.4972 17.5996 32.2783C17.5996 33.2649 17.716 34.2242 17.9357 35.1435L24.1883 28.8909C24.7877 28.2915 25.7594 28.2915 26.3588 28.8909L31.4127 33.9448L40.0127 25.3448Z" fill="white"/>
<path d="M41.472 28.2265L32.498 37.2006C31.8986 37.7999 30.9268 37.7999 30.3275 37.2006L25.2736 32.1467L19.1554 38.2648C21.2558 42.0188 25.2705 44.5566 29.8779 44.5566C36.6591 44.5566 42.1562 39.0595 42.1562 32.2783C42.1562 30.8586 41.9153 29.4951 41.472 28.2265Z" fill="white"/>
<path d="M38.1435 43.0991C39.4345 42.1225 40.5445 40.9212 41.4163 39.555C41.4258 39.5631 41.4351 39.5716 41.4442 39.5805L46.0575 44.0767C46.6356 44.6401 46.6475 45.5656 46.0841 46.1437L44.7578 47.5045C44.1943 48.0826 43.2689 48.0945 42.6908 47.5311L38.1435 43.0991Z" fill="white"/>
</g>
<path fill-rule="evenodd" clip-rule="evenodd" d="M98.0873 20.627H81.2401L89.5759 28.825H98.0873C103.452 28.825 107.795 33.0758 107.795 38.3135V56H116.175V38.3135C116.175 28.5429 108.074 20.627 98.0873 20.627ZM88.3794 30.0187L80 21.7778V56H88.3794V30.0187ZM152.982 50.2169L147.664 44.7125L147.346 45.0134C145.501 46.7554 142.408 48.438 138.135 48.438C135.13 48.438 132.814 47.6895 131.14 46.3942C129.593 45.1976 128.559 43.5078 128.047 41.4256H154.946L154.966 41.0135C155.249 35.1417 153.75 30.0443 150.686 26.407C147.615 22.7619 143.007 20.627 137.173 20.627C126.87 20.627 118.825 28.2166 118.825 38.3152C118.825 43.3885 120.728 47.8181 124.12 50.9778C127.511 54.1365 132.362 56 138.216 56C145.052 56 149.48 53.6674 152.679 50.5151L152.982 50.2169ZM191.807 50.2169L186.49 44.7125L186.171 45.0134C184.326 46.7554 181.233 48.438 176.96 48.438C173.955 48.438 171.639 47.6895 169.965 46.3942C168.418 45.1976 167.385 43.5078 166.872 41.4256H193.771L193.791 41.0135C194.074 35.1417 192.575 30.0443 189.511 26.407C186.44 22.7619 181.832 20.627 175.999 20.627C165.695 20.627 157.65 28.2166 157.65 38.3152C157.65 43.3885 159.553 47.8181 162.945 50.9778C166.336 54.1365 171.187 56 177.041 56C183.877 56 188.305 53.6674 191.504 50.5151L191.807 50.2169ZM202.393 20.9245H196.475V28.4791H202.393V41.6708C202.393 46.9973 203.189 50.6285 205.443 52.9057C207.701 55.1865 211.311 56 216.622 56H218.175V48.2538H217.735C216.138 48.2538 214.91 48.1938 213.961 48.0167C213.015 47.8403 212.387 47.5548 211.95 47.1343C211.514 46.7147 211.22 46.1142 211.038 45.2117C210.856 44.3041 210.794 43.1305 210.794 41.6019V28.4791H218.175V20.9245H210.794V12H202.393V20.9245ZM137.255 28.1127C139.961 28.1127 141.946 28.9095 143.34 30.2094C144.632 31.4137 145.453 33.0831 145.846 35.0453H128.043C128.557 32.8959 129.603 31.218 131.065 30.0538C132.642 28.7977 134.738 28.1127 137.255 28.1127ZM176.081 28.1127C178.786 28.1127 180.771 28.9095 182.165 30.2094C183.457 31.4137 184.278 33.0831 184.672 35.0453H166.868C167.382 32.8959 168.428 31.218 169.89 30.0538C171.467 28.7977 173.563 28.1127 176.081 28.1127ZM238.879 28.1283C244.469 28.1283 248.913 32.698 248.913 38.3141C248.913 43.929 244.469 48.4986 238.879 48.4986C233.291 48.4986 228.913 43.9328 228.913 38.3141C228.913 32.6942 233.291 28.1283 238.879 28.1283ZM238.879 20.627C228.846 20.627 220.825 28.3827 220.825 38.3141C220.825 48.1772 228.845 56 238.879 56C248.91 56 257 48.1793 257 38.3141C257 28.3805 248.909 20.627 238.879 20.627Z" fill="#11243E"/>
<path d="M278.426 55.4387C275.376 55.4387 272.619 54.9165 270.154 53.8721C267.731 52.8276 265.809 51.3236 264.389 49.3601C262.968 47.3965 262.237 45.0779 262.195 42.4041H271.595C271.721 44.2005 272.347 45.621 273.475 46.6654C274.645 47.7099 276.233 48.2321 278.238 48.2321C280.285 48.2321 281.894 47.7516 283.063 46.7907C284.233 45.7881 284.818 44.493 284.818 42.9054C284.818 41.6103 284.421 40.545 283.627 39.7094C282.834 38.8739 281.831 38.2263 280.619 37.7667C279.45 37.2654 277.82 36.7223 275.731 36.1374C272.89 35.3019 270.572 34.4872 268.775 33.6934C267.021 32.8579 265.496 31.6254 264.201 29.9961C262.947 28.325 262.321 26.1107 262.321 23.3534C262.321 20.7632 262.968 18.5072 264.263 16.5854C265.558 14.6636 267.376 13.2014 269.715 12.1987C272.055 11.1543 274.729 10.6321 277.737 10.6321C282.249 10.6321 285.904 11.7392 288.703 13.9534C291.544 16.1259 293.111 19.1756 293.403 23.1027H283.753C283.669 21.5987 283.022 20.3663 281.81 19.4054C280.64 18.4027 279.074 17.9014 277.11 17.9014C275.397 17.9014 274.018 18.3401 272.974 19.2174C271.971 20.0947 271.47 21.369 271.47 23.0401C271.47 24.2099 271.846 25.1916 272.598 25.9854C273.392 26.7374 274.353 27.3641 275.481 27.8654C276.65 28.325 278.28 28.8681 280.369 29.4947C283.21 30.3303 285.528 31.1659 287.325 32.0014C289.121 32.837 290.667 34.0903 291.962 35.7614C293.257 37.4325 293.905 39.6259 293.905 42.3414C293.905 44.681 293.299 46.8534 292.087 48.8587C290.876 50.8641 289.1 52.4725 286.761 53.6841C284.421 54.8539 281.643 55.4387 278.426 55.4387Z" fill="#11243E"/>
<path d="M309.617 18.3401V29.3067H324.344V36.2627H309.617V47.8561H326.224V55.0001H300.844V11.1961H326.224V18.3401H309.617Z" fill="#11243E"/>
<path d="M353.834 55.4387C349.74 55.4387 345.98 54.4779 342.554 52.5561C339.129 50.6343 336.413 47.9814 334.408 44.5974C332.402 41.1716 331.4 37.3072 331.4 33.0041C331.4 28.7427 332.402 24.9201 334.408 21.5361C336.413 18.1103 339.129 15.4365 342.554 13.5147C345.98 11.593 349.74 10.6321 353.834 10.6321C357.97 10.6321 361.73 11.593 365.114 13.5147C368.54 15.4365 371.235 18.1103 373.198 21.5361C375.204 24.9201 376.206 28.7427 376.206 33.0041C376.206 37.3072 375.204 41.1716 373.198 44.5974C371.235 47.9814 368.54 50.6343 365.114 52.5561C361.689 54.4779 357.929 55.4387 353.834 55.4387ZM353.834 47.6054C356.466 47.6054 358.785 47.0205 360.79 45.8507C362.796 44.6392 364.362 42.9263 365.49 40.7121C366.618 38.4979 367.182 35.9285 367.182 33.0041C367.182 30.0796 366.618 27.5312 365.49 25.3587C364.362 23.1445 362.796 21.4525 360.79 20.2827C358.785 19.113 356.466 18.5281 353.834 18.5281C351.202 18.5281 348.863 19.113 346.816 20.2827C344.81 21.4525 343.244 23.1445 342.116 25.3587C340.988 27.5312 340.424 30.0796 340.424 33.0041C340.424 35.9285 340.988 38.4979 342.116 40.7121C343.244 42.9263 344.81 44.6392 346.816 45.8507C348.863 47.0205 351.202 47.6054 353.834 47.6054Z" fill="#11243E"/>
<defs>
<filter id="filter0_d_5723_6000" x="17.5996" y="20" width="34.8984" height="34.946" filterUnits="userSpaceOnUse" color-interpolation-filters="sRGB">
<feFlood flood-opacity="0" result="BackgroundImageFix"/>
<feColorMatrix in="SourceAlpha" type="matrix" values="0 0 0 0 0 0 0 0 0 0 0 0 0 0 0 0 0 0 127 0" result="hardAlpha"/>
<feOffset dx="3" dy="4"/>
<feGaussianBlur stdDeviation="1.5"/>
<feComposite in2="hardAlpha" operator="out"/>
<feColorMatrix type="matrix" values="0 0 0 0 0 0 0 0 0 0 0 0 0 0 0 0 0 0 0.05 0"/>
<feBlend mode="normal" in2="BackgroundImageFix" result="effect1_dropShadow_5723_6000"/>
<feBlend mode="normal" in="SourceGraphic" in2="effect1_dropShadow_5723_6000" result="shape"/>
</filter>
<linearGradient id="paint0_linear_5723_6000" x1="56" y1="78.8" x2="14" y2="4.22857" gradientUnits="userSpaceOnUse">
<stop stop-color="#8669FB"/>
<stop offset="1" stop-color="#71BCFF"/>
</linearGradient>
</defs>
</svg>
