<svg width="491" height="64" viewBox="0 0 491 64" fill="none" xmlns="http://www.w3.org/2000/svg">
<path d="M56 32C56 18.7452 45.2548 8 32 8H8V56H56V32Z" fill="url(#paint0_linear_5723_5665)"/>
<path fill-rule="evenodd" clip-rule="evenodd" d="M43.1208 43.5505V25.0867C43.1208 24.1351 42.3495 23.3638 41.3979 23.3638H22.8948C21.9433 23.3638 21.1719 24.1351 21.1719 25.0867V43.5505C21.1719 44.0502 21.3888 44.5252 21.7664 44.8525L23.7016 46.5297C24.3492 47.0909 25.3108 47.0909 25.9584 46.5297L27.3598 45.3152C28.0074 44.7539 28.969 44.7539 29.6166 45.3152L31.018 46.5297C31.6655 47.0909 32.6272 47.0909 33.2747 46.5297L34.6761 45.3152C35.3237 44.7539 36.2853 44.7539 36.9329 45.3152L38.3343 46.5297C38.9819 47.0909 39.9435 47.0909 40.5911 46.5297L42.5263 44.8525C42.9039 44.5252 43.1208 44.0502 43.1208 43.5505ZM23.3675 28.4858C23.3675 27.6777 24.0227 27.0226 24.8308 27.0226H34.342C35.1502 27.0226 35.8053 27.6777 35.8053 28.4858C35.8053 29.294 35.1502 29.9491 34.342 29.9491H24.8308C24.0227 29.9491 23.3675 29.294 23.3675 28.4858ZM24.8308 32.1435C24.0227 32.1435 23.3675 32.7986 23.3675 33.6068C23.3675 34.4149 24.0227 35.07 24.8308 35.07H39.4634C40.2716 35.07 40.9267 34.4149 40.9267 33.6068C40.9267 32.7986 40.2716 32.1435 39.4634 32.1435H24.8308Z" fill="white"/>
<path fill-rule="evenodd" clip-rule="evenodd" d="M98.0873 20.6269H81.2401L89.5759 28.8249H98.0873C103.452 28.8249 107.795 33.0756 107.795 38.3134V55.9999H116.175V38.3134C116.175 28.5428 108.074 20.6269 98.0873 20.6269ZM88.3794 30.0186L80 21.7776V55.9999H88.3794V30.0186ZM152.982 50.2168L147.664 44.7124L147.346 45.0133C145.501 46.7552 142.408 48.4379 138.135 48.4379C135.13 48.4379 132.814 47.6894 131.14 46.3941C129.593 45.1975 128.559 43.5077 128.047 41.4255H154.946L154.966 41.0134C155.249 35.1416 153.75 30.0442 150.686 26.4069C147.615 22.7618 143.007 20.6269 137.173 20.6269C126.87 20.6269 118.825 28.2165 118.825 38.3151C118.825 43.3884 120.728 47.818 124.12 50.9777C127.511 54.1364 132.362 55.9999 138.216 55.9999C145.052 55.9999 149.48 53.6673 152.679 50.515L152.982 50.2168ZM191.807 50.2168L186.49 44.7124L186.171 45.0133C184.326 46.7552 181.233 48.4379 176.96 48.4379C173.955 48.4379 171.639 47.6894 169.965 46.3941C168.418 45.1975 167.385 43.5077 166.872 41.4255H193.771L193.791 41.0134C194.074 35.1416 192.575 30.0442 189.511 26.4069C186.44 22.7618 181.832 20.6269 175.999 20.6269C165.695 20.6269 157.65 28.2165 157.65 38.3151C157.65 43.3884 159.553 47.818 162.945 50.9777C166.336 54.1364 171.187 55.9999 177.041 55.9999C183.877 55.9999 188.305 53.6673 191.504 50.515L191.807 50.2168ZM202.393 20.9243H196.475V28.479H202.393V41.6707C202.393 46.9972 203.189 50.6284 205.443 52.9056C207.701 55.1864 211.311 55.9999 216.622 55.9999H218.175V48.2537H217.735C216.138 48.2537 214.91 48.1937 213.961 48.0166C213.015 47.8402 212.387 47.5547 211.95 47.1341C211.514 46.7146 211.22 46.1141 211.038 45.2116C210.856 44.304 210.794 43.1304 210.794 41.6017V28.479H218.175V20.9243H210.794V11.9999H202.393V20.9243ZM137.255 28.1126C139.961 28.1126 141.946 28.9094 143.34 30.2092C144.632 31.4136 145.453 33.083 145.846 35.0452H128.043C128.557 32.8958 129.603 31.2179 131.065 30.0537C132.642 28.7976 134.738 28.1126 137.255 28.1126ZM176.081 28.1126C178.786 28.1126 180.771 28.9094 182.165 30.2092C183.457 31.4136 184.278 33.083 184.672 35.0452H166.868C167.382 32.8958 168.428 31.2179 169.89 30.0537C171.467 28.7976 173.563 28.1126 176.081 28.1126ZM238.879 28.1282C244.469 28.1282 248.913 32.6978 248.913 38.3139C248.913 43.9289 244.469 48.4985 238.879 48.4985C233.291 48.4985 228.913 43.9326 228.913 38.3139C228.913 32.6941 233.291 28.1282 238.879 28.1282ZM238.879 20.6269C228.846 20.6269 220.825 28.3826 220.825 38.3139C220.825 48.1771 228.845 55.9999 238.879 55.9999C248.91 55.9999 257 48.1792 257 38.3139C257 28.3804 248.909 20.6269 238.879 20.6269Z" fill="#11243E"/>
<path d="M272.098 11.3891V55.1304H263.324V11.3891H272.098Z" fill="#11243E"/>
<path d="M299.338 19.9118C303.474 19.9118 306.816 21.2278 309.364 23.8598C311.913 26.45 313.187 30.0846 313.187 34.7638V55.1304H304.414V35.9544C304.414 33.1971 303.724 31.0873 302.346 29.6251C300.967 28.1211 299.087 27.3691 296.706 27.3691C294.283 27.3691 292.361 28.1211 290.94 29.6251C289.562 31.0873 288.872 33.1971 288.872 35.9544V55.1304H280.099V20.4131H288.872V24.7371C290.042 23.2331 291.525 22.0633 293.322 21.2278C295.16 20.3504 297.165 19.9118 299.338 19.9118Z" fill="#11243E"/>
<path d="M335.339 47.0464L344.113 20.4131H353.45L340.603 55.1304H329.95L317.166 20.4131H326.566L335.339 47.0464Z" fill="#11243E"/>
<path d="M373.127 55.6944C369.785 55.6944 366.777 54.9633 364.103 53.5011C361.429 51.9971 359.319 49.8873 357.774 47.1718C356.27 44.4562 355.518 41.3229 355.518 37.7718C355.518 34.2206 356.291 31.0873 357.836 28.3718C359.424 25.6562 361.575 23.5673 364.291 22.1051C367.007 20.6011 370.035 19.8491 373.378 19.8491C376.72 19.8491 379.749 20.6011 382.464 22.1051C385.18 23.5673 387.311 25.6562 388.856 28.3718C390.444 31.0873 391.238 34.2206 391.238 37.7718C391.238 41.3229 390.423 44.4562 388.794 47.1718C387.206 49.8873 385.034 51.9971 382.276 53.5011C379.561 54.9633 376.511 55.6944 373.127 55.6944ZM373.127 48.0491C374.715 48.0491 376.198 47.6731 377.576 46.9211C378.997 46.1273 380.125 44.9575 380.96 43.4118C381.796 41.866 382.214 39.986 382.214 37.7718C382.214 34.4713 381.336 31.9438 379.582 30.1891C377.869 28.3926 375.759 27.4944 373.252 27.4944C370.746 27.4944 368.636 28.3926 366.923 30.1891C365.252 31.9438 364.416 34.4713 364.416 37.7718C364.416 41.0722 365.231 43.6206 366.86 45.4171C368.531 47.1718 370.62 48.0491 373.127 48.0491Z" fill="#11243E"/>
<path d="M401.456 16.2771C399.91 16.2771 398.615 15.7966 397.571 14.8358C396.568 13.8331 396.067 12.6006 396.067 11.1384C396.067 9.6762 396.568 8.46464 397.571 7.50376C398.615 6.50109 399.91 5.99976 401.456 5.99976C403.002 5.99976 404.276 6.50109 405.279 7.50376C406.323 8.46464 406.845 9.6762 406.845 11.1384C406.845 12.6006 406.323 13.8331 405.279 14.8358C404.276 15.7966 403.002 16.2771 401.456 16.2771ZM405.78 20.4131V55.1304H397.007V20.4131H405.78Z" fill="#11243E"/>
<path d="M411.525 37.7718C411.525 34.1789 412.256 31.0455 413.719 28.3718C415.181 25.6562 417.207 23.5673 419.797 22.1051C422.387 20.6011 425.354 19.8491 428.696 19.8491C432.999 19.8491 436.55 20.9353 439.349 23.1078C442.19 25.2384 444.091 28.2464 445.052 32.1318H435.589C435.088 30.6278 434.231 29.458 433.02 28.6224C431.85 27.7451 430.388 27.3064 428.633 27.3064C426.127 27.3064 424.142 28.2255 422.68 30.0638C421.218 31.8602 420.487 34.4295 420.487 37.7718C420.487 41.0722 421.218 43.6415 422.68 45.4798C424.142 47.2762 426.127 48.1744 428.633 48.1744C432.184 48.1744 434.503 46.5869 435.589 43.4118H445.052C444.091 47.1718 442.19 50.1589 439.349 52.3731C436.508 54.5873 432.957 55.6944 428.696 55.6944C425.354 55.6944 422.387 54.9633 419.797 53.5011C417.207 51.9971 415.181 49.9082 413.719 47.2344C412.256 44.5189 411.525 41.3646 411.525 37.7718Z" fill="#11243E"/>
<path d="M483.086 37.0198C483.086 38.2731 483.002 39.4011 482.835 40.4038H457.455C457.664 42.9104 458.541 44.874 460.087 46.2944C461.633 47.7149 463.534 48.4251 465.79 48.4251C469.049 48.4251 471.367 47.0255 472.746 44.2264H482.209C481.206 47.5686 479.284 50.326 476.443 52.4984C473.602 54.6291 470.114 55.6944 465.978 55.6944C462.636 55.6944 459.628 54.9633 456.954 53.5011C454.322 51.9971 452.254 49.8873 450.75 47.1718C449.288 44.4562 448.557 41.3229 448.557 37.7718C448.557 34.1789 449.288 31.0246 450.75 28.3091C452.212 25.5935 454.259 23.5046 456.891 22.0424C459.523 20.5802 462.552 19.8491 465.978 19.8491C469.278 19.8491 472.224 20.5593 474.814 21.9798C477.446 23.4002 479.472 25.4264 480.893 28.0584C482.355 30.6486 483.086 33.6358 483.086 37.0198ZM473.999 34.5131C473.957 32.2571 473.143 30.4606 471.555 29.1238C469.968 27.7451 468.025 27.0558 465.727 27.0558C463.555 27.0558 461.717 27.7242 460.213 29.0611C458.75 30.3562 457.852 32.1735 457.518 34.5131H473.999Z" fill="#11243E"/>
<defs>
<linearGradient id="paint0_linear_5723_5665" x1="32.2939" y1="89.9428" x2="32.2939" y2="-1.51121" gradientUnits="userSpaceOnUse">
<stop stop-color="#46A0D3"/>
<stop offset="1" stop-color="#72DAE0"/>
</linearGradient>
</defs>
</svg>
