<svg width="1734" height="432" viewBox="0 0 1734 432" fill="none" xmlns="http://www.w3.org/2000/svg">
<g clip-path="url(#clip0_746_2328)">
<path d="M372.854 408.375L56.0003 408.375L56.0003 330.344C56.0003 242.847 126.931 171.917 214.427 171.917C301.924 171.917 372.854 242.847 372.854 330.344V408.375Z" fill="#5BCC5A"/>
<path d="M56 25.3125H372.854V103.344C372.854 190.841 301.924 261.771 214.427 261.771C126.93 261.771 56 190.841 56 103.344V25.3125Z" fill="#75DC66"/>
<path d="M324.957 216.843C296.413 244.645 257.42 261.771 214.427 261.771C171.434 261.771 132.441 244.645 103.897 216.844C132.441 189.042 171.434 171.917 214.427 171.917C257.42 171.917 296.413 189.042 324.957 216.843Z" fill="#0DA84C"/>
</g>
<path d="M565.365 164.847V406.312H516.934V164.847H565.365Z" fill="black"/>
<path d="M712.499 211.895C735.331 211.895 753.781 219.16 767.849 233.689C781.917 247.988 788.951 268.052 788.951 293.882V406.312H740.52V300.455C740.52 285.234 736.715 273.587 729.104 265.515C721.493 257.213 711.115 253.061 697.97 253.061C684.593 253.061 673.985 257.213 666.143 265.515C658.533 273.587 654.728 285.234 654.728 300.455V406.312H606.296V214.662H654.728V238.532C661.185 230.229 669.372 223.772 679.289 219.16C689.437 214.316 700.507 211.895 712.499 211.895Z" fill="black"/>
<path d="M908 361.686L956.431 214.662H1007.98L937.058 406.312H878.249L807.678 214.662H859.568L908 361.686Z" fill="black"/>
<path d="M1113.36 409.425C1094.91 409.425 1078.3 405.389 1063.54 397.317C1048.78 389.015 1037.14 377.368 1028.6 362.378C1020.3 347.387 1016.15 330.09 1016.15 310.487C1016.15 290.884 1020.42 273.587 1028.95 258.596C1037.71 243.606 1049.59 232.074 1064.58 224.003C1079.57 215.7 1096.29 211.549 1114.74 211.549C1133.19 211.549 1149.91 215.7 1164.9 224.003C1179.89 232.074 1191.66 243.606 1200.19 258.596C1208.95 273.587 1213.34 290.884 1213.34 310.487C1213.34 330.09 1208.84 347.387 1199.84 362.378C1191.08 377.368 1179.09 389.015 1163.87 397.317C1148.88 405.389 1132.04 409.425 1113.36 409.425ZM1113.36 367.221C1122.12 367.221 1130.31 365.145 1137.92 360.994C1145.76 356.612 1151.99 350.155 1156.6 341.621C1161.21 333.088 1163.52 322.71 1163.52 310.487C1163.52 292.268 1158.68 278.315 1148.99 268.629C1139.54 258.712 1127.89 253.753 1114.05 253.753C1100.21 253.753 1088.57 258.712 1079.11 268.629C1069.89 278.315 1065.27 292.268 1065.27 310.487C1065.27 328.706 1069.77 342.775 1078.77 352.691C1087.99 362.378 1099.52 367.221 1113.36 367.221Z" fill="black"/>
<path d="M1266.5 191.83C1257.97 191.83 1250.82 189.178 1245.06 183.874C1239.52 178.339 1236.75 171.535 1236.75 163.464C1236.75 155.392 1239.52 148.704 1245.06 143.399C1250.82 137.864 1257.97 135.097 1266.5 135.097C1275.04 135.097 1282.07 137.864 1287.61 143.399C1293.37 148.704 1296.26 155.392 1296.26 163.464C1296.26 171.535 1293.37 178.339 1287.61 183.874C1282.07 189.178 1275.04 191.83 1266.5 191.83ZM1290.37 214.662V406.312H1241.94V214.662H1290.37Z" fill="black"/>
<path d="M1318.85 310.487C1318.85 290.653 1322.89 273.356 1330.96 258.596C1339.03 243.606 1350.22 232.074 1364.52 224.003C1378.81 215.7 1395.19 211.549 1413.64 211.549C1437.39 211.549 1457 217.545 1472.45 229.538C1488.13 241.299 1498.62 257.905 1503.93 279.353H1451.69C1448.92 271.05 1444.2 264.593 1437.51 259.98C1431.05 255.137 1422.98 252.715 1413.29 252.715C1399.46 252.715 1388.5 257.789 1380.43 267.937C1372.36 277.854 1368.32 292.037 1368.32 310.487C1368.32 328.706 1372.36 342.89 1380.43 353.037C1388.5 362.954 1399.46 367.913 1413.29 367.913C1432.9 367.913 1445.7 359.149 1451.69 341.621H1503.93C1498.62 362.378 1488.13 378.867 1472.45 391.09C1456.77 403.314 1437.16 409.425 1413.64 409.425C1395.19 409.425 1378.81 405.389 1364.52 397.317C1350.22 389.015 1339.03 377.484 1330.96 362.724C1322.89 347.733 1318.85 330.321 1318.85 310.487Z" fill="black"/>
<path d="M1710.65 306.336C1710.65 313.255 1710.19 319.481 1709.26 325.016H1569.16C1570.31 338.854 1575.16 349.693 1583.69 357.535C1592.22 365.376 1602.72 369.296 1615.17 369.296C1633.16 369.296 1645.96 361.57 1653.57 346.119H1705.8C1700.27 364.569 1689.66 379.79 1673.98 391.782C1658.3 403.544 1639.04 409.425 1616.21 409.425C1597.76 409.425 1581.15 405.389 1566.39 397.317C1551.86 389.015 1540.45 377.368 1532.14 362.378C1524.07 347.387 1520.04 330.09 1520.04 310.487C1520.04 290.653 1524.07 273.241 1532.14 258.25C1540.22 243.26 1551.52 231.729 1566.05 223.657C1580.58 215.585 1597.3 211.549 1616.21 211.549C1634.43 211.549 1650.69 215.469 1664.98 223.311C1679.51 231.152 1690.7 242.337 1698.54 256.867C1706.61 271.165 1710.65 287.655 1710.65 306.336ZM1660.49 292.498C1660.26 280.045 1655.76 270.128 1647 262.748C1638.23 255.137 1627.51 251.332 1614.82 251.332C1602.83 251.332 1592.68 255.022 1584.38 262.402C1576.31 269.551 1571.35 279.583 1569.51 292.498H1660.49Z" fill="black"/>
<path d="M686.177 76.5291C686.177 79.1194 686.005 81.4507 685.66 83.5229H633.248C633.679 88.7036 635.491 92.7618 638.683 95.6975C641.875 98.6332 645.801 100.101 650.46 100.101C657.189 100.101 661.977 97.2085 664.824 91.4235H684.366C682.295 98.331 678.326 104.03 672.46 108.52C666.593 112.923 659.389 115.125 650.848 115.125C643.946 115.125 637.734 113.614 632.213 110.592C626.777 107.484 622.507 103.123 619.401 97.5107C616.381 91.8984 614.871 85.4225 614.871 78.0833C614.871 70.6576 616.381 64.1386 619.401 58.5262C622.42 52.9139 626.648 48.5966 632.083 45.5746C637.518 42.5525 643.773 41.0415 650.848 41.0415C657.664 41.0415 663.746 42.5094 669.095 45.4451C674.53 48.3808 678.715 52.5685 681.648 58.0082C684.668 63.3615 686.177 69.5352 686.177 76.5291ZM667.413 71.3484C667.326 66.6858 665.644 62.973 662.366 60.21C659.087 57.3606 655.075 55.9359 650.33 55.9359C645.844 55.9359 642.048 57.3174 638.942 60.0804C635.922 62.7571 634.068 66.5131 633.377 71.3484H667.413Z" fill="black"/>
<path d="M766.049 76.5291C766.049 79.1194 765.876 81.4507 765.531 83.5229H713.119C713.551 88.7036 715.362 92.7618 718.555 95.6975C721.747 98.6332 725.672 100.101 730.331 100.101C737.06 100.101 741.849 97.2085 744.696 91.4235H764.237C762.166 98.331 758.198 104.03 752.331 108.52C746.464 112.923 739.26 115.125 730.719 115.125C723.817 115.125 717.606 113.614 712.084 110.592C706.649 107.484 702.378 103.123 699.272 97.5107C696.253 91.8984 694.743 85.4225 694.743 78.0833C694.743 70.6576 696.253 64.1386 699.272 58.5262C702.292 52.9139 706.519 48.5966 711.955 45.5746C717.39 42.5525 723.645 41.0415 730.719 41.0415C737.535 41.0415 743.617 42.5094 748.966 45.4451C754.402 48.3808 758.586 52.5685 761.519 58.0082C764.539 63.3615 766.049 69.5352 766.049 76.5291ZM747.284 71.3484C747.198 66.6858 745.515 62.973 742.237 60.21C738.958 57.3606 734.947 55.9359 730.202 55.9359C725.715 55.9359 721.919 57.3174 718.813 60.0804C715.794 62.7571 713.939 66.5131 713.249 71.3484H747.284Z" fill="black"/>
<path d="M800.667 56.9622V91.9846C800.667 94.4022 801.305 95.9996 802.427 97.1221C803.634 98.1582 805.619 98.6763 808.38 98.6763H816.791V113.959H805.403C790.132 113.959 782.826 106.149 782.826 91.2979V56.9622H773.22V41.8545H782.826V24H800.667V41.8545H816.791V56.9622H800.667Z" fill="black"/>
<path d="M861.281 115.125C854.379 115.125 848.167 113.614 842.645 110.592C837.124 107.484 832.767 103.123 829.575 97.5107C826.469 91.8984 824.916 85.4225 824.916 78.0833C824.916 70.744 826.512 64.2681 829.704 58.6558C832.983 53.0434 837.426 48.7261 843.034 45.7041C848.641 42.5957 854.896 41.0415 861.798 41.0415C868.7 41.0415 874.955 42.5957 880.563 45.7041C886.171 48.7261 890.571 53.0434 893.763 58.6558C897.041 64.2681 898.681 70.744 898.681 78.0833C898.681 85.4225 896.998 91.8984 893.634 97.5107C890.355 103.123 885.869 107.484 880.175 110.592C874.567 113.614 868.269 115.125 861.281 115.125ZM861.281 99.324C864.559 99.324 867.622 98.5469 870.469 96.9927C873.402 95.3521 875.732 92.9345 877.457 89.7397C879.183 86.545 880.045 82.6595 880.045 78.0833C880.045 71.262 878.234 66.0382 874.61 62.4117C871.073 58.6989 866.716 56.8425 861.539 56.8425C856.363 56.8425 852.006 58.6989 848.469 62.4117C845.018 66.0382 843.292 71.262 843.292 78.0833C843.292 84.9045 844.975 90.1715 848.339 93.8843C851.79 97.5107 856.104 99.324 861.281 99.324Z" fill="black"/>
<path d="M599.569 24H564.788L599.569 76.1708V24Z" fill="black"/>
<path d="M513.312 115.125L513.313 24H538.429L599.569 115.125H573.72L533.486 55.9981V115.125H513.312Z" fill="black"/>
<defs>
<clipPath id="clip0_746_2328">
<rect width="384.75" height="384.75" fill="white" transform="translate(22.25 23.625)"/>
</clipPath>
</defs>
</svg>
