<svg width="1055" height="432" viewBox="0 0 1055 432" fill="none" xmlns="http://www.w3.org/2000/svg">
<path fill-rule="evenodd" clip-rule="evenodd" d="M279.45 171.364C264.962 171.364 253.217 183.109 253.217 197.597V232.728C253.217 276.192 217.983 311.427 174.519 311.427H128.688C114.2 311.427 102.455 299.682 102.455 285.194C102.455 270.706 114.2 258.961 128.688 258.961H174.519C189.007 258.961 200.752 247.216 200.752 232.728V197.597C200.752 154.133 235.986 118.898 279.45 118.898H354.813C369.301 118.898 381.046 130.643 381.046 145.131C381.046 159.619 369.301 171.364 354.813 171.364H279.45Z" fill="#75DC66"/>
<path fill-rule="evenodd" clip-rule="evenodd" d="M92.3301 285.194C92.3301 270.706 104.075 258.961 118.563 258.961H354.813C369.301 258.961 381.046 270.706 381.046 285.194C381.046 299.682 369.301 311.427 354.813 311.427H118.563C104.075 311.427 92.3301 299.682 92.3301 285.194Z" fill="#5BCC5A"/>
<path fill-rule="evenodd" clip-rule="evenodd" d="M174.519 258.961H128.688C114.2 258.961 102.455 270.706 102.455 285.194C102.455 299.677 114.192 311.419 128.674 311.427C128.678 311.427 128.683 311.427 128.688 311.427H174.519C174.527 311.427 174.535 311.427 174.543 311.427C208.799 311.416 237.938 289.52 248.739 258.961L174.519 258.961Z" fill="#0DA84C"/>
<circle cx="78.2773" cy="285.402" r="54.2148" fill="#5BCC5A"/>
<circle cx="355.027" cy="145.34" r="54.2148" fill="#75DC66"/>
<circle cx="355.027" cy="285.402" r="54.2148" fill="#5BCC5A"/>
<path d="M691.93 237.866C686.395 227.719 678.785 219.993 669.099 214.688C659.412 209.384 648.112 206.732 635.197 206.732C620.898 206.732 608.214 209.961 597.144 216.418C586.074 222.876 577.425 232.101 571.198 244.093C564.971 256.086 561.858 269.923 561.858 285.606C561.858 301.749 564.971 315.818 571.198 327.81C577.656 339.803 586.535 349.028 597.835 355.485C609.136 361.943 622.282 365.171 637.272 365.171C655.722 365.171 670.828 360.328 682.59 350.642C694.352 340.725 702.078 327.003 705.768 309.475H622.743V272.46H753.507V314.664C750.279 331.5 743.36 347.067 732.751 361.366C722.142 375.665 708.42 387.196 691.585 395.96C674.98 404.493 656.299 408.759 635.543 408.759C612.25 408.759 591.147 403.57 572.236 393.192C553.555 382.583 538.795 367.939 527.956 349.258C517.347 330.578 512.043 309.36 512.043 285.606C512.043 261.851 517.347 240.634 527.956 221.953C538.795 203.042 553.555 188.397 572.236 178.019C591.147 167.41 612.134 162.106 635.197 162.106C662.41 162.106 686.05 168.794 706.114 182.17C726.178 195.316 740.016 213.881 747.626 237.866H691.93Z" fill="black"/>
<path d="M806.982 192.203C798.449 192.203 791.299 189.55 785.534 184.246C779.999 178.711 777.231 171.907 777.231 163.836C777.231 155.764 779.999 149.076 785.534 143.771C791.299 138.236 798.449 135.469 806.982 135.469C815.515 135.469 822.549 138.236 828.084 143.771C833.85 149.076 836.732 155.764 836.732 163.836C836.732 171.907 833.85 178.711 828.084 184.246C822.549 189.55 815.515 192.203 806.982 192.203ZM830.851 215.034V406.684H782.42V215.034H830.851Z" fill="black"/>
<path d="M928.171 254.817V347.528C928.171 353.986 929.67 358.714 932.668 361.712C935.897 364.479 941.201 365.863 948.581 365.863H971.067V406.684H940.624C899.804 406.684 879.393 386.85 879.393 347.183V254.817H856.562V215.034H879.393V167.641H928.171V215.034H971.067V254.817H928.171Z" fill="black"/>
<path d="M689.302 76.5291C689.302 79.1194 689.13 81.4507 688.785 83.5229H636.373C636.804 88.7036 638.616 92.7618 641.808 95.6975C645 98.6332 648.926 100.101 653.585 100.101C660.314 100.101 665.102 97.2085 667.949 91.4235H687.491C685.42 98.331 681.451 104.03 675.585 108.52C669.718 112.923 662.514 115.125 653.973 115.125C647.071 115.125 640.859 113.614 635.338 110.592C629.902 107.484 625.632 103.123 622.526 97.5107C619.506 91.8984 617.996 85.4225 617.996 78.0833C617.996 70.6576 619.506 64.1386 622.526 58.5262C625.545 52.9139 629.773 48.5966 635.208 45.5746C640.643 42.5525 646.898 41.0415 653.973 41.0415C660.789 41.0415 666.871 42.5094 672.22 45.4451C677.655 48.3808 681.84 52.5685 684.773 58.0082C687.793 63.3615 689.302 69.5352 689.302 76.5291ZM670.538 71.3484C670.451 66.6858 668.769 62.973 665.491 60.21C662.212 57.3606 658.2 55.9359 653.455 55.9359C648.969 55.9359 645.173 57.3174 642.067 60.0804C639.047 62.7571 637.193 66.5131 636.502 71.3484H670.538Z" fill="black"/>
<path d="M769.174 76.5291C769.174 79.1194 769.001 81.4507 768.656 83.5229H716.244C716.676 88.7036 718.487 92.7618 721.68 95.6975C724.872 98.6332 728.797 100.101 733.456 100.101C740.185 100.101 744.974 97.2085 747.821 91.4235H767.362C765.291 98.331 761.323 104.03 755.456 108.52C749.589 112.923 742.385 115.125 733.844 115.125C726.942 115.125 720.731 113.614 715.209 110.592C709.774 107.484 705.503 103.123 702.397 97.5107C699.378 91.8984 697.868 85.4225 697.868 78.0833C697.868 70.6576 699.378 64.1386 702.397 58.5262C705.417 52.9139 709.644 48.5966 715.08 45.5746C720.515 42.5525 726.77 41.0415 733.844 41.0415C740.66 41.0415 746.742 42.5094 752.091 45.4451C757.527 48.3808 761.711 52.5685 764.644 58.0082C767.664 63.3615 769.174 69.5352 769.174 76.5291ZM750.409 71.3484C750.323 66.6858 748.64 62.973 745.362 60.21C742.083 57.3606 738.072 55.9359 733.327 55.9359C728.84 55.9359 725.044 57.3174 721.938 60.0804C718.919 62.7571 717.064 66.5131 716.374 71.3484H750.409Z" fill="black"/>
<path d="M803.792 56.9622V91.9846C803.792 94.4022 804.43 95.9996 805.552 97.1221C806.759 98.1582 808.744 98.6763 811.504 98.6763H819.916V113.959H808.528C793.257 113.959 785.951 106.149 785.951 91.2979V56.9622H776.345V41.8545H785.951V24H803.792V41.8545H819.916V56.9622H803.792Z" fill="black"/>
<path d="M864.406 115.125C857.504 115.125 851.292 113.614 845.77 110.592C840.249 107.484 835.892 103.123 832.7 97.5107C829.594 91.8984 828.041 85.4225 828.041 78.0833C828.041 70.744 829.637 64.2681 832.829 58.6558C836.108 53.0434 840.551 48.7261 846.158 45.7041C851.766 42.5957 858.021 41.0415 864.923 41.0415C871.825 41.0415 878.08 42.5957 883.688 45.7041C889.296 48.7261 893.696 53.0434 896.888 58.6558C900.166 64.2681 901.806 70.744 901.806 78.0833C901.806 85.4225 900.123 91.8984 896.758 97.5107C893.48 103.123 888.994 107.484 883.3 110.592C877.692 113.614 871.394 115.125 864.406 115.125ZM864.406 99.324C867.684 99.324 870.747 98.5469 873.594 96.9927C876.527 95.3521 878.857 92.9345 880.582 89.7397C882.308 86.545 883.17 82.6595 883.17 78.0833C883.17 71.262 881.358 66.0382 877.735 62.4117C874.198 58.6989 869.841 56.8425 864.664 56.8425C859.488 56.8425 855.131 58.6989 851.594 62.4117C848.143 66.0382 846.417 71.262 846.417 78.0833C846.417 84.9045 848.1 90.1715 851.464 93.8843C854.915 97.5107 859.229 99.324 864.406 99.324Z" fill="black"/>
<path d="M602.694 24H567.913L602.694 76.1708V24Z" fill="black"/>
<path d="M516.438 115.125L516.438 24H541.554L602.694 115.125H576.845L536.611 55.9981V115.125H516.438Z" fill="black"/>
</svg>
