<svg width="1082" height="432" viewBox="0 0 1082 432" fill="none" xmlns="http://www.w3.org/2000/svg">
<rect x="38.8125" y="53.1094" width="351" height="351" rx="65.52" fill="#75DC66"/>
<path d="M38.8125 118.629C38.8125 82.4437 68.1468 53.1094 104.333 53.1094H324.292C360.478 53.1094 389.812 82.4437 389.812 118.629V170.109H38.8125V118.629Z" fill="#5BCC5A"/>
<rect x="38.8125" y="170.107" width="117" height="117" fill="#75DC66"/>
<path d="M38.8125 287.107H155.812V404.107H104.333C68.1468 404.107 38.8125 374.773 38.8125 338.587V287.107Z" fill="#75DC66"/>
<rect x="155.812" y="287.107" width="117" height="117" fill="#0DA84C"/>
<rect x="272.812" y="170.107" width="117" height="117" fill="#0DA84C"/>
<rect x="155.812" y="170.107" width="117" height="117" fill="#75DC66"/>
<path d="M272.812 287.107H389.812V338.587C389.812 374.773 360.478 404.107 324.292 404.107H272.812V287.107Z" fill="#0DA84C"/>
<rect x="262.281" y="26.1992" width="42.12" height="69.03" rx="21.06" fill="#0DA84C"/>
<rect x="124.222" y="26.1987" width="42.12" height="69.03" rx="21.06" fill="#0DA84C"/>
<path d="M514.977 283.546C514.977 259.792 520.281 238.574 530.89 219.893C541.73 200.982 556.374 186.338 574.824 175.959C593.505 165.351 614.376 160.046 637.439 160.046C664.422 160.046 688.061 166.965 708.356 180.803C728.651 194.64 742.835 213.782 750.906 238.228H695.21C689.675 226.697 681.834 218.048 671.687 212.283C661.77 206.517 650.239 203.634 637.093 203.634C623.025 203.634 610.456 206.978 599.386 213.667C588.546 220.124 580.013 229.349 573.786 241.342C567.79 253.334 564.792 267.402 564.792 283.546C564.792 299.459 567.79 313.527 573.786 325.75C580.013 337.743 588.546 347.083 599.386 353.771C610.456 360.229 623.025 363.458 637.093 363.458C650.239 363.458 661.77 360.575 671.687 354.809C681.834 348.813 689.675 340.049 695.21 328.518H750.906C742.835 353.195 728.651 372.452 708.356 386.289C688.292 399.896 664.653 406.7 637.439 406.7C614.376 406.7 593.505 401.511 574.824 391.133C556.374 380.524 541.73 365.879 530.89 347.198C520.281 328.518 514.977 307.3 514.977 283.546Z" fill="black"/>
<path d="M772.9 308.108C772.9 288.735 776.706 271.553 784.316 256.563C792.158 241.572 802.651 230.041 815.797 221.969C829.173 213.897 844.048 209.861 860.423 209.861C874.721 209.861 887.175 212.744 897.784 218.51C908.623 224.275 917.272 231.54 923.729 240.304V212.975H972.506V404.624H923.729V376.603C917.502 385.598 908.854 393.093 897.784 399.089C886.945 404.855 874.375 407.738 860.077 407.738C843.933 407.738 829.173 403.586 815.797 395.284C802.651 386.981 792.158 375.335 784.316 360.344C776.706 345.123 772.9 327.711 772.9 308.108ZM923.729 308.799C923.729 297.038 921.423 287.005 916.81 278.703C912.198 270.17 905.971 263.712 898.13 259.33C890.289 254.718 881.871 252.412 872.876 252.412C863.882 252.412 855.58 254.603 847.969 258.984C840.358 263.366 834.131 269.824 829.288 278.357C824.676 286.659 822.37 296.576 822.37 308.108C822.37 319.639 824.676 329.786 829.288 338.55C834.131 347.083 840.358 353.656 847.969 358.268C855.81 362.881 864.113 365.187 872.876 365.187C881.871 365.187 890.289 362.996 898.13 358.614C905.971 354.002 912.198 347.544 916.81 339.242C921.423 330.709 923.729 320.561 923.729 308.799Z" fill="black"/>
<path d="M1061.32 148.63V404.624H1012.89V148.63H1061.32Z" fill="black"/>
<path d="M687.549 76.1541C687.549 78.7444 687.377 81.0757 687.032 83.1479H634.62C635.051 88.3286 636.863 92.3868 640.055 95.3225C643.247 98.2582 647.173 99.7261 651.832 99.7261C658.561 99.7261 663.349 96.8335 666.196 91.0485H685.738C683.667 97.956 679.698 103.655 673.832 108.145C667.965 112.548 660.761 114.75 652.22 114.75C645.318 114.75 639.106 113.239 633.585 110.217C628.149 107.109 623.879 102.748 620.773 97.1357C617.753 91.5234 616.243 85.0475 616.243 77.7083C616.243 70.2826 617.753 63.7636 620.773 58.1512C623.793 52.5389 628.02 48.2216 633.455 45.1996C638.891 42.1775 645.145 40.6665 652.22 40.6665C659.036 40.6665 665.118 42.1344 670.467 45.0701C675.902 48.0058 680.087 52.1935 683.02 57.6332C686.04 62.9865 687.549 69.1602 687.549 76.1541ZM668.785 70.9734C668.698 66.3108 667.016 62.598 663.738 59.835C660.459 56.9856 656.447 55.5609 651.702 55.5609C647.216 55.5609 643.42 56.9424 640.314 59.7054C637.294 62.3821 635.44 66.1381 634.749 70.9734H668.785Z" fill="black"/>
<path d="M767.421 76.1541C767.421 78.7444 767.248 81.0757 766.903 83.1479H714.491C714.923 88.3286 716.734 92.3868 719.927 95.3225C723.119 98.2582 727.044 99.7261 731.703 99.7261C738.433 99.7261 743.221 96.8335 746.068 91.0485H765.609C763.538 97.956 759.57 103.655 753.703 108.145C747.836 112.548 740.632 114.75 732.091 114.75C725.189 114.75 718.978 113.239 713.456 110.217C708.021 107.109 703.75 102.748 700.644 97.1357C697.625 91.5234 696.115 85.0475 696.115 77.7083C696.115 70.2826 697.625 63.7636 700.644 58.1512C703.664 52.5389 707.891 48.2216 713.327 45.1996C718.762 42.1775 725.017 40.6665 732.091 40.6665C738.907 40.6665 744.989 42.1344 750.338 45.0701C755.774 48.0058 759.958 52.1935 762.891 57.6332C765.911 62.9865 767.421 69.1602 767.421 76.1541ZM748.656 70.9734C748.57 66.3108 746.887 62.598 743.609 59.835C740.331 56.9856 736.319 55.5609 731.574 55.5609C727.087 55.5609 723.291 56.9424 720.185 59.7054C717.166 62.3821 715.311 66.1381 714.621 70.9734H748.656Z" fill="black"/>
<path d="M802.039 56.5872V91.6096C802.039 94.0272 802.677 95.6246 803.799 96.7471C805.006 97.7832 806.991 98.3013 809.752 98.3013H818.163V113.584H806.775C791.505 113.584 784.199 105.774 784.199 90.9229V56.5872H774.592V41.4795H784.199V23.625H802.039V41.4795H818.163V56.5872H802.039Z" fill="black"/>
<path d="M862.653 114.75C855.751 114.75 849.539 113.239 844.017 110.217C838.496 107.109 834.139 102.748 830.947 97.1357C827.841 91.5234 826.288 85.0475 826.288 77.7083C826.288 70.369 827.884 63.8931 831.076 58.2808C834.355 52.6684 838.798 48.3511 844.406 45.3291C850.013 42.2207 856.268 40.6665 863.17 40.6665C870.072 40.6665 876.327 42.2207 881.935 45.3291C887.543 48.3511 891.943 52.6684 895.135 58.2808C898.413 63.8931 900.053 70.369 900.053 77.7083C900.053 85.0475 898.37 91.5234 895.006 97.1357C891.727 102.748 887.241 107.109 881.547 110.217C875.939 113.239 869.641 114.75 862.653 114.75ZM862.653 98.949C865.931 98.949 868.994 98.1719 871.841 96.6177C874.774 94.9771 877.104 92.5595 878.829 89.3647C880.555 86.17 881.417 82.2845 881.417 77.7083C881.417 70.887 879.606 65.6632 875.982 62.0367C872.445 58.3239 868.088 56.4675 862.911 56.4675C857.735 56.4675 853.378 58.3239 849.841 62.0367C846.39 65.6632 844.664 70.887 844.664 77.7083C844.664 84.5295 846.347 89.7965 849.711 93.5093C853.162 97.1357 857.476 98.949 862.653 98.949Z" fill="black"/>
<path d="M600.941 23.625H566.16L600.941 75.7958V23.625Z" fill="black"/>
<path d="M514.685 114.75L514.685 23.625H539.801L600.941 114.75H575.092L534.858 55.6231V114.75H514.685Z" fill="black"/>
</svg>
