<svg width="2084" height="459" viewBox="0 0 2084 459" fill="none" xmlns="http://www.w3.org/2000/svg">
<g clip-path="url(#clip0_746_2694)">
<rect x="206.313" y="263.227" width="63.3877" height="207.641" rx="31.6939" transform="rotate(-45 206.313 263.227)" fill="#5BCC5A"/>
<circle cx="217.301" cy="218.957" r="119.113" fill="#5BCC5A"/>
<path d="M217.156 25.3125C110.444 25.3125 23.9375 112.197 23.9375 219.375H217.156V25.3125Z" fill="#75DC66"/>
<path fill-rule="evenodd" clip-rule="evenodd" d="M217.156 99.8438C151.438 99.9217 98.1875 153.221 98.1875 218.957C98.1875 219.096 98.1877 219.236 98.1882 219.375H217.156V99.8438Z" fill="#0DA84C"/>
</g>
<g clip-path="url(#clip1_746_2694)">
<path d="M694.703 239.568C694.703 252.483 691.59 264.591 685.363 275.892C679.367 287.192 669.796 296.302 656.65 303.221C643.735 310.14 627.361 313.599 607.527 313.599H567.052V406.31H518.621V164.846H607.527C626.208 164.846 642.121 168.075 655.266 174.532C668.412 180.99 678.214 189.869 684.671 201.169C691.359 212.47 694.703 225.27 694.703 239.568ZM605.451 274.508C618.828 274.508 628.745 271.51 635.202 265.514C641.66 259.287 644.888 250.638 644.888 239.568C644.888 216.045 631.743 204.283 605.451 204.283H567.052V274.508H605.451Z" fill="black"/>
<path d="M770.601 150.316V406.31H722.17V150.316H770.601Z" fill="black"/>
<path d="M799.079 309.794C799.079 290.421 802.884 273.24 810.495 258.249C818.336 243.258 828.83 231.727 841.975 223.655C855.352 215.583 870.227 211.547 886.601 211.547C900.9 211.547 913.354 214.43 923.963 220.196C934.802 225.961 943.45 233.226 949.908 241.99V214.661H998.685V406.31H949.908V378.289C943.681 387.284 935.033 394.779 923.963 400.775C913.123 406.541 900.554 409.424 886.255 409.424C870.112 409.424 855.352 405.272 841.975 396.97C828.83 388.667 818.336 377.021 810.495 362.03C802.884 346.809 799.079 329.397 799.079 309.794ZM949.908 310.485C949.908 298.724 947.602 288.691 942.989 280.389C938.377 271.856 932.15 265.398 924.308 261.016C916.467 256.404 908.049 254.098 899.055 254.098C890.061 254.098 881.758 256.289 874.148 260.67C866.537 265.052 860.31 271.51 855.467 280.043C850.854 288.345 848.548 298.262 848.548 309.794C848.548 321.325 850.854 331.472 855.467 340.236C860.31 348.769 866.537 355.342 874.148 359.955C881.989 364.567 890.291 366.873 899.055 366.873C908.049 366.873 916.467 364.682 924.308 360.3C932.15 355.688 938.377 349.23 942.989 340.928C947.602 332.395 949.908 322.247 949.908 310.485Z" fill="black"/>
<path d="M1222.41 214.661L1103.76 496.946H1052.21L1093.73 401.467L1016.93 214.661H1071.24L1120.71 348.539L1170.87 214.661H1222.41Z" fill="black"/>
<path d="M1229.15 309.794C1229.15 290.421 1232.96 273.24 1240.57 258.249C1248.41 243.258 1259.02 231.727 1272.39 223.655C1285.77 215.583 1300.64 211.547 1317.02 211.547C1329.47 211.547 1341.35 214.315 1352.65 219.85C1363.95 225.154 1372.94 232.304 1379.63 241.298V150.316H1428.76V406.31H1379.63V377.943C1373.64 387.399 1365.22 395.01 1354.38 400.775C1343.54 406.541 1330.97 409.424 1316.67 409.424C1300.53 409.424 1285.77 405.272 1272.39 396.97C1259.02 388.667 1248.41 377.021 1240.57 362.03C1232.96 346.809 1229.15 329.397 1229.15 309.794ZM1379.98 310.485C1379.98 298.724 1377.67 288.691 1373.06 280.389C1368.45 271.856 1362.22 265.398 1354.38 261.016C1346.54 256.404 1338.12 254.098 1329.13 254.098C1320.13 254.098 1311.83 256.289 1304.22 260.67C1296.61 265.052 1290.38 271.51 1285.54 280.043C1280.92 288.345 1278.62 298.262 1278.62 309.794C1278.62 321.325 1280.92 331.472 1285.54 340.236C1290.38 348.769 1296.61 355.342 1304.22 359.955C1312.06 364.567 1320.36 366.873 1329.13 366.873C1338.12 366.873 1346.54 364.682 1354.38 360.3C1362.22 355.688 1368.45 349.23 1373.06 340.928C1377.67 332.395 1379.98 322.247 1379.98 310.485Z" fill="black"/>
<path d="M1456.68 309.794C1456.68 290.421 1460.49 273.24 1468.1 258.249C1475.94 243.258 1486.44 231.727 1499.58 223.655C1512.96 215.583 1527.83 211.547 1544.21 211.547C1558.51 211.547 1570.96 214.43 1581.57 220.196C1592.41 225.961 1601.06 233.226 1607.51 241.99V214.661H1656.29V406.31H1607.51V378.289C1601.29 387.284 1592.64 394.779 1581.57 400.775C1570.73 406.541 1558.16 409.424 1543.86 409.424C1527.72 409.424 1512.96 405.272 1499.58 396.97C1486.44 388.667 1475.94 377.021 1468.1 362.03C1460.49 346.809 1456.68 329.397 1456.68 309.794ZM1607.51 310.485C1607.51 298.724 1605.21 288.691 1600.59 280.389C1595.98 271.856 1589.76 265.398 1581.91 261.016C1574.07 256.404 1565.66 254.098 1556.66 254.098C1547.67 254.098 1539.36 256.289 1531.75 260.67C1524.14 265.052 1517.92 271.51 1513.07 280.043C1508.46 288.345 1506.15 298.262 1506.15 309.794C1506.15 321.325 1508.46 331.472 1513.07 340.236C1517.92 348.769 1524.14 355.342 1531.75 359.955C1539.59 364.567 1547.9 366.873 1556.66 366.873C1565.66 366.873 1574.07 364.682 1581.91 360.3C1589.76 355.688 1595.98 349.23 1600.59 340.928C1605.21 332.395 1607.51 322.247 1607.51 310.485Z" fill="black"/>
<path d="M1770.01 409.424C1754.33 409.424 1740.26 406.656 1727.81 401.121C1715.35 395.355 1705.44 387.63 1698.06 377.943C1690.91 368.257 1686.99 357.533 1686.3 345.771H1735.07C1735.99 353.151 1739.57 359.263 1745.8 364.106C1752.25 368.949 1760.21 371.37 1769.67 371.37C1778.89 371.37 1786.04 369.525 1791.11 365.835C1796.42 362.145 1799.07 357.418 1799.07 351.652C1799.07 345.425 1795.84 340.813 1789.38 337.815C1783.16 334.586 1773.13 331.126 1759.29 327.436C1744.99 323.977 1733.23 320.402 1724 316.712C1715.01 313.022 1707.17 307.372 1700.48 299.761C1694.02 292.151 1690.79 281.888 1690.79 268.973C1690.79 258.364 1693.79 248.678 1699.79 239.914C1706.01 231.15 1714.78 224.232 1726.08 219.158C1737.61 214.084 1751.1 211.547 1766.55 211.547C1789.38 211.547 1807.6 217.313 1821.21 228.844C1834.82 240.145 1842.31 255.481 1843.7 274.854H1797.34C1796.65 267.243 1793.42 261.247 1787.65 256.865C1782.12 252.253 1774.62 249.946 1765.17 249.946C1756.41 249.946 1749.6 251.561 1744.76 254.79C1740.15 258.018 1737.84 262.515 1737.84 268.281C1737.84 274.739 1741.07 279.697 1747.53 283.156C1753.98 286.385 1764.02 289.729 1777.62 293.189C1791.46 296.648 1802.88 300.223 1811.87 303.913C1820.86 307.603 1828.59 313.368 1835.05 321.21C1841.74 328.82 1845.2 338.968 1845.43 351.652C1845.43 362.722 1842.31 372.639 1836.09 381.403C1830.09 390.166 1821.33 397.085 1809.79 402.159C1798.49 407.002 1785.23 409.424 1770.01 409.424Z" fill="black"/>
<path d="M1986.2 211.893C2000.73 211.893 2013.64 215.122 2024.94 221.58C2036.24 227.806 2045.01 237.147 2051.23 249.6C2057.69 261.824 2060.92 276.584 2060.92 293.88V406.31H2012.49V300.453C2012.49 285.232 2008.68 273.585 2001.07 265.514C1993.46 257.211 1983.08 253.06 1969.94 253.06C1956.56 253.06 1945.95 257.211 1938.11 265.514C1930.5 273.585 1926.69 285.232 1926.69 300.453V406.31H1878.26V150.316H1926.69V238.53C1932.92 230.228 1941.22 223.77 1951.6 219.158C1961.98 214.315 1973.51 211.893 1986.2 211.893Z" fill="black"/>
<path d="M689.552 76.1541C689.552 78.7444 689.38 81.0757 689.035 83.1479H636.623C637.054 88.3286 638.866 92.3868 642.058 95.3225C645.25 98.2582 649.176 99.7261 653.835 99.7261C660.564 99.7261 665.352 96.8335 668.199 91.0485H687.741C685.67 97.956 681.701 103.655 675.835 108.145C669.968 112.548 662.764 114.75 654.223 114.75C647.321 114.75 641.109 113.239 635.588 110.217C630.152 107.109 625.882 102.748 622.776 97.1357C619.756 91.5234 618.246 85.0475 618.246 77.7083C618.246 70.2826 619.756 63.7636 622.776 58.1512C625.795 52.5389 630.023 48.2216 635.458 45.1996C640.893 42.1775 647.148 40.6665 654.223 40.6665C661.039 40.6665 667.121 42.1344 672.47 45.0701C677.905 48.0058 682.09 52.1935 685.023 57.6332C688.043 62.9865 689.552 69.1602 689.552 76.1541ZM670.788 70.9734C670.701 66.3108 669.019 62.598 665.741 59.835C662.462 56.9856 658.45 55.5609 653.705 55.5609C649.219 55.5609 645.423 56.9424 642.317 59.7054C639.297 62.3821 637.443 66.1381 636.752 70.9734H670.788Z" fill="black"/>
<path d="M769.424 76.1541C769.424 78.7444 769.251 81.0757 768.906 83.1479H716.494C716.926 88.3286 718.737 92.3868 721.93 95.3225C725.122 98.2582 729.047 99.7261 733.706 99.7261C740.435 99.7261 745.224 96.8335 748.071 91.0485H767.612C765.541 97.956 761.573 103.655 755.706 108.145C749.839 112.548 742.635 114.75 734.094 114.75C727.192 114.75 720.981 113.239 715.459 110.217C710.024 107.109 705.753 102.748 702.647 97.1357C699.628 91.5234 698.118 85.0475 698.118 77.7083C698.118 70.2826 699.628 63.7636 702.647 58.1512C705.667 52.5389 709.894 48.2216 715.33 45.1996C720.765 42.1775 727.02 40.6665 734.094 40.6665C740.91 40.6665 746.992 42.1344 752.341 45.0701C757.777 48.0058 761.961 52.1935 764.894 57.6332C767.914 62.9865 769.424 69.1602 769.424 76.1541ZM750.659 70.9734C750.573 66.3108 748.89 62.598 745.612 59.835C742.333 56.9856 738.322 55.5609 733.577 55.5609C729.09 55.5609 725.294 56.9424 722.188 59.7054C719.169 62.3821 717.314 66.1381 716.624 70.9734H750.659Z" fill="black"/>
<path d="M804.042 56.5872V91.6096C804.042 94.0272 804.68 95.6246 805.802 96.7471C807.009 97.7832 808.994 98.3013 811.755 98.3013H820.166V113.584H808.778C793.507 113.584 786.201 105.774 786.201 90.9229V56.5872H776.595V41.4795H786.201V23.625H804.042V41.4795H820.166V56.5872H804.042Z" fill="black"/>
<path d="M864.656 114.75C857.754 114.75 851.542 113.239 846.02 110.217C840.499 107.109 836.142 102.748 832.95 97.1357C829.844 91.5234 828.291 85.0475 828.291 77.7083C828.291 70.369 829.887 63.8931 833.079 58.2808C836.358 52.6684 840.801 48.3511 846.409 45.3291C852.016 42.2207 858.271 40.6665 865.173 40.6665C872.075 40.6665 878.33 42.2207 883.938 45.3291C889.546 48.3511 893.946 52.6684 897.138 58.2808C900.416 63.8931 902.056 70.369 902.056 77.7083C902.056 85.0475 900.373 91.5234 897.009 97.1357C893.73 102.748 889.244 107.109 883.55 110.217C877.942 113.239 871.644 114.75 864.656 114.75ZM864.656 98.949C867.934 98.949 870.997 98.1719 873.844 96.6177C876.777 94.9771 879.107 92.5595 880.832 89.3647C882.558 86.17 883.42 82.2845 883.42 77.7083C883.42 70.887 881.609 65.6632 877.985 62.0367C874.448 58.3239 870.091 56.4675 864.914 56.4675C859.738 56.4675 855.381 58.3239 851.844 62.0367C848.393 65.6632 846.667 70.887 846.667 77.7083C846.667 84.5295 848.35 89.7965 851.714 93.5093C855.165 97.1357 859.479 98.949 864.656 98.949Z" fill="black"/>
<path d="M602.944 23.625H568.163L602.944 75.7958V23.625Z" fill="black"/>
<path d="M516.688 114.75L516.688 23.625H541.804L602.944 114.75H577.095L536.861 55.6231V114.75H516.688Z" fill="black"/>
</g>
<defs>
<clipPath id="clip0_746_2694">
<rect width="384.75" height="384.75" fill="white" transform="translate(23.9375 23.625)"/>
</clipPath>
<clipPath id="clip1_746_2694">
<rect width="1591.31" height="459" fill="white" transform="translate(491.375)"/>
</clipPath>
</defs>
</svg>
