<svg width="1053" height="432" viewBox="0 0 1053 432" fill="none" xmlns="http://www.w3.org/2000/svg">
<g clip-path="url(#clip0_746_2376)">
<path d="M89.4375 41.1623C89.4375 31.4767 97.2892 23.625 106.975 23.625H318.944C328.63 23.625 336.482 31.4767 336.482 41.1623V289.285C336.482 298.97 328.63 306.822 318.944 306.822H89.4375V41.1623Z" fill="#5BCC5A"/>
<path fill-rule="evenodd" clip-rule="evenodd" d="M139.147 306.823C126.667 306.823 116.551 316.939 116.551 329.418C116.551 341.897 126.667 352.014 139.147 352.014H324.43C331.085 352.014 336.48 357.409 336.48 364.064C336.48 370.72 331.085 376.115 324.43 376.115H139.147C113.356 376.115 92.4492 355.208 92.4492 329.418C92.4492 303.628 113.356 282.721 139.147 282.721H265.711V306.823H139.147Z" fill="#5BCC5A"/>
<path d="M89.4375 306.823H105.092L113.539 344.482L149.692 376.116L140.039 376.112C112.089 376.099 89.4375 353.437 89.4375 325.487V306.823Z" fill="#5BCC5A"/>
<path d="M152.704 268.439C152.704 265.856 154.798 263.763 157.381 263.763H220.333C222.916 263.763 225.01 265.856 225.01 268.439V408.374L188.857 390.069L152.704 408.374V268.439Z" fill="#75DC66"/>
<path fill-rule="evenodd" clip-rule="evenodd" d="M225.01 306.822H152.704V266.306C152.704 263.724 154.798 261.63 157.381 261.63H220.333C222.916 261.63 225.01 263.724 225.01 266.306V306.822Z" fill="#0DA84C"/>
</g>
<path d="M652.92 406.312L565.052 298.725V406.312H516.621V164.848H565.052V273.126L652.92 164.848H711.384L611.754 284.542L714.151 406.312H652.92Z" fill="black"/>
<path d="M876.08 282.466C889.687 285.003 900.872 291.807 909.636 302.877C918.4 313.947 922.781 326.631 922.781 340.93C922.781 353.845 919.553 365.261 913.095 375.178C906.868 384.864 897.759 392.475 885.766 398.01C873.774 403.545 859.59 406.312 843.216 406.312H739.089V164.848H838.719C855.093 164.848 869.161 167.5 880.923 172.804C892.916 178.109 901.91 185.489 907.906 194.944C914.133 204.4 917.246 215.124 917.246 227.116C917.246 241.185 913.441 252.946 905.83 262.402C898.451 271.858 888.534 278.546 876.08 282.466ZM787.52 264.478H831.8C843.331 264.478 852.21 261.941 858.437 256.867C864.664 251.563 867.777 244.067 867.777 234.381C867.777 224.695 864.664 217.2 858.437 211.895C852.21 206.591 843.331 203.939 831.8 203.939H787.52V264.478ZM836.297 366.875C848.059 366.875 857.169 364.108 863.626 358.573C870.314 353.038 873.658 345.196 873.658 335.049C873.658 324.671 870.199 316.599 863.28 310.833C856.361 304.837 847.021 301.839 835.259 301.839H787.52V366.875H836.297Z" fill="black"/>
<path d="M685.865 76.5291C685.865 79.1194 685.692 81.4507 685.347 83.5229H632.935C633.367 88.7036 635.179 92.7618 638.371 95.6975C641.563 98.6332 645.488 100.101 650.147 100.101C656.877 100.101 661.665 97.2085 664.512 91.4235H684.053C681.982 98.331 678.014 104.03 672.147 108.52C666.281 112.923 659.077 115.125 650.535 115.125C643.633 115.125 637.422 113.614 631.9 110.592C626.465 107.484 622.194 103.123 619.088 97.5107C616.069 91.8984 614.559 85.4225 614.559 78.0833C614.559 70.6576 616.069 64.1386 619.088 58.5262C622.108 52.9139 626.335 48.5966 631.771 45.5746C637.206 42.5525 643.461 41.0415 650.535 41.0415C657.351 41.0415 663.433 42.5094 668.782 45.4451C674.218 48.3808 678.402 52.5685 681.335 58.0082C684.355 63.3615 685.865 69.5352 685.865 76.5291ZM667.1 71.3484C667.014 66.6858 665.331 62.973 662.053 60.21C658.775 57.3606 654.763 55.9359 650.018 55.9359C645.531 55.9359 641.735 57.3174 638.63 60.0804C635.61 62.7571 633.755 66.5131 633.065 71.3484H667.1Z" fill="black"/>
<path d="M765.736 76.5291C765.736 79.1194 765.564 81.4507 765.218 83.5229H712.807C713.238 88.7036 715.05 92.7618 718.242 95.6975C721.434 98.6332 725.36 100.101 730.019 100.101C736.748 100.101 741.536 97.2085 744.383 91.4235H763.924C761.854 98.331 757.885 104.03 752.019 108.52C746.152 112.923 738.948 115.125 730.407 115.125C723.505 115.125 717.293 113.614 711.771 110.592C706.336 107.484 702.066 103.123 698.96 97.5107C695.94 91.8984 694.43 85.4225 694.43 78.0833C694.43 70.6576 695.94 64.1386 698.96 58.5262C701.979 52.9139 706.207 48.5966 711.642 45.5746C717.077 42.5525 723.332 41.0415 730.407 41.0415C737.222 41.0415 743.305 42.5094 748.654 45.4451C754.089 48.3808 758.273 52.5685 761.207 58.0082C764.226 63.3615 765.736 69.5352 765.736 76.5291ZM746.971 71.3484C746.885 66.6858 745.203 62.973 741.924 60.21C738.646 57.3606 734.634 55.9359 729.889 55.9359C725.403 55.9359 721.607 57.3174 718.501 60.0804C715.481 62.7571 713.626 66.5131 712.936 71.3484H746.971Z" fill="black"/>
<path d="M800.354 56.9622V91.9846C800.354 94.4022 800.992 95.9996 802.114 97.1221C803.322 98.1582 805.306 98.6763 808.067 98.6763H816.479V113.959H805.091C789.82 113.959 782.514 106.149 782.514 91.2979V56.9622H772.908V41.8545H782.514V24H800.354V41.8545H816.479V56.9622H800.354Z" fill="black"/>
<path d="M860.968 115.125C854.066 115.125 847.854 113.614 842.333 110.592C836.811 107.484 832.454 103.123 829.262 97.5107C826.156 91.8984 824.603 85.4225 824.603 78.0833C824.603 70.744 826.199 64.2681 829.392 58.6558C832.67 53.0434 837.113 48.7261 842.721 45.7041C848.329 42.5957 854.584 41.0415 861.486 41.0415C868.388 41.0415 874.643 42.5957 880.25 45.7041C885.858 48.7261 890.258 53.0434 893.45 58.6558C896.729 64.2681 898.368 70.744 898.368 78.0833C898.368 85.4225 896.686 91.8984 893.321 97.5107C890.043 103.123 885.556 107.484 879.862 110.592C874.254 113.614 867.956 115.125 860.968 115.125ZM860.968 99.324C864.246 99.324 867.309 98.5469 870.156 96.9927C873.09 95.3521 875.419 92.9345 877.145 89.7397C878.87 86.545 879.733 82.6595 879.733 78.0833C879.733 71.262 877.921 66.0382 874.297 62.4117C870.76 58.6989 866.403 56.8425 861.227 56.8425C856.05 56.8425 851.694 58.6989 848.156 62.4117C844.705 66.0382 842.98 71.262 842.98 78.0833C842.98 84.9045 844.662 90.1715 848.027 93.8843C851.478 97.5107 855.792 99.324 860.968 99.324Z" fill="black"/>
<path d="M599.256 24H564.476L599.256 76.1708V24Z" fill="black"/>
<path d="M513 115.125L513 24H538.117L599.256 115.125H573.407L533.173 55.9981V115.125H513Z" fill="black"/>
<defs>
<clipPath id="clip0_746_2376">
<rect width="384.75" height="384.75" fill="white" transform="translate(20.25 23.625)"/>
</clipPath>
</defs>
</svg>
