<svg width="346" height="64" viewBox="0 0 346 64" fill="none" xmlns="http://www.w3.org/2000/svg">
<path d="M56 31.9956C56 18.7408 45.2548 7.99561 32 7.99561H8V55.9956H56V31.9956Z" fill="url(#paint0_linear_5723_5698)"/>
<path d="M25.0526 22.4529C24.4624 22.5764 23.7596 23.0843 23.2764 23.7322C23.0622 24.0177 22.8097 24.5421 22.7108 24.8935L22.6367 25.1653V33.8543V42.5433L22.7136 42.7849C23.0403 43.8309 24.0259 44.8055 25.1569 45.2008L25.4095 45.2886L28.9565 45.2969L32.5035 45.3024L33.8158 43.9379C34.5405 43.1857 35.5838 42.1013 36.1356 41.5275C36.6874 40.9537 37.1349 40.4815 37.1321 40.476C37.1267 40.4706 37.0745 40.4925 37.0168 40.52C36.9592 40.5502 36.8384 40.5968 36.7478 40.627C36.5913 40.6737 36.3689 40.6765 31.7787 40.6765C26.5351 40.6765 26.8481 40.6847 26.4939 40.5145C26.2414 40.3937 25.9558 40.1054 25.8268 39.8391C25.6182 39.4136 25.6237 38.9085 25.8405 38.4665C26.0135 38.1096 26.4473 37.7582 26.8234 37.6731C26.9057 37.6538 28.5529 37.6429 31.7513 37.6429C37.0361 37.6429 36.6874 37.6319 37.0443 37.8103C37.2667 37.9229 37.5769 38.2331 37.6895 38.4555C37.824 38.7218 37.8679 38.9332 37.8514 39.2352C37.8404 39.4822 37.824 39.5481 37.6812 39.9078C37.6675 39.9435 37.6675 39.9544 37.6867 39.9352C37.7004 39.9187 38.0711 39.5371 38.5076 39.0842C38.9441 38.6312 39.6688 37.879 40.1191 37.415L40.9345 36.5694V32.5365V28.5036L38.9523 28.4926C37.0498 28.4844 36.9592 28.4816 36.7725 28.4267C35.8171 28.1522 35.1665 27.3588 34.8892 26.1344C34.8343 25.8928 34.8288 25.7857 34.8206 24.1412L34.8096 22.4062L30.0272 22.4089C25.9037 22.4117 25.2173 22.4172 25.0526 22.4529ZM36.7203 31.5894C37.1212 31.6937 37.5192 32.0231 37.7032 32.3992C37.9805 32.9648 37.8954 33.6182 37.4836 34.0712C37.2969 34.2771 37.0992 34.4088 36.8274 34.5049L36.6105 34.5818H31.7513H26.892L26.6971 34.5104C25.8927 34.2167 25.4974 33.4068 25.7554 32.5804C25.8954 32.1275 26.3484 31.6964 26.8042 31.5866C26.9167 31.5592 28.0039 31.5537 31.7513 31.5509C35.9846 31.5482 36.5776 31.5537 36.7203 31.5894Z" fill="white"/>
<path d="M36.35 24.0311C36.361 25.6044 36.361 25.6676 36.4214 25.8735C36.567 26.3925 36.88 26.8263 37.171 26.9087C37.2259 26.9252 37.992 26.9362 39.1013 26.9362H40.9355L40.9245 26.5819C40.9136 26.2415 40.9108 26.2222 40.8147 26.0273C40.5786 25.5523 39.8262 24.7752 38.4835 23.6247C37.3495 22.6527 36.9459 22.4056 36.4873 22.4056H36.3418L36.35 24.0311Z" fill="white"/>
<path d="M42.6445 37.2204C42.5182 37.2643 42.2848 37.4428 41.9416 37.7586L41.7109 37.97L42.7269 38.9887C43.2843 39.5461 43.7566 40.0046 43.773 40.0046C43.7923 40.0046 43.9405 39.8701 44.1025 39.7026C44.4403 39.3649 44.5803 39.1425 44.5803 38.953C44.5776 38.4944 44.3167 37.992 43.8774 37.5938C43.6495 37.3879 43.4902 37.3 43.2184 37.2314C42.974 37.1682 42.801 37.1655 42.6445 37.2204Z" fill="white"/>
<path d="M39.7744 39.8845C39.1675 40.486 38.003 41.6559 37.1847 42.488C35.4655 44.2346 35.5863 44.0726 35.3007 44.9733C35.0646 45.7176 34.9712 46.102 34.952 46.3739C34.9382 46.5991 34.941 46.6128 35.0069 46.6897C35.0701 46.7666 35.092 46.7721 35.2513 46.7694C35.4765 46.7666 36.1026 46.6128 36.737 46.3986C37.3467 46.1982 37.6186 46.0691 37.8685 45.8768C37.9756 45.7945 39.1592 44.6246 40.5049 43.2761L42.949 40.8265L41.9329 39.8104C41.3754 39.2502 40.9086 38.7943 40.8976 38.7943C40.8866 38.7943 40.3813 39.2859 39.7744 39.8845Z" fill="white"/>
<path fill-rule="evenodd" clip-rule="evenodd" d="M98.0873 20.6226H81.2401L89.5759 28.8206H98.0873C103.452 28.8206 107.795 33.0714 107.795 38.3091V55.9956H116.175V38.3091C116.175 28.5385 108.074 20.6226 98.0873 20.6226ZM88.3794 30.0143L80 21.7734V55.9956H88.3794V30.0143ZM152.982 50.2125L147.664 44.7081L147.346 45.009C145.501 46.751 142.408 48.4336 138.135 48.4336C135.13 48.4336 132.814 47.6851 131.14 46.3898C129.593 45.1932 128.559 43.5034 128.047 41.4212H154.946L154.966 41.0092C155.249 35.1373 153.75 30.0399 150.686 26.4026C147.615 22.7575 143.007 20.6226 137.173 20.6226C126.87 20.6226 118.825 28.2122 118.825 38.3108C118.825 43.3842 120.728 47.8137 124.12 50.9734C127.511 54.1321 132.362 55.9956 138.216 55.9956C145.052 55.9956 149.48 53.663 152.679 50.5107L152.982 50.2125ZM191.807 50.2125L186.49 44.7081L186.171 45.009C184.326 46.751 181.233 48.4336 176.96 48.4336C173.955 48.4336 171.639 47.6851 169.965 46.3898C168.418 45.1932 167.385 43.5034 166.872 41.4212H193.771L193.791 41.0092C194.074 35.1373 192.575 30.0399 189.511 26.4026C186.44 22.7575 181.832 20.6226 175.999 20.6226C165.695 20.6226 157.65 28.2122 157.65 38.3108C157.65 43.3842 159.553 47.8137 162.945 50.9734C166.336 54.1321 171.187 55.9956 177.041 55.9956C183.877 55.9956 188.305 53.663 191.504 50.5107L191.807 50.2125ZM202.393 20.9201H196.475V28.4747H202.393V41.6664C202.393 46.9929 203.189 50.6241 205.443 52.9013C207.701 55.1821 211.311 55.9956 216.622 55.9956H218.175V48.2494H217.735C216.138 48.2494 214.91 48.1894 213.961 48.0123C213.015 47.8359 212.387 47.5505 211.95 47.1299C211.514 46.7103 211.22 46.1098 211.038 45.2073C210.856 44.2997 210.794 43.1261 210.794 41.5975V28.4747H218.175V20.9201H210.794V11.9956H202.393V20.9201ZM137.255 28.1083C139.961 28.1083 141.946 28.9051 143.34 30.205C144.632 31.4093 145.453 33.0787 145.846 35.0409H128.043C128.557 32.8915 129.603 31.2136 131.065 30.0494C132.642 28.7934 134.738 28.1083 137.255 28.1083ZM176.081 28.1083C178.786 28.1083 180.771 28.9051 182.165 30.205C183.457 31.4093 184.278 33.0787 184.672 35.0409H166.868C167.382 32.8915 168.428 31.2136 169.89 30.0494C171.467 28.7934 173.563 28.1083 176.081 28.1083ZM238.879 28.1239C244.469 28.1239 248.913 32.6936 248.913 38.3097C248.913 43.9246 244.469 48.4942 238.879 48.4942C233.291 48.4942 228.913 43.9284 228.913 38.3097C228.913 32.6898 233.291 28.1239 238.879 28.1239ZM238.879 20.6226C228.846 20.6226 220.825 28.3783 220.825 38.3097C220.825 48.1728 228.845 55.9956 238.879 55.9956C248.91 55.9956 257 48.175 257 38.3097C257 28.3761 248.909 20.6226 238.879 20.6226Z" fill="#11243E"/>
<path d="M288.015 55.7369L272.098 36.2476V55.7369H263.324V11.9956H272.098V31.6103L288.015 11.9956H298.606L280.558 33.6783L299.107 55.7369H288.015Z" fill="#11243E"/>
<path d="M329.027 33.3023C331.492 33.7618 333.518 34.9943 335.106 36.9996C336.693 39.0049 337.487 41.3027 337.487 43.8929C337.487 46.2325 336.902 48.3005 335.732 50.0969C334.604 51.8516 332.954 53.2303 330.782 54.2329C328.609 55.2356 326.04 55.7369 323.074 55.7369H304.211V11.9956H322.259C325.225 11.9956 327.774 12.476 329.904 13.4369C332.077 14.3978 333.706 15.7347 334.792 17.4476C335.92 19.1605 336.484 21.1032 336.484 23.2756C336.484 25.824 335.795 27.9547 334.416 29.6676C333.079 31.3805 331.283 32.592 329.027 33.3023ZM312.984 30.0436H321.006C323.094 30.0436 324.703 29.584 325.831 28.6649C326.959 27.704 327.523 26.3463 327.523 24.5916C327.523 22.8369 326.959 21.4792 325.831 20.5183C324.703 19.5574 323.094 19.0769 321.006 19.0769H312.984V30.0436ZM321.82 48.5929C323.951 48.5929 325.601 48.0916 326.771 47.0889C327.982 46.0863 328.588 44.6658 328.588 42.8276C328.588 40.9476 327.962 39.4854 326.708 38.4409C325.455 37.3547 323.763 36.8116 321.632 36.8116H312.984V48.5929H321.82Z" fill="#11243E"/>
<defs>
<linearGradient id="paint0_linear_5723_5698" x1="32.2939" y1="89.9384" x2="32.2939" y2="-1.51561" gradientUnits="userSpaceOnUse">
<stop stop-color="#18C0D3"/>
<stop offset="1" stop-color="#65CDA1"/>
</linearGradient>
</defs>
</svg>
