<svg width="473" height="73" viewBox="0 0 473 73" fill="none" xmlns="http://www.w3.org/2000/svg">
<path d="M56 31.9956C56 18.7408 45.2548 7.99561 32 7.99561H8V55.9956H56V31.9956Z" fill="url(#paint0_linear_5723_5840)"/>
<g filter="url(#filter0_d_5723_5840)">
<path d="M46.2576 45.3683L42.4774 41.6333C42.0965 42.2453 41.6432 42.8191 41.1193 43.3412C40.5911 43.8699 40.0116 44.328 39.3926 44.7116L43.1946 48.4681C44.0468 49.3111 45.4176 49.3036 46.265 48.4575C46.2685 48.454 46.2716 48.451 46.2747 48.4483C47.1251 47.5974 47.1137 46.2144 46.2576 45.3683Z" fill="white"/>
<path fill-rule="evenodd" clip-rule="evenodd" d="M30.8535 43.5307C36.6351 43.5307 41.2904 38.876 41.2904 33.1729C41.2904 27.4698 36.6351 22.815 30.8535 22.815C25.072 22.815 20.4166 27.4698 20.4166 33.1729C20.4166 38.876 25.072 43.5307 30.8535 43.5307ZM30.8535 46.6934C38.3644 46.6934 44.4531 40.6401 44.4531 33.1729C44.4531 25.7057 38.3644 19.6523 30.8535 19.6523C23.3427 19.6523 17.2539 25.7057 17.2539 33.1729C17.2539 40.6401 23.3427 46.6934 30.8535 46.6934Z" fill="white"/>
<path d="M35.2581 28.4801L33.8586 29.8684L36.4501 33.0941L33.8586 36.3236L35.2581 37.7119L38.9209 33.0941L35.2581 28.4801ZM28.1697 29.8645L26.7702 28.4772L23.1074 33.0941L26.7702 37.708L28.1697 36.3197L25.5783 33.0941L28.1697 29.8645ZM29.0375 37.9963H31.0142L32.9909 28.1919H31.0142L29.0375 37.9963Z" fill="white"/>
</g>
<path fill-rule="evenodd" clip-rule="evenodd" d="M98.0873 20.7535H81.2401L89.5759 28.9515H98.0873C103.452 28.9515 107.795 33.2022 107.795 38.44V56.1265H116.175V38.44C116.175 28.6693 108.074 20.7535 98.0873 20.7535ZM88.3794 30.1452L80 21.9042V56.1265H88.3794V30.1452ZM152.982 50.3434L147.664 44.839L147.346 45.1398C145.501 46.8818 142.408 48.5645 138.135 48.5645C135.13 48.5645 132.814 47.816 131.14 46.5207C129.593 45.3241 128.559 43.6343 128.047 41.5521H154.946L154.966 41.14C155.249 35.2682 153.75 30.1708 150.686 26.5334C147.615 22.8884 143.007 20.7535 137.173 20.7535C126.87 20.7535 118.825 28.3431 118.825 38.4417C118.825 43.515 120.728 47.9446 124.12 51.1043C127.511 54.263 132.362 56.1265 138.216 56.1265C145.052 56.1265 149.48 53.7938 152.679 50.6416L152.982 50.3434ZM191.807 50.3434L186.49 44.839L186.171 45.1398C184.326 46.8818 181.233 48.5645 176.96 48.5645C173.955 48.5645 171.639 47.816 169.965 46.5207C168.418 45.3241 167.385 43.6343 166.872 41.5521H193.771L193.791 41.14C194.074 35.2682 192.575 30.1708 189.511 26.5334C186.44 22.8884 181.832 20.7535 175.999 20.7535C165.695 20.7535 157.65 28.3431 157.65 38.4417C157.65 43.515 159.553 47.9446 162.945 51.1043C166.336 54.263 171.187 56.1265 177.041 56.1265C183.877 56.1265 188.305 53.7938 191.504 50.6416L191.807 50.3434ZM202.393 21.0509H196.475V28.6055H202.393V41.7973C202.393 47.1238 203.189 50.7549 205.443 53.0322C207.701 55.313 211.311 56.1265 216.622 56.1265H218.175V48.3803H217.735C216.138 48.3803 214.91 48.3203 213.961 48.1432C213.015 47.9668 212.387 47.6813 211.95 47.2607C211.514 46.8412 211.22 46.2407 211.038 45.3382C210.856 44.4306 210.794 43.2569 210.794 41.7283V28.6055H218.175V21.0509H210.794V12.1265H202.393V21.0509ZM137.255 28.2391C139.961 28.2391 141.946 29.036 143.34 30.3358C144.632 31.5401 145.453 33.2096 145.846 35.1717H128.043C128.557 33.0224 129.603 31.3444 131.065 30.1803C132.642 28.9242 134.738 28.2391 137.255 28.2391ZM176.081 28.2391C178.786 28.2391 180.771 29.036 182.165 30.3358C183.457 31.5401 184.278 33.2096 184.672 35.1717H166.868C167.382 33.0224 168.428 31.3444 169.89 30.1803C171.467 28.9242 173.563 28.2391 176.081 28.2391ZM238.879 28.2548C244.469 28.2548 248.913 32.8244 248.913 38.4405C248.913 44.0554 244.469 48.6251 238.879 48.6251C233.291 48.6251 228.913 44.0592 228.913 38.4405C228.913 32.8207 233.291 28.2548 238.879 28.2548ZM238.879 20.7535C228.846 20.7535 220.825 28.5092 220.825 38.4405C220.825 48.3037 228.845 56.1265 238.879 56.1265C248.91 56.1265 257 48.3058 257 38.4405C257 28.507 248.909 20.7535 238.879 20.7535Z" fill="#11243E"/>
<path d="M293.091 12.3849V19.4663H281.435V56.1263H272.662V19.4663H261.006V12.3849H293.091Z" fill="#11243E"/>
<path d="M331.099 38.0156C331.099 39.2689 331.016 40.3969 330.848 41.3996H305.468C305.677 43.9063 306.555 45.8698 308.1 47.2903C309.646 48.7107 311.547 49.4209 313.803 49.4209C317.062 49.4209 319.38 48.0214 320.759 45.2223H330.222C329.219 48.5645 327.297 51.3218 324.456 53.4943C321.616 55.6249 318.127 56.6903 313.991 56.6903C310.649 56.6903 307.641 55.9592 304.967 54.4969C302.335 52.9929 300.267 50.8832 298.763 48.1676C297.301 45.4521 296.57 42.3187 296.57 38.7676C296.57 35.1747 297.301 32.0205 298.763 29.3049C300.225 26.5894 302.272 24.5005 304.904 23.0383C307.536 21.5761 310.565 20.8449 313.991 20.8449C317.292 20.8449 320.237 21.5552 322.827 22.9756C325.459 24.3961 327.485 26.4223 328.906 29.0543C330.368 31.6445 331.099 34.6316 331.099 38.0156ZM322.012 35.5089C321.971 33.2529 321.156 31.4565 319.568 30.1196C317.981 28.7409 316.038 28.0516 313.74 28.0516C311.568 28.0516 309.73 28.7201 308.226 30.0569C306.764 31.3521 305.865 33.1694 305.531 35.5089H322.012Z" fill="#11243E"/>
<path d="M350.122 56.6903C347.281 56.6903 344.732 56.1889 342.476 55.1863C340.22 54.1418 338.424 52.7423 337.087 50.9876C335.792 49.2329 335.082 47.2903 334.956 45.1596H343.792C343.959 46.4965 344.607 47.6036 345.735 48.4809C346.905 49.3583 348.346 49.7969 350.059 49.7969C351.73 49.7969 353.025 49.4627 353.944 48.7943C354.905 48.1258 355.386 47.2694 355.386 46.2249C355.386 45.0969 354.801 44.2614 353.631 43.7183C352.503 43.1334 350.686 42.5067 348.179 41.8383C345.589 41.2116 343.458 40.5641 341.787 39.8956C340.158 39.2272 338.737 38.2036 337.526 36.8249C336.356 35.4463 335.771 33.5872 335.771 31.2476C335.771 29.3258 336.314 27.5712 337.4 25.9836C338.528 24.396 340.116 23.1427 342.163 22.2236C344.252 21.3045 346.696 20.8449 349.495 20.8449C353.631 20.8449 356.931 21.8894 359.396 23.9783C361.861 26.0254 363.219 28.8036 363.47 32.3129H355.072C354.947 30.9343 354.362 29.8481 353.318 29.0543C352.315 28.2187 350.957 27.8009 349.244 27.8009C347.657 27.8009 346.424 28.0934 345.547 28.6783C344.711 29.2632 344.294 30.0778 344.294 31.1223C344.294 32.2921 344.878 33.1903 346.048 33.8169C347.218 34.4018 349.035 35.0076 351.5 35.6343C354.007 36.2609 356.075 36.9085 357.704 37.5769C359.334 38.2454 360.733 39.2898 361.903 40.7103C363.114 42.0889 363.741 43.9272 363.783 46.2249C363.783 48.2303 363.219 50.0267 362.091 51.6143C361.005 53.2018 359.417 54.4552 357.328 55.3743C355.281 56.2516 352.879 56.6903 350.122 56.6903Z" fill="#11243E"/>
<path d="M380.533 28.6156V45.4103C380.533 46.5801 380.804 47.4365 381.347 47.9796C381.932 48.4809 382.893 48.7316 384.23 48.7316H388.303V56.1263H382.789C375.394 56.1263 371.697 52.5334 371.697 45.3476V28.6156H367.561V21.4089H371.697V12.8236H380.533V21.4089H388.303V28.6156H380.533Z" fill="#11243E"/>
<path d="M398.396 17.2729C396.85 17.2729 395.555 16.7925 394.511 15.8316C393.508 14.8289 393.007 13.5965 393.007 12.1343C393.007 10.6721 393.508 9.46049 394.511 8.4996C395.555 7.49694 396.85 6.99561 398.396 6.99561C399.942 6.99561 401.216 7.49694 402.219 8.4996C403.263 9.46049 403.786 10.6721 403.786 12.1343C403.786 13.5965 403.263 14.8289 402.219 15.8316C401.216 16.7925 399.942 17.2729 398.396 17.2729ZM402.72 21.4089V56.1263H393.947V21.4089H402.72Z" fill="#11243E"/>
<path d="M426.639 28.6156H420.56V56.1263H411.662V28.6156H407.714V21.4089H411.662V19.6543C411.662 15.3929 412.873 12.2596 415.296 10.2543C417.719 8.24894 421.375 7.30894 426.263 7.43427V14.8289C424.132 14.7872 422.649 15.1423 421.814 15.8943C420.978 16.6463 420.56 18.0041 420.56 19.9676V21.4089H426.639V28.6156Z" fill="#11243E"/>
<path d="M464.871 21.4089L443.377 72.5449H434.039L441.559 55.2489L427.647 21.4089H437.486L446.447 45.6609L455.534 21.4089H464.871Z" fill="#11243E"/>
<defs>
<filter id="filter0_d_5723_5840" x="17.2539" y="19.6523" width="35.6523" height="36.4438" filterUnits="userSpaceOnUse" color-interpolation-filters="sRGB">
<feFlood flood-opacity="0" result="BackgroundImageFix"/>
<feColorMatrix in="SourceAlpha" type="matrix" values="0 0 0 0 0 0 0 0 0 0 0 0 0 0 0 0 0 0 127 0" result="hardAlpha"/>
<feOffset dx="3" dy="4"/>
<feGaussianBlur stdDeviation="1.5"/>
<feComposite in2="hardAlpha" operator="out"/>
<feColorMatrix type="matrix" values="0 0 0 0 0 0 0 0 0 0 0 0 0 0 0 0 0 0 0.05 0"/>
<feBlend mode="normal" in2="BackgroundImageFix" result="effect1_dropShadow_5723_5840"/>
<feBlend mode="normal" in="SourceGraphic" in2="effect1_dropShadow_5723_5840" result="shape"/>
</filter>
<linearGradient id="paint0_linear_5723_5840" x1="56" y1="65.767" x2="-6.91428" y2="-12.4044" gradientUnits="userSpaceOnUse">
<stop stop-color="#FF9E45"/>
<stop offset="1" stop-color="#FFF27A"/>
</linearGradient>
</defs>
</svg>
