<svg width="1734" height="432" viewBox="0 0 1734 432" fill="none" xmlns="http://www.w3.org/2000/svg">
<g clip-path="url(#clip0_746_2344)">
<path d="M110.647 69.1875C110.647 44.024 131.046 23.625 156.209 23.625H332.66C357.824 23.625 378.223 44.024 378.223 69.1875V299.853C378.223 325.017 357.824 345.416 332.66 345.416H156.209C131.046 345.416 110.647 325.017 110.647 299.853V69.1875Z" fill="#5BCC5A"/>
<path d="M47.6875 132.147C47.6875 106.983 68.0865 86.5841 93.25 86.5841H269.701C294.865 86.5841 315.264 106.983 315.264 132.147V362.812C315.264 387.976 294.865 408.375 269.701 408.375H93.2499C68.0865 408.375 47.6875 387.976 47.6875 362.812V132.147Z" fill="#75DC66"/>
<path d="M315.264 345.416L156.209 345.416C131.046 345.416 110.647 325.017 110.647 299.853V86.5841H269.701C294.865 86.5841 315.264 106.983 315.264 132.147V345.416Z" fill="#0DA84C"/>
</g>
<path d="M666.158 164.848V203.939H565.49V265.861H642.634V304.26H565.49V406.312H517.059V164.848H666.158Z" fill="black"/>
<path d="M778.682 409.425C760.232 409.425 743.627 405.39 728.867 397.318C714.107 389.015 702.46 377.369 693.927 362.378C685.625 347.387 681.473 330.09 681.473 310.487C681.473 290.884 685.74 273.587 694.273 258.597C703.037 243.606 714.914 232.075 729.905 224.003C744.895 215.7 761.616 211.549 780.066 211.549C798.516 211.549 815.236 215.7 830.227 224.003C845.217 232.075 856.979 243.606 865.512 258.597C874.276 273.587 878.658 290.884 878.658 310.487C878.658 330.09 874.161 347.387 865.166 362.378C856.403 377.369 844.41 389.015 829.189 397.318C814.198 405.39 797.363 409.425 778.682 409.425ZM778.682 367.221C787.446 367.221 795.633 365.145 803.243 360.994C811.085 356.612 817.312 350.155 821.924 341.622C826.537 333.089 828.843 322.71 828.843 310.487C828.843 292.268 824 278.315 814.313 268.629C804.858 258.712 793.211 253.754 779.374 253.754C765.536 253.754 753.89 258.712 744.434 268.629C735.209 278.315 730.597 292.268 730.597 310.487C730.597 328.707 735.094 342.775 744.088 352.692C753.313 362.378 764.844 367.221 778.682 367.221Z" fill="black"/>
<path d="M955.697 244.413C961.923 234.266 969.995 226.309 979.912 220.544C990.06 214.778 1001.59 211.895 1014.51 211.895V262.748H1001.71C986.485 262.748 974.954 266.323 967.112 273.472C959.502 280.621 955.697 293.075 955.697 310.833V406.312H907.265V214.663H955.697V244.413Z" fill="black"/>
<path d="M1278.21 211.895C1301.74 211.895 1320.65 219.16 1334.95 233.689C1349.48 247.988 1356.74 268.052 1356.74 293.882V406.312H1308.31V300.455C1308.31 285.465 1304.5 274.049 1296.89 266.207C1289.28 258.135 1278.9 254.1 1265.76 254.1C1252.61 254.1 1242.12 258.135 1234.28 266.207C1226.67 274.049 1222.86 285.465 1222.86 300.455V406.312H1174.43V300.455C1174.43 285.465 1170.63 274.049 1163.02 266.207C1155.41 258.135 1145.03 254.1 1131.88 254.1C1118.51 254.1 1107.9 258.135 1100.06 266.207C1092.44 274.049 1088.64 285.465 1088.64 300.455V406.312H1040.21V214.663H1088.64V237.84C1094.87 229.769 1102.82 223.426 1112.51 218.814C1122.43 214.201 1133.27 211.895 1145.03 211.895C1160.02 211.895 1173.39 215.124 1185.16 221.581C1196.92 227.808 1206.03 236.803 1212.48 248.565C1218.71 237.495 1227.71 228.615 1239.47 221.927C1251.46 215.239 1264.38 211.895 1278.21 211.895Z" fill="black"/>
<path d="M686.302 76.5291C686.302 79.1194 686.13 81.4507 685.785 83.5229H633.373C633.804 88.7036 635.616 92.7618 638.808 95.6975C642 98.6332 645.926 100.101 650.585 100.101C657.314 100.101 662.102 97.2085 664.949 91.4235H684.491C682.42 98.331 678.451 104.03 672.585 108.52C666.718 112.923 659.514 115.125 650.973 115.125C644.071 115.125 637.859 113.614 632.338 110.592C626.902 107.484 622.632 103.123 619.526 97.5107C616.506 91.8984 614.996 85.4225 614.996 78.0833C614.996 70.6576 616.506 64.1386 619.526 58.5262C622.545 52.9139 626.773 48.5966 632.208 45.5746C637.643 42.5525 643.898 41.0415 650.973 41.0415C657.789 41.0415 663.871 42.5094 669.22 45.4451C674.655 48.3808 678.84 52.5685 681.773 58.0082C684.793 63.3615 686.302 69.5352 686.302 76.5291ZM667.538 71.3484C667.451 66.6858 665.769 62.973 662.491 60.21C659.212 57.3606 655.2 55.9359 650.455 55.9359C645.969 55.9359 642.173 57.3174 639.067 60.0804C636.047 62.7571 634.193 66.5131 633.502 71.3484H667.538Z" fill="black"/>
<path d="M766.174 76.5291C766.174 79.1194 766.001 81.4507 765.656 83.5229H713.244C713.676 88.7036 715.487 92.7618 718.68 95.6975C721.872 98.6332 725.797 100.101 730.456 100.101C737.185 100.101 741.974 97.2085 744.821 91.4235H764.362C762.291 98.331 758.323 104.03 752.456 108.52C746.589 112.923 739.385 115.125 730.844 115.125C723.942 115.125 717.731 113.614 712.209 110.592C706.774 107.484 702.503 103.123 699.397 97.5107C696.378 91.8984 694.868 85.4225 694.868 78.0833C694.868 70.6576 696.378 64.1386 699.397 58.5262C702.417 52.9139 706.644 48.5966 712.08 45.5746C717.515 42.5525 723.77 41.0415 730.844 41.0415C737.66 41.0415 743.742 42.5094 749.091 45.4451C754.527 48.3808 758.711 52.5685 761.644 58.0082C764.664 63.3615 766.174 69.5352 766.174 76.5291ZM747.409 71.3484C747.323 66.6858 745.64 62.973 742.362 60.21C739.083 57.3606 735.072 55.9359 730.327 55.9359C725.84 55.9359 722.044 57.3174 718.938 60.0804C715.919 62.7571 714.064 66.5131 713.374 71.3484H747.409Z" fill="black"/>
<path d="M800.792 56.9622V91.9846C800.792 94.4022 801.43 95.9996 802.552 97.1221C803.759 98.1582 805.744 98.6763 808.505 98.6763H816.916V113.959H805.528C790.257 113.959 782.951 106.149 782.951 91.2979V56.9622H773.345V41.8545H782.951V24H800.792V41.8545H816.916V56.9622H800.792Z" fill="black"/>
<path d="M861.406 115.125C854.504 115.125 848.292 113.614 842.77 110.592C837.249 107.484 832.892 103.123 829.7 97.5107C826.594 91.8984 825.041 85.4225 825.041 78.0833C825.041 70.744 826.637 64.2681 829.829 58.6558C833.108 53.0434 837.551 48.7261 843.159 45.7041C848.766 42.5957 855.021 41.0415 861.923 41.0415C868.825 41.0415 875.08 42.5957 880.688 45.7041C886.296 48.7261 890.696 53.0434 893.888 58.6558C897.166 64.2681 898.806 70.744 898.806 78.0833C898.806 85.4225 897.123 91.8984 893.759 97.5107C890.48 103.123 885.994 107.484 880.3 110.592C874.692 113.614 868.394 115.125 861.406 115.125ZM861.406 99.324C864.684 99.324 867.747 98.5469 870.594 96.9927C873.527 95.3521 875.857 92.9345 877.582 89.7397C879.308 86.545 880.17 82.6595 880.17 78.0833C880.17 71.262 878.359 66.0382 874.735 62.4117C871.198 58.6989 866.841 56.8425 861.664 56.8425C856.488 56.8425 852.131 58.6989 848.594 62.4117C845.143 66.0382 843.417 71.262 843.417 78.0833C843.417 84.9045 845.1 90.1715 848.464 93.8843C851.915 97.5107 856.229 99.324 861.406 99.324Z" fill="black"/>
<path d="M599.694 24H564.913L599.694 76.1708V24Z" fill="black"/>
<path d="M513.438 115.125L513.438 24H538.554L599.694 115.125H573.845L533.611 55.9981V115.125H513.438Z" fill="black"/>
<defs>
<clipPath id="clip0_746_2344">
<rect width="384.75" height="384.75" fill="white" transform="translate(20.6875 23.625)"/>
</clipPath>
</defs>
</svg>
