<svg width="1845" height="320" viewBox="0 0 1845 320" fill="none" xmlns="http://www.w3.org/2000/svg">
<path d="M239.907 159.938C239.907 93.6893 186.202 39.9844 119.953 39.9844H0V279.891H239.907V159.938Z" fill="url(#paint0_linear_4863_1399)"/>
<g filter="url(#filter0_d_4863_1399)">
<rect x="84.6851" y="173.262" width="14.3859" height="14.3859" rx="1.19883" fill="white"/>
<rect x="84.6851" y="191.973" width="14.3859" height="14.3859" rx="1.19883" fill="white"/>
<rect x="103.382" y="154.566" width="14.3859" height="14.3859" rx="1.19883" fill="white"/>
<rect x="103.381" y="173.262" width="14.3859" height="14.3859" rx="1.19883" fill="white"/>
<rect x="103.381" y="191.973" width="14.3859" height="14.3859" rx="1.19883" fill="white"/>
<rect x="122.098" y="154.566" width="14.3859" height="14.3859" rx="1.19883" fill="white"/>
<rect x="140.805" y="154.566" width="14.3859" height="14.3859" rx="1.19883" fill="white"/>
<rect x="122.097" y="173.262" width="14.3859" height="14.3859" rx="1.19883" fill="white"/>
<rect x="122.097" y="191.973" width="14.3859" height="14.3859" rx="1.19883" fill="white"/>
<rect x="140.806" y="173.262" width="14.3859" height="14.3859" rx="1.19883" fill="white"/>
<rect x="89.7329" y="108.529" width="10.7895" height="20.1403" rx="5.39473" fill="white"/>
<rect x="139.351" y="108.529" width="10.7895" height="20.1403" rx="5.39473" fill="white"/>
<path fill-rule="evenodd" clip-rule="evenodd" d="M137.207 117.163H102.686V123.273C102.686 127.444 99.3049 130.826 95.1337 130.826C90.9625 130.826 87.5811 127.444 87.5811 123.273V117.163H77.2601C68.6528 117.163 61.6753 124.141 61.6753 132.748V213.789C61.6753 222.396 68.6528 229.373 77.2601 229.373H162.617C171.224 229.373 178.201 222.396 178.201 213.789V132.748C178.201 124.141 171.224 117.163 162.617 117.163H152.312V123.273C152.312 127.444 148.931 130.826 144.76 130.826C140.588 130.826 137.207 127.444 137.207 123.273V117.163ZM78.4642 145.931C77.14 145.931 76.0665 147.004 76.0665 148.329V212.586C76.0665 213.91 77.14 214.983 78.4642 214.983H161.423C162.747 214.983 163.821 213.91 163.821 212.586V148.329C163.821 147.004 162.747 145.931 161.423 145.931H78.4642Z" fill="white"/>
</g>
<path fill-rule="evenodd" clip-rule="evenodd" d="M450.261 103.188H366.058L407.721 144.163H450.261C477.072 144.163 498.782 165.408 498.782 191.587V279.985H540.663V191.587C540.663 142.753 500.175 103.188 450.261 103.188ZM401.741 150.129L359.86 108.94V279.985H401.741V150.129ZM724.626 251.081L698.051 223.569L696.458 225.073C687.236 233.78 671.78 242.189 650.421 242.189C635.404 242.189 623.828 238.448 615.46 231.974C607.729 225.994 602.563 217.548 599.999 207.141H734.445L734.544 205.082C735.958 175.734 728.467 150.257 713.151 132.077C697.802 113.859 674.774 103.188 645.616 103.188C594.119 103.188 553.91 141.122 553.91 191.595C553.91 216.952 563.418 239.091 580.373 254.884C597.322 270.671 621.568 279.985 650.825 279.985C684.994 279.985 707.123 268.326 723.114 252.571L724.626 251.081ZM918.676 251.081L892.101 223.569L890.508 225.073C881.285 233.78 865.831 242.189 844.471 242.189C829.454 242.189 817.878 238.448 809.51 231.974C801.779 225.994 796.613 217.548 794.049 207.141H928.495L928.594 205.082C930.008 175.734 922.517 150.257 907.201 132.077C891.852 113.859 868.824 103.188 839.666 103.188C788.169 103.188 747.96 141.122 747.96 191.595C747.96 216.952 757.468 239.091 774.423 254.884C791.372 270.671 815.618 279.985 844.875 279.985C879.044 279.985 901.173 268.326 917.164 252.571L918.676 251.081ZM971.589 104.675H942.01V142.434H971.589V208.367C971.589 234.989 975.565 253.138 986.831 264.519C998.114 275.919 1016.16 279.985 1042.7 279.985H1050.47V241.269H1048.27C1040.28 241.269 1034.15 240.969 1029.4 240.084C1024.68 239.202 1021.54 237.775 1019.35 235.673C1017.17 233.576 1015.7 230.575 1014.8 226.064C1013.88 221.528 1013.58 215.662 1013.58 208.022V142.434H1050.47V104.675H1013.58V60.0703H971.589V104.675ZM646.026 140.602C659.549 140.602 669.467 144.585 676.437 151.082C682.894 157.101 686.998 165.445 688.964 175.252H599.982C602.548 164.509 607.776 156.123 615.084 150.304C622.968 144.026 633.445 140.602 646.026 140.602ZM840.076 140.602C853.599 140.602 863.517 144.585 870.487 151.082C876.944 157.101 881.048 165.445 883.014 175.252H794.032C796.598 164.509 801.826 156.123 809.134 150.304C817.018 144.026 827.495 140.602 840.076 140.602ZM1153.94 140.681C1181.88 140.681 1204.09 163.52 1204.09 191.589C1204.09 219.653 1181.88 242.493 1153.94 242.493C1126.02 242.493 1104.13 219.672 1104.13 191.589C1104.13 163.501 1126.02 140.681 1153.94 140.681ZM1153.94 103.188C1103.8 103.188 1063.71 141.952 1063.71 191.589C1063.71 240.886 1103.8 279.985 1153.94 279.985C1204.08 279.985 1244.52 240.897 1244.52 191.589C1244.52 141.941 1204.08 103.188 1153.94 103.188Z" fill="#11243E"/>
<path d="M1264.51 167.541C1264.51 146.034 1269.31 126.824 1278.92 109.91C1288.73 92.788 1301.99 79.5287 1318.69 70.1324C1335.61 60.5272 1354.5 55.7246 1375.38 55.7246C1399.82 55.7246 1421.22 61.9889 1439.59 74.5173C1457.97 87.0458 1470.81 104.377 1478.12 126.51H1427.69C1422.68 116.07 1415.58 108.24 1406.39 103.02C1397.41 97.7994 1386.97 95.1893 1375.07 95.1893C1362.33 95.1893 1350.95 98.217 1340.93 104.272C1331.12 110.119 1323.39 118.471 1317.75 129.329C1312.32 140.187 1309.61 152.925 1309.61 167.541C1309.61 181.949 1312.32 194.686 1317.75 205.753C1323.39 216.611 1331.12 225.068 1340.93 231.123C1350.95 236.97 1362.33 239.893 1375.07 239.893C1386.97 239.893 1397.41 237.283 1406.39 232.063C1415.58 226.634 1422.68 218.699 1427.69 208.259H1478.12C1470.81 230.601 1457.97 248.037 1439.59 260.565C1421.43 272.885 1400.02 279.044 1375.38 279.044C1354.5 279.044 1335.61 274.346 1318.69 264.95C1301.99 255.345 1288.73 242.086 1278.92 225.172C1269.31 208.259 1264.51 189.048 1264.51 167.541Z" fill="#11243E"/>
<path d="M1500.96 189.779C1500.96 172.239 1504.41 156.683 1511.3 143.111C1518.4 129.538 1527.9 119.098 1539.8 111.79C1551.91 104.481 1565.38 100.827 1580.21 100.827C1593.15 100.827 1604.43 103.437 1614.03 108.657C1623.85 113.878 1631.68 120.455 1637.52 128.39V103.646H1681.69V277.165H1637.52V251.795C1631.89 259.939 1624.06 266.725 1614.03 272.154C1604.22 277.374 1592.84 279.984 1579.89 279.984C1565.28 279.984 1551.91 276.226 1539.8 268.708C1527.9 261.191 1518.4 250.647 1511.3 237.074C1504.41 223.293 1500.96 207.528 1500.96 189.779ZM1637.52 190.406C1637.52 179.756 1635.44 170.673 1631.26 163.156C1627.08 155.43 1621.45 149.584 1614.35 145.616C1607.25 141.44 1599.63 139.352 1591.48 139.352C1583.34 139.352 1575.82 141.336 1568.93 145.303C1562.04 149.27 1556.4 155.117 1552.02 162.843C1547.84 170.36 1545.75 179.339 1545.75 189.779C1545.75 200.22 1547.84 209.407 1552.02 217.342C1556.4 225.068 1562.04 231.019 1568.93 235.195C1576.03 239.371 1583.55 241.459 1591.48 241.459C1599.63 241.459 1607.25 239.475 1614.35 235.508C1621.45 231.332 1627.08 225.485 1631.26 217.968C1635.44 210.242 1637.52 201.055 1637.52 190.406Z" fill="#11243E"/>
<path d="M1765.03 45.3887V277.165H1721.18V45.3887H1765.03Z" fill="#11243E"/>
<defs>
<filter id="filter0_d_4863_1399" x="61.6753" y="108.529" width="146.514" height="155.83" filterUnits="userSpaceOnUse" color-interpolation-filters="sRGB">
<feFlood flood-opacity="0" result="BackgroundImageFix"/>
<feColorMatrix in="SourceAlpha" type="matrix" values="0 0 0 0 0 0 0 0 0 0 0 0 0 0 0 0 0 0 127 0" result="hardAlpha"/>
<feOffset dx="14.9942" dy="19.9922"/>
<feGaussianBlur stdDeviation="7.49708"/>
<feComposite in2="hardAlpha" operator="out"/>
<feColorMatrix type="matrix" values="0 0 0 0 0 0 0 0 0 0 0 0 0 0 0 0 0 0 0.05 0"/>
<feBlend mode="normal" in2="BackgroundImageFix" result="effect1_dropShadow_4863_1399"/>
<feBlend mode="normal" in="SourceGraphic" in2="effect1_dropShadow_4863_1399" result="shape"/>
</filter>
<linearGradient id="paint0_linear_4863_1399" x1="239.907" y1="328.729" x2="126.68" y2="68.0108" gradientUnits="userSpaceOnUse">
<stop stop-color="#EE4D5F"/>
<stop offset="1" stop-color="#FFCDA5"/>
</linearGradient>
</defs>
</svg>
