<svg width="2055" height="320" viewBox="0 0 2055 320" fill="none" xmlns="http://www.w3.org/2000/svg">
<path d="M239.983 159.989C239.983 93.7192 186.261 39.9971 119.992 39.9971H0V279.98H239.983V159.989Z" fill="url(#paint0_linear_4863_1467)"/>
<g filter="url(#filter0_d_4863_1467)">
<path d="M57.0459 162.029H82.4317C89.4418 162.029 95.1246 167.659 95.1246 174.604V193.466C95.1246 203.884 86.6004 212.329 76.0852 212.329C65.5701 212.329 57.0459 203.884 57.0459 193.466V162.029Z" fill="white"/>
<path d="M145.896 174.604C145.896 167.659 151.579 162.029 158.589 162.029H183.975V193.466C183.975 203.884 175.451 212.329 164.935 212.329C154.42 212.329 145.896 203.884 145.896 193.466V174.604Z" fill="white"/>
<path d="M57.3593 162.029C60.5434 130.256 87.6018 105.441 120.51 105.441C153.419 105.441 180.477 130.256 183.661 162.029H170.889C167.766 137.216 146.401 118.016 120.51 118.016C94.6193 118.016 73.2547 137.216 70.1316 162.029H57.3593Z" fill="white"/>
</g>
<path fill-rule="evenodd" clip-rule="evenodd" d="M450.404 100.004H366.173L407.849 140.991H450.404C477.223 140.991 498.94 162.244 498.94 188.43V276.857H540.834V188.43C540.834 139.581 500.334 100.004 450.404 100.004ZM401.867 146.959L359.973 105.758V276.857H401.867V146.959ZM724.856 247.943L698.272 220.423L696.679 221.928C687.453 230.637 671.993 239.049 650.627 239.049C635.605 239.049 624.026 235.307 615.655 228.831C607.922 222.849 602.753 214.4 600.189 203.99H734.678L734.777 201.93C736.191 172.573 728.698 147.087 713.377 128.902C698.023 110.678 674.988 100.004 645.821 100.004C594.307 100.004 554.085 137.95 554.085 188.439C554.085 213.804 563.597 235.95 580.557 251.748C597.511 267.54 621.765 276.857 651.031 276.857C685.211 276.857 707.348 265.195 723.343 249.434L724.856 247.943ZM918.968 247.943L892.384 220.423L890.791 221.928C881.565 230.637 866.106 239.049 844.739 239.049C829.717 239.049 818.138 235.307 809.767 228.831C802.034 222.849 796.866 214.4 794.302 203.99H928.79L928.889 201.93C930.303 172.573 922.81 147.087 907.489 128.902C892.135 110.678 869.1 100.004 839.933 100.004C788.419 100.004 748.197 137.95 748.197 188.439C748.197 213.804 757.709 235.95 774.669 251.748C791.623 267.54 815.877 276.857 845.143 276.857C879.323 276.857 901.46 265.195 917.455 249.434L918.968 247.943ZM971.898 101.491H942.309V139.262H971.898V205.216C971.898 231.847 975.875 250.001 987.145 261.387C998.431 272.79 1016.48 276.857 1043.03 276.857H1050.8V238.129H1048.6C1040.62 238.129 1034.48 237.829 1029.73 236.943C1025 236.061 1021.86 234.634 1019.68 232.531C1017.5 230.434 1016.03 227.431 1015.12 222.919C1014.21 218.381 1013.9 212.514 1013.9 204.871V139.262H1050.8V101.491H1013.9V56.8721H971.898V101.491ZM646.23 137.43C659.758 137.43 669.679 141.414 676.651 147.913C683.111 153.934 687.215 162.28 689.182 172.09H600.172C602.739 161.345 607.969 152.955 615.278 147.135C623.166 140.855 633.645 137.43 646.23 137.43ZM840.342 137.43C853.87 137.43 863.791 141.414 870.763 147.913C877.223 153.934 881.327 162.28 883.295 172.09H794.284C796.851 161.345 802.081 152.955 809.39 147.135C817.277 140.855 827.758 137.43 840.342 137.43ZM1154.31 137.508C1182.26 137.508 1204.48 160.355 1204.48 188.433C1204.48 216.506 1182.26 239.353 1154.31 239.353C1126.38 239.353 1104.48 216.525 1104.48 188.433C1104.48 160.336 1126.38 137.508 1154.31 137.508ZM1154.31 100.004C1104.15 100.004 1064.05 138.78 1064.05 188.433C1064.05 237.745 1104.15 276.857 1154.31 276.857C1204.46 276.857 1244.91 237.756 1244.91 188.433C1244.91 138.769 1204.46 100.004 1154.31 100.004Z" fill="#11243E"/>
<path d="M1352.98 55.0312C1375.96 55.0312 1396.11 59.522 1413.45 68.5036C1431 77.4851 1444.47 90.3309 1453.87 107.041C1463.48 123.542 1468.28 142.758 1468.28 164.69C1468.28 186.622 1463.48 205.838 1453.87 222.34C1444.47 238.632 1431 251.269 1413.45 260.25C1396.11 269.232 1375.96 273.723 1352.98 273.723H1276.53V55.0312H1352.98ZM1351.41 236.439C1374.39 236.439 1392.14 230.172 1404.68 217.64C1417.21 205.107 1423.48 187.458 1423.48 164.69C1423.48 141.923 1417.21 124.169 1404.68 111.427C1392.14 98.477 1374.39 92.0019 1351.41 92.0019H1320.4V236.439H1351.41Z" fill="#11243E"/>
<path d="M1659.14 183.176C1659.14 189.442 1658.72 195.081 1657.88 200.094H1530.99C1532.04 212.627 1536.42 222.444 1544.15 229.546C1551.88 236.647 1561.38 240.198 1572.66 240.198C1588.95 240.198 1600.55 233.201 1607.44 219.206H1654.75C1649.74 235.916 1640.13 249.702 1625.92 260.564C1611.72 271.216 1594.28 276.542 1573.6 276.542C1556.89 276.542 1541.85 272.887 1528.48 265.577C1515.33 258.057 1504.99 247.509 1497.47 233.932C1490.16 220.355 1486.5 204.69 1486.5 186.935C1486.5 168.972 1490.16 153.202 1497.47 139.625C1504.78 126.048 1515.01 115.605 1528.17 108.294C1541.33 100.984 1556.47 97.3282 1573.6 97.3282C1590.1 97.3282 1604.83 100.879 1617.78 107.981C1630.94 115.083 1641.07 125.213 1648.17 138.372C1655.48 151.322 1659.14 166.257 1659.14 183.176ZM1613.71 170.643C1613.5 159.364 1609.42 150.382 1601.49 143.698C1593.55 136.805 1583.84 133.359 1572.35 133.359C1561.49 133.359 1552.3 136.701 1544.78 143.385C1537.47 149.86 1532.98 158.946 1531.3 170.643H1613.71Z" fill="#11243E"/>
<path d="M1754.24 276.542C1740.04 276.542 1727.3 274.036 1716.02 269.023C1704.74 263.801 1695.76 256.804 1689.07 248.031C1682.6 239.258 1679.05 229.546 1678.42 218.893H1722.6C1723.43 225.577 1726.67 231.112 1732.31 235.499C1738.16 239.885 1745.36 242.078 1753.93 242.078C1762.28 242.078 1768.76 240.407 1773.35 237.065C1778.16 233.723 1780.56 229.441 1780.56 224.219C1780.56 218.58 1777.64 214.402 1771.79 211.687C1766.15 208.763 1757.06 205.63 1744.53 202.288C1731.58 199.155 1720.93 195.917 1712.57 192.575C1704.42 189.233 1697.32 184.116 1691.27 177.223C1685.42 170.33 1682.49 161.035 1682.49 149.338C1682.49 139.73 1685.21 130.957 1690.64 123.02C1696.28 115.083 1704.22 108.816 1714.45 104.221C1724.89 99.6258 1737.11 97.3282 1751.11 97.3282C1771.79 97.3282 1788.29 102.55 1800.61 112.994C1812.94 123.229 1819.72 137.119 1820.98 154.664H1778.99C1778.37 147.771 1775.44 142.341 1770.22 138.372C1765.21 134.195 1758.42 132.106 1749.86 132.106C1741.92 132.106 1735.76 133.568 1731.37 136.492C1727.19 139.416 1725.1 143.489 1725.1 148.711C1725.1 154.56 1728.03 159.051 1733.88 162.184C1739.72 165.108 1748.81 168.137 1761.13 171.27C1773.67 174.403 1784.01 177.64 1792.15 180.982C1800.3 184.324 1807.3 189.546 1813.14 196.648C1819.2 203.541 1822.33 212.731 1822.54 224.219C1822.54 234.245 1819.72 243.227 1814.08 251.164C1808.65 259.101 1800.72 265.368 1790.27 269.963C1780.04 274.349 1768.03 276.542 1754.24 276.542Z" fill="#11243E"/>
<path d="M1957.98 273.723L1899.08 199.781V273.723H1855.22V41.8721H1899.08V173.776L1957.36 100.148H2014.38L1937.93 187.249L2015.01 273.723H1957.98Z" fill="#11243E"/>
<defs>
<filter id="filter0_d_4863_1467" x="57.0459" y="105.441" width="136.839" height="116.798" filterUnits="userSpaceOnUse" color-interpolation-filters="sRGB">
<feFlood flood-opacity="0" result="BackgroundImageFix"/>
<feColorMatrix in="SourceAlpha" type="matrix" values="0 0 0 0 0 0 0 0 0 0 0 0 0 0 0 0 0 0 127 0" result="hardAlpha"/>
<feOffset dx="4.95531" dy="4.95531"/>
<feGaussianBlur stdDeviation="2.47765"/>
<feComposite in2="hardAlpha" operator="out"/>
<feColorMatrix type="matrix" values="0 0 0 0 0 0 0 0 0 0 0 0 0 0 0 0 0 0 0.08 0"/>
<feBlend mode="normal" in2="BackgroundImageFix" result="effect1_dropShadow_4863_1467"/>
<feBlend mode="normal" in="SourceGraphic" in2="effect1_dropShadow_4863_1467" result="shape"/>
</filter>
<linearGradient id="paint0_linear_4863_1467" x1="127.842" y1="376.422" x2="126.72" y2="68.0325" gradientUnits="userSpaceOnUse">
<stop stop-color="#FD9437"/>
<stop offset="1" stop-color="#FFD55C"/>
</linearGradient>
</defs>
</svg>
