<svg width="524" height="64" viewBox="0 0 524 64" fill="none" xmlns="http://www.w3.org/2000/svg">
<path d="M56 31.9956C56 18.7408 45.2548 7.99561 32 7.99561H8V55.9956H56V31.9956Z" fill="url(#paint0_linear_5723_5937)"/>
<g filter="url(#filter0_d_5723_5937)">
<path fill-rule="evenodd" clip-rule="evenodd" d="M26.7566 21.5012C22.3415 21.5012 18.7624 25.0803 18.7624 29.4953C18.7624 33.9104 22.3415 37.4895 26.7566 37.4895V38.6523C21.6993 38.6523 17.5996 34.5526 17.5996 29.4953C17.5996 24.4381 21.6993 20.3384 26.7566 20.3384C31.8138 20.3384 35.9135 24.4381 35.9135 29.4953H34.7507C34.7507 25.0803 31.1716 21.5012 26.7566 21.5012Z" fill="white"/>
<path fill-rule="evenodd" clip-rule="evenodd" d="M26.7548 25.2805C24.4269 25.2805 22.5397 27.1676 22.5397 29.4956C22.5397 31.8235 24.4269 33.7107 26.7548 33.7107V34.8735C23.7847 34.8735 21.377 32.4657 21.377 29.4956C21.377 26.5254 23.7847 24.1177 26.7548 24.1177C29.725 24.1177 32.1327 26.5254 32.1327 29.4956H30.97C30.97 27.1676 29.0828 25.2805 26.7548 25.2805Z" fill="white"/>
<path d="M26.5965 30.0906C26.4912 29.8012 26.7718 29.5207 27.0612 29.6259L45.9727 36.5036C46.2921 36.6197 46.2906 37.0719 45.9704 37.1859L37.3279 40.2633C37.2243 40.3002 37.1431 40.382 37.107 40.4859L34.1533 48.9858C34.0412 49.3081 33.5866 49.3114 33.47 48.9907L26.5965 30.0906Z" fill="white"/>
</g>
<path fill-rule="evenodd" clip-rule="evenodd" d="M98.0873 20.6226H81.2401L89.5759 28.8206H98.0873C103.452 28.8206 107.795 33.0714 107.795 38.3091V55.9956H116.175V38.3091C116.175 28.5385 108.074 20.6226 98.0873 20.6226ZM88.3794 30.0143L80 21.7734V55.9956H88.3794V30.0143ZM152.982 50.2125L147.664 44.7081L147.346 45.009C145.501 46.751 142.408 48.4336 138.135 48.4336C135.13 48.4336 132.814 47.6851 131.14 46.3898C129.593 45.1932 128.559 43.5034 128.047 41.4212H154.946L154.966 41.0092C155.249 35.1373 153.75 30.0399 150.686 26.4026C147.615 22.7575 143.007 20.6226 137.173 20.6226C126.87 20.6226 118.825 28.2122 118.825 38.3108C118.825 43.3842 120.728 47.8137 124.12 50.9734C127.511 54.1322 132.362 55.9956 138.216 55.9956C145.052 55.9956 149.48 53.663 152.679 50.5107L152.982 50.2125ZM191.807 50.2125L186.49 44.7081L186.171 45.009C184.326 46.751 181.233 48.4336 176.96 48.4336C173.955 48.4336 171.639 47.6851 169.965 46.3898C168.418 45.1932 167.385 43.5034 166.872 41.4212H193.771L193.791 41.0092C194.074 35.1373 192.575 30.0399 189.511 26.4026C186.44 22.7575 181.832 20.6226 175.999 20.6226C165.695 20.6226 157.65 28.2122 157.65 38.3108C157.65 43.3842 159.553 47.8137 162.945 50.9734C166.336 54.1322 171.187 55.9956 177.041 55.9956C183.877 55.9956 188.305 53.663 191.504 50.5107L191.807 50.2125ZM202.393 20.9201H196.475V28.4747H202.393V41.6664C202.393 46.9929 203.189 50.6241 205.443 52.9013C207.701 55.1821 211.311 55.9956 216.622 55.9956H218.175V48.2494H217.735C216.138 48.2494 214.91 48.1894 213.961 48.0123C213.015 47.8359 212.387 47.5505 211.95 47.1299C211.514 46.7103 211.22 46.1098 211.038 45.2073C210.856 44.2997 210.794 43.1261 210.794 41.5975V28.4747H218.175V20.9201H210.794V11.9956H202.393V20.9201ZM137.255 28.1083C139.961 28.1083 141.946 28.9051 143.34 30.205C144.632 31.4093 145.453 33.0787 145.846 35.0409H128.043C128.557 32.8916 129.603 31.2136 131.065 30.0494C132.642 28.7934 134.738 28.1083 137.255 28.1083ZM176.081 28.1083C178.786 28.1083 180.771 28.9051 182.165 30.205C183.457 31.4093 184.278 33.0787 184.672 35.0409H166.868C167.382 32.8916 168.428 31.2136 169.89 30.0494C171.467 28.7934 173.563 28.1083 176.081 28.1083ZM238.879 28.1239C244.469 28.1239 248.913 32.6936 248.913 38.3097C248.913 43.9246 244.469 48.4943 238.879 48.4943C233.291 48.4943 228.913 43.9284 228.913 38.3097C228.913 32.6898 233.291 28.1239 238.879 28.1239ZM238.879 20.6226C228.846 20.6226 220.825 28.3783 220.825 38.3097C220.825 48.1728 228.845 55.9956 238.879 55.9956C248.91 55.9956 257 48.175 257 38.3097C257 28.3761 248.909 20.6226 238.879 20.6226Z" fill="#11243E"/>
<path d="M272.098 11.3849V55.1263H263.324V11.3849H272.098Z" fill="#11243E"/>
<path d="M299.338 19.9076C303.474 19.9076 306.816 21.2236 309.364 23.8556C311.913 26.4458 313.187 30.0805 313.187 34.7596V55.1263H304.414V35.9503C304.414 33.1929 303.724 31.0832 302.346 29.6209C300.967 28.1169 299.087 27.3649 296.706 27.3649C294.283 27.3649 292.361 28.1169 290.94 29.6209C289.562 31.0832 288.872 33.1929 288.872 35.9503V55.1263H280.099V20.4089H288.872V24.7329C290.042 23.2289 291.525 22.0592 293.322 21.2236C295.16 20.3463 297.165 19.9076 299.338 19.9076Z" fill="#11243E"/>
<path d="M335.339 47.0423L344.113 20.4089H353.45L340.603 55.1263H329.95L317.166 20.4089H326.566L335.339 47.0423Z" fill="#11243E"/>
<path d="M362.16 16.2729C360.614 16.2729 359.319 15.7925 358.275 14.8316C357.272 13.8289 356.771 12.5965 356.771 11.1343C356.771 9.67205 357.272 8.46049 358.275 7.4996C359.319 6.49694 360.614 5.99561 362.16 5.99561C363.706 5.99561 364.98 6.49694 365.983 7.4996C367.027 8.46049 367.55 9.67205 367.55 11.1343C367.55 12.5965 367.027 13.8289 365.983 14.8316C364.98 15.7925 363.706 16.2729 362.16 16.2729ZM366.484 20.4089V55.1263H357.711V20.4089H366.484Z" fill="#11243E"/>
<path d="M387.771 55.6903C384.93 55.6903 382.382 55.1889 380.126 54.1863C377.87 53.1418 376.073 51.7423 374.736 49.9876C373.441 48.2329 372.731 46.2903 372.606 44.1596H381.442C381.609 45.4965 382.256 46.6036 383.384 47.4809C384.554 48.3583 385.995 48.7969 387.708 48.7969C389.379 48.7969 390.675 48.4627 391.594 47.7943C392.555 47.1258 393.035 46.2694 393.035 45.2249C393.035 44.0969 392.45 43.2614 391.28 42.7183C390.152 42.1334 388.335 41.5067 385.828 40.8383C383.238 40.2116 381.107 39.5641 379.436 38.8956C377.807 38.2272 376.387 37.2036 375.175 35.8249C374.005 34.4463 373.42 32.5872 373.42 30.2476C373.42 28.3258 373.963 26.5712 375.05 24.9836C376.178 23.396 377.765 22.1427 379.812 21.2236C381.901 20.3045 384.345 19.8449 387.144 19.8449C391.28 19.8449 394.581 20.8894 397.046 22.9783C399.511 25.0254 400.868 27.8036 401.119 31.3129H392.722C392.596 29.9343 392.011 28.8481 390.967 28.0543C389.964 27.2187 388.607 26.8009 386.894 26.8009C385.306 26.8009 384.074 27.0934 383.196 27.6783C382.361 28.2632 381.943 29.0778 381.943 30.1223C381.943 31.2921 382.528 32.1903 383.698 32.8169C384.867 33.4018 386.685 34.0076 389.15 34.6343C391.656 35.2609 393.724 35.9085 395.354 36.5769C396.983 37.2454 398.383 38.2898 399.552 39.7103C400.764 41.0889 401.391 42.9272 401.432 45.2249C401.432 47.2303 400.868 49.0267 399.74 50.6143C398.654 52.2018 397.067 53.4552 394.978 54.3743C392.931 55.2516 390.528 55.6903 387.771 55.6903Z" fill="#11243E"/>
<path d="M412.417 16.2729C410.871 16.2729 409.576 15.7925 408.531 14.8316C407.529 13.8289 407.027 12.5965 407.027 11.1343C407.027 9.67205 407.529 8.46049 408.531 7.4996C409.576 6.49694 410.871 5.99561 412.417 5.99561C413.963 5.99561 415.237 6.49694 416.239 7.4996C417.284 8.46049 417.806 9.67205 417.806 11.1343C417.806 12.5965 417.284 13.8289 416.239 14.8316C415.237 15.7925 413.963 16.2729 412.417 16.2729ZM416.741 20.4089V55.1263H407.967V20.4089H416.741Z" fill="#11243E"/>
<path d="M433.516 25.4849C434.644 23.8138 436.189 22.4561 438.153 21.4116C440.158 20.3672 442.435 19.8449 444.984 19.8449C447.95 19.8449 450.624 20.5761 453.005 22.0383C455.428 23.5005 457.329 25.5894 458.708 28.3049C460.128 30.9787 460.838 34.0912 460.838 37.6423C460.838 41.1934 460.128 44.3476 458.708 47.1049C457.329 49.8205 455.428 51.9303 453.005 53.4343C450.624 54.9383 447.95 55.6903 444.984 55.6903C442.393 55.6903 440.116 55.1889 438.153 54.1863C436.231 53.1418 434.685 51.8049 433.516 50.1756V55.1263H424.742V8.75294H433.516V25.4849ZM451.877 37.6423C451.877 35.5534 451.438 33.7569 450.561 32.2529C449.725 30.7072 448.597 29.5374 447.177 28.7436C445.798 27.9498 444.294 27.5529 442.665 27.5529C441.077 27.5529 439.573 27.9707 438.153 28.8063C436.774 29.6001 435.646 30.7698 434.769 32.3156C433.933 33.8614 433.516 35.6787 433.516 37.7676C433.516 39.8565 433.933 41.6738 434.769 43.2196C435.646 44.7654 436.774 45.9561 438.153 46.7916C439.573 47.5854 441.077 47.9823 442.665 47.9823C444.294 47.9823 445.798 47.5645 447.177 46.7289C448.597 45.8934 449.725 44.7027 450.561 43.1569C451.438 41.6112 451.877 39.7729 451.877 37.6423Z" fill="#11243E"/>
<path d="M475.32 8.75294V55.1263H466.547V8.75294H475.32Z" fill="#11243E"/>
<path d="M515.595 37.0156C515.595 38.2689 515.511 39.3969 515.344 40.3996H489.964C490.173 42.9063 491.051 44.8698 492.596 46.2903C494.142 47.7107 496.043 48.4209 498.299 48.4209C501.558 48.4209 503.876 47.0214 505.255 44.2223H514.718C513.715 47.5645 511.793 50.3218 508.952 52.4943C506.111 54.6249 502.623 55.6903 498.487 55.6903C495.145 55.6903 492.137 54.9592 489.463 53.4969C486.831 51.9929 484.763 49.8832 483.259 47.1676C481.797 44.4521 481.066 41.3187 481.066 37.7676C481.066 34.1747 481.797 31.0205 483.259 28.3049C484.721 25.5894 486.768 23.5005 489.4 22.0383C492.032 20.5761 495.061 19.8449 498.487 19.8449C501.787 19.8449 504.733 20.5552 507.323 21.9756C509.955 23.3961 511.981 25.4223 513.402 28.0543C514.864 30.6445 515.595 33.6316 515.595 37.0156ZM506.508 34.5089C506.467 32.2529 505.652 30.4565 504.064 29.1196C502.477 27.7409 500.534 27.0516 498.236 27.0516C496.064 27.0516 494.226 27.7201 492.722 29.0569C491.259 30.3521 490.361 32.1694 490.027 34.5089H506.508Z" fill="#11243E"/>
<defs>
<filter id="filter0_d_5723_5937" x="17.5996" y="20.3384" width="34.6113" height="35.8911" filterUnits="userSpaceOnUse" color-interpolation-filters="sRGB">
<feFlood flood-opacity="0" result="BackgroundImageFix"/>
<feColorMatrix in="SourceAlpha" type="matrix" values="0 0 0 0 0 0 0 0 0 0 0 0 0 0 0 0 0 0 127 0" result="hardAlpha"/>
<feOffset dx="3" dy="4"/>
<feGaussianBlur stdDeviation="1.5"/>
<feComposite in2="hardAlpha" operator="out"/>
<feColorMatrix type="matrix" values="0 0 0 0 0 0 0 0 0 0 0 0 0 0 0 0 0 0 0.05 0"/>
<feBlend mode="normal" in2="BackgroundImageFix" result="effect1_dropShadow_5723_5937"/>
<feBlend mode="normal" in="SourceGraphic" in2="effect1_dropShadow_5723_5937" result="shape"/>
</filter>
<linearGradient id="paint0_linear_5723_5937" x1="59.7714" y1="70.2242" x2="-7.6" y2="-17.7187" gradientUnits="userSpaceOnUse">
<stop stop-color="#28CCF0"/>
<stop offset="0.6986" stop-color="#799DFA"/>
</linearGradient>
</defs>
</svg>
