<svg width="1345" height="432" viewBox="0 0 1345 432" fill="none" xmlns="http://www.w3.org/2000/svg">
<g clip-path="url(#clip0_746_2360)">
<path d="M363.828 319.944C363.828 368.783 327.813 408.375 283.386 408.375H100.379C55.9519 408.375 19.9365 368.783 19.9365 319.944V258.042C19.9365 209.202 55.9519 169.61 100.379 169.61H283.386C327.813 169.61 363.828 209.202 363.828 258.042V319.944Z" fill="#75DC66"/>
<path d="M164.733 103.287L61.1633 180.664L164.733 171.821V103.287Z" fill="#75DC66"/>
<path d="M59.0933 111.074C59.0933 62.7772 95.2869 23.625 139.934 23.625H323.847C368.494 23.625 404.687 62.7772 404.687 111.074V172.288C404.687 220.585 368.494 259.737 323.847 259.737H139.934C95.2869 259.737 59.0933 220.585 59.0933 172.288V111.074Z" fill="#5BCC5A"/>
<path d="M259.174 325.323L363.256 248.806L259.174 257.55V325.323Z" fill="#5BCC5A"/>
<path d="M363.373 248.588C363.241 248.669 363.107 248.749 362.974 248.829L363.256 248.806L259.174 325.323L259.174 259.737L139.934 259.737C98.2644 259.737 63.9579 225.632 59.5675 181.82C60.1875 181.418 60.8129 181.024 61.4434 180.64L61.1633 180.664L164.733 103.287L164.733 169.61L283.386 169.61C324.908 169.61 359.082 204.194 363.373 248.588Z" fill="#0DA84C"/>
</g>
<path d="M504.545 285.609C504.545 261.855 509.849 240.637 520.458 221.956C531.297 203.045 545.942 188.401 564.392 178.022C583.073 167.414 603.944 162.109 627.007 162.109C653.99 162.109 677.629 169.028 697.924 182.866C718.219 196.703 732.402 215.845 740.474 240.291H684.778C679.243 228.76 671.402 220.111 661.255 214.346C651.338 208.58 639.806 205.697 626.661 205.697C612.593 205.697 600.024 209.041 588.954 215.73C578.114 222.187 569.581 231.412 563.354 243.405C557.358 255.397 554.36 269.465 554.36 285.609C554.36 301.522 557.358 315.59 563.354 327.813C569.581 339.806 578.114 349.146 588.954 355.834C600.024 362.292 612.593 365.521 626.661 365.521C639.806 365.521 651.338 362.638 661.255 356.872C671.402 350.876 679.243 342.112 684.778 330.581H740.474C732.402 355.258 718.219 374.515 697.924 388.352C677.86 401.959 654.221 408.763 627.007 408.763C603.944 408.763 583.073 403.574 564.392 393.196C545.942 382.587 531.297 367.942 520.458 349.261C509.849 330.581 504.545 309.363 504.545 285.609Z" fill="black"/>
<path d="M882.855 212.27C897.384 212.27 910.299 215.499 921.6 221.956C932.9 228.183 941.664 237.524 947.891 249.977C954.348 262.201 957.577 276.961 957.577 294.257V406.687H909.146V300.83C909.146 285.609 905.341 273.962 897.73 265.891C890.119 257.588 879.741 253.437 866.596 253.437C853.219 253.437 842.611 257.588 834.769 265.891C827.159 273.962 823.353 285.609 823.353 300.83V406.687H774.922V150.693H823.353V238.907C829.58 230.605 837.883 224.147 848.261 219.535C858.639 214.692 870.17 212.27 882.855 212.27Z" fill="black"/>
<path d="M984.26 310.171C984.26 290.798 988.066 273.616 995.676 258.626C1003.52 243.635 1014.01 232.104 1027.16 224.032C1040.53 215.96 1055.41 211.924 1071.78 211.924C1086.08 211.924 1098.53 214.807 1109.14 220.573C1119.98 226.338 1128.63 233.603 1135.09 242.367V215.038H1183.87V406.687H1135.09V378.666C1128.86 387.661 1120.21 395.156 1109.14 401.152C1098.3 406.918 1085.74 409.801 1071.44 409.801C1055.29 409.801 1040.53 405.649 1027.16 397.347C1014.01 389.044 1003.52 377.398 995.676 362.407C988.066 347.186 984.26 329.774 984.26 310.171ZM1135.09 310.862C1135.09 299.101 1132.78 289.068 1128.17 280.766C1123.56 272.233 1117.33 265.775 1109.49 261.393C1101.65 256.781 1093.23 254.475 1084.24 254.475C1075.24 254.475 1066.94 256.666 1059.33 261.047C1051.72 265.429 1045.49 271.887 1040.65 280.42C1036.04 288.722 1033.73 298.639 1033.73 310.171C1033.73 321.702 1036.04 331.849 1040.65 340.613C1045.49 349.146 1051.72 355.719 1059.33 360.331C1067.17 364.944 1075.47 367.25 1084.24 367.25C1093.23 367.25 1101.65 365.059 1109.49 360.677C1117.33 356.065 1123.56 349.607 1128.17 341.305C1132.78 332.772 1135.09 322.624 1135.09 310.862Z" fill="black"/>
<path d="M1280.64 254.821V347.532C1280.64 353.989 1282.14 358.717 1285.13 361.715C1288.36 364.483 1293.67 365.866 1301.05 365.866H1323.53V406.687H1293.09C1252.27 406.687 1231.86 386.853 1231.86 347.186V254.821H1209.03V215.038H1231.86V167.644H1280.64V215.038H1323.53V254.821H1280.64Z" fill="black"/>
<path d="M685.552 76.5291C685.552 79.1194 685.38 81.4507 685.035 83.5229H632.623C633.054 88.7036 634.866 92.7618 638.058 95.6975C641.25 98.6332 645.176 100.101 649.835 100.101C656.564 100.101 661.352 97.2085 664.199 91.4235H683.741C681.67 98.331 677.701 104.03 671.835 108.52C665.968 112.923 658.764 115.125 650.223 115.125C643.321 115.125 637.109 113.614 631.588 110.592C626.152 107.484 621.882 103.123 618.776 97.5107C615.756 91.8984 614.246 85.4225 614.246 78.0833C614.246 70.6576 615.756 64.1386 618.776 58.5262C621.795 52.9139 626.023 48.5966 631.458 45.5746C636.893 42.5525 643.148 41.0415 650.223 41.0415C657.039 41.0415 663.121 42.5094 668.47 45.4451C673.905 48.3808 678.09 52.5685 681.023 58.0082C684.043 63.3615 685.552 69.5352 685.552 76.5291ZM666.788 71.3484C666.701 66.6858 665.019 62.973 661.741 60.21C658.462 57.3606 654.45 55.9359 649.705 55.9359C645.219 55.9359 641.423 57.3174 638.317 60.0804C635.297 62.7571 633.443 66.5131 632.752 71.3484H666.788Z" fill="black"/>
<path d="M765.424 76.5291C765.424 79.1194 765.251 81.4507 764.906 83.5229H712.494C712.926 88.7036 714.737 92.7618 717.93 95.6975C721.122 98.6332 725.047 100.101 729.706 100.101C736.435 100.101 741.224 97.2085 744.071 91.4235H763.612C761.541 98.331 757.573 104.03 751.706 108.52C745.839 112.923 738.635 115.125 730.094 115.125C723.192 115.125 716.981 113.614 711.459 110.592C706.024 107.484 701.753 103.123 698.647 97.5107C695.628 91.8984 694.118 85.4225 694.118 78.0833C694.118 70.6576 695.628 64.1386 698.647 58.5262C701.667 52.9139 705.894 48.5966 711.33 45.5746C716.765 42.5525 723.02 41.0415 730.094 41.0415C736.91 41.0415 742.992 42.5094 748.341 45.4451C753.777 48.3808 757.961 52.5685 760.894 58.0082C763.914 63.3615 765.424 69.5352 765.424 76.5291ZM746.659 71.3484C746.573 66.6858 744.89 62.973 741.612 60.21C738.333 57.3606 734.322 55.9359 729.577 55.9359C725.09 55.9359 721.294 57.3174 718.188 60.0804C715.169 62.7571 713.314 66.5131 712.624 71.3484H746.659Z" fill="black"/>
<path d="M800.042 56.9622V91.9846C800.042 94.4022 800.68 95.9996 801.802 97.1221C803.009 98.1582 804.994 98.6763 807.755 98.6763H816.166V113.959H804.778C789.507 113.959 782.201 106.149 782.201 91.2979V56.9622H772.595V41.8545H782.201V24H800.042V41.8545H816.166V56.9622H800.042Z" fill="black"/>
<path d="M860.656 115.125C853.754 115.125 847.542 113.614 842.02 110.592C836.499 107.484 832.142 103.123 828.95 97.5107C825.844 91.8984 824.291 85.4225 824.291 78.0833C824.291 70.744 825.887 64.2681 829.079 58.6558C832.358 53.0434 836.801 48.7261 842.409 45.7041C848.016 42.5957 854.271 41.0415 861.173 41.0415C868.075 41.0415 874.33 42.5957 879.938 45.7041C885.546 48.7261 889.946 53.0434 893.138 58.6558C896.416 64.2681 898.056 70.744 898.056 78.0833C898.056 85.4225 896.373 91.8984 893.009 97.5107C889.73 103.123 885.244 107.484 879.55 110.592C873.942 113.614 867.644 115.125 860.656 115.125ZM860.656 99.324C863.934 99.324 866.997 98.5469 869.844 96.9927C872.777 95.3521 875.107 92.9345 876.832 89.7397C878.558 86.545 879.42 82.6595 879.42 78.0833C879.42 71.262 877.609 66.0382 873.985 62.4117C870.448 58.6989 866.091 56.8425 860.914 56.8425C855.738 56.8425 851.381 58.6989 847.844 62.4117C844.393 66.0382 842.667 71.262 842.667 78.0833C842.667 84.9045 844.35 90.1715 847.714 93.8843C851.165 97.5107 855.479 99.324 860.656 99.324Z" fill="black"/>
<path d="M598.944 24H564.163L598.944 76.1708V24Z" fill="black"/>
<path d="M512.688 115.125L512.688 24H537.804L598.944 115.125H573.095L532.861 55.9981V115.125H512.688Z" fill="black"/>
<defs>
<clipPath id="clip0_746_2360">
<rect width="384.75" height="384.75" fill="white" transform="translate(19.9375 23.625)"/>
</clipPath>
</defs>
</svg>
