<svg width="1345" height="432" viewBox="0 0 1345 432" fill="none" xmlns="http://www.w3.org/2000/svg">
<g clip-path="url(#clip0_746_2312)">
<path d="M139.215 311.037C139.215 340.628 114.743 364.58 85.2151 364.58C55.6871 364.58 31.75 340.592 31.75 311.001C31.75 293.669 39.9623 278.259 52.7001 268.466C66.748 261.226 73.5169 257.459 85.7496 257.459C115.278 257.459 139.215 281.447 139.215 311.037Z" fill="#75DC66"/>
<path fill-rule="evenodd" clip-rule="evenodd" d="M215.233 47.9789C131.346 47.9789 63.343 116.127 63.343 200.191C63.343 238.642 77.5545 273.737 101.018 300.535L91.8849 308.566L75.1976 258C62.9794 263.25 67.186 261 52.7001 268.466C43.9034 247.461 39.0407 224.39 39.0407 200.191C39.0407 102.676 117.924 23.625 215.233 23.625C254.883 23.625 291.506 36.7649 320.955 58.9314L306.359 78.404C280.975 59.2965 249.44 47.9789 215.233 47.9789Z" fill="#75DC66"/>
<path d="M396.248 240.353C396.248 333.149 321.181 408.375 228.582 408.375C135.983 408.375 61.451 333.185 61.451 240.389C61.451 147.593 135.983 72.3315 228.582 72.3315C321.181 72.3315 396.248 147.557 396.248 240.353Z" fill="#5BCC5A"/>
<path d="M64.186 210C65.2648 227.075 69.1509 243.382 75.3887 258.464C78.7409 257.805 82.2045 257.459 85.7496 257.459C115.278 257.459 139.215 281.447 139.215 311.037C139.215 331.836 127.39 349.867 110.108 358.746C80.0317 328.376 61.451 286.557 61.451 240.389C61.451 230.013 62.3893 219.856 64.186 210Z" fill="#0DA84C"/>
</g>
<g clip-path="url(#clip1_746_2312)">
<path d="M600.717 164.849C626.086 164.849 648.341 169.807 667.483 179.724C686.856 189.641 701.731 203.824 712.109 222.274C722.718 240.494 728.022 261.711 728.022 285.927C728.022 310.142 722.718 331.36 712.109 349.579C701.731 367.568 686.856 381.521 667.483 391.438C648.341 401.355 626.086 406.313 600.717 406.313H516.309V164.849H600.717ZM598.988 365.147C624.356 365.147 643.96 358.228 657.797 344.39C671.635 330.553 678.553 311.065 678.553 285.927C678.553 260.789 671.635 241.186 657.797 227.117C643.96 212.819 624.356 205.669 598.988 205.669H564.74V365.147H598.988Z" fill="black"/>
<path d="M935.515 306.337C935.515 313.256 935.053 319.483 934.131 325.018H794.026C795.179 338.855 800.022 349.695 808.556 357.536C817.089 365.377 827.582 369.298 840.036 369.298C858.025 369.298 870.824 361.572 878.435 346.12H930.671C925.136 364.57 914.528 379.791 898.845 391.784C883.163 403.546 863.906 409.427 841.074 409.427C822.624 409.427 806.019 405.391 791.259 397.319C776.729 389.016 765.313 377.37 757.011 362.379C748.939 347.388 744.903 330.092 744.903 310.488C744.903 290.655 748.939 273.242 757.011 258.252C765.083 243.261 776.383 231.73 790.913 223.658C805.442 215.586 822.162 211.55 841.074 211.55C859.293 211.55 875.552 215.471 889.851 223.312C904.38 231.153 915.566 242.339 923.407 256.868C931.479 271.167 935.515 287.657 935.515 306.337ZM885.354 292.5C885.123 280.046 880.626 270.129 871.862 262.749C863.098 255.138 852.374 251.333 839.69 251.333C827.697 251.333 817.55 255.023 809.247 262.403C801.176 269.552 796.217 279.585 794.372 292.5H885.354Z" fill="black"/>
<path d="M1037.29 409.427C1021.6 409.427 1007.53 406.659 995.081 401.124C982.627 395.358 972.71 387.632 965.33 377.946C958.181 368.26 954.26 357.536 953.568 345.774H1002.35C1003.27 353.154 1006.84 359.266 1013.07 364.109C1019.53 368.952 1027.48 371.373 1036.94 371.373C1046.16 371.373 1053.31 369.528 1058.39 365.838C1063.69 362.148 1066.34 357.421 1066.34 351.655C1066.34 345.428 1063.12 340.816 1056.66 337.817C1050.43 334.589 1040.4 331.129 1026.56 327.439C1012.26 323.98 1000.5 320.405 991.275 316.715C982.281 313.025 974.44 307.375 967.752 299.764C961.294 292.154 958.065 281.891 958.065 268.976C958.065 258.367 961.063 248.681 967.06 239.917C973.287 231.153 982.05 224.235 993.351 219.161C1004.88 214.087 1018.37 211.55 1033.83 211.55C1056.66 211.55 1074.88 217.316 1088.48 228.847C1102.09 240.148 1109.59 255.484 1110.97 274.857H1064.61C1063.92 267.246 1060.69 261.25 1054.93 256.868C1049.39 252.256 1041.9 249.949 1032.44 249.949C1023.68 249.949 1016.87 251.564 1012.03 254.792C1007.42 258.021 1005.11 262.518 1005.11 268.284C1005.11 274.742 1008.34 279.7 1014.8 283.159C1021.26 286.388 1031.29 289.732 1044.9 293.192C1058.73 296.651 1070.15 300.226 1079.14 303.916C1088.14 307.606 1095.86 313.371 1102.32 321.212C1109.01 328.823 1112.47 338.971 1112.7 351.655C1112.7 362.725 1109.59 372.642 1103.36 381.406C1097.36 390.169 1088.6 397.088 1077.07 402.162C1065.77 407.005 1052.51 409.427 1037.29 409.427Z" fill="black"/>
<path d="M1259 406.313L1193.97 324.672V406.313H1145.54V150.319H1193.97V295.959L1258.31 214.664H1321.27L1236.86 310.834L1321.96 406.313H1259Z" fill="black"/>
<path d="M685.552 76.5291C685.552 79.1194 685.38 81.4507 685.035 83.5229H632.623C633.054 88.7036 634.866 92.7618 638.058 95.6975C641.25 98.6332 645.176 100.101 649.835 100.101C656.564 100.101 661.352 97.2085 664.199 91.4235H683.741C681.67 98.331 677.701 104.03 671.835 108.52C665.968 112.923 658.764 115.125 650.223 115.125C643.321 115.125 637.109 113.614 631.588 110.592C626.152 107.484 621.882 103.123 618.776 97.5107C615.756 91.8984 614.246 85.4225 614.246 78.0833C614.246 70.6576 615.756 64.1386 618.776 58.5262C621.795 52.9139 626.023 48.5966 631.458 45.5746C636.893 42.5525 643.148 41.0415 650.223 41.0415C657.039 41.0415 663.121 42.5094 668.47 45.4451C673.905 48.3808 678.09 52.5685 681.023 58.0082C684.043 63.3615 685.552 69.5352 685.552 76.5291ZM666.788 71.3484C666.701 66.6858 665.019 62.973 661.741 60.21C658.462 57.3606 654.45 55.9359 649.705 55.9359C645.219 55.9359 641.423 57.3174 638.317 60.0804C635.297 62.7571 633.443 66.5131 632.752 71.3484H666.788Z" fill="black"/>
<path d="M765.424 76.5291C765.424 79.1194 765.251 81.4507 764.906 83.5229H712.494C712.926 88.7036 714.737 92.7618 717.93 95.6975C721.122 98.6332 725.047 100.101 729.706 100.101C736.435 100.101 741.224 97.2085 744.071 91.4235H763.612C761.541 98.331 757.573 104.03 751.706 108.52C745.839 112.923 738.635 115.125 730.094 115.125C723.192 115.125 716.981 113.614 711.459 110.592C706.024 107.484 701.753 103.123 698.647 97.5107C695.628 91.8984 694.118 85.4225 694.118 78.0833C694.118 70.6576 695.628 64.1386 698.647 58.5262C701.667 52.9139 705.894 48.5966 711.33 45.5746C716.765 42.5525 723.02 41.0415 730.094 41.0415C736.91 41.0415 742.992 42.5094 748.341 45.4451C753.777 48.3808 757.961 52.5685 760.894 58.0082C763.914 63.3615 765.424 69.5352 765.424 76.5291ZM746.659 71.3484C746.573 66.6858 744.89 62.973 741.612 60.21C738.333 57.3606 734.322 55.9359 729.577 55.9359C725.09 55.9359 721.294 57.3174 718.188 60.0804C715.169 62.7571 713.314 66.5131 712.624 71.3484H746.659Z" fill="black"/>
<path d="M800.042 56.9622V91.9846C800.042 94.4022 800.68 95.9996 801.802 97.1221C803.009 98.1582 804.994 98.6763 807.755 98.6763H816.166V113.959H804.778C789.507 113.959 782.201 106.149 782.201 91.2979V56.9622H772.595V41.8545H782.201V24H800.042V41.8545H816.166V56.9622H800.042Z" fill="black"/>
<path d="M860.656 115.125C853.754 115.125 847.542 113.614 842.02 110.592C836.499 107.484 832.142 103.123 828.95 97.5107C825.844 91.8984 824.291 85.4225 824.291 78.0833C824.291 70.744 825.887 64.2681 829.079 58.6558C832.358 53.0434 836.801 48.7261 842.409 45.7041C848.016 42.5957 854.271 41.0415 861.173 41.0415C868.075 41.0415 874.33 42.5957 879.938 45.7041C885.546 48.7261 889.946 53.0434 893.138 58.6558C896.416 64.2681 898.056 70.744 898.056 78.0833C898.056 85.4225 896.373 91.8984 893.009 97.5107C889.73 103.123 885.244 107.484 879.55 110.592C873.942 113.614 867.644 115.125 860.656 115.125ZM860.656 99.324C863.934 99.324 866.997 98.5469 869.844 96.9927C872.777 95.3521 875.107 92.9345 876.832 89.7397C878.558 86.545 879.42 82.6595 879.42 78.0833C879.42 71.262 877.609 66.0382 873.985 62.4117C870.448 58.6989 866.091 56.8425 860.914 56.8425C855.738 56.8425 851.381 58.6989 847.844 62.4117C844.393 66.0382 842.667 71.262 842.667 78.0833C842.667 84.9045 844.35 90.1715 847.714 93.8843C851.165 97.5107 855.479 99.324 860.656 99.324Z" fill="black"/>
<path d="M598.944 24H564.163L598.944 76.1708V24Z" fill="black"/>
<path d="M512.688 115.125L512.688 24H537.804L598.944 115.125H573.095L532.861 55.9981V115.125H512.688Z" fill="black"/>
</g>
<defs>
<clipPath id="clip0_746_2312">
<rect width="384.75" height="384.75" fill="white" transform="translate(21.625 23.625)"/>
</clipPath>
<clipPath id="clip1_746_2312">
<rect width="831.938" height="432" fill="white" transform="translate(489.062)"/>
</clipPath>
</defs>
</svg>
