<svg width="599" height="64" viewBox="0 0 599 64" fill="none" xmlns="http://www.w3.org/2000/svg">
<path d="M56 31.9956C56 18.7408 45.2548 7.99561 32 7.99561H8V55.9956H56V31.9956Z" fill="url(#paint0_linear_5723_5714)"/>
<g filter="url(#filter0_d_5723_5714)">
<rect x="28.9297" y="23.7661" width="13.3561" height="5.37313" rx="0.511727" fill="white"/>
<rect x="21.7148" y="30.981" width="13.3561" height="13.3561" rx="0.511727" fill="white"/>
<circle cx="24.4014" cy="26.4527" r="2.68657" fill="white"/>
<rect x="36.9141" y="44.3384" width="13.3561" height="5.37314" rx="0.511727" transform="rotate(-90 36.9141 44.3384)" fill="white"/>
</g>
<path fill-rule="evenodd" clip-rule="evenodd" d="M98.0873 22.7535H81.2401L89.5759 30.9515H98.0873C103.452 30.9515 107.795 35.2022 107.795 40.44V58.1265H116.175V40.44C116.175 30.6693 108.074 22.7535 98.0873 22.7535ZM88.3794 32.1452L80 23.9042V58.1265H88.3794V32.1452ZM152.982 52.3434L147.664 46.839L147.346 47.1398C145.501 48.8818 142.408 50.5645 138.135 50.5645C135.13 50.5645 132.814 49.816 131.14 48.5207C129.593 47.3241 128.559 45.6343 128.047 43.5521H154.946L154.966 43.14C155.249 37.2682 153.75 32.1708 150.686 28.5334C147.615 24.8884 143.007 22.7535 137.173 22.7535C126.87 22.7535 118.825 30.3431 118.825 40.4417C118.825 45.515 120.728 49.9446 124.12 53.1043C127.511 56.263 132.362 58.1265 138.216 58.1265C145.052 58.1265 149.48 55.7938 152.679 52.6416L152.982 52.3434ZM191.807 52.3434L186.49 46.839L186.171 47.1398C184.326 48.8818 181.233 50.5645 176.96 50.5645C173.955 50.5645 171.639 49.816 169.965 48.5207C168.418 47.3241 167.385 45.6343 166.872 43.5521H193.771L193.791 43.14C194.074 37.2682 192.575 32.1708 189.511 28.5334C186.44 24.8884 181.832 22.7535 175.999 22.7535C165.695 22.7535 157.65 30.3431 157.65 40.4417C157.65 45.515 159.553 49.9446 162.945 53.1043C166.336 56.263 171.187 58.1265 177.041 58.1265C183.877 58.1265 188.305 55.7938 191.504 52.6416L191.807 52.3434ZM202.393 23.0509H196.475V30.6055H202.393V43.7973C202.393 49.1238 203.189 52.7549 205.443 55.0322C207.701 57.313 211.311 58.1265 216.622 58.1265H218.175V50.3803H217.735C216.138 50.3803 214.91 50.3203 213.961 50.1432C213.015 49.9668 212.387 49.6813 211.95 49.2607C211.514 48.8412 211.22 48.2407 211.038 47.3382C210.856 46.4306 210.794 45.2569 210.794 43.7283V30.6055H218.175V23.0509H210.794V14.1265H202.393V23.0509ZM137.255 30.2391C139.961 30.2391 141.946 31.036 143.34 32.3358C144.632 33.5401 145.453 35.2096 145.846 37.1717H128.043C128.557 35.0224 129.603 33.3444 131.065 32.1803C132.642 30.9242 134.738 30.2391 137.255 30.2391ZM176.081 30.2391C178.786 30.2391 180.771 31.036 182.165 32.3358C183.457 33.5401 184.278 35.2096 184.672 37.1717H166.868C167.382 35.0224 168.428 33.3444 169.89 32.1803C171.467 30.9242 173.563 30.2391 176.081 30.2391ZM238.879 30.2548C244.469 30.2548 248.913 34.8244 248.913 40.4405C248.913 46.0554 244.469 50.6251 238.879 50.6251C233.291 50.6251 228.913 46.0592 228.913 40.4405C228.913 34.8207 233.291 30.2548 238.879 30.2548ZM238.879 22.7535C228.846 22.7535 220.825 30.5092 220.825 40.4405C220.825 50.3037 228.845 58.1265 238.879 58.1265C248.91 58.1265 257 50.3058 257 40.4405C257 30.507 248.909 22.7535 238.879 22.7535Z" fill="#11243E"/>
<path d="M321.792 13.5158L309.572 57.2571H299.232L291.023 26.1118L282.438 57.2571L272.16 57.3198L260.379 13.5158H269.779L277.487 47.4811L286.386 13.5158H296.162L304.559 47.2931L312.33 13.5158H321.792Z" fill="#11243E"/>
<path d="M331.304 18.4038C329.758 18.4038 328.463 17.9234 327.418 16.9625C326.416 15.9598 325.914 14.7274 325.914 13.2651C325.914 11.8029 326.416 10.5914 327.418 9.63046C328.463 8.6278 329.758 8.12646 331.304 8.12646C332.849 8.12646 334.124 8.6278 335.126 9.63046C336.171 10.5914 336.693 11.8029 336.693 13.2651C336.693 14.7274 336.171 15.9598 335.126 16.9625C334.124 17.9234 332.849 18.4038 331.304 18.4038ZM335.628 22.5398V57.2571H326.854V22.5398H335.628Z" fill="#11243E"/>
<path d="M352.402 27.9291C353.53 26.0909 354.992 24.6496 356.789 23.6051C358.627 22.5607 360.716 22.0385 363.056 22.0385V31.2505H360.737C357.98 31.2505 355.891 31.898 354.47 33.1931C353.092 34.4882 352.402 36.7442 352.402 39.9611V57.2571H343.629V22.5398H352.402V27.9291Z" fill="#11243E"/>
<path d="M400.572 39.1465C400.572 40.3998 400.488 41.5278 400.321 42.5305H374.941C375.15 45.0371 376.027 47.0007 377.573 48.4211C379.119 49.8416 381.02 50.5518 383.276 50.5518C386.534 50.5518 388.853 49.1522 390.232 46.3531H399.694C398.692 49.6954 396.77 52.4527 393.929 54.6251C391.088 56.7558 387.6 57.8211 383.464 57.8211C380.121 57.8211 377.113 57.09 374.44 55.6278C371.808 54.1238 369.74 52.014 368.236 49.2985C366.773 46.5829 366.042 43.4496 366.042 39.8985C366.042 36.3056 366.773 33.1514 368.236 30.4358C369.698 27.7202 371.745 25.6314 374.377 24.1691C377.009 22.7069 380.038 21.9758 383.464 21.9758C386.764 21.9758 389.709 22.686 392.3 24.1065C394.932 25.5269 396.958 27.5531 398.378 30.1851C399.84 32.7754 400.572 35.7625 400.572 39.1465ZM391.485 36.6398C391.443 34.3838 390.628 32.5874 389.041 31.2505C387.453 29.8718 385.511 29.1825 383.213 29.1825C381.04 29.1825 379.202 29.8509 377.698 31.1878C376.236 32.4829 375.338 34.3002 375.004 36.6398H391.485Z" fill="#11243E"/>
<path d="M422.226 29.7465H416.147V57.2571H407.249V29.7465H403.301V22.5398H407.249V20.7851C407.249 16.5238 408.46 13.3905 410.883 11.3851C413.306 9.3798 416.962 8.4398 421.85 8.56513V15.9598C419.719 15.918 418.236 16.2731 417.401 17.0251C416.565 17.7771 416.147 19.1349 416.147 21.0985V22.5398H422.226V29.7465Z" fill="#11243E"/>
<path d="M436.018 27.9291C437.146 26.0909 438.608 24.6496 440.405 23.6051C442.243 22.5607 444.332 22.0385 446.671 22.0385V31.2505H444.353C441.595 31.2505 439.507 31.898 438.086 33.1931C436.707 34.4882 436.018 36.7442 436.018 39.9611V57.2571H427.245V22.5398H436.018V27.9291Z" fill="#11243E"/>
<path d="M449.658 39.7731C449.658 36.2638 450.347 33.1514 451.726 30.4358C453.147 27.7202 455.047 25.6314 457.429 24.1691C459.852 22.7069 462.547 21.9758 465.513 21.9758C468.103 21.9758 470.359 22.498 472.281 23.5425C474.244 24.5869 475.811 25.9029 476.981 27.4905V22.5398H485.817V57.2571H476.981V52.1811C475.853 53.8105 474.286 55.1682 472.281 56.2545C470.317 57.2989 468.04 57.8211 465.45 57.8211C462.526 57.8211 459.852 57.0691 457.429 55.5651C455.047 54.0611 453.147 51.9514 451.726 49.2358C450.347 46.4785 449.658 43.3242 449.658 39.7731ZM476.981 39.8985C476.981 37.7678 476.563 35.9505 475.727 34.4465C474.892 32.9007 473.764 31.7309 472.343 30.9371C470.923 30.1016 469.398 29.6838 467.769 29.6838C466.139 29.6838 464.635 30.0807 463.257 30.8745C461.878 31.6682 460.75 32.838 459.873 34.3838C459.037 35.8878 458.619 37.6842 458.619 39.7731C458.619 41.862 459.037 43.7002 459.873 45.2878C460.75 46.8336 461.878 48.0242 463.257 48.8598C464.677 49.6954 466.181 50.1131 467.769 50.1131C469.398 50.1131 470.923 49.7162 472.343 48.9225C473.764 48.0869 474.892 46.9171 475.727 45.4131C476.563 43.8674 476.981 42.0291 476.981 39.8985Z" fill="#11243E"/>
<path d="M536.833 22.0385C541.095 22.0385 544.521 23.3545 547.111 25.9865C549.743 28.5767 551.059 32.2114 551.059 36.8905V57.2571H542.285V38.0811C542.285 35.3656 541.596 33.2976 540.217 31.8771C538.839 30.4149 536.959 29.6838 534.577 29.6838C532.196 29.6838 530.295 30.4149 528.875 31.8771C527.496 33.2976 526.807 35.3656 526.807 38.0811V57.2571H518.033V38.0811C518.033 35.3656 517.344 33.2976 515.965 31.8771C514.587 30.4149 512.707 29.6838 510.325 29.6838C507.902 29.6838 505.981 30.4149 504.56 31.8771C503.181 33.2976 502.492 35.3656 502.492 38.0811V57.2571H493.719V22.5398H502.492V26.7385C503.62 25.2762 505.061 24.1274 506.816 23.2918C508.613 22.4562 510.576 22.0385 512.707 22.0385C515.422 22.0385 517.845 22.6234 519.976 23.7931C522.107 24.9211 523.757 26.5505 524.927 28.6811C526.055 26.6758 527.684 25.0674 529.815 23.8558C531.987 22.6442 534.327 22.0385 536.833 22.0385Z" fill="#11243E"/>
<path d="M590.991 39.1465C590.991 40.3998 590.907 41.5278 590.74 42.5305H565.36C565.569 45.0371 566.446 47.0007 567.992 48.4211C569.538 49.8416 571.439 50.5518 573.695 50.5518C576.953 50.5518 579.272 49.1522 580.651 46.3531H590.113C589.111 49.6954 587.189 52.4527 584.348 54.6251C581.507 56.7558 578.019 57.8211 573.883 57.8211C570.541 57.8211 567.533 57.09 564.859 55.6278C562.227 54.1238 560.159 52.014 558.655 49.2985C557.193 46.5829 556.461 43.4496 556.461 39.8985C556.461 36.3056 557.193 33.1514 558.655 30.4358C560.117 27.7202 562.164 25.6314 564.796 24.1691C567.428 22.7069 570.457 21.9758 573.883 21.9758C577.183 21.9758 580.129 22.686 582.719 24.1065C585.351 25.5269 587.377 27.5531 588.797 30.1851C590.26 32.7754 590.991 35.7625 590.991 39.1465ZM581.904 36.6398C581.862 34.3838 581.048 32.5874 579.46 31.2505C577.873 29.8718 575.93 29.1825 573.632 29.1825C571.46 29.1825 569.621 29.8509 568.117 31.1878C566.655 32.4829 565.757 34.3002 565.423 36.6398H581.904Z" fill="#11243E"/>
<defs>
<filter id="filter0_d_5723_5714" x="21.7148" y="23.7661" width="26.5723" height="27.5723" filterUnits="userSpaceOnUse" color-interpolation-filters="sRGB">
<feFlood flood-opacity="0" result="BackgroundImageFix"/>
<feColorMatrix in="SourceAlpha" type="matrix" values="0 0 0 0 0 0 0 0 0 0 0 0 0 0 0 0 0 0 127 0" result="hardAlpha"/>
<feOffset dx="3" dy="4"/>
<feGaussianBlur stdDeviation="1.5"/>
<feComposite in2="hardAlpha" operator="out"/>
<feColorMatrix type="matrix" values="0 0 0 0 0 0 0 0 0 0 0 0 0 0 0 0 0 0 0.05 0"/>
<feBlend mode="normal" in2="BackgroundImageFix" result="effect1_dropShadow_5723_5714"/>
<feBlend mode="normal" in="SourceGraphic" in2="effect1_dropShadow_5723_5714" result="shape"/>
</filter>
<linearGradient id="paint0_linear_5723_5714" x1="59.7714" y1="70.2242" x2="15.5429" y2="3.70989" gradientUnits="userSpaceOnUse">
<stop stop-color="#6A67E8"/>
<stop offset="0.6986" stop-color="#B49AFC"/>
</linearGradient>
</defs>
</svg>
