<svg width="2397" height="507" viewBox="0 0 2397 507" fill="none" xmlns="http://www.w3.org/2000/svg">
<g clip-path="url(#clip0_746_2620)">
<path d="M408.25 230.801V374.628C408.25 393.267 393.14 408.378 374.5 408.378H57.25C38.6104 408.378 23.5 393.267 23.5 374.628L23.5 230.801H408.25Z" fill="#5BCC5A"/>
<path d="M201.077 23.625L201.077 201.202L23.5 201.202L23.5001 57.375C23.5001 38.7354 38.6104 23.625 57.2501 23.625L201.077 23.625Z" fill="#5BCC5A"/>
<path d="M374.5 23.625C393.14 23.625 408.25 38.7354 408.25 57.375V374.628C408.25 393.267 393.14 408.378 374.5 408.378L230.673 408.375V23.625L374.5 23.625Z" fill="#75DC66"/>
<path d="M230.673 408.375L230.673 230.798L408.25 230.801V374.628C408.25 393.154 393.324 408.192 374.841 408.375L230.673 408.375Z" fill="#0DA84C"/>
</g>
<path d="M840.943 164.85L773.485 406.315H716.405L671.087 234.384L623.694 406.315L566.96 406.661L501.924 164.85H553.814L596.365 352.348L645.488 164.85H699.454L745.81 351.311L788.706 164.85H840.943Z" fill="black"/>
<path d="M890.209 191.833C881.676 191.833 874.526 189.181 868.761 183.877C863.226 178.342 860.458 171.538 860.458 163.466C860.458 155.395 863.226 148.706 868.761 143.402C874.526 137.867 881.676 135.1 890.209 135.1C898.742 135.1 905.776 137.867 911.311 143.402C917.077 148.706 919.96 155.395 919.96 163.466C919.96 171.538 917.077 178.342 911.311 183.877C905.776 189.181 898.742 191.833 890.209 191.833ZM914.079 214.665V406.315H865.647V214.665H914.079Z" fill="black"/>
<path d="M1003.44 244.416C1009.67 234.268 1017.74 226.312 1027.66 220.546C1037.8 214.781 1049.34 211.898 1062.25 211.898V262.751H1049.45C1034.23 262.751 1022.7 266.325 1014.86 273.475C1007.25 280.624 1003.44 293.078 1003.44 310.836V406.315H955.01V214.665H1003.44V244.416Z" fill="black"/>
<path d="M1266.11 306.339C1266.11 313.257 1265.65 319.484 1264.73 325.019H1124.62C1125.78 338.857 1130.62 349.696 1139.15 357.537C1147.68 365.379 1158.18 369.299 1170.63 369.299C1188.62 369.299 1201.42 361.573 1209.03 346.121H1261.27C1255.73 364.571 1245.12 379.793 1229.44 391.785C1213.76 403.547 1194.5 409.428 1171.67 409.428C1153.22 409.428 1136.61 405.392 1121.85 397.32C1107.33 389.018 1095.91 377.371 1087.61 362.381C1079.53 347.39 1075.5 330.093 1075.5 310.49C1075.5 290.656 1079.53 273.244 1087.61 258.253C1095.68 243.263 1106.98 231.731 1121.51 223.66C1136.04 215.588 1152.76 211.552 1171.67 211.552C1189.89 211.552 1206.15 215.472 1220.45 223.314C1234.98 231.155 1246.16 242.34 1254 256.87C1262.07 271.168 1266.11 287.658 1266.11 306.339ZM1215.95 292.501C1215.72 280.047 1211.22 270.131 1202.46 262.751C1193.69 255.14 1182.97 251.335 1170.29 251.335C1158.29 251.335 1148.15 255.025 1139.84 262.405C1131.77 269.554 1126.81 279.586 1124.97 292.501H1215.95Z" fill="black"/>
<path d="M1382.41 254.448H1348.85V406.315H1299.73V254.448H1277.94V214.665H1299.73V204.979C1299.73 181.455 1306.42 164.158 1319.8 153.088C1333.17 142.018 1353.35 136.829 1380.33 137.521V178.342C1368.57 178.111 1360.39 180.071 1355.77 184.223C1351.16 188.374 1348.85 195.869 1348.85 206.709V214.665H1382.41V254.448Z" fill="black"/>
<path d="M1455.31 244.416C1461.54 234.268 1469.61 226.312 1479.52 220.546C1489.67 214.781 1501.2 211.898 1514.12 211.898V262.751H1501.32C1486.1 262.751 1474.57 266.325 1466.72 273.475C1459.11 280.624 1455.31 293.078 1455.31 310.836V406.315H1406.88V214.665H1455.31V244.416Z" fill="black"/>
<path d="M1527.37 309.798C1527.37 290.426 1531.17 273.244 1538.78 258.253C1546.62 243.263 1557.12 231.731 1570.26 223.66C1583.64 215.588 1598.51 211.552 1614.89 211.552C1629.19 211.552 1641.64 214.435 1652.25 220.2C1663.09 225.966 1671.74 233.231 1678.2 241.994V214.665H1726.97V406.315H1678.2V378.294C1671.97 387.288 1663.32 394.783 1652.25 400.78C1641.41 406.545 1628.84 409.428 1614.54 409.428C1598.4 409.428 1583.64 405.277 1570.26 396.974C1557.12 388.672 1546.62 377.025 1538.78 362.035C1531.17 346.813 1527.37 329.401 1527.37 309.798ZM1678.2 310.49C1678.2 298.728 1675.89 288.696 1671.28 280.393C1666.66 271.86 1660.44 265.403 1652.6 261.021C1644.75 256.408 1636.34 254.102 1627.34 254.102C1618.35 254.102 1610.05 256.293 1602.43 260.675C1594.82 265.057 1588.6 271.514 1583.75 280.047C1579.14 288.35 1576.84 298.267 1576.84 309.798C1576.84 321.329 1579.14 331.477 1583.75 340.241C1588.6 348.774 1594.82 355.347 1602.43 359.959C1610.28 364.572 1618.58 366.878 1627.34 366.878C1636.34 366.878 1644.75 364.687 1652.6 360.305C1660.44 355.692 1666.66 349.235 1671.28 340.932C1675.89 332.399 1678.2 322.252 1678.2 310.49Z" fill="black"/>
<path d="M2005.36 211.898C2028.88 211.898 2047.8 219.162 2062.09 233.692C2076.62 247.991 2083.89 268.055 2083.89 293.885V406.315H2035.46V300.458C2035.46 285.467 2031.65 274.051 2024.04 266.21C2016.43 258.138 2006.05 254.102 1992.91 254.102C1979.76 254.102 1969.27 258.138 1961.43 266.21C1953.82 274.051 1950.01 285.467 1950.01 300.458V406.315H1901.58V300.458C1901.58 285.467 1897.77 274.051 1890.16 266.21C1882.55 258.138 1872.17 254.102 1859.03 254.102C1845.65 254.102 1835.04 258.138 1827.2 266.21C1819.59 274.051 1815.79 285.467 1815.79 300.458V406.315H1767.36V214.665H1815.79V237.843C1822.01 229.771 1829.97 223.429 1839.66 218.816C1849.57 214.204 1860.41 211.898 1872.17 211.898C1887.16 211.898 1900.54 215.126 1912.3 221.584C1924.06 227.811 1933.17 236.805 1939.63 248.567C1945.86 237.497 1954.85 228.618 1966.62 221.93C1978.61 215.242 1991.52 211.898 2005.36 211.898Z" fill="black"/>
<path d="M2301.09 306.339C2301.09 313.257 2300.62 319.484 2299.7 325.019H2159.6C2160.75 338.857 2165.59 349.696 2174.13 357.537C2182.66 365.379 2193.15 369.299 2205.61 369.299C2223.6 369.299 2236.39 361.573 2244.01 346.121H2296.24C2290.71 364.571 2280.1 379.793 2264.42 391.785C2248.73 403.547 2229.48 409.428 2206.64 409.428C2188.19 409.428 2171.59 405.392 2156.83 397.32C2142.3 389.018 2130.88 377.371 2122.58 362.381C2114.51 347.39 2110.47 330.093 2110.47 310.49C2110.47 290.656 2114.51 273.244 2122.58 258.253C2130.65 243.263 2141.95 231.731 2156.48 223.66C2171.01 215.588 2187.73 211.552 2206.64 211.552C2224.86 211.552 2241.12 215.472 2255.42 223.314C2269.95 231.155 2281.14 242.34 2288.98 256.87C2297.05 271.168 2301.09 287.658 2301.09 306.339ZM2250.92 292.501C2250.69 280.047 2246.2 270.131 2237.43 262.751C2228.67 255.14 2217.94 251.335 2205.26 251.335C2193.27 251.335 2183.12 255.025 2174.82 262.405C2166.75 269.554 2161.79 279.586 2159.94 292.501H2250.92Z" fill="black"/>
<path d="M688.74 76.5291C688.74 79.1194 688.567 81.4507 688.222 83.5229H635.81C636.242 88.7036 638.054 92.7618 641.246 95.6975C644.438 98.6332 648.363 100.101 653.022 100.101C659.752 100.101 664.54 97.2085 667.387 91.4235H686.928C684.857 98.331 680.889 104.03 675.022 108.52C669.156 112.923 661.952 115.125 653.41 115.125C646.508 115.125 640.297 113.614 634.775 110.592C629.34 107.484 625.069 103.123 621.963 97.5107C618.944 91.8984 617.434 85.4225 617.434 78.0833C617.434 70.6576 618.944 64.1386 621.963 58.5262C624.983 52.9139 629.21 48.5966 634.646 45.5746C640.081 42.5525 646.336 41.0415 653.41 41.0415C660.226 41.0415 666.308 42.5094 671.657 45.4451C677.093 48.3808 681.277 52.5685 684.21 58.0082C687.23 63.3615 688.74 69.5352 688.74 76.5291ZM669.975 71.3484C669.889 66.6858 668.206 62.973 664.928 60.21C661.65 57.3606 657.638 55.9359 652.893 55.9359C648.406 55.9359 644.61 57.3174 641.505 60.0804C638.485 62.7571 636.63 66.5131 635.94 71.3484H669.975Z" fill="black"/>
<path d="M768.611 76.5291C768.611 79.1194 768.439 81.4507 768.093 83.5229H715.682C716.113 88.7036 717.925 92.7618 721.117 95.6975C724.309 98.6332 728.235 100.101 732.894 100.101C739.623 100.101 744.411 97.2085 747.258 91.4235H766.799C764.729 98.331 760.76 104.03 754.894 108.52C749.027 112.923 741.823 115.125 733.282 115.125C726.38 115.125 720.168 113.614 714.646 110.592C709.211 107.484 704.941 103.123 701.835 97.5107C698.815 91.8984 697.305 85.4225 697.305 78.0833C697.305 70.6576 698.815 64.1386 701.835 58.5262C704.854 52.9139 709.082 48.5966 714.517 45.5746C719.952 42.5525 726.207 41.0415 733.282 41.0415C740.097 41.0415 746.18 42.5094 751.529 45.4451C756.964 48.3808 761.148 52.5685 764.082 58.0082C767.101 63.3615 768.611 69.5352 768.611 76.5291ZM749.846 71.3484C749.76 66.6858 748.078 62.973 744.799 60.21C741.521 57.3606 737.509 55.9359 732.764 55.9359C728.278 55.9359 724.482 57.3174 721.376 60.0804C718.356 62.7571 716.501 66.5131 715.811 71.3484H749.846Z" fill="black"/>
<path d="M803.229 56.9622V91.9846C803.229 94.4022 803.867 95.9996 804.989 97.1221C806.197 98.1582 808.181 98.6763 810.942 98.6763H819.354V113.959H807.966C792.695 113.959 785.389 106.149 785.389 91.2979V56.9622H775.783V41.8545H785.389V24H803.229V41.8545H819.354V56.9622H803.229Z" fill="black"/>
<path d="M863.843 115.125C856.941 115.125 850.729 113.614 845.208 110.592C839.686 107.484 835.329 103.123 832.137 97.5107C829.031 91.8984 827.478 85.4225 827.478 78.0833C827.478 70.744 829.074 64.2681 832.267 58.6558C835.545 53.0434 839.988 48.7261 845.596 45.7041C851.204 42.5957 857.459 41.0415 864.361 41.0415C871.263 41.0415 877.518 42.5957 883.125 45.7041C888.733 48.7261 893.133 53.0434 896.325 58.6558C899.604 64.2681 901.243 70.744 901.243 78.0833C901.243 85.4225 899.561 91.8984 896.196 97.5107C892.918 103.123 888.431 107.484 882.737 110.592C877.129 113.614 870.831 115.125 863.843 115.125ZM863.843 99.324C867.121 99.324 870.184 98.5469 873.031 96.9927C875.965 95.3521 878.294 92.9345 880.02 89.7397C881.745 86.545 882.608 82.6595 882.608 78.0833C882.608 71.262 880.796 66.0382 877.172 62.4117C873.635 58.6989 869.278 56.8425 864.102 56.8425C858.925 56.8425 854.569 58.6989 851.031 62.4117C847.58 66.0382 845.855 71.262 845.855 78.0833C845.855 84.9045 847.537 90.1715 850.902 93.8843C854.353 97.5107 858.667 99.324 863.843 99.324Z" fill="black"/>
<path d="M602.131 24H567.351L602.131 76.1708V24Z" fill="black"/>
<path d="M515.875 115.125L515.875 24H540.992L602.131 115.125H576.282L536.048 55.9981V115.125H515.875Z" fill="black"/>
<defs>
<clipPath id="clip0_746_2620">
<rect width="384.75" height="384.75" fill="white" transform="translate(23.5 23.625)"/>
</clipPath>
</defs>
</svg>
