<svg width="612" height="72" viewBox="0 0 612 72" fill="none" xmlns="http://www.w3.org/2000/svg">
<path d="M56 31.9956C56 18.7408 45.2548 7.99561 32 7.99561H8V55.9956H56V31.9956Z" fill="url(#paint0_linear_5723_5917)"/>
<rect x="38.25" y="24.1099" width="2.91609" height="18.8985" rx="1.45805" fill="white"/>
<path fill-rule="evenodd" clip-rule="evenodd" d="M42.9023 35.9902C43.1047 36.068 43.3244 36.1106 43.5542 36.1106C44.5573 36.1106 45.3705 35.2974 45.3705 34.2943V32.936C45.3705 31.9328 44.5573 31.1196 43.5542 31.1196C43.3244 31.1196 43.1047 31.1623 42.9023 31.2401V35.9902Z" fill="white"/>
<path d="M22.6643 35.8932C22.6259 35.559 22.685 35.221 22.8344 34.9197V34.9197C23.653 33.2696 26.1384 33.8522 26.1384 35.6941V43.8642C26.1384 44.5682 25.5677 45.1389 24.8637 45.1389V45.1389C24.216 45.1389 23.6712 44.6532 23.5972 44.0098L22.6643 35.8932Z" fill="white"/>
<path fill-rule="evenodd" clip-rule="evenodd" d="M19.0259 29.7004C18.594 29.792 18.2852 30.1732 18.2852 30.6147V36.9355C18.2852 37.384 18.6038 37.7694 19.0444 37.8535L26.1075 39.2026L26.1075 28.1985L19.0259 29.7004ZM27.7619 27.8477L27.7619 39.5186L38.2492 41.5218V25.6235L27.7619 27.8477Z" fill="white"/>
<path fill-rule="evenodd" clip-rule="evenodd" d="M98.0873 19.9956H81.2401L89.5759 28.1936H98.0873C103.452 28.1936 107.795 32.4444 107.795 37.6821V55.3687H116.175V37.6821C116.175 27.9115 108.074 19.9956 98.0873 19.9956ZM88.3794 29.3874L80 21.1464V55.3687H88.3794V29.3874ZM152.982 49.5856L147.664 44.0812L147.346 44.382C145.501 46.124 142.408 47.8066 138.135 47.8066C135.13 47.8066 132.814 47.0582 131.14 45.7629C129.593 44.5663 128.559 42.8765 128.047 40.7943H154.946L154.966 40.3822C155.249 34.5104 153.75 29.413 150.686 25.7756C147.615 22.1306 143.007 19.9956 137.173 19.9956C126.87 19.9956 118.825 27.5853 118.825 37.6839C118.825 42.7572 120.728 47.1867 124.12 50.3465C127.511 53.5052 132.362 55.3687 138.216 55.3687C145.052 55.3687 149.48 53.036 152.679 49.8838L152.982 49.5856ZM191.807 49.5856L186.49 44.0812L186.171 44.382C184.326 46.124 181.233 47.8066 176.96 47.8066C173.955 47.8066 171.639 47.0582 169.965 45.7629C168.418 44.5663 167.385 42.8765 166.872 40.7943H193.771L193.791 40.3822C194.074 34.5104 192.575 29.413 189.511 25.7756C186.44 22.1306 181.832 19.9956 175.999 19.9956C165.695 19.9956 157.65 27.5853 157.65 37.6839C157.65 42.7572 159.553 47.1867 162.945 50.3465C166.336 53.5052 171.187 55.3687 177.041 55.3687C183.877 55.3687 188.305 53.036 191.504 49.8838L191.807 49.5856ZM202.393 20.2931H196.475V27.8477H202.393V41.0395C202.393 46.366 203.189 49.9971 205.443 52.2744C207.701 54.5551 211.311 55.3687 216.622 55.3687H218.175V47.6225H217.735C216.138 47.6225 214.91 47.5625 213.961 47.3854C213.015 47.209 212.387 46.9235 211.95 46.5029C211.514 46.0834 211.22 45.4829 211.038 44.5804C210.856 43.6727 210.794 42.4991 210.794 40.9705V27.8477H218.175V20.2931H210.794V11.3687H202.393V20.2931ZM137.255 27.4813C139.961 27.4813 141.946 28.2782 143.34 29.578C144.632 30.7823 145.453 32.4518 145.846 34.4139H128.043C128.557 32.2646 129.603 30.5866 131.065 29.4225C132.642 28.1664 134.738 27.4813 137.255 27.4813ZM176.081 27.4813C178.786 27.4813 180.771 28.2782 182.165 29.578C183.457 30.7823 184.278 32.4518 184.672 34.4139H166.868C167.382 32.2646 168.428 30.5866 169.89 29.4225C171.467 28.1664 173.563 27.4813 176.081 27.4813ZM238.879 27.497C244.469 27.497 248.913 32.0666 248.913 37.6827C248.913 43.2976 244.469 47.8673 238.879 47.8673C233.291 47.8673 228.913 43.3014 228.913 37.6827C228.913 32.0628 233.291 27.497 238.879 27.497ZM238.879 19.9956C228.846 19.9956 220.825 27.7513 220.825 37.6827C220.825 47.5458 228.845 55.3687 238.879 55.3687C248.91 55.3687 257 47.548 257 37.6827C257 27.7492 248.909 19.9956 238.879 19.9956Z" fill="#11243E"/>
<path d="M261.193 32.4356C261.193 28.1325 262.154 24.2889 264.076 20.9049C266.04 17.4792 268.692 14.8263 272.035 12.9463C275.419 11.0245 279.2 10.0636 283.377 10.0636C288.265 10.0636 292.548 11.3169 296.224 13.8236C299.9 16.3303 302.47 19.7978 303.932 24.2263H293.843C292.84 22.1374 291.42 20.5707 289.581 19.5263C287.785 18.4818 285.696 17.9596 283.315 17.9596C280.766 17.9596 278.489 18.5654 276.484 19.7769C274.52 20.9467 272.975 22.6178 271.847 24.7903C270.76 26.9627 270.217 29.5112 270.217 32.4356C270.217 35.3183 270.76 37.8667 271.847 40.0809C272.975 42.2534 274.52 43.9454 276.484 45.1569C278.489 46.3267 280.766 46.9116 283.315 46.9116C285.696 46.9116 287.785 46.3894 289.581 45.3449C291.42 44.2587 292.84 42.6712 293.843 40.5823H303.932C302.47 45.0525 299.9 48.5409 296.224 51.0476C292.589 53.5125 288.307 54.7449 283.377 54.7449C279.2 54.7449 275.419 53.8049 272.035 51.9249C268.692 50.0032 266.04 47.3503 264.076 43.9663C262.154 40.5823 261.193 36.7387 261.193 32.4356Z" fill="#11243E"/>
<path d="M330.311 19.1503C332.943 19.1503 335.282 19.7352 337.33 20.9049C339.377 22.0329 340.964 23.7249 342.092 25.9809C343.262 28.1952 343.847 30.8689 343.847 34.0023V54.3689H335.074V35.1929C335.074 32.4356 334.384 30.3258 333.006 28.8636C331.627 27.3596 329.747 26.6076 327.366 26.6076C324.942 26.6076 323.021 27.3596 321.6 28.8636C320.222 30.3258 319.532 32.4356 319.532 35.1929V54.3689H310.759V7.99561H319.532V23.9756C320.66 22.4716 322.164 21.3018 324.044 20.4663C325.924 19.5889 328.013 19.1503 330.311 19.1503Z" fill="#11243E"/>
<path d="M349.267 36.8849C349.267 33.3756 349.957 30.2632 351.335 27.5476C352.756 24.832 354.657 22.7432 357.038 21.2809C359.461 19.8187 362.156 19.0876 365.122 19.0876C367.712 19.0876 369.968 19.6098 371.89 20.6543C373.853 21.6987 375.42 23.0147 376.59 24.6023V19.6516H385.426V54.3689H376.59V49.2929C375.462 50.9223 373.895 52.28 371.89 53.3663C369.926 54.4107 367.649 54.9329 365.059 54.9329C362.135 54.9329 359.461 54.1809 357.038 52.6769C354.657 51.1729 352.756 49.0632 351.335 46.3476C349.957 43.5903 349.267 40.4361 349.267 36.8849ZM376.59 37.0103C376.59 34.8796 376.172 33.0623 375.337 31.5583C374.501 30.0125 373.373 28.8427 371.953 28.0489C370.532 27.2134 369.007 26.7956 367.378 26.7956C365.749 26.7956 364.245 27.1925 362.866 27.9863C361.487 28.78 360.359 29.9498 359.482 31.4956C358.646 32.9996 358.229 34.796 358.229 36.8849C358.229 38.9738 358.646 40.812 359.482 42.3996C360.359 43.9454 361.487 45.1361 362.866 45.9716C364.286 46.8072 365.79 47.2249 367.378 47.2249C369.007 47.2249 370.532 46.8281 371.953 46.0343C373.373 45.1987 374.501 44.0289 375.337 42.5249C376.172 40.9792 376.59 39.1409 376.59 37.0103Z" fill="#11243E"/>
<path d="M412.567 19.1503C416.703 19.1503 420.045 20.4663 422.593 23.0983C425.142 25.6885 426.416 29.3232 426.416 34.0023V54.3689H417.643V35.1929C417.643 32.4356 416.953 30.3258 415.575 28.8636C414.196 27.3596 412.316 26.6076 409.935 26.6076C407.511 26.6076 405.59 27.3596 404.169 28.8636C402.791 30.3258 402.101 32.4356 402.101 35.1929V54.3689H393.328V19.6516H402.101V23.9756C403.271 22.4716 404.754 21.3018 406.551 20.4663C408.389 19.5889 410.394 19.1503 412.567 19.1503Z" fill="#11243E"/>
<path d="M447.691 19.0876C450.281 19.0876 452.558 19.6098 454.522 20.6543C456.485 21.6569 458.031 22.9729 459.159 24.6023V19.6516H467.995V54.6196C467.995 57.8365 467.347 60.6983 466.052 63.2049C464.757 65.7534 462.814 67.7587 460.224 69.2209C457.634 70.7249 454.501 71.4769 450.824 71.4769C445.894 71.4769 441.842 70.3281 438.667 68.0303C435.534 65.7325 433.758 62.5992 433.34 58.6303H442.051C442.51 60.2178 443.492 61.4712 444.996 62.3903C446.542 63.3512 448.401 63.8316 450.574 63.8316C453.122 63.8316 455.19 63.0587 456.778 61.5129C458.365 60.0089 459.159 57.7112 459.159 54.6196V49.2303C458.031 50.8596 456.464 52.2174 454.459 53.3036C452.495 54.3898 450.239 54.9329 447.691 54.9329C444.766 54.9329 442.093 54.1809 439.67 52.6769C437.246 51.1729 435.325 49.0632 433.904 46.3476C432.526 43.5903 431.836 40.4361 431.836 36.8849C431.836 33.3756 432.526 30.2632 433.904 27.5476C435.325 24.832 437.226 22.7432 439.607 21.2809C442.03 19.8187 444.725 19.0876 447.691 19.0876ZM459.159 37.0103C459.159 34.8796 458.741 33.0623 457.906 31.5583C457.07 30.0125 455.942 28.8427 454.522 28.0489C453.101 27.2134 451.576 26.7956 449.947 26.7956C448.318 26.7956 446.814 27.1925 445.435 27.9863C444.056 28.78 442.928 29.9498 442.051 31.4956C441.215 32.9996 440.798 34.796 440.798 36.8849C440.798 38.9738 441.215 40.812 442.051 42.3996C442.928 43.9454 444.056 45.1361 445.435 45.9716C446.855 46.8072 448.359 47.2249 449.947 47.2249C451.576 47.2249 453.101 46.8281 454.522 46.0343C455.942 45.1987 457.07 44.0289 457.906 42.5249C458.741 40.9792 459.159 39.1409 459.159 37.0103Z" fill="#11243E"/>
<path d="M508.17 36.2583C508.17 37.5116 508.087 38.6396 507.92 39.6423H482.54C482.749 42.1489 483.626 44.1125 485.172 45.5329C486.717 46.9534 488.618 47.6636 490.874 47.6636C494.133 47.6636 496.452 46.2641 497.83 43.4649H507.293C506.29 46.8072 504.369 49.5645 501.528 51.7369C498.687 53.8676 495.198 54.9329 491.062 54.9329C487.72 54.9329 484.712 54.2018 482.038 52.7396C479.406 51.2356 477.338 49.1258 475.834 46.4103C474.372 43.6947 473.641 40.5614 473.641 37.0103C473.641 33.4174 474.372 30.2632 475.834 27.5476C477.296 24.832 479.344 22.7432 481.976 21.2809C484.608 19.8187 487.637 19.0876 491.062 19.0876C494.363 19.0876 497.308 19.7978 499.898 21.2183C502.53 22.6387 504.557 24.6649 505.977 27.2969C507.439 29.8872 508.17 32.8743 508.17 36.2583ZM499.084 33.7516C499.042 31.4956 498.227 29.6992 496.64 28.3623C495.052 26.9836 493.109 26.2943 490.812 26.2943C488.639 26.2943 486.801 26.9627 485.297 28.2996C483.835 29.5947 482.937 31.412 482.602 33.7516H499.084Z" fill="#11243E"/>
<path d="M522.681 7.99561V54.3689H513.907V7.99561H522.681Z" fill="#11243E"/>
<path d="M546.098 54.9329C542.756 54.9329 539.748 54.2018 537.074 52.7396C534.4 51.2356 532.291 49.1258 530.745 46.4103C529.241 43.6947 528.489 40.5614 528.489 37.0103C528.489 33.4592 529.262 30.3258 530.807 27.6103C532.395 24.8947 534.547 22.8058 537.262 21.3436C539.978 19.8396 543.007 19.0876 546.349 19.0876C549.691 19.0876 552.72 19.8396 555.435 21.3436C558.151 22.8058 560.282 24.8947 561.827 27.6103C563.415 30.3258 564.209 33.4592 564.209 37.0103C564.209 40.5614 563.394 43.6947 561.765 46.4103C560.177 49.1258 558.005 51.2356 555.247 52.7396C552.532 54.2018 549.482 54.9329 546.098 54.9329ZM546.098 47.2876C547.686 47.2876 549.169 46.9116 550.547 46.1596C551.968 45.3658 553.096 44.1961 553.931 42.6503C554.767 41.1045 555.185 39.2245 555.185 37.0103C555.185 33.7098 554.307 31.1823 552.553 29.4276C550.84 27.6312 548.73 26.7329 546.223 26.7329C543.717 26.7329 541.607 27.6312 539.894 29.4276C538.223 31.1823 537.387 33.7098 537.387 37.0103C537.387 40.3107 538.202 42.8592 539.831 44.6556C541.503 46.4103 543.591 47.2876 546.098 47.2876Z" fill="#11243E"/>
<path d="M583.576 19.0876C586.167 19.0876 588.443 19.6098 590.407 20.6543C592.371 21.6569 593.916 22.9729 595.044 24.6023V19.6516H603.88V54.6196C603.88 57.8365 603.233 60.6983 601.938 63.2049C600.643 65.7534 598.7 67.7587 596.11 69.2209C593.519 70.7249 590.386 71.4769 586.71 71.4769C581.78 71.4769 577.727 70.3281 574.552 68.0303C571.419 65.7325 569.643 62.5992 569.226 58.6303H577.936C578.396 60.2178 579.378 61.4712 580.882 62.3903C582.427 63.3512 584.287 63.8316 586.459 63.8316C589.007 63.8316 591.075 63.0587 592.663 61.5129C594.251 60.0089 595.044 57.7112 595.044 54.6196V49.2303C593.916 50.8596 592.35 52.2174 590.344 53.3036C588.381 54.3898 586.125 54.9329 583.576 54.9329C580.652 54.9329 577.978 54.1809 575.555 52.6769C573.132 51.1729 571.21 49.0632 569.79 46.3476C568.411 43.5903 567.722 40.4361 567.722 36.8849C567.722 33.3756 568.411 30.2632 569.79 27.5476C571.21 24.832 573.111 22.7432 575.492 21.2809C577.915 19.8187 580.61 19.0876 583.576 19.0876ZM595.044 37.0103C595.044 34.8796 594.627 33.0623 593.791 31.5583C592.955 30.0125 591.827 28.8427 590.407 28.0489C588.987 27.2134 587.462 26.7956 585.832 26.7956C584.203 26.7956 582.699 27.1925 581.32 27.9863C579.942 28.78 578.814 29.9498 577.936 31.4956C577.101 32.9996 576.683 34.796 576.683 36.8849C576.683 38.9738 577.101 40.812 577.936 42.3996C578.814 43.9454 579.942 45.1361 581.32 45.9716C582.741 46.8072 584.245 47.2249 585.832 47.2249C587.462 47.2249 588.987 46.8281 590.407 46.0343C591.827 45.1987 592.955 44.0289 593.791 42.5249C594.627 40.9792 595.044 39.1409 595.044 37.0103Z" fill="#11243E"/>
<defs>
<linearGradient id="paint0_linear_5723_5917" x1="59.7714" y1="70.2242" x2="15.5429" y2="3.70989" gradientUnits="userSpaceOnUse">
<stop stop-color="#FFA768"/>
<stop offset="0.6986" stop-color="#FF8787"/>
</linearGradient>
</defs>
</svg>
