<svg width="2397" height="507" viewBox="0 0 2397 507" fill="none" xmlns="http://www.w3.org/2000/svg">
<path d="M253.775 313.365C253.775 360.739 215.371 399.142 167.998 399.142C120.624 399.142 82.2207 360.739 82.2207 313.365C82.2207 265.992 120.624 227.588 167.998 227.588C215.371 227.588 253.775 265.992 253.775 313.365Z" fill="#75DC66"/>
<path d="M31.875 206.147C31.875 153.109 74.8705 110.114 127.908 110.114H181.053V302.18H127.908C74.8705 302.18 31.875 259.184 31.875 206.147Z" fill="#5BCC5A"/>
<path d="M181.051 110.111L373.249 27.9752C385.551 22.7177 399.224 31.7434 399.224 45.1223V367.166C399.224 380.544 385.551 389.57 373.249 384.313L181.051 302.177V110.111Z" fill="#5BCC5A"/>
<path d="M181.052 228.573L181.051 302.177L127.908 302.18C112.446 302.18 97.8359 298.524 84.8969 292.032C94.3801 254.978 127.991 227.587 168 227.587C172.438 227.587 176.796 227.924 181.052 228.573Z" fill="#0DA84C"/>
<path d="M251.668 332.352L181.051 302.177L181.052 228.573C222.23 234.861 253.775 270.43 253.775 313.365C253.775 319.891 253.048 326.244 251.668 332.352Z" fill="#0DA84C"/>
<path d="M506.358 285.232C506.358 261.478 511.663 240.26 522.272 221.58C533.111 202.668 547.756 188.024 566.206 177.645C584.886 167.037 605.758 161.732 628.82 161.732C655.803 161.732 679.442 168.651 699.737 182.489C720.032 196.326 734.216 215.468 742.288 239.914H686.592C681.057 228.383 673.216 219.735 663.068 213.969C653.151 208.203 641.62 205.32 628.474 205.32C614.406 205.32 601.837 208.665 590.767 215.353C579.928 221.81 571.395 231.035 565.168 243.028C559.172 255.02 556.173 269.088 556.173 285.232C556.173 301.145 559.172 315.213 565.168 327.436C571.395 339.429 579.928 348.769 590.767 355.457C601.837 361.915 614.406 365.144 628.474 365.144C641.62 365.144 653.151 362.261 663.068 356.495C673.216 350.499 681.057 341.735 686.592 330.204H742.288C734.216 354.881 720.032 374.138 699.737 387.975C679.673 401.582 656.034 408.386 628.82 408.386C605.758 408.386 584.886 403.197 566.206 392.819C547.756 382.21 533.111 367.565 522.272 348.885C511.663 330.204 506.358 308.986 506.358 285.232Z" fill="black"/>
<path d="M884.668 211.893C899.197 211.893 912.112 215.122 923.413 221.58C934.714 227.806 943.477 237.147 949.704 249.6C956.162 261.824 959.391 276.584 959.391 293.88V406.31H910.959V300.453C910.959 285.232 907.154 273.585 899.543 265.514C891.933 257.211 881.555 253.06 868.409 253.06C855.033 253.06 844.424 257.211 836.583 265.514C828.972 273.585 825.167 285.232 825.167 300.453V406.31H776.736V150.316H825.167V238.53C831.394 230.228 839.696 223.77 850.074 219.158C860.452 214.315 871.984 211.893 884.668 211.893Z" fill="black"/>
<path d="M986.074 309.794C986.074 290.421 989.879 273.24 997.49 258.249C1005.33 243.258 1015.82 231.727 1028.97 223.655C1042.35 215.583 1057.22 211.547 1073.6 211.547C1087.89 211.547 1100.35 214.43 1110.96 220.196C1121.8 225.961 1130.44 233.226 1136.9 241.99V214.661H1185.68V406.31H1136.9V378.289C1130.68 387.284 1122.03 394.779 1110.96 400.775C1100.12 406.541 1087.55 409.424 1073.25 409.424C1057.11 409.424 1042.35 405.272 1028.97 396.97C1015.82 388.667 1005.33 377.021 997.49 362.03C989.879 346.809 986.074 329.397 986.074 309.794ZM1136.9 310.485C1136.9 298.724 1134.6 288.691 1129.98 280.389C1125.37 271.856 1119.14 265.398 1111.3 261.016C1103.46 256.404 1095.04 254.098 1086.05 254.098C1077.06 254.098 1068.75 256.289 1061.14 260.67C1053.53 265.052 1047.3 271.51 1042.46 280.043C1037.85 288.345 1035.54 298.262 1035.54 309.794C1035.54 321.325 1037.85 331.472 1042.46 340.236C1047.3 348.769 1053.53 355.342 1061.14 359.955C1068.98 364.567 1077.29 366.873 1086.05 366.873C1095.04 366.873 1103.46 364.682 1111.3 360.3C1119.14 355.688 1125.37 349.23 1129.98 340.928C1134.6 332.395 1136.9 322.247 1136.9 310.485Z" fill="black"/>
<path d="M1332.27 211.893C1355.1 211.893 1373.55 219.158 1387.62 233.687C1401.68 247.986 1408.72 268.05 1408.72 293.88V406.31H1360.29V300.453C1360.29 285.232 1356.48 273.585 1348.87 265.514C1341.26 257.211 1330.88 253.06 1317.74 253.06C1304.36 253.06 1293.75 257.211 1285.91 265.514C1278.3 273.585 1274.49 285.232 1274.49 300.453V406.31H1226.06V214.661H1274.49V238.53C1280.95 230.228 1289.14 223.77 1299.06 219.158C1309.2 214.315 1320.27 211.893 1332.27 211.893Z" fill="black"/>
<path d="M1522.92 211.547C1537.22 211.547 1549.79 214.43 1560.63 220.196C1571.47 225.731 1580 232.995 1586.23 241.99V214.661H1635.01V407.694C1635.01 425.452 1631.43 441.25 1624.28 455.087C1617.13 469.155 1606.41 480.225 1592.11 488.297C1577.81 496.6 1560.51 500.751 1540.22 500.751C1513.01 500.751 1490.64 494.409 1473.11 481.725C1455.81 469.04 1446.01 451.743 1443.7 429.834H1491.79C1494.33 438.598 1499.74 445.516 1508.05 450.59C1516.58 455.895 1526.84 458.547 1538.84 458.547C1552.9 458.547 1564.32 454.28 1573.08 445.747C1581.85 437.445 1586.23 424.76 1586.23 407.694V377.943C1580 386.938 1571.35 394.433 1560.28 400.429C1549.44 406.425 1536.99 409.424 1522.92 409.424C1506.78 409.424 1492.02 405.272 1478.64 396.97C1465.27 388.667 1454.66 377.021 1446.82 362.03C1439.21 346.809 1435.4 329.397 1435.4 309.794C1435.4 290.421 1439.21 273.24 1446.82 258.249C1454.66 243.258 1465.15 231.727 1478.3 223.655C1491.67 215.583 1506.55 211.547 1522.92 211.547ZM1586.23 310.485C1586.23 298.724 1583.92 288.691 1579.31 280.389C1574.7 271.856 1568.47 265.398 1560.63 261.016C1552.79 256.404 1544.37 254.098 1535.38 254.098C1526.38 254.098 1518.08 256.289 1510.47 260.67C1502.86 265.052 1496.63 271.51 1491.79 280.043C1487.18 288.345 1484.87 298.262 1484.87 309.794C1484.87 321.325 1487.18 331.472 1491.79 340.236C1496.63 348.769 1502.86 355.342 1510.47 359.955C1518.31 364.567 1526.61 366.873 1535.38 366.873C1544.37 366.873 1552.79 364.682 1560.63 360.3C1568.47 355.688 1574.7 349.23 1579.31 340.928C1583.92 332.395 1586.23 322.247 1586.23 310.485Z" fill="black"/>
<path d="M1853.55 306.334C1853.55 313.253 1853.09 319.48 1852.16 325.015H1712.06C1713.21 338.852 1718.05 349.692 1726.59 357.533C1735.12 365.374 1745.61 369.295 1758.07 369.295C1776.06 369.295 1788.86 361.569 1796.47 346.117H1848.7C1843.17 364.567 1832.56 379.788 1816.88 391.781C1801.2 403.543 1781.94 409.424 1759.11 409.424C1740.66 409.424 1724.05 405.388 1709.29 397.316C1694.76 389.013 1683.35 377.367 1675.04 362.376C1666.97 347.385 1662.94 330.089 1662.94 310.485C1662.94 290.652 1666.97 273.24 1675.04 258.249C1683.12 243.258 1694.42 231.727 1708.95 223.655C1723.47 215.583 1740.19 211.547 1759.11 211.547C1777.33 211.547 1793.58 215.468 1807.88 223.309C1822.41 231.15 1833.6 242.336 1841.44 256.865C1849.51 271.164 1853.55 287.654 1853.55 306.334ZM1803.39 292.497C1803.16 280.043 1798.66 270.126 1789.89 262.746C1781.13 255.135 1770.41 251.33 1757.72 251.33C1745.73 251.33 1735.58 255.02 1727.28 262.4C1719.21 269.55 1714.25 279.582 1712.4 292.497H1803.39Z" fill="black"/>
<path d="M1930.41 150.316V406.31H1881.98V150.316H1930.41Z" fill="black"/>
<path d="M2056.44 409.424C2037.99 409.424 2021.39 405.388 2006.63 397.316C1991.87 389.013 1980.22 377.367 1971.69 362.376C1963.39 347.385 1959.23 330.089 1959.23 310.485C1959.23 290.882 1963.5 273.585 1972.03 258.595C1980.8 243.604 1992.67 232.073 2007.67 224.001C2022.66 215.699 2039.38 211.547 2057.83 211.547C2076.28 211.547 2093 215.699 2107.99 224.001C2122.98 232.073 2134.74 243.604 2143.27 258.595C2152.04 273.585 2156.42 290.882 2156.42 310.485C2156.42 330.089 2151.92 347.385 2142.93 362.376C2134.16 377.367 2122.17 389.013 2106.95 397.316C2091.96 405.388 2075.12 409.424 2056.44 409.424ZM2056.44 367.219C2065.21 367.219 2073.39 365.144 2081 360.992C2088.84 356.61 2095.07 350.153 2099.68 341.62C2104.3 333.087 2106.6 322.709 2106.6 310.485C2106.6 292.266 2101.76 278.313 2092.07 268.627C2082.62 258.71 2070.97 253.752 2057.13 253.752C2043.3 253.752 2031.65 258.71 2022.19 268.627C2012.97 278.313 2008.36 292.266 2008.36 310.485C2008.36 328.705 2012.85 342.773 2021.85 352.69C2031.07 362.376 2042.6 367.219 2056.44 367.219Z" fill="black"/>
<path d="M2260.09 211.547C2274.39 211.547 2286.96 214.43 2297.8 220.196C2308.64 225.731 2317.17 232.995 2323.4 241.99V214.661H2372.18V407.694C2372.18 425.452 2368.6 441.25 2361.45 455.087C2354.3 469.155 2343.58 480.225 2329.28 488.297C2314.98 496.6 2297.69 500.751 2277.39 500.751C2250.18 500.751 2227.81 494.409 2210.28 481.725C2192.98 469.04 2183.18 451.743 2180.87 429.834H2228.96C2231.5 438.598 2236.92 445.516 2245.22 450.59C2253.75 455.895 2264.01 458.547 2276.01 458.547C2290.08 458.547 2301.49 454.28 2310.25 445.747C2319.02 437.445 2323.4 424.76 2323.4 407.694V377.943C2317.17 386.938 2308.53 394.433 2297.46 400.429C2286.62 406.425 2274.16 409.424 2260.09 409.424C2243.95 409.424 2229.19 405.272 2215.81 396.97C2202.44 388.667 2191.83 377.021 2183.99 362.03C2176.38 346.809 2172.57 329.397 2172.57 309.794C2172.57 290.421 2176.38 273.24 2183.99 258.249C2191.83 243.258 2202.32 231.727 2215.47 223.655C2228.84 215.583 2243.72 211.547 2260.09 211.547ZM2323.4 310.485C2323.4 298.724 2321.09 288.691 2316.48 280.389C2311.87 271.856 2305.64 265.398 2297.8 261.016C2289.96 256.404 2281.54 254.098 2272.55 254.098C2263.55 254.098 2255.25 256.289 2247.64 260.67C2240.03 265.052 2233.8 271.51 2228.96 280.043C2224.35 288.345 2222.04 298.262 2222.04 309.794C2222.04 321.325 2224.35 331.472 2228.96 340.236C2233.8 348.769 2240.03 355.342 2247.64 359.955C2255.48 364.567 2263.78 366.873 2272.55 366.873C2281.54 366.873 2289.96 364.682 2297.8 360.3C2305.64 355.688 2311.87 349.23 2316.48 340.928C2321.09 332.395 2323.4 322.247 2323.4 310.485Z" fill="black"/>
<path d="M688.677 76.5291C688.677 79.1194 688.505 81.4507 688.16 83.5229H635.748C636.179 88.7036 637.991 92.7618 641.183 95.6975C644.375 98.6332 648.301 100.101 652.96 100.101C659.689 100.101 664.477 97.2085 667.324 91.4235H686.866C684.795 98.331 680.826 104.03 674.96 108.52C669.093 112.923 661.889 115.125 653.348 115.125C646.446 115.125 640.234 113.614 634.713 110.592C629.277 107.484 625.007 103.123 621.901 97.5107C618.881 91.8984 617.371 85.4225 617.371 78.0833C617.371 70.6576 618.881 64.1386 621.901 58.5262C624.92 52.9139 629.148 48.5966 634.583 45.5746C640.018 42.5525 646.273 41.0415 653.348 41.0415C660.164 41.0415 666.246 42.5094 671.595 45.4451C677.03 48.3808 681.215 52.5685 684.148 58.0082C687.168 63.3615 688.677 69.5352 688.677 76.5291ZM669.913 71.3484C669.826 66.6858 668.144 62.973 664.866 60.21C661.587 57.3606 657.575 55.9359 652.83 55.9359C648.344 55.9359 644.548 57.3174 641.442 60.0804C638.422 62.7571 636.568 66.5131 635.877 71.3484H669.913Z" fill="black"/>
<path d="M768.549 76.5291C768.549 79.1194 768.376 81.4507 768.031 83.5229H715.619C716.051 88.7036 717.862 92.7618 721.055 95.6975C724.247 98.6332 728.172 100.101 732.831 100.101C739.56 100.101 744.349 97.2085 747.196 91.4235H766.737C764.666 98.331 760.698 104.03 754.831 108.52C748.964 112.923 741.76 115.125 733.219 115.125C726.317 115.125 720.106 113.614 714.584 110.592C709.149 107.484 704.878 103.123 701.772 97.5107C698.753 91.8984 697.243 85.4225 697.243 78.0833C697.243 70.6576 698.753 64.1386 701.772 58.5262C704.792 52.9139 709.019 48.5966 714.455 45.5746C719.89 42.5525 726.145 41.0415 733.219 41.0415C740.035 41.0415 746.117 42.5094 751.466 45.4451C756.902 48.3808 761.086 52.5685 764.019 58.0082C767.039 63.3615 768.549 69.5352 768.549 76.5291ZM749.784 71.3484C749.698 66.6858 748.015 62.973 744.737 60.21C741.458 57.3606 737.447 55.9359 732.702 55.9359C728.215 55.9359 724.419 57.3174 721.313 60.0804C718.294 62.7571 716.439 66.5131 715.749 71.3484H749.784Z" fill="black"/>
<path d="M803.167 56.9622V91.9846C803.167 94.4022 803.805 95.9996 804.927 97.1221C806.134 98.1582 808.119 98.6763 810.879 98.6763H819.291V113.959H807.903C792.632 113.959 785.326 106.149 785.326 91.2979V56.9622H775.72V41.8545H785.326V24H803.167V41.8545H819.291V56.9622H803.167Z" fill="black"/>
<path d="M863.781 115.125C856.879 115.125 850.667 113.614 845.145 110.592C839.624 107.484 835.267 103.123 832.075 97.5107C828.969 91.8984 827.416 85.4225 827.416 78.0833C827.416 70.744 829.012 64.2681 832.204 58.6558C835.483 53.0434 839.926 48.7261 845.533 45.7041C851.141 42.5957 857.396 41.0415 864.298 41.0415C871.2 41.0415 877.455 42.5957 883.063 45.7041C888.671 48.7261 893.071 53.0434 896.263 58.6558C899.541 64.2681 901.181 70.744 901.181 78.0833C901.181 85.4225 899.498 91.8984 896.133 97.5107C892.855 103.123 888.369 107.484 882.675 110.592C877.067 113.614 870.769 115.125 863.781 115.125ZM863.781 99.324C867.059 99.324 870.122 98.5469 872.969 96.9927C875.902 95.3521 878.232 92.9345 879.957 89.7397C881.683 86.545 882.545 82.6595 882.545 78.0833C882.545 71.262 880.733 66.0382 877.11 62.4117C873.573 58.6989 869.216 56.8425 864.039 56.8425C858.863 56.8425 854.506 58.6989 850.969 62.4117C847.518 66.0382 845.792 71.262 845.792 78.0833C845.792 84.9045 847.475 90.1715 850.839 93.8843C854.29 97.5107 858.604 99.324 863.781 99.324Z" fill="black"/>
<path d="M602.069 24H567.288L602.069 76.1708V24Z" fill="black"/>
<path d="M515.812 115.125L515.813 24H540.929L602.069 115.125H576.22L535.986 55.9981V115.125H515.812Z" fill="black"/>
</svg>
