<svg width="507" height="64" viewBox="0 0 507 64" fill="none" xmlns="http://www.w3.org/2000/svg">
<path d="M56 31.9956C56 18.7408 45.2548 7.99561 32 7.99561H8V55.9956H56V31.9956Z" fill="url(#paint0_linear_5723_5744)"/>
<rect x="18.7988" y="21.1954" width="6.00151" height="6.00151" rx="1.25031" fill="white"/>
<rect x="25.5508" y="21.1954" width="6.00151" height="6.00151" rx="1.25031" fill="white"/>
<rect x="32.3008" y="21.1954" width="6.00151" height="6.00151" rx="1.25031" fill="white"/>
<rect x="39.0527" y="21.1954" width="6.00151" height="6.00151" rx="1.25031" fill="white"/>
<rect x="18.7988" y="27.9467" width="6.00151" height="6.00151" rx="1.25031" fill="white"/>
<rect x="25.5508" y="27.9467" width="6.00151" height="6.00151" rx="1.25031" fill="white"/>
<rect x="32.3008" y="27.9467" width="6.00151" height="6.00151" rx="1.25031" fill="white"/>
<rect x="18.7988" y="34.6978" width="6.00151" height="6.00151" rx="1.25031" fill="white"/>
<rect x="25.5508" y="34.6978" width="6.00151" height="6.00151" rx="1.25031" fill="white"/>
<rect x="18.7988" y="41.4501" width="6.00151" height="6.00151" rx="1.25031" fill="white"/>
<path fill-rule="evenodd" clip-rule="evenodd" d="M98.0873 19.6226H81.2401L89.5759 27.8206H98.0873C103.452 27.8206 107.795 32.0714 107.795 37.3091V54.9956H116.175V37.3091C116.175 27.5385 108.074 19.6226 98.0873 19.6226ZM88.3794 29.0143L80 20.7734V54.9956H88.3794V29.0143ZM152.982 49.2125L147.664 43.7081L147.346 44.009C145.501 45.751 142.408 47.4336 138.135 47.4336C135.13 47.4336 132.814 46.6851 131.14 45.3898C129.593 44.1932 128.559 42.5034 128.047 40.4212H154.946L154.966 40.0092C155.249 34.1373 153.75 29.0399 150.686 25.4026C147.615 21.7575 143.007 19.6226 137.173 19.6226C126.87 19.6226 118.825 27.2122 118.825 37.3108C118.825 42.3842 120.728 46.8137 124.12 49.9734C127.511 53.1322 132.362 54.9956 138.216 54.9956C145.052 54.9956 149.48 52.663 152.679 49.5107L152.982 49.2125ZM191.807 49.2125L186.49 43.7081L186.171 44.009C184.326 45.751 181.233 47.4336 176.96 47.4336C173.955 47.4336 171.639 46.6851 169.965 45.3898C168.418 44.1932 167.385 42.5034 166.872 40.4212H193.771L193.791 40.0092C194.074 34.1373 192.575 29.0399 189.511 25.4026C186.44 21.7575 181.832 19.6226 175.999 19.6226C165.695 19.6226 157.65 27.2122 157.65 37.3108C157.65 42.3842 159.553 46.8137 162.945 49.9734C166.336 53.1322 171.187 54.9956 177.041 54.9956C183.877 54.9956 188.305 52.663 191.504 49.5107L191.807 49.2125ZM202.393 19.9201H196.475V27.4747H202.393V40.6664C202.393 45.9929 203.189 49.6241 205.443 51.9013C207.701 54.1821 211.311 54.9956 216.622 54.9956H218.175V47.2494H217.735C216.138 47.2494 214.91 47.1894 213.961 47.0123C213.015 46.8359 212.387 46.5505 211.95 46.1299C211.514 45.7103 211.22 45.1098 211.038 44.2073C210.856 43.2997 210.794 42.1261 210.794 40.5975V27.4747H218.175V19.9201H210.794V10.9956H202.393V19.9201ZM137.255 27.1083C139.961 27.1083 141.946 27.9051 143.34 29.205C144.632 30.4093 145.453 32.0787 145.846 34.0409H128.043C128.557 31.8916 129.603 30.2136 131.065 29.0494C132.642 27.7934 134.738 27.1083 137.255 27.1083ZM176.081 27.1083C178.786 27.1083 180.771 27.9051 182.165 29.205C183.457 30.4093 184.278 32.0787 184.672 34.0409H166.868C167.382 31.8916 168.428 30.2136 169.89 29.0494C171.467 27.7934 173.563 27.1083 176.081 27.1083ZM238.879 27.1239C244.469 27.1239 248.913 31.6936 248.913 37.3097C248.913 42.9246 244.469 47.4943 238.879 47.4943C233.291 47.4943 228.913 42.9284 228.913 37.3097C228.913 31.6898 233.291 27.1239 238.879 27.1239ZM238.879 19.6226C228.846 19.6226 220.825 27.3783 220.825 37.3097C220.825 47.1728 228.845 54.9956 238.879 54.9956C248.91 54.9956 257 47.175 257 37.3097C257 27.3761 248.909 19.6226 238.879 19.6226Z" fill="#11243E"/>
<path d="M295.222 24.1636C295.222 26.5032 294.658 28.6965 293.53 30.7436C292.443 32.7907 290.71 34.4409 288.328 35.6943C285.989 36.9476 283.022 37.5743 279.43 37.5743H272.098V54.3689H263.324V10.6276H279.43C282.814 10.6276 285.696 11.2125 288.078 12.3823C290.459 13.552 292.234 15.1605 293.404 17.2076C294.616 19.2547 295.222 21.5734 295.222 24.1636ZM279.054 30.4929C281.477 30.4929 283.273 29.9498 284.443 28.8636C285.613 27.7356 286.198 26.1689 286.198 24.1636C286.198 19.9023 283.816 17.7716 279.054 17.7716H272.098V30.4929H279.054Z" fill="#11243E"/>
<path d="M309.557 7.99561V54.3689H300.784V7.99561H309.557Z" fill="#11243E"/>
<path d="M315.303 36.8849C315.303 33.3756 315.992 30.2632 317.371 27.5476C318.791 24.832 320.692 22.7432 323.073 21.2809C325.496 19.8187 328.191 19.0876 331.157 19.0876C333.747 19.0876 336.003 19.6098 337.925 20.6543C339.889 21.6987 341.455 23.0147 342.625 24.6023V19.6516H351.461V54.3689H342.625V49.2929C341.497 50.9223 339.931 52.28 337.925 53.3663C335.962 54.4107 333.685 54.9329 331.095 54.9329C328.17 54.9329 325.496 54.1809 323.073 52.6769C320.692 51.1729 318.791 49.0632 317.371 46.3476C315.992 43.5903 315.303 40.4361 315.303 36.8849ZM342.625 37.0103C342.625 34.8796 342.207 33.0623 341.372 31.5583C340.536 30.0125 339.408 28.8427 337.988 28.0489C336.567 27.2134 335.043 26.7956 333.413 26.7956C331.784 26.7956 330.28 27.1925 328.901 27.9863C327.523 28.78 326.395 29.9498 325.517 31.4956C324.682 32.9996 324.264 34.796 324.264 36.8849C324.264 38.9738 324.682 40.812 325.517 42.3996C326.395 43.9454 327.523 45.1361 328.901 45.9716C330.322 46.8072 331.826 47.2249 333.413 47.2249C335.043 47.2249 336.567 46.8281 337.988 46.0343C339.408 45.1987 340.536 44.0289 341.372 42.5249C342.207 40.9792 342.625 39.1409 342.625 37.0103Z" fill="#11243E"/>
<path d="M378.602 19.1503C382.738 19.1503 386.08 20.4663 388.629 23.0983C391.177 25.6885 392.451 29.3232 392.451 34.0023V54.3689H383.678V35.1929C383.678 32.4356 382.989 30.3258 381.61 28.8636C380.231 27.3596 378.351 26.6076 375.97 26.6076C373.547 26.6076 371.625 27.3596 370.205 28.8636C368.826 30.3258 368.137 32.4356 368.137 35.1929V54.3689H359.363V19.6516H368.137V23.9756C369.306 22.4716 370.79 21.3018 372.586 20.4663C374.424 19.5889 376.43 19.1503 378.602 19.1503Z" fill="#11243E"/>
<path d="M419.366 19.1503C423.502 19.1503 426.845 20.4663 429.393 23.0983C431.941 25.6885 433.216 29.3232 433.216 34.0023V54.3689H424.442V35.1929C424.442 32.4356 423.753 30.3258 422.374 28.8636C420.996 27.3596 419.116 26.6076 416.734 26.6076C414.311 26.6076 412.389 27.3596 410.969 28.8636C409.59 30.3258 408.901 32.4356 408.901 35.1929V54.3689H400.128V19.6516H408.901V23.9756C410.071 22.4716 411.554 21.3018 413.35 20.4663C415.189 19.5889 417.194 19.1503 419.366 19.1503Z" fill="#11243E"/>
<path d="M473.165 36.2583C473.165 37.5116 473.082 38.6396 472.915 39.6423H447.535C447.743 42.1489 448.621 44.1125 450.167 45.5329C451.712 46.9534 453.613 47.6636 455.869 47.6636C459.128 47.6636 461.447 46.2641 462.825 43.4649H472.288C471.285 46.8072 469.363 49.5645 466.523 51.7369C463.682 53.8676 460.193 54.9329 456.057 54.9329C452.715 54.9329 449.707 54.2018 447.033 52.7396C444.401 51.2356 442.333 49.1258 440.829 46.4103C439.367 43.6947 438.636 40.5614 438.636 37.0103C438.636 33.4174 439.367 30.2632 440.829 27.5476C442.291 24.832 444.339 22.7432 446.971 21.2809C449.603 19.8187 452.631 19.0876 456.057 19.0876C459.358 19.0876 462.303 19.7978 464.893 21.2183C467.525 22.6387 469.551 24.6649 470.972 27.2969C472.434 29.8872 473.165 32.8743 473.165 36.2583ZM464.079 33.7516C464.037 31.4956 463.222 29.6992 461.635 28.3623C460.047 26.9836 458.104 26.2943 455.807 26.2943C453.634 26.2943 451.796 26.9627 450.292 28.2996C448.83 29.5947 447.931 31.412 447.597 33.7516H464.079Z" fill="#11243E"/>
<path d="M487.676 25.0409C488.804 23.2027 490.266 21.7614 492.062 20.7169C493.901 19.6725 495.989 19.1503 498.329 19.1503V28.3623H496.01C493.253 28.3623 491.164 29.0098 489.744 30.3049C488.365 31.6 487.676 33.8561 487.676 37.0729V54.3689H478.902V19.6516H487.676V25.0409Z" fill="#11243E"/>
<defs>
<linearGradient id="paint0_linear_5723_5744" x1="32" y1="7.99561" x2="32" y2="55.9956" gradientUnits="userSpaceOnUse">
<stop stop-color="#4DC8C3"/>
<stop offset="1" stop-color="#52A9C6"/>
</linearGradient>
</defs>
</svg>
