<svg width="425" height="64" viewBox="0 0 425 64" fill="none" xmlns="http://www.w3.org/2000/svg">
<path d="M56 32C56 18.7452 45.2548 8 32 8H8V56H56V32Z" fill="url(#paint0_linear_5723_5649)"/>
<rect x="27.0215" y="31.412" width="16.0959" height="4.38979" rx="2.1949" fill="white"/>
<rect x="27.0215" y="38.728" width="12.4377" height="4.38979" rx="2.1949" fill="white"/>
<rect x="27.0215" y="24.0958" width="11.7061" height="4.38979" rx="2.1949" fill="white"/>
<circle cx="22.6304" cy="26.2907" r="2.1949" fill="white"/>
<circle cx="22.6304" cy="33.6069" r="2.1949" fill="white"/>
<circle cx="22.6304" cy="40.9229" r="2.1949" fill="white"/>
<path fill-rule="evenodd" clip-rule="evenodd" d="M98.0873 20.627H81.2401L89.5759 28.825H98.0873C103.452 28.825 107.795 33.0758 107.795 38.3135V56H116.175V38.3135C116.175 28.5429 108.074 20.627 98.0873 20.627ZM88.3794 30.0187L80 21.7778V56H88.3794V30.0187ZM152.982 50.2169L147.664 44.7125L147.346 45.0134C145.501 46.7554 142.408 48.438 138.135 48.438C135.13 48.438 132.814 47.6895 131.14 46.3942C129.593 45.1976 128.559 43.5078 128.047 41.4256H154.946L154.966 41.0135C155.249 35.1417 153.75 30.0443 150.686 26.407C147.615 22.7619 143.007 20.627 137.173 20.627C126.87 20.627 118.825 28.2166 118.825 38.3152C118.825 43.3885 120.728 47.8181 124.12 50.9778C127.511 54.1365 132.362 56 138.216 56C145.052 56 149.48 53.6674 152.679 50.5151L152.982 50.2169ZM191.807 50.2169L186.49 44.7125L186.171 45.0134C184.326 46.7554 181.233 48.438 176.96 48.438C173.955 48.438 171.639 47.6895 169.965 46.3942C168.418 45.1976 167.385 43.5078 166.872 41.4256H193.771L193.791 41.0135C194.074 35.1417 192.575 30.0443 189.511 26.407C186.44 22.7619 181.832 20.627 175.999 20.627C165.695 20.627 157.65 28.2166 157.65 38.3152C157.65 43.3885 159.553 47.8181 162.945 50.9778C166.336 54.1365 171.187 56 177.041 56C183.877 56 188.305 53.6674 191.504 50.5151L191.807 50.2169ZM202.393 20.9245H196.475V28.4791H202.393V41.6708C202.393 46.9973 203.189 50.6285 205.443 52.9057C207.7 55.1865 211.311 56 216.622 56H218.175V48.2538H217.735C216.138 48.2538 214.91 48.1938 213.961 48.0167C213.015 47.8403 212.387 47.5548 211.95 47.1343C211.514 46.7147 211.22 46.1142 211.038 45.2117C210.856 44.3041 210.794 43.1305 210.794 41.6019V28.4791H218.175V20.9245H210.794V12H202.393V20.9245ZM137.255 28.1127C139.961 28.1127 141.946 28.9095 143.34 30.2094C144.632 31.4137 145.453 33.0831 145.846 35.0453H128.043C128.557 32.8959 129.603 31.218 131.065 30.0538C132.642 28.7977 134.738 28.1127 137.255 28.1127ZM176.081 28.1127C178.786 28.1127 180.771 28.9095 182.165 30.2094C183.457 31.4137 184.278 33.0831 184.672 35.0453H166.868C167.382 32.8959 168.428 31.218 169.89 30.0538C171.467 28.7977 173.563 28.1127 176.081 28.1127ZM238.879 28.1283C244.469 28.1283 248.913 32.698 248.913 38.3141C248.913 43.929 244.469 48.4986 238.879 48.4986C233.291 48.4986 228.913 43.9328 228.913 38.3141C228.913 32.6942 233.291 28.1283 238.879 28.1283ZM238.879 20.627C228.846 20.627 220.825 28.3827 220.825 38.3141C220.825 48.1772 228.845 56 238.879 56C248.91 56 257 48.1793 257 38.3141C257 28.3805 248.909 20.627 238.879 20.627Z" fill="#11243E"/>
<path d="M290.009 11.6947V18.776H271.773V29.9934H285.748V36.9494H271.773V55.436H263V11.6947H290.009Z" fill="#11243E"/>
<path d="M310.98 56C307.638 56 304.63 55.2689 301.956 53.8067C299.282 52.3027 297.172 50.1929 295.626 47.4774C294.122 44.7618 293.37 41.6285 293.37 38.0774C293.37 34.5263 294.143 31.3929 295.689 28.6774C297.277 25.9618 299.428 23.8729 302.144 22.4107C304.859 20.9067 307.888 20.1547 311.23 20.1547C314.573 20.1547 317.602 20.9067 320.317 22.4107C323.033 23.8729 325.163 25.9618 326.709 28.6774C328.297 31.3929 329.09 34.5263 329.09 38.0774C329.09 41.6285 328.276 44.7618 326.646 47.4774C325.059 50.1929 322.886 52.3027 320.129 53.8067C317.414 55.2689 314.364 56 310.98 56ZM310.98 48.3547C312.567 48.3547 314.05 47.9787 315.429 47.2267C316.85 46.4329 317.978 45.2631 318.813 43.7174C319.649 42.1716 320.066 40.2916 320.066 38.0774C320.066 34.7769 319.189 32.2494 317.434 30.4947C315.722 28.6983 313.612 27.8 311.105 27.8C308.598 27.8 306.489 28.6983 304.776 30.4947C303.105 32.2494 302.269 34.7769 302.269 38.0774C302.269 41.3778 303.084 43.9263 304.713 45.7227C306.384 47.4774 308.473 48.3547 310.98 48.3547Z" fill="#11243E"/>
<path d="M343.633 26.108C344.761 24.2698 346.223 22.8285 348.019 21.784C349.858 20.7396 351.946 20.2174 354.286 20.2174V29.4294H351.967C349.21 29.4294 347.121 30.0769 345.701 31.372C344.322 32.6671 343.633 34.9231 343.633 38.14V55.436H334.859V20.7187H343.633V26.108Z" fill="#11243E"/>
<path d="M402.643 20.2174C406.905 20.2174 410.33 21.5334 412.921 24.1654C415.553 26.7556 416.869 30.3903 416.869 35.0694V55.436H408.095V36.26C408.095 33.5445 407.406 31.4765 406.027 30.056C404.649 28.5938 402.769 27.8627 400.387 27.8627C398.006 27.8627 396.105 28.5938 394.685 30.056C393.306 31.4765 392.617 33.5445 392.617 36.26V55.436H383.843V36.26C383.843 33.5445 383.154 31.4765 381.775 30.056C380.397 28.5938 378.517 27.8627 376.135 27.8627C373.712 27.8627 371.79 28.5938 370.37 30.056C368.991 31.4765 368.302 33.5445 368.302 36.26V55.436H359.529V20.7187H368.302V24.9174C369.43 23.4551 370.871 22.3063 372.626 21.4707C374.422 20.6351 376.386 20.2174 378.517 20.2174C381.232 20.2174 383.655 20.8023 385.786 21.972C387.917 23.1 389.567 24.7294 390.737 26.86C391.865 24.8547 393.494 23.2463 395.625 22.0347C397.797 20.8231 400.137 20.2174 402.643 20.2174Z" fill="#11243E"/>
<defs>
<linearGradient id="paint0_linear_5723_5649" x1="33.5701" y1="75.2897" x2="33.3458" y2="13.6075" gradientUnits="userSpaceOnUse">
<stop stop-color="#E26682"/>
<stop offset="1" stop-color="#FE8072"/>
</linearGradient>
</defs>
</svg>
