<svg width="1639" height="459" viewBox="0 0 1639 459" fill="none" xmlns="http://www.w3.org/2000/svg">
<path fill-rule="evenodd" clip-rule="evenodd" d="M315.777 118.725C310.267 113.216 304.132 108.093 297.476 103.492L300.375 62.8826C300.835 56.4354 296.636 50.5756 290.383 48.9391L240.469 35.8764C234.328 34.2692 227.9 37.1833 225.062 42.8616L206.628 79.7415C190.472 81.2454 174.628 85.5339 160.184 92.3241L126.552 70.0239C121.229 66.4944 114.157 67.2036 109.64 71.7198L72.7196 108.641C68.2038 113.156 67.4943 120.229 71.0232 125.551L93.3099 159.168C86.4155 173.746 82.2164 189.322 80.7124 205.627L43.8586 224.06C38.1821 226.899 35.2695 233.326 36.8764 239.466L49.9397 289.382C51.5762 295.635 57.436 299.835 63.8832 299.374L104.493 296.475C109.094 303.132 114.216 309.267 119.726 314.776C125.235 320.286 131.37 325.408 138.026 330.009L135.127 370.619C134.667 377.066 138.866 382.926 145.119 384.562L195.033 397.625C201.175 399.232 207.602 396.318 210.44 390.64L228.874 353.76C245.031 352.256 260.875 347.967 275.319 341.177L308.95 363.477C314.273 367.007 321.346 366.298 325.862 361.782L362.783 324.861C367.298 320.345 368.008 313.273 364.479 307.95L342.192 274.333C349.072 259.77 353.286 244.179 354.79 227.874L391.653 209.454C397.332 206.616 400.247 200.188 398.64 194.046L385.577 144.134C383.941 137.881 378.081 133.682 371.634 134.142L331.024 137.041C326.408 130.37 321.286 124.235 315.777 118.725ZM269.868 268.868C241.129 297.607 194.373 297.607 165.634 268.868C136.895 240.129 136.895 193.372 165.634 164.633C194.373 135.894 241.129 135.894 269.868 164.633C298.607 193.372 298.607 240.129 269.868 268.868Z" fill="#5BCC5A"/>
<path d="M297.467 103.492C304.124 108.093 310.259 113.216 315.768 118.725C321.278 124.235 326.4 130.37 331.016 137.041L371.626 134.142C378.073 133.682 383.933 137.881 385.569 144.134L398.631 194.046C400.239 200.188 397.324 206.616 391.645 209.454L354.781 227.874C353.278 244.179 349.064 259.77 342.184 274.333L364.471 307.95C367.999 313.273 367.29 320.345 362.774 324.861L325.853 361.782C321.337 366.298 314.265 367.007 308.942 363.477L276.096 341.698L234.977 288.395C247.769 285.34 259.897 278.831 269.86 268.868C298.599 240.129 298.599 193.372 269.86 164.633C241.121 135.894 194.364 135.894 165.625 164.633C160.339 169.919 156.026 175.814 152.684 182.095L152.594 181.978L205.522 79.8479C205.888 79.811 206.254 79.7755 206.619 79.7415L225.053 42.8616C227.892 37.1833 234.319 34.2692 240.461 35.8764L290.375 48.9391C296.627 50.5756 300.827 56.4354 300.366 62.8826L297.467 103.492Z" fill="#75DC66"/>
<path d="M234.754 288.347L307.437 381.649C312.397 388.016 321.813 388.598 327.52 382.891L383.871 326.54C389.578 320.833 388.995 311.417 382.628 306.457L289.323 233.771C286.286 246.602 279.764 258.775 269.757 268.783C259.751 278.788 247.581 285.309 234.754 288.347Z" fill="#0DA84C"/>
<g clip-path="url(#clip0_746_2520)">
<path d="M682.632 165.219V204.31H618.287V406.684H569.856V204.31H505.512V165.219H682.632Z" fill="black"/>
<path d="M889.208 306.708C889.208 313.627 888.746 319.853 887.824 325.388H747.719C748.872 339.226 753.716 350.065 762.249 357.907C770.782 365.748 781.275 369.668 793.729 369.668C811.718 369.668 824.517 361.943 832.128 346.491H884.365C878.83 364.941 868.221 380.162 852.538 392.154C836.856 403.916 817.599 409.797 794.767 409.797C776.317 409.797 759.712 405.761 744.952 397.689C730.422 389.387 719.006 377.74 710.704 362.75C702.632 347.759 698.596 330.462 698.596 310.859C698.596 291.025 702.632 273.613 710.704 258.623C718.776 243.632 730.077 232.101 744.606 224.029C759.135 215.957 775.856 211.921 794.767 211.921C812.986 211.921 829.245 215.842 843.544 223.683C858.073 231.524 869.259 242.709 877.1 257.239C885.172 271.538 889.208 288.027 889.208 306.708ZM839.047 292.87C838.816 280.417 834.319 270.5 825.555 263.12C816.791 255.509 806.067 251.704 793.383 251.704C781.391 251.704 771.243 255.394 762.941 262.774C754.869 269.923 749.91 279.955 748.065 292.87H839.047Z" fill="black"/>
<path d="M990.978 409.797C975.296 409.797 961.228 407.03 948.774 401.495C936.32 395.729 926.403 388.003 919.023 378.317C911.874 368.631 907.953 357.907 907.261 346.145H956.039C956.961 353.525 960.536 359.636 966.763 364.479C973.22 369.323 981.177 371.744 990.632 371.744C999.857 371.744 1007.01 369.899 1012.08 366.209C1017.38 362.519 1020.04 357.791 1020.04 352.026C1020.04 345.799 1016.81 341.186 1010.35 338.188C1004.12 334.959 994.092 331.5 980.254 327.81C965.955 324.351 954.194 320.776 944.969 317.086C935.974 313.396 928.133 307.746 921.445 300.135C914.987 292.524 911.759 282.262 911.759 269.347C911.759 258.738 914.757 249.052 920.753 240.288C926.98 231.524 935.744 224.605 947.044 219.532C958.575 214.458 972.067 211.921 987.519 211.921C1010.35 211.921 1028.57 217.687 1042.18 229.218C1055.78 240.518 1063.28 255.855 1064.66 275.227H1018.31C1017.62 267.617 1014.39 261.621 1008.62 257.239C1003.09 252.626 995.591 250.32 986.135 250.32C977.371 250.32 970.568 251.934 965.725 255.163C961.112 258.392 958.806 262.889 958.806 268.655C958.806 275.112 962.035 280.071 968.492 283.53C974.95 286.759 984.982 290.103 998.589 293.562C1012.43 297.022 1023.84 300.596 1032.84 304.286C1041.83 307.976 1049.56 313.742 1056.01 321.583C1062.7 329.194 1066.16 339.341 1066.39 352.026C1066.39 363.096 1063.28 373.013 1057.05 381.776C1051.06 390.54 1042.29 397.459 1030.76 402.533C1019.46 407.376 1006.2 409.797 990.978 409.797Z" fill="black"/>
<path d="M1155.62 254.817V347.528C1155.62 353.986 1157.12 358.714 1160.11 361.712C1163.34 364.479 1168.65 365.863 1176.03 365.863H1198.51V406.684H1168.07C1127.25 406.684 1106.84 386.85 1106.84 347.183V254.817H1084.01V215.034H1106.84V167.641H1155.62V215.034H1198.51V254.817H1155.62Z" fill="black"/>
<path d="M1250.99 192.203C1242.46 192.203 1235.31 189.55 1229.54 184.246C1224.01 178.711 1221.24 171.907 1221.24 163.836C1221.24 155.764 1224.01 149.076 1229.54 143.771C1235.31 138.236 1242.46 135.469 1250.99 135.469C1259.52 135.469 1266.56 138.236 1272.09 143.771C1277.86 149.076 1280.74 155.764 1280.74 163.836C1280.74 171.907 1277.86 178.711 1272.09 184.246C1266.56 189.55 1259.52 192.203 1250.99 192.203ZM1274.86 215.034V406.684H1226.43V215.034H1274.86Z" fill="black"/>
<path d="M1403.66 254.817H1370.1V406.684H1320.98V254.817H1299.19V215.034H1320.98V205.348C1320.98 181.824 1327.67 164.528 1341.05 153.457C1354.42 142.387 1374.6 137.198 1401.58 137.89V178.711C1389.82 178.48 1381.64 180.441 1377.02 184.592C1372.41 188.743 1370.1 196.238 1370.1 207.078V215.034H1403.66V254.817Z" fill="black"/>
<path d="M1611.47 215.034L1492.82 497.319H1441.27L1482.79 401.841L1405.99 215.034H1460.3L1509.77 348.912L1559.93 215.034H1611.47Z" fill="black"/>
<path d="M689.24 76.1541C689.24 78.7444 689.067 81.0757 688.722 83.1479H636.31C636.742 88.3286 638.554 92.3868 641.746 95.3225C644.938 98.2582 648.863 99.7261 653.522 99.7261C660.252 99.7261 665.04 96.8335 667.887 91.0485H687.428C685.357 97.956 681.389 103.655 675.522 108.145C669.656 112.548 662.452 114.75 653.91 114.75C647.008 114.75 640.797 113.239 635.275 110.217C629.84 107.109 625.569 102.748 622.463 97.1357C619.444 91.5234 617.934 85.0475 617.934 77.7083C617.934 70.2826 619.444 63.7636 622.463 58.1512C625.483 52.5389 629.71 48.2216 635.146 45.1996C640.581 42.1775 646.836 40.6665 653.91 40.6665C660.726 40.6665 666.808 42.1344 672.157 45.0701C677.593 48.0058 681.777 52.1935 684.71 57.6332C687.73 62.9865 689.24 69.1602 689.24 76.1541ZM670.475 70.9734C670.389 66.3108 668.706 62.598 665.428 59.835C662.15 56.9856 658.138 55.5609 653.393 55.5609C648.906 55.5609 645.11 56.9424 642.005 59.7054C638.985 62.3821 637.13 66.1381 636.44 70.9734H670.475Z" fill="black"/>
<path d="M769.111 76.1541C769.111 78.7444 768.939 81.0757 768.594 83.1479H716.182C716.613 88.3286 718.425 92.3868 721.617 95.3225C724.809 98.2582 728.735 99.7261 733.394 99.7261C740.123 99.7261 744.911 96.8335 747.758 91.0485H767.299C765.229 97.956 761.26 103.655 755.394 108.145C749.527 112.548 742.323 114.75 733.782 114.75C726.88 114.75 720.668 113.239 715.146 110.217C709.711 107.109 705.441 102.748 702.335 97.1357C699.315 91.5234 697.805 85.0475 697.805 77.7083C697.805 70.2826 699.315 63.7636 702.335 58.1512C705.354 52.5389 709.582 48.2216 715.017 45.1996C720.452 42.1775 726.707 40.6665 733.782 40.6665C740.597 40.6665 746.68 42.1344 752.029 45.0701C757.464 48.0058 761.648 52.1935 764.582 57.6332C767.601 62.9865 769.111 69.1602 769.111 76.1541ZM750.346 70.9734C750.26 66.3108 748.578 62.598 745.299 59.835C742.021 56.9856 738.009 55.5609 733.264 55.5609C728.778 55.5609 724.982 56.9424 721.876 59.7054C718.856 62.3821 717.001 66.1381 716.311 70.9734H750.346Z" fill="black"/>
<path d="M803.729 56.5872V91.6096C803.729 94.0272 804.367 95.6246 805.489 96.7471C806.697 97.7832 808.681 98.3013 811.442 98.3013H819.854V113.584H808.466C793.195 113.584 785.889 105.774 785.889 90.9229V56.5872H776.283V41.4795H785.889V23.625H803.729V41.4795H819.854V56.5872H803.729Z" fill="black"/>
<path d="M864.343 114.75C857.441 114.75 851.229 113.239 845.708 110.217C840.186 107.109 835.829 102.748 832.637 97.1357C829.531 91.5234 827.978 85.0475 827.978 77.7083C827.978 70.369 829.574 63.8931 832.767 58.2808C836.045 52.6684 840.488 48.3511 846.096 45.3291C851.704 42.2207 857.959 40.6665 864.861 40.6665C871.763 40.6665 878.018 42.2207 883.625 45.3291C889.233 48.3511 893.633 52.6684 896.825 58.2808C900.104 63.8931 901.743 70.369 901.743 77.7083C901.743 85.0475 900.061 91.5234 896.696 97.1357C893.418 102.748 888.931 107.109 883.237 110.217C877.629 113.239 871.331 114.75 864.343 114.75ZM864.343 98.949C867.622 98.949 870.684 98.1719 873.531 96.6177C876.465 94.9771 878.794 92.5595 880.52 89.3647C882.245 86.17 883.108 82.2845 883.108 77.7083C883.108 70.887 881.296 65.6632 877.672 62.0367C874.135 58.3239 869.778 56.4675 864.602 56.4675C859.425 56.4675 855.069 58.3239 851.531 62.0367C848.08 65.6632 846.355 70.887 846.355 77.7083C846.355 84.5295 848.037 89.7965 851.402 93.5093C854.853 97.1357 859.167 98.949 864.343 98.949Z" fill="black"/>
<path d="M602.631 23.625H567.851L602.631 75.7958V23.625Z" fill="black"/>
<path d="M516.375 114.75L516.375 23.625H541.492L602.631 114.75H576.782L536.548 55.6231V114.75H516.375Z" fill="black"/>
</g>
<defs>
<clipPath id="clip0_746_2520">
<rect width="1123.88" height="459" fill="white" transform="translate(491.062)"/>
</clipPath>
</defs>
</svg>
