<svg width="1140" height="459" viewBox="0 0 1140 459" fill="none" xmlns="http://www.w3.org/2000/svg">
<path d="M30.6875 128.625C30.6875 109.985 45.7979 94.875 64.4375 94.875H364.812C383.452 94.875 398.562 109.985 398.562 128.625V159H30.6875V128.625Z" fill="#5BCC5A"/>
<path d="M30.6875 164.062H398.562V349.688C398.562 368.327 383.452 383.438 364.812 383.438H64.4375C45.7979 383.438 30.6875 368.327 30.6875 349.688V164.062Z" fill="#5BCC5A"/>
<path d="M272 67.875C272 58.5552 279.555 51 288.875 51H322.625C331.945 51 339.5 58.5552 339.5 67.875V273.328L305.75 312.562L272 273.328V67.875Z" fill="#0DA84C"/>
<path d="M272 67.875C272 58.5552 279.555 51 288.875 51H322.625C331.945 51 339.5 58.5552 339.5 67.875V164.062H272V67.875Z" fill="#75DC66"/>
<path d="M600.303 408.736C583.467 408.736 568.246 405.853 554.639 400.088C541.263 394.322 530.654 386.02 522.813 375.18C514.972 364.341 510.936 351.541 510.705 336.781H562.596C563.288 346.698 566.747 354.539 572.974 360.305C579.431 366.071 588.195 368.953 599.265 368.953C610.566 368.953 619.445 366.301 625.902 360.997C632.36 355.462 635.589 348.312 635.589 339.549C635.589 332.399 633.398 326.518 629.016 321.906C624.634 317.293 619.099 313.719 612.411 311.182C605.953 308.414 596.959 305.416 585.428 302.187C569.745 297.575 556.945 293.078 547.029 288.696C537.342 284.083 528.924 277.28 521.775 268.286C514.856 259.061 511.397 246.837 511.397 231.616C511.397 217.317 514.972 204.864 522.121 194.255C529.27 183.646 539.303 175.574 552.218 170.039C565.133 164.274 579.893 161.391 596.498 161.391C621.405 161.391 641.585 167.502 657.037 179.726C672.719 191.718 681.368 208.554 682.982 230.232H629.708C629.246 221.93 625.672 215.126 618.984 209.822C612.526 204.287 603.878 201.52 593.038 201.52C583.583 201.52 575.972 203.941 570.206 208.784C564.671 213.627 561.904 220.661 561.904 229.886C561.904 236.344 563.979 241.764 568.131 246.146C572.513 250.297 577.817 253.756 584.044 256.524C590.501 259.061 599.496 262.059 611.027 265.518C626.709 270.131 639.509 274.743 649.426 279.356C659.343 283.968 667.876 290.887 675.025 300.112C682.175 309.337 685.749 321.445 685.749 336.435C685.749 349.35 682.405 361.343 675.717 372.413C669.029 383.483 659.228 392.362 646.313 399.05C633.398 405.507 618.061 408.736 600.303 408.736Z" fill="black"/>
<path d="M745.38 191.833C736.847 191.833 729.698 189.181 723.932 183.877C718.397 178.342 715.63 171.538 715.63 163.466C715.63 155.395 718.397 148.706 723.932 143.402C729.698 137.867 736.847 135.1 745.38 135.1C753.914 135.1 760.948 137.867 766.483 143.402C772.248 148.706 775.131 155.395 775.131 163.466C775.131 171.538 772.248 178.342 766.483 183.877C760.948 189.181 753.914 191.833 745.38 191.833ZM769.25 214.665V406.315H720.819V214.665H769.25Z" fill="black"/>
<path d="M866.569 254.448V347.159C866.569 353.617 868.068 358.345 871.067 361.343C874.295 364.11 879.6 365.494 886.98 365.494H909.466V406.315H879.023C838.202 406.315 817.792 386.481 817.792 346.813V254.448H794.96V214.665H817.792V167.272H866.569V214.665H909.466V254.448H866.569Z" fill="black"/>
<path d="M1115.54 306.339C1115.54 313.257 1115.08 319.484 1114.16 325.019H974.051C975.204 338.857 980.047 349.696 988.58 357.537C997.113 365.379 1007.61 369.299 1020.06 369.299C1038.05 369.299 1050.85 361.573 1058.46 346.121H1110.7C1105.16 364.571 1094.55 379.793 1078.87 391.785C1063.19 403.547 1043.93 409.428 1021.1 409.428C1002.65 409.428 986.043 405.392 971.283 397.32C956.754 389.018 945.338 377.371 937.035 362.381C928.963 347.39 924.927 330.093 924.927 310.49C924.927 290.656 928.963 273.244 937.035 258.253C945.107 243.263 956.408 231.731 970.937 223.66C985.466 215.588 1002.19 211.552 1021.1 211.552C1039.32 211.552 1055.58 215.472 1069.88 223.314C1084.4 231.155 1095.59 242.34 1103.43 256.87C1111.5 271.168 1115.54 287.658 1115.54 306.339ZM1065.38 292.501C1065.15 280.047 1060.65 270.131 1051.89 262.751C1043.12 255.14 1032.4 251.335 1019.71 251.335C1007.72 251.335 997.574 255.025 989.272 262.405C981.2 269.554 976.241 279.586 974.396 292.501H1065.38Z" fill="black"/>
<path d="M686.177 76.5291C686.177 79.1194 686.005 81.4507 685.66 83.5229H633.248C633.679 88.7036 635.491 92.7618 638.683 95.6975C641.875 98.6332 645.801 100.101 650.46 100.101C657.189 100.101 661.977 97.2085 664.824 91.4235H684.366C682.295 98.331 678.326 104.03 672.46 108.52C666.593 112.923 659.389 115.125 650.848 115.125C643.946 115.125 637.734 113.614 632.213 110.592C626.777 107.484 622.507 103.123 619.401 97.5107C616.381 91.8984 614.871 85.4225 614.871 78.0833C614.871 70.6576 616.381 64.1386 619.401 58.5262C622.42 52.9139 626.648 48.5966 632.083 45.5746C637.518 42.5525 643.773 41.0415 650.848 41.0415C657.664 41.0415 663.746 42.5094 669.095 45.4451C674.53 48.3808 678.715 52.5685 681.648 58.0082C684.668 63.3615 686.177 69.5352 686.177 76.5291ZM667.413 71.3484C667.326 66.6858 665.644 62.973 662.366 60.21C659.087 57.3606 655.075 55.9359 650.33 55.9359C645.844 55.9359 642.048 57.3174 638.942 60.0804C635.922 62.7571 634.068 66.5131 633.377 71.3484H667.413Z" fill="black"/>
<path d="M766.049 76.5291C766.049 79.1194 765.876 81.4507 765.531 83.5229H713.119C713.551 88.7036 715.362 92.7618 718.555 95.6975C721.747 98.6332 725.672 100.101 730.331 100.101C737.06 100.101 741.849 97.2085 744.696 91.4235H764.237C762.166 98.331 758.198 104.03 752.331 108.52C746.464 112.923 739.26 115.125 730.719 115.125C723.817 115.125 717.606 113.614 712.084 110.592C706.649 107.484 702.378 103.123 699.272 97.5107C696.253 91.8984 694.743 85.4225 694.743 78.0833C694.743 70.6576 696.253 64.1386 699.272 58.5262C702.292 52.9139 706.519 48.5966 711.955 45.5746C717.39 42.5525 723.645 41.0415 730.719 41.0415C737.535 41.0415 743.617 42.5094 748.966 45.4451C754.402 48.3808 758.586 52.5685 761.519 58.0082C764.539 63.3615 766.049 69.5352 766.049 76.5291ZM747.284 71.3484C747.198 66.6858 745.515 62.973 742.237 60.21C738.958 57.3606 734.947 55.9359 730.202 55.9359C725.715 55.9359 721.919 57.3174 718.813 60.0804C715.794 62.7571 713.939 66.5131 713.249 71.3484H747.284Z" fill="black"/>
<path d="M800.667 56.9622V91.9846C800.667 94.4022 801.305 95.9996 802.427 97.1221C803.634 98.1582 805.619 98.6763 808.379 98.6763H816.791V113.959H805.403C790.132 113.959 782.826 106.149 782.826 91.2979V56.9622H773.22V41.8545H782.826V24H800.667V41.8545H816.791V56.9622H800.667Z" fill="black"/>
<path d="M861.281 115.125C854.379 115.125 848.167 113.614 842.645 110.592C837.124 107.484 832.767 103.123 829.575 97.5107C826.469 91.8984 824.916 85.4225 824.916 78.0833C824.916 70.744 826.512 64.2681 829.704 58.6558C832.983 53.0434 837.426 48.7261 843.033 45.7041C848.641 42.5957 854.896 41.0415 861.798 41.0415C868.7 41.0415 874.955 42.5957 880.563 45.7041C886.171 48.7261 890.571 53.0434 893.763 58.6558C897.041 64.2681 898.681 70.744 898.681 78.0833C898.681 85.4225 896.998 91.8984 893.633 97.5107C890.355 103.123 885.869 107.484 880.175 110.592C874.567 113.614 868.269 115.125 861.281 115.125ZM861.281 99.324C864.559 99.324 867.622 98.5469 870.469 96.9927C873.402 95.3521 875.732 92.9345 877.457 89.7397C879.183 86.545 880.045 82.6595 880.045 78.0833C880.045 71.262 878.233 66.0382 874.61 62.4117C871.073 58.6989 866.716 56.8425 861.539 56.8425C856.363 56.8425 852.006 58.6989 848.469 62.4117C845.018 66.0382 843.292 71.262 843.292 78.0833C843.292 84.9045 844.975 90.1715 848.339 93.8843C851.79 97.5107 856.104 99.324 861.281 99.324Z" fill="black"/>
<path d="M599.569 24H564.788L599.569 76.1708V24Z" fill="black"/>
<path d="M513.312 115.125L513.313 24H538.429L599.569 115.125H573.72L533.486 55.9981V115.125H513.312Z" fill="black"/>
</svg>
