<svg width="382" height="64" viewBox="0 0 382 64" fill="none" xmlns="http://www.w3.org/2000/svg">
<path d="M56 31.9956C56 18.7408 45.2548 7.99561 32 7.99561H8V55.9956H56V31.9956Z" fill="url(#paint0_linear_5723_5802)"/>
<g filter="url(#filter0_d_5723_5802)">
<path fill-rule="evenodd" clip-rule="evenodd" d="M42.1371 21.4019L42.171 21.3667H19.1201C18.4702 21.3667 17.9434 21.8935 17.9434 22.5435V24.3481H37.4002V24.6619H17.9434V41.6853C17.9434 42.3352 18.4702 42.8621 19.1201 42.8621H44.538C45.1879 42.8621 45.7148 42.3352 45.7148 41.6853V24.8473L42.1371 21.4019ZM41.3704 22.1977L34.473 29.3599L38.1868 32.9363L45.0841 25.7741L41.3704 22.1977ZM33.7263 30.1747L32.4986 35.1277L37.4019 33.7144L33.7263 30.1747ZM20.2973 22.9351C20.2973 23.195 20.0865 23.4058 19.8266 23.4058C19.5666 23.4058 19.3559 23.195 19.3559 22.9351C19.3559 22.6751 19.5666 22.4644 19.8266 22.4644C20.0865 22.4644 20.2973 22.6751 20.2973 22.9351ZM21.2398 23.4058C21.4998 23.4058 21.7105 23.195 21.7105 22.9351C21.7105 22.6751 21.4998 22.4644 21.2398 22.4644C20.9799 22.4644 20.7691 22.6751 20.7691 22.9351C20.7691 23.195 20.9799 23.4058 21.2398 23.4058ZM23.1215 22.9351C23.1215 23.195 22.9107 23.4058 22.6508 23.4058C22.3908 23.4058 22.1801 23.195 22.1801 22.9351C22.1801 22.6751 22.3908 22.4644 22.6508 22.4644C22.9107 22.4644 23.1215 22.6751 23.1215 22.9351Z" fill="white"/>
</g>
<path fill-rule="evenodd" clip-rule="evenodd" d="M98.0873 20.6226H81.2401L89.5759 28.8206H98.0873C103.452 28.8206 107.795 33.0714 107.795 38.3091V55.9956H116.175V38.3091C116.175 28.5385 108.074 20.6226 98.0873 20.6226ZM88.3794 30.0143L80 21.7734V55.9956H88.3794V30.0143ZM152.982 50.2125L147.664 44.7081L147.346 45.009C145.501 46.751 142.408 48.4336 138.135 48.4336C135.13 48.4336 132.814 47.6851 131.14 46.3898C129.593 45.1932 128.559 43.5034 128.047 41.4212H154.946L154.966 41.0092C155.249 35.1373 153.75 30.0399 150.686 26.4026C147.615 22.7575 143.007 20.6226 137.173 20.6226C126.87 20.6226 118.825 28.2122 118.825 38.3108C118.825 43.3842 120.728 47.8137 124.12 50.9734C127.511 54.1322 132.362 55.9956 138.216 55.9956C145.052 55.9956 149.48 53.663 152.679 50.5107L152.982 50.2125ZM191.807 50.2125L186.49 44.7081L186.171 45.009C184.326 46.751 181.233 48.4336 176.96 48.4336C173.955 48.4336 171.639 47.6851 169.965 46.3898C168.418 45.1932 167.385 43.5034 166.872 41.4212H193.771L193.791 41.0092C194.074 35.1373 192.575 30.0399 189.511 26.4026C186.44 22.7575 181.832 20.6226 175.999 20.6226C165.695 20.6226 157.65 28.2122 157.65 38.3108C157.65 43.3842 159.553 47.8137 162.945 50.9734C166.336 54.1322 171.187 55.9956 177.041 55.9956C183.877 55.9956 188.305 53.663 191.504 50.5107L191.807 50.2125ZM202.393 20.9201H196.475V28.4747H202.393V41.6664C202.393 46.9929 203.189 50.6241 205.443 52.9013C207.701 55.1821 211.311 55.9956 216.622 55.9956H218.175V48.2494H217.735C216.138 48.2494 214.91 48.1894 213.961 48.0123C213.015 47.8359 212.387 47.5505 211.95 47.1299C211.514 46.7103 211.22 46.1098 211.038 45.2073C210.856 44.2997 210.794 43.1261 210.794 41.5975V28.4747H218.175V20.9201H210.794V11.9956H202.393V20.9201ZM137.255 28.1083C139.961 28.1083 141.946 28.9051 143.34 30.205C144.632 31.4093 145.453 33.0787 145.846 35.0409H128.043C128.557 32.8916 129.603 31.2136 131.065 30.0494C132.642 28.7934 134.738 28.1083 137.255 28.1083ZM176.081 28.1083C178.786 28.1083 180.771 28.9051 182.165 30.205C183.457 31.4093 184.278 33.0787 184.672 35.0409H166.868C167.382 32.8916 168.428 31.2136 169.89 30.0494C171.467 28.7934 173.563 28.1083 176.081 28.1083ZM238.879 28.1239C244.469 28.1239 248.913 32.6936 248.913 38.3097C248.913 43.9246 244.469 48.4943 238.879 48.4943C233.291 48.4943 228.913 43.9284 228.913 38.3097C228.913 32.6898 233.291 28.1239 238.879 28.1239ZM238.879 20.6226C228.846 20.6226 220.825 28.3783 220.825 38.3097C220.825 48.1728 228.845 55.9956 238.879 55.9956C248.91 55.9956 257 48.175 257 38.3097C257 28.3761 248.909 20.6226 238.879 20.6226Z" fill="#11243E"/>
<path d="M278.231 55.8704C275.181 55.8704 272.424 55.3481 269.959 54.3037C267.536 53.2593 265.614 51.7553 264.193 49.7917C262.773 47.8281 262.042 45.5095 262 42.8357H271.4C271.525 44.6321 272.152 46.0526 273.28 47.097C274.45 48.1415 276.037 48.6637 278.043 48.6637C280.09 48.6637 281.698 48.1833 282.868 47.2224C284.038 46.2197 284.623 44.9246 284.623 43.337C284.623 42.0419 284.226 40.9766 283.432 40.141C282.638 39.3055 281.636 38.6579 280.424 38.1984C279.254 37.697 277.625 37.1539 275.536 36.569C272.695 35.7335 270.376 34.9188 268.58 34.125C266.825 33.2895 265.3 32.057 264.005 30.4277C262.752 28.7566 262.125 26.5424 262.125 23.785C262.125 21.1948 262.773 18.9388 264.068 17.017C265.363 15.0952 267.18 13.633 269.52 12.6304C271.86 11.5859 274.533 11.0637 277.541 11.0637C282.053 11.0637 285.709 12.1708 288.508 14.385C291.349 16.5575 292.916 19.6072 293.208 23.5344H283.557C283.474 22.0304 282.826 20.7979 281.615 19.837C280.445 18.8344 278.878 18.333 276.915 18.333C275.202 18.333 273.823 18.7717 272.779 19.649C271.776 20.5264 271.275 21.8006 271.275 23.4717C271.275 24.6415 271.651 25.6232 272.403 26.417C273.196 27.169 274.157 27.7957 275.285 28.297C276.455 28.7566 278.084 29.2997 280.173 29.9264C283.014 30.7619 285.333 31.5975 287.129 32.433C288.926 33.2686 290.472 34.5219 291.767 36.193C293.062 37.8641 293.709 40.0575 293.709 42.773C293.709 45.1126 293.104 47.285 291.892 49.2904C290.68 51.2957 288.905 52.9041 286.565 54.1157C284.226 55.2855 281.448 55.8704 278.231 55.8704Z" fill="#11243E"/>
<path d="M305.098 16.5784C303.552 16.5784 302.257 16.0979 301.213 15.137C300.21 14.1344 299.709 12.9019 299.709 11.4397C299.709 9.97747 300.21 8.76591 301.213 7.80502C302.257 6.80236 303.552 6.30103 305.098 6.30103C306.644 6.30103 307.918 6.80236 308.921 7.80502C309.965 8.76591 310.487 9.97747 310.487 11.4397C310.487 12.9019 309.965 14.1344 308.921 15.137C307.918 16.0979 306.644 16.5784 305.098 16.5784ZM309.422 20.7144V55.4317H300.649V20.7144H309.422Z" fill="#11243E"/>
<path d="M327.638 27.921V44.7157C327.638 45.8855 327.91 46.7419 328.453 47.285C329.038 47.7864 329.999 48.037 331.336 48.037H335.409V55.4317H329.894C322.5 55.4317 318.802 51.8388 318.802 44.653V27.921H314.666V20.7144H318.802V12.129H327.638V20.7144H335.409V27.921H327.638Z" fill="#11243E"/>
<path d="M373.326 37.321C373.326 38.5744 373.242 39.7024 373.075 40.705H347.695C347.904 43.2117 348.781 45.1753 350.327 46.5957C351.873 48.0161 353.774 48.7264 356.03 48.7264C359.288 48.7264 361.607 47.3268 362.986 44.5277H372.448C371.446 47.8699 369.524 50.6272 366.683 52.7997C363.842 54.9304 360.354 55.9957 356.218 55.9957C352.876 55.9957 349.868 55.2646 347.194 53.8024C344.562 52.2984 342.494 50.1886 340.99 47.473C339.528 44.7575 338.796 41.6241 338.796 38.073C338.796 34.4801 339.528 31.3259 340.99 28.6104C342.452 25.8948 344.499 23.8059 347.131 22.3437C349.763 20.8815 352.792 20.1504 356.218 20.1504C359.518 20.1504 362.464 20.8606 365.054 22.281C367.686 23.7015 369.712 25.7277 371.132 28.3597C372.595 30.9499 373.326 33.937 373.326 37.321ZM364.239 34.8144C364.197 32.5584 363.383 30.7619 361.795 29.425C360.208 28.0464 358.265 27.357 355.967 27.357C353.795 27.357 351.956 28.0255 350.452 29.3624C348.99 30.6575 348.092 32.4748 347.758 34.8144H364.239Z" fill="#11243E"/>
<defs>
<filter id="filter0_d_5723_5802" x="17.9434" y="21.3667" width="33.7715" height="28.4954" filterUnits="userSpaceOnUse" color-interpolation-filters="sRGB">
<feFlood flood-opacity="0" result="BackgroundImageFix"/>
<feColorMatrix in="SourceAlpha" type="matrix" values="0 0 0 0 0 0 0 0 0 0 0 0 0 0 0 0 0 0 127 0" result="hardAlpha"/>
<feOffset dx="3" dy="4"/>
<feGaussianBlur stdDeviation="1.5"/>
<feComposite in2="hardAlpha" operator="out"/>
<feColorMatrix type="matrix" values="0 0 0 0 0 0 0 0 0 0 0 0 0 0 0 0 0 0 0.05 0"/>
<feBlend mode="normal" in2="BackgroundImageFix" result="effect1_dropShadow_5723_5802"/>
<feBlend mode="normal" in="SourceGraphic" in2="effect1_dropShadow_5723_5802" result="shape"/>
</filter>
<linearGradient id="paint0_linear_5723_5802" x1="2.85714" y1="-5.2044" x2="77.4286" y2="93.0242" gradientUnits="userSpaceOnUse">
<stop offset="0.373525" stop-color="#8176FF"/>
<stop offset="1" stop-color="#41BBFF"/>
</linearGradient>
</defs>
</svg>
